<mxfile host="app.diagrams.net" modified="2021-07-29T12:09:37.470Z" agent="5.0 (Windows NT 10.0; Win64; x64) AppleWebKit/537.36 (KHTML, like Gecko) Chrome/84.0.4147.135 Safari/537.36" etag="pEuAkF6ZSNOzfrS2Npdk" version="14.9.3" type="github">
  <diagram id="ACTRYl32FHSb8f4QQA8l" name="Page-1">
    <mxGraphModel dx="2272" dy="723" grid="1" gridSize="10" guides="1" tooltips="1" connect="1" arrows="1" fold="1" page="1" pageScale="1" pageWidth="850" pageHeight="1100" math="0" shadow="0">
      <root>
        <mxCell id="0" />
        <mxCell id="1" parent="0" />
        <mxCell id="fjhbrqA5ZPaVyCeerL4o-3" value="&#xa;&#xa;&lt;span style=&quot;color: rgb(0, 0, 0); font-family: helvetica; font-size: 12px; font-style: normal; font-weight: 400; letter-spacing: normal; text-align: center; text-indent: 0px; text-transform: none; word-spacing: 0px; background-color: rgb(248, 249, 250); display: inline; float: none;&quot;&gt;USER&lt;/span&gt;&#xa;&#xa;" style="rounded=0;whiteSpace=wrap;html=1;strokeColor=#000000;" vertex="1" parent="1">
          <mxGeometry x="-160" y="148.75" width="1120" height="547.5" as="geometry" />
        </mxCell>
        <mxCell id="fjhbrqA5ZPaVyCeerL4o-6" value="" style="shape=cylinder3;whiteSpace=wrap;html=1;boundedLbl=1;backgroundOutline=1;size=15;" vertex="1" parent="1">
          <mxGeometry x="590" y="365" width="70" height="90" as="geometry" />
        </mxCell>
        <mxCell id="fjhbrqA5ZPaVyCeerL4o-7" value="cache server&lt;br&gt;Redis" style="rounded=0;whiteSpace=wrap;html=1;" vertex="1" parent="1">
          <mxGeometry x="380" y="370" width="120" height="80" as="geometry" />
        </mxCell>
        <mxCell id="fjhbrqA5ZPaVyCeerL4o-8" value="&lt;b&gt;Has this quey been &lt;br&gt;exceuted before ?&lt;/b&gt;" style="text;html=1;strokeColor=none;fillColor=none;align=center;verticalAlign=middle;whiteSpace=wrap;rounded=0;" vertex="1" parent="1">
          <mxGeometry x="360" y="340" width="160" height="20" as="geometry" />
        </mxCell>
        <mxCell id="fjhbrqA5ZPaVyCeerL4o-9" value="&lt;b&gt;store result of query&lt;br&gt;on cache server&lt;/b&gt;" style="text;html=1;strokeColor=none;fillColor=none;align=center;verticalAlign=middle;whiteSpace=wrap;rounded=0;" vertex="1" parent="1">
          <mxGeometry x="370" y="460" width="140" height="20" as="geometry" />
        </mxCell>
        <mxCell id="fjhbrqA5ZPaVyCeerL4o-20" value="" style="shape=singleArrow;direction=south;whiteSpace=wrap;html=1;strokeColor=#000000;fillColor=#000000;rotation=90;" vertex="1" parent="1">
          <mxGeometry x="540" y="400" width="10" height="65" as="geometry" />
        </mxCell>
        <mxCell id="fjhbrqA5ZPaVyCeerL4o-24" value="" style="shape=singleArrow;whiteSpace=wrap;html=1;strokeColor=#000000;fillColor=#000000;" vertex="1" parent="1">
          <mxGeometry x="510" y="395" width="70" height="10" as="geometry" />
        </mxCell>
        <mxCell id="fjhbrqA5ZPaVyCeerL4o-31" value="MongoDB" style="text;html=1;strokeColor=none;fillColor=none;align=center;verticalAlign=middle;whiteSpace=wrap;rounded=0;" vertex="1" parent="1">
          <mxGeometry x="580" y="340" width="90" height="20" as="geometry" />
        </mxCell>
        <mxCell id="fjhbrqA5ZPaVyCeerL4o-33" value="" style="shape=image;verticalLabelPosition=bottom;labelBackgroundColor=#ffffff;verticalAlign=top;aspect=fixed;imageAspect=0;image=data:image/png,iVBORw0KGgoAAAANSUhEUgAABLAAAALeCAYAAAC6D+jfAAAABGdBTUEAALGPC/xhBQAAACBjSFJNAAB6JgAAgIQAAPoAAACA6AAAdTAAAOpgAAA6mAAAF3CculE8AAAABmJLR0QA/wD/AP+gvaeTAAAAB3RJTUUH4QgXBx8ToNkfpQAAgABJREFUeNrs3Xl8XHW9//H398xkmi5pS9kUZCsIYik0cyatFZWoiIqguJSr97LIIqvQggj8FKUIKF4UWhZZZBNQtMUV3K6odcHaZs4Ei1VExIWlrN2yzHrO9/dH0jZJkzTLTHJmzuv5eIjNZDIz53P293zP5xgBAAAAwDhobGx8o+M450p6u6SZktZLekLSNxoaGr6zYsWKHFUCAEiSoQQAAAAAxvo8xHXdiyVdLSk2wHOetdZemclk7pAUUDIAiPiOgxIAAAAAGEvJZPLLxpiLh/Jca22LpE9lMpnfUTkAiC4CLAAAAABjJpVKNVtrfzXccxFjzPdKpdKljz322N+pIgBET4wSAAAAABgrr33ta2+SdOAI/vRgx3HO2nPPPV+3yy67rH7xxRc7qCYARAcjsAAAAACMiVmzZiXq6+s7Nfov0jdIuiqXy920du3aApUFgNrnUAIAAAAAY6G+vn4vlecqkJ0kfbW+vv4vrusuEF/MA0DNI8ACAAAAMFamlfn19pe0zHXdP7qu+xbKCwC1iwALAAAAQLWbK+l3rus+1NTUNJNyAEDtIcACAAAAUCuOCYLgr67rLp0zZ850ygEAtYMACwAAAEAtSUg6PxaL/cN13UsOOOCACZQEAKofARYAAACAWjRD0jXTpk1b093oHQBQxQiwAAAAANSyA9XV6H1lY2PjfMoBANWJAAsAAABAFLzJcZxHXdddNmfOnH0pBwBUFwIsAAAAAFFhJC2IxWJ/cV33Gtd1p1ESAKgOBFgAAAAAomaipEsk/cN13YXNzc1xSgIA4UaABQAAACCqdpa0pK2t7XEavQNAuBFgAQAAAIi6N0halkqlHmlqappDOQAgfAiwAAAAAECStfadQRB4rusuc113byoCAOFBgAUAAAAAvc+RFkj6q+u61xx++OENlAQAwrFxBgAAAAD0NknSJblc7olkMnnGggULYpQEAMYPARYAAAAADGwPY8xtTz/99JpUKnU05QCA8UGABQAAAAA79kZr7Y+TyeQvksnkoZQDAMYWARYAAAAADJEx5khjTGsymby3qanpNVQEAMYGARYAAAAADPM8yhhzYhAET6VSqcXz58+fSEkAoMIbXkoAAAAAACMy2Vp7eaFQeDKZTJ7B+RUAVA4bWAAAAAAYndcZY25zXXd1U1PTEZQDAMqPAAsAAAAAysMNgmBFMpn8RVNT0yzKAQDlQ4AFAAAAAGVkjDkyCILWVCp126GHHrobFQGA0SPAAgAAAIDyq7PWnlFXV/c313UvaW5urqckADByBFgAAAAAUDnTJV3T1tb2ZCqVOkmSoSQAMHwEWAAAAABQeXtZa7+RTCZXJZPJt1IOABgeAiwAAAAAGCPGmCZjzG9d133Idd39qQgADA0BFgAAAACMvWMk/TWVSt3muu4ulAMABkeABQAAAADjo85ae4akv7mue8kBBxwwgZIAQP8IsAAAAABgfM2QdM20adMed113gWj0DgDbIcACAAAAgHB4vaRlruv+oamp6c2UAwC2IcACAAAAgHB5UxAEv3ddd9ncuXP3oxwAQIAFAAAAAGFkJC3wff8J13WXuq47jZIAiDICLAAAAAAIr4Sk8yU9kUqlPkI5AEQVARYAAAAAhN9rrLXLU6nUbc3NzXHKASBqCLAAAAAAoEpYa89oa2v7JudyAKKGjR4AAAAAVJfjXde9ljIAiBICLAAAAACoPhekUqn3UgYAUUGABQAAAADVx1hrb3Rdt45SAIgCAiwAAAAAqE77W2tPoAwAooAACwAAAACq1+mUAEAUEGABAAAAQJUyxsw/7LDD9qQSAGodARYAAAAAVC8Ti8XmUQYAtY4ACwAAAACqmDFmFlUAUOsIsAAAAACguu1MCQDUOgIsAAAAAKhukykBgFpHgAUAAAAAAIBQI8ACAAAAAABAqBFgAQAAAAAAINQIsAAAAAAAABBqBFgAAAAAAAAINQIsAAAAAAAAhBoBFgAAAAAAAEKNAAsAAAAAAAChRoAFAAAAAACAUCPAAgAAAAAAQKgRYAEAAAAAACDUCLAAAAAAAAAQagRYAAAAAAAACDUCLAAAAAAAAIQaARYAAAAAAABCjQALAAAAAAAAoUaABQAAAAAAgFAjwAIAAAAAAECoEWABAAAAAAAg1AiwAAAAAAAAEGoEWAAAAAAAAAg1AiwAAAAAAACEGgEWAAAAAAAAQo0ACwAAAAAAAKFGgAUAAAAAAIBQI8ACAAAAAABAqBFgAQAAAAAAINQIsAAAAAAAABBqBFgAAAAAAAAINQIsAAAAAAAAhBoBFgAAAAAAAEKNAAsAAAAAAAChRoAFAAAAAACAUCPAAgAAAAAAQKgRYAEAAAAAACDUCLAAAAAAAAAQagRYAAAAAAAACDUCLAAAAAAAAIQaARYAAAAAAABCjQALAAAAAAAAoUaABQAAAAAAgFAjwAIAAAAAAECoEWABAAAAAAAg1AiwAAAAAAAAEGoEWAAAAAAAAAg1AiwAAAAAAACEGgEWAAAAAAAAQo0ACwAAAAAAAKFGgAUAAAAAAIBQI8ACAAAAAABAqBFgAQAAAAAAINQIsAAAAAAAABBqBFgAAAAAAAAINQIsAAAAAAAAhBoBFgAAAAAAAEKNAAsAAAAAAAChRoAFAAAAAACAUCPAAgAAAAAAQKgRYAEAAAAAACDUCLAAAAAAAAAQagRYAAAAAAAACDUCLAAAAAAAAIQaARYAAAAAAABCjQALAAAAAAAAoUaABQAAAAAAgFAjwAIAAAAAAECoEWABAAAAAAAg1AiwAAAAAAAAEGoEWAAAAAAAAAg1AiwAAAAAAACEGgEWAAAAAAAAQo0ACwAAAAAAAKFGgAUAAAAAAIBQI8ACAAAAAABAqBFgAQAAAAAAINQIsAAAAAAAABBqBFgAAAAAAAAINQIsAAAAAAAAhBoBFgAAAAAAAEKNAAsAAAAAAAChRoAFAAAAAACAUCPAAgAAAAAAQKgRYAEAAAAAACDUCLAAAAAAAAAQagRYAAAAAAAACDUCLAAAAAAAAIQaARYAAAAAAABCjQALAAAAAAAAoUaABQAAAAAAgFAjwAIAAAAAAECoEWABAAAAAAAg1AiwAAAAAAAAEGoEWAAAAAAAAAg1AiwAAAAAAACEGgEWAAAAAAAAQo0ACwAAAAAAAKFGgAUAAAAAAIBQI8ACAAAAAABAqBFgAQAAAAAAINQIsAAAAAAAABBqBFgAAAAAAAAINQIsAAAAAAAAhBoBFgAAAAAAAEKNAAsAAAAAAAChRoAFAAAAAACAUCPAAgAAAAAAQKgRYAEAAAAAACDUCLAAAAAAAAAQagRYAAAAAAAACDUCLAAAAAAAAIQaARYAAAAAAABCjQALAAAAAAAAoUaABQAAAAAAgFCLU4LoaWxs3DUWi6Uk7WGt3UVSzhjzku/7fznggAP+vHz5cp8qAQAAAACAsCDAioh58+ZNLZVKn5D0P5IarbW9fm+tleM4evrppze5rvsDa+2tmUzmj1QOAAAAAACMNwKsGjdr1qzEhAkTFpZKpUslzRjCn0yTdLIx5mTXdX8SBMGnW1tb/0IlAVSbBcsWxOo3lQ4sxbRb+/qOF/NWz/zfp/+vg8oAAACEX1NTU5O19qggCBqNMXt1n6u2S3pB0hpr7W+MMb/yPK9ItaLBUILalUqlPmCt/YqkA0bxMiVJtyQSicUrV65cT1UBhNnHbvvgWyYmEp+rT9TNq08kpjpyjNQ14tS3Vhs2t7XlcqV1Jb9wf4cJ/ven5/80T9UAVLvDDz+84cUXXyw89dRTod+mua6blOQx18ruDs/zPkEZUO1mzZqVmDhx4inW2ouGeB77avf56vWcr9Y+AqwalEqlDgmC4HpjzJFlfNn1xpjLp0yZcuuKFStKVBlAmJx860feOWFy4s6pEyfuY3rs2rqulu4KsLb8c3NbVkEpUCEoFbPF/Df+OeH5c7wz+eYOQNWc3E2pr69/v6RjJKUk7a9tN2bqlPS4tfYPjuN8N51O/2HrRjAkCLAqhgALVc913eMkfaV7uzZcm4wxV1hrb2JEVu0iwKohc+fO3dn3/S9IOkOVuzx0raQLPc/7PyoOYLydeO8Hd6vz65bNaGg4whiz3WlafwFWqeSrrS3XtQM0UsEv5TryHZd9b9FPv0pFAYTVnDlzpsdisQslna+uy2iG4nFjzBfS6fR3FZIgiwCrYgiwULVc151tjLneWvvOMrzcE9baCzKZzM+obO0hwKoBzc3N8c2bN59qjLla0i5j8Z7W2kdisdiilpaWtcwBAGPOyjnl7g/fMn1Kw+l18Zgja9Qjq+qxrdr2YM/fd3TkVSiUZHrsBbPF/LpcMf/R7y36yW8pMIAQcVKp1AnW2msl7TbC47aW7uO2P4TgRJUAqzIIsFB15s+fP6NQKFwu6RyVeQCGtfYRa+1C+jnXFgKsKtfU1HRkEATXSzpkHN6+KOkWSZ/3PG8TcwPAWDjh6x88ZaeGKUsnJhIN245ShhdgBUGgTZtzkrW9QqzAWnXkc17Jzx37vQt+vo5qAxhPqVSq2Vq7RNJh5Tifk/SgpIs8z/vPeE0TAVbFEGChavQYgHGVpF05X8VQEWBVqTlz5rw+FotdLWlBCD7Oq5KunDlz5k3Lly/3mTsAKuHke97nToxPXTZ18qSZW0/Ftp6WDS/AkqyyuaJy2eLWSwl7KgV+0FbIP7B+9uaPr3g7ff8AjK2mpqa9fN+/2hhzQgWO1zuMMV+ZMmXKNStWrMiN9bQRYFUMARaqQmNj4zsdx7le0mzOVzFcBFhVprv/waWSFkmaELKP99fu641/zpwCUC4L7nj3jKkTpt6/05Qp74nJMT0yqG1GEGAFkto25RQEQb8hliQVS6WOjmLhou8u/NGtzAkAlea67iRjzMXW2ksk1Vf47Z4xxlyWTqfv0xj2xyLAqhgCLIRaMpk8wBjzRY3vAIyMpIWe5/2eOVKdCLCqx6j7H4yhhx3HWdjS0vI0sw3AaJx810eunDF10qWJeDwudTVpL1eAZSUVC746OrruOm/MQDtKo85C/tm2UueHHlr0sxbmCoBKHJO7rvsRdd19a+8xfu8VQRAsam1t/dNYvBkBVsUQYCGUDj300MmJROLT1tpLFY4BGFbSg0EQfLq1tfXfzKEq21lSgvBzXfftkq5XefofjJWCpFvj8fjnVq1atZm5CGA4Pn73h/57yqSJX5tcP2HattCp/AGWrNTRnlex1DWavP8Qy8h0/0VbPvtoNh8c99BFD73CXAJQDo2NjSljzFJjzJvH8WME1tpv1tXVfXrVqlUvVvi4lgCrMgiwEDZbBmD8r6TdQ/j5Oo0x147X5dQYGQKsEOvR/+DEKp6MddbaxZlM5g5JAXMVwGA+fuuHX5+YEl8+o2HyYVLf0KkyAVYQBNrclu9q6D7gntFsDbeKfqnUXsjf9t3zfnSeTDhuSw+g+jQ2Nu4Ri8Uut9aeLskJycfaKOmaTZs2LXnqqafylXgDAqyKIcBCaKRSqbnW2qWS3lQFH3fL5dT3MufCjwArhHoMsxyL/gdjxZO0iOuNAfTn2IeOnbTrxvr7ZzRMOi7uxLbGQmMRYElSNltQPl/atmM0/e0wTa/Hc8XC5vZC7twfLPrx/cxBAEM1a9asRH19/dmSrpTUENKP+XdJn/U8b3m5X5gAq2IIsDDu5s2b97pisfjFCt2AotJ+ba1dlMlk1jAnw4sAK2TzI5VKnWit/bKk19ToND7s+/55jz322L+Y3QAk6eR7PnTxTg2TvlCfSEzYGjCNcYAVWKu2tpxs0PXAYP2weu45rayyhcLT+Xzx/d+98KG1zE0Ag0kmk8caY5ZImlkVB6bG/FLSonQ6/edyvSYBVsUQYGHcuK47SdJ5ki6TNKWKJyWw1n7TWvup1tbWl5mzIdwvUYJwSKVScyUtsdbOj8Dkdkq6MZfLXbV27dp25j4QTR+/+4PvmTJ5wr0NEyfuarfsksYpwLKSCoWSsp2FHidu/e82+xuhFdjAduTzv8xOCj70o9N+1MbcBdBTMpk82BhzvaR3V+HHLxlj7rLWftbzvFH3/yPAqhgCLIzX9u1YY8wNkvatocnaIOmKhoaGm1esWFFiLocHAdY4O+yww/aMxWJfqtJhlqP1nDHmM2N9+2YA4+vErx+736RJE781feqkNzmmZyg1vgGWJLW35eT7wbYd5A76YW13luf7xfZC9roHz3/oUuY0gPnz588oFAqXSzpXUqzKJ2e9pC+M9oSOAKtiCLAwprrX5aWS3lLDk/mEtfaCTCbzM+Z4OBBgjd8KXyvDLEfNWttirV3Y2tq6kiUDqF3Ni5vjM/efcfOMhimn18Vj2xoWhyjA8kuB2ttzvXeSQ+iH1XfHmisV1neWCqd997yHfsCcByJ5nFdnrT3FGHO1pF1q7YTOGHNhOp3+6ShOegmwyo8AC2O1fdtF0udUG8H8UD3sOM7ClpaWp1kCxhcB1jjU3HXdj0n6sqTXUY6tAmPMN4wxn2lpaXmBcgC15eR7P/SpaZPrr5pUn6iX3XohXpcQBViyVtlsUYXCtsEFQ+2H1WvHarb0x8r/tRTouO988vtPshQA0ZBKpY621l4n6aAan9QfSLrI87x/DOePGhsb3+Y4zm9YUsqOAAsVdcABB0yYNm3aIkmfVXhvQFFJOWvtV0ul0pfWrFnTwRIxPgiwxlBTU1OTtXZpRPpcjVSbpC9u2rTp+krdvhnA2Dn5nuPeOXFS4p7pkye+butuJ+QBVmC7LiW0dtuLDacf1taHuh/3rbXt+ewPJr2y6b/vWbwix1IB1CbXdd9grb3OGPPeCE12XtKS+vr6qx999NG2IdbpPEk3sMSUHQEWKrl9O07SVyTtTzX0nLX2kkwm8y3RBmfMEWCNgcbGxj0cx/mipBMlOVRkSJ621n46k8l8j1IA1efEez+424SYWbbT1MlHOI7pEViFP8CSpFy+pHyu2HtnOcx+WL3/xqgQlArZfO6qZef96EqWEKB2zJkzZ7rjOJ83xnxSUl1Ey/CCMeaz6XT6HknBICfBdZIykg5hySk7AiyUXSqVOiQIguuNMUdSjb7HmPYP3W1w0lRj7BBgVVBzc3P95s2bLzTG/D9FvM/VKPzaWrsok8msoRRANezN5Zxy/3G37DR10ul1dTFH1nTvbKorwLLWqr2joMAPeu8wh9EPywzwj2yp8GIhn/3YsoU//jULDFC9FixYEPvnP/95urX2Skm7UhFJXb2tFnme9/t+fue4rnuTpLMpU0UQYKFs5s6du3MQBFdYa8+UFKciAwqstffU1dV9ZtWqVS9SjsojwKqQVCr1EWvt/0raj2qMmi/p60EQfL61tfVlygGE00nfeP/J06bU3zhxYqJha0BVrQGWpFLJV2dHofdOc4T9sLbf7Vq1F3J/Kpni+5af/fBzLD1A1R3nNVtrl0g6jGpsx1prv+c4zk0TJkzwOjo6Yo7jvMkYc4mkZspTMQRYGLXm5uZ4W1vb2ZIWS5pBRYZss6Qrc7ncDWvXri1QjsohwCqzZDJ5sDHmeknvphplt1HSNZs2bVpCfywgPP77nve5DZPql02bUj9zy26lFgIsScp2FlQs+r13nKPoh9XzCUaSHwRBRyH34N/rnjnBO9MrsjQB4dbU1LSX7/tXG2NO4DgaIUOAhdGex77DGLNE0myqMWJ/l/RZz/OWU4rKYMdbJnPnzt3Z9/3PK1q3E2XDAETYgjvePaNh8sT7p0+tf0/ciXUnSLUVYAW+VUd7rtfLDvdSwu3/xmz3eKFU7GwrFi7+7id/eDNLFhA+rutOMsZcbK29RFI9FUEIEWBhRJLJ5AHGmC9KWkA1ysNa+0gsFlvU0tKylmqUFwHW6A9o6iSdI+kKSdOoyBguvMb80lp7ged5j1MNYGydeO/7r5wxvf7SRF083rUz2RI+1VaAJSvl8wXl80MZhTX8flhb/9X9Y7aYX5fLF45fvvCh37OUAeE43HBd9yPquvvW3pQDIUaAhWE59NBDJycSiU9bay+VNIGKlF1R0i2SPu953ibKUaadMiUYuaampiODIFgq6Y1UY9yUjDF3+b5/Gf2xgMo74Z5jP9YwNXHLlImJaT13I7UcYMlatXXkZYPeLz66Swl71qr3HjmwVu2F3KN5ow99/+zvv8RSB4yPxsbGlDFmqTHmzVQDVYAAC0POAFKp1InW2i9Leg3lqLhXJV05c+bMm5YvX+5TjlEuvJRg+FKp1EHW2uskHU01QmODpCsaGhpuXrFiRYlyAOX18buPeX1sUnz5TtPqD5MkY02v3UhNB1iSisWSstni9jvQgUKskVxK2Of1SoHvt+eyX1/2yR+dKzPwbekBlFdjY+MesVjscmvt6ZIcKoIqQYCFoZzHzrXWLpX0Jqox5lqttQszmczvKMXIEWANw+zZs3dKJBKXSLpAUoKKhNLfjDEXptPpn1AKYPSOfejYSTPazP07TZtwXDwW25azRCzAsrLq7CjI94Ptd6Jl7ofVV6FU7GgvFhY9+Mkf3sESCVTOrFmzEvX19WdLulJSAxVBlSHAwoAOO+ywPWOx2Je4AUUoPOz7/nmPPfbYvyjF8LHwDkFzc3N88+bNpxpjrpK0KxUJP2vtI9baha2trX+hGsDInHjvMRdPm574woRE3YQ+F7tFMsDyg0Cd7fntdp0j6odl+t8VD3b5YWeh8O+iCh/89tk/amXpBMormUwe2333rZlUA1WKAAvbcV13kqTzJF0maQoVCY1OSTfmcrmr1q5d2045ho4AawcaGxvf6TjO9eJ2otWIxnnACHzs7qPfM21q/N7JU+q7AntrRIDV9Y9crqhiYfv2BaPrhzX4pYQ9H7JGti2b/W0pHv/A8jOXs10DRimZTB5sjLle0rupBqocARb6bt+ONcbcIGlfqhFazxpjPptOp+/b/igW/R9do19z5sx5fSwWu1rcTrQW0DgPGIITv37sfvGp+ta0aRPeFDNm2y6CAGtrgGUDq46O/Jan9d6ZlrMf1oB3Muwa1VXy/VJHPn/btz/5/U+y5ALDN3/+/BmFQuFySedKilER1AACLEiSXNdNSloi6a1UozpYa3/TffXQn6jG4Aiw+pg1a9aUiRMnXsTtRGtSaxAEi1pbW39LKYBtmhc3x/c5aPLN06fVnx6LGWdbvESA1TfAkpUKxZLyueJ2u9Cx6IfVM8SSpGyxsCFfyp/+nXN/9D2WZGBIJ3Z11tpTjDFXS9qFiqCGEGCxfdtF0udEMF+tAmvtN0ul0kVr1qzhLtQa5NgZkiQnlUqdYK39X0m7U46a9nAsFjt/9erV/6QUiLoT7z36ginT6744sT5erx4hFAFW389he33Wzs68Aj/QePXD6vlGVlYd+fzfA0fvf+DM7z7BUg30r6mp6cggCJZImkU1UIMIsCLKdd06SedI+oKkqVSk6m2Q9OVcLnf92rVrC5Sjn+PgqEulUs3W2uslzaEakVGQdGs8Hv/cqlWrNlMORM1/3f3eN01piH1z6tTEzF6BFQFWn597PXvr+/u+r2xnod/d6Nj0w9o+EPODwHYWsg8Xd6n7r+XHL8+ylANd5s6de6Dv+1+VdAzVQA0jwIqg7mD+BkkHU42a8zdjzIXpdPonlEIa5LA4Uiv8Xr7vX83tRCPteWvtFZlM5g5JAeVArTvx3qN2MxPiy3aanjjCMc7WXQEBVq8/2GGAJUm5bEGlkq+hXkpYqX5YfR8v+KVCZyF71bfP/dGVLPGIsjlz5kyPxWKXSlok2kKg9hFgRUgqlTrIWnudpKOpRs17WNIiz/P+QSkiGtoceuihkxOJxKettZdIqmcxgCSve8Pwe0qBmmTlnPjt99wydWri9LpEzDHS1nCJAGtkAVYQWGU7cts+e9+d6xj3w+r7l9lS4ZVcsfg/3zn3B//HCoCI2dIW4lpJu1EORAQBVgTMnj17p0QisVhdlwzGqUhkFCXdwtVD0QuwjOu6H5H0FUl7sx5gu1N86cEgCD7d2tr6b8qBWvGx+486eWpD4saJk+INWzb9BFijD7AkKZ8vqlgo9btLHY9+WH3/0hqr9lzuT9li9pjvnf/TZ1kbUOu620IskXQY1UDEEGDVsObm5vjmzZtPNcZcJWlXKhJZ66y1i6N89VBkAqympqYm3/eXGGPezHKPHeiUdGMul7tq7dq17ZQD1eq/v3mUO7E+vmzKtLqZxvbc5BNglSvAsoFVZ0e++/dj3w9roFFYff/GD4KgPZd78Mn4f07wzvSKrB2oweM82kIg6giwalQymXyHMWaJpNlUA13HlyZtjFnY0tLyh8hNe61P4GGHHbZnLBb7Egc0GIFnjTGfTafT921/WgyE14Jl754xyej+hmmJ98QcYyQjAqzKBFiyVqWir1y+2O9udbz7YfX9SIVSqbOjkPv0d8794ddYU1ALXNedZIy5mLYQAAFWrUkmkwcYY74oaQHVQD+spAcdx/lUS0vLM1GZ6JoNdObPnz+xUCicL+mzkhpYvjEKq621CzOZzB8pBcLufx446sqp0+ouTSRi8Z6begKsygVYVlI2W1DgB/3uWsPQD6vvpYnZYn5dR7HwkQfP/eEfWGtQrcewtIUAeiHAqhE9+jVfKm5AgR3rMMZ8ZcqUKdesWLEiV/M7/1qcqGQyeawx5gZJ+7I8o0ystfb+WCx2cUtLywuUA2Hzsfve87Ep051bJk6KTdsuICLA6ue1yhtgBUGgzo5Cj1FVlemHZQbZe++oH1bf17PWqj2ffTRwisc9cOZDr7AWoVo0NjamjDFLaQsB9EKAVQPn5qlU6kRr7ZclvYZyYJiekvQZz/OW1/RKUksT47puUtISSW9l+UWFRCrhRvj9993HvD7RUFresFP8sJ4hFAFW98NjFGBJXQ3dSwV/wGFSYemH1efZKgW+35HP3vmts39wtkw0G4KiOjQ2Nu4Ri8Uut9aeLsmhIkAvBFhVLJVKzbXWLpX0JqqB0TDG/FLSonQ6/eeanL5amAjXdV9rjFlsrT1NUozFFmPgP8aYz6XT6XspBcbDsQ+5k6Zld75/2k51xzlOV2pBgKVxDbCslTo78j3+Otz9sPqO6sr7pc2dxdwnv332D+5jDUOYzJo1K1FfX3+2pCtFWwhgIARYVYh+zaiQkjHmLmvtZz3Pq6lR9lW9kriuWyfpHElfkDSV5RTj4NdBEFzQ2tr6J0qBsfI/33nnxZOnJr4wYYKZMFAIRYDV/fAYBliSVCiUVMiXBr6UcIA9rxnmyKnBX6v7v0MMsfpmWu357NO5Qum45ef98HHWNoy37rYQSyTNpBrAoAiwqkiPfs2XSZpCRVAh6yV9YebMmTctX77cr4UJqtoAq/uA5npJ+7NcYpwF1tpvlkqli9asWfMS5UClfOxb73zPxCl135g0xey2oxCKAKv74TEOsKyVsp0FBUHQHWIN9VLC8e2H1ffxwAa2PZf7pYoTP/zN87+5mbUP43Ccd3D3cd67qQYwJARY1XUeS79mjKXHgiBY2Nra+ttqnxBThSv8wY7jXGetfQ/LIUJmo6RrNm3atOSpp57KUw6Uy4n3HrWfM8V+a8o0503GOFs33wRYPSYxRAFW4PvKZosDjsKSwtsPq+9rFUqlYkchf923z/n+payJGAvz58+fUSgULpd0rmgLAQwHAVbI0a8ZIfCw7/vnPfbYY/+q1gmomgCLAxpUkSclXVbrd4BA5S1evDj+1Bt/f/OUnWKnx+LGGU4IRYDV/fA4BFiSVT5XUqnkl+1Swu3/prL9sPr+Tb5YWN9ezJ627JyHfsCaiQqd2NVZa08xxlwtaRcqAgwbAVZIzZ07d2ff9z/PeSxCIivphlwud9XatWvbq+3Dhz7A4oAG1cpa+4jjOBfU6h0gUFn//Z2jLpg8VV9M1Jv6LZtrAqzqCbCstcp2FmStBg6xRnIpYf//qFg/rN7FlDry2T8Hnc4H779w+VOspSiXpqamI4MgWCJpFtUARowAK4Tnserq13yFpGlUBCHznDHmM+l0+r7tj6DDK9QBFgc0qAE1ewcIVMZHHzhq3sRJ+takqWZm3801AVb1BFiSVCz6KuRLXZ98WP2whnopYc96D7xXH20/rL4/+kFgN+ezP9hln9zHbjz6p1wujRGbO3fugb7vf1XSMVQDGDUCrPCdx94g6WCqgZBbJWmh53mrquHDhjLA6j6guU7S+1ieUCPWS/pCQ0PDzStWrChRDvR14r1H7WYma9mU6eaIrW2u+myuCbCqK8CyknIdBQXWDvtSQskMMkJL49IPq++75YNioa0zd+WyT/7gKtZgDMecOXOmx2KxSyUtkjSBigBlQYAVAqlU6iBr7XWSjqYaqCJVc1OyUAVYs2fP3imRSFwi6QJJCZYj1KAnjDEXptPpn1IKSJKsnBMePOork6ea8+OJwfoiEGBVW4AlSaVSoHyu2PXpa6Qf1rbHu/7VWci/mC8W/+uBc77/G1Zo7ICTSqVOsNZeK2k3ygGUFQEW57HAaG2UdE0ul7t+7dq1hTB+wLAEWBzQIGoelrTI87x/UIro+p/vHHXyxCnmxgmT1DCUzTUBVvUFWFZSPluU7wddU1DOflgDNKyqdD8s088Ht7Jqy2X/VIoXj/72aT96nrUbfaVSqWZr7RJJh1ENoCIIsMZBc3NzfPPmzacaY66StCsVQY14UtKFnuf9OGwfbNwDrGQy+Q5jzPWSDmU5QcQUJd0i6fOe522iHNHx0QeObJw4yXlw+z5Xg2+uCbCqM8CyvlU2W5Rke4RL5e6HteNLCbf9Tfn6YfX94H7g++3ZzgeeiD1zqnemV2RtR1NT016+719tjDmRagAVRYDFeSxQVtbaR6y1C1tbW/8Sls9kxnGFP8AY80VJC1g0EHGvSrpy5syZNy1fvtynHLXrtGXvnlGK2/snTdN7HMcMc/tLgFWtAZasVCyUVCx2rd5j1g9rGKOw+n+ZoffD6jtCK18sdrYX8p/69jnfv5U1P5pc151kjLnYWnuJpHoqAlQcARbnsUAlFCXdEo/HP7dq1arN4/1hxjzAOvTQQycnEolPW2svFY07gZ4yQRBc0Nra+ltKUXv+5ztHXTllurk0nlB8pJtrAqzqDbAkq2y2IBt0T0kV9cMygxw19O2H1ffxjkJuXYef/fDysx5eyVYgMozruh+R9BVJe1MOYMwQYI3deSzBPKJonbV2cSaTuUNSMG4HGWP4Xlv6XH1Z0muY/8CAHo7FYuevXr36n5Si+p3wnfd8rL7B3jJhoqaNdnNNgFXNAZZUKvkq5LfdhHTc+2GN5FLCPr8zg3zwLT8FNlBbLveobwrHPXDmQ6+wVahdjY2NKWPMUmPMm6kGMOYIsCp4zpxKpU7kPBaQJHnGmIXpdPrRcVkZx+JNXNedJ2mJpDcxv4EhyUq6ob6+/upHH320jXJUn/+++12vnzDDLJ801ZSpYTEBVrUHWFZW+WxJQRBsq9y49sMa6qWEvefgUPth9Q29ir7vt+c77/zWmT84S6bvnEI1a2xs3CMWi11urT1dkkNFgHFBgFUBqVRqrqQl1tr5VAPodYj7oKSLPM/7z1i+cUUDrHnz5r2uWCx+0RhzgsJzx0Ogmjxvrb1ivIdqYuiOfcidNCO38/2TZpjjHKec2z0CrFoIsILAKp/d1ts8jP2wBgqwBv7d4P2w+v6QKxU3dxZy5z5w1g/uZ4tR3WbNmpWor68/W9KV0lDupgqgggiwyuiwww7bMxaLfYnzWGBQncaYa6dMmXLNihUrcmPxhhVZGXs07rxY0kTmKzDKFdWYtKRF4zVUE0Nz8vJ3XzyhQV+om1CJ/n4EWLUQYElSIV+SXwp6rN/975JrrR9Wr0VKVp35/NN5m3v/A2c8tJatR/VJJpPHGmOWSJpJNYBQIMAqg/nz508sFArnS7pM0hQqAgzJM8aYy9Lp9L0VPy8u9+t1N+68VtI+zEegrKykB4Mg+HRra+u/KUd4/M+333vUpMnBfYkp2q2Sm2sCrNoIsGwg5bNF9fzLquyHNcRLCQf5SLJWti3X+ctNG4sf+tElP+Jy6SqQTCYP7r5t/LupBhAqBFij374da4y5QdK+VAMYkV9JWuR53uOVOyMqk8bGxpTjOEskHc58Ayqq0xhzbV1d3ZdXrlyZpRzj5+MPvGdfM1EPTJxq32QqPricAKtWAixZqVQMVCyWeu+Mx6kf1kCjsPr/m6FeSqhB+2H1nZKCXyp05LLXffPs7/8/tizhNH/+/BmFQuFySedKilERIHQIsEbIdd2kuvo1v5VqAKNWMsbc5fv+Za2trS+X/4xolGjcCYybZ40xn02n0/dtf9qOSlq8eHH8n4f88eZJ03S6E7djtN0jwKqlAEtWyueLCoIhjMIacG9d/f2wei8bUraQX99W6Dxt2TkP/YAtTWhO7OoknSNpsaTpVAQILQKsYZo7d+7Ovu9/XgTzQCWsl/SFhoaGm1esWFEq3xnRCPW4PvizonEnMJ5WWWsXZTKZP1KKyjvxwaMumDjFfLFugurH9p0JsGoqwJJU8q2K+WLvuRzBflh9X81Kas9n/1wsBh/41jnffZqtzvhpamo6MgiCJZJmUQ0g9AiwhqhHMH+FpGlUBKioJ7rPVX9enjOiEei+PnippP2YH0AoBNbab8ZisYtbWlpeoBzld+IDR81LTHa+Vd9gx6lhMQFWrQVYVl0N3QO/9w1GK90PywxyBDCe/bBMn+FapcC3bdnsD2bsnf3YjUf/NM9WaOzMnTv3QN/3vyrpGKoBVA0CrCHoDuaXSnoj1QDG1MOxWOz81atX/3N0Z0TD4Lpu0hhzvbX2bdQfCKUOY8xXxvJWprXuxHuP2i3e4CybONUeYcb1ImkCrFoMsKy1ymdLvf6m9vphDe1SwoFGdRVKpVxnsfC5+8948CtskSprzpw502Ox2KWSFkmVuJsqgAoiwBpEKpU6yFp7naSjqQYwbrKSbqivr7/60UcfHdHNe4YUYHF9MFB1npL0Gc/zllOKEbJyTv7ue74ycZrOi8VtfPw/EAFWLQZYklQslOSXhjgKa8A9d8j7YY1kFFaP3xlJnfn8i52Fwn89cM73f8MGquycVCp1grX2WqmSd1MFUEEEWP2YPXv2TolE4hJJF0hKUBEgFJ4zxnxmJL2cBw2wuD4YqHq/stZekMlk1lCKoTvpwfecXD9JN9ZNtCHq70eAVasBlg2s8oWiFPSZ42Xqh2UG/kfo+2H1/WdgrdrzWS/vFN7/7dN+9Dxbq9FLpVLN1tolkg6jGkBVI8DqbUsw/xVJu1IOIJRWW2sXDqeX84ABluu6R0m6WdIB1BWoaiVJt+Ryuc+sXbu2nXIM7KQH3ttYN1nfrG8IDg7fpyPAqtUAS9bKLwUqFv3t53pU+mGZfqajn99t+Wcx8P3ObPbe7IzYJ5Yfv9xn6zV8c+fO3a9UKl1rjPkw1QBqAgFWt+4+V9dLOoRqAKEXSLqzWCxetmbNmpd2fEbUR3Nzc7ytrW2ppLM1irsUAgidf1prF2QyGY9S9HbGsgXTion2+yY2BMcYJ6zbPQKsWg6wJCmfL8oOcRRW79/1WU76f3pV9cMyg6RgPX+T80sd7dncpx44+3u3sSUbmlmzZk2ZOHHi/7PWXiiN9d1UAVRQ5AMs13X3l/RVSR9gcQCqziZJX5B0o+d5xYHPiHqYP3/+xGKx+D1r7XuoH1CT2o0xH0qn07+gFF3ef8P7PvSa1/sP1NXbkPdFIMCq9QArCKzy+eJ24Q39sDRw6NX9em3Z7D9Kjn3f/act/xtbtYE3IqlU6kRr7Zck7UE5gJoT2QBr1qxZifr6+sskXSxuQAFUu78GQXBaa2vryv5+2fOeWk4+n7+P8AqoaVOstd9LJpNu1Avx3hveO/W469/3HSfQdzs3ODT1xLgzjlEs5mzXydL2m9gN1vHSDt4Os5/XswO8oB3g9fr/SAM9qe/fDDIdtuc/7QCPb1+ghokT959aV/+X/779uCtZkrbnuu4813VXWmu/IcIrADWksbFxn/r6+tWSPifCK6AWHOw4zu9SqdRn+/ul0+Pg5kL6IACRMMUY8+Dhhx/eENUCvP/G9+9Rb2O/M8YcL0ntLxv5RRYMjL94XVz9JUl2gEBqwMcHCLHsjh4ZLMQa6C/tdu+8Y3ZoN5wZcoglq5jjODtPmnbZiV//8HdZkrocfvjhDclk8lZJKyXNoyIAakljY+MbHcdZKW5CAdSamLX2Ktd1v7bdLySpqalpprV2uaQ6agVEwvRSqTR53bp1P4vahL/3hvdOTVjziKTDZCRjjIw1CkpGE6fZEH/yvpfxDf7zdpcQDuNvd/xzn0sCR/Vz72ncUQ1G9rvqYUxXbfwgGPKlhL1/12eZGcmlhP28RTX0w9oysTFjDm6Yt9Mz//rlv1ujvJGfM2fO64Mg+K0x5ijR0xSIgsy6deseisrEuq77WmPMryW9jlkP1KymPfbYI1i3bt1vtzzgSFIQBJ+TNJH6AJFy5rx58yK306+3sXvU95s6I2U3OipmOcfD+IvFHRmZ7cYyDXQp4UAPDXYpYd9+YIO+jAa+lHAHz+73RQd6tyFdSjjo23Y9b92mDfKtvfWtV781GdVlKJlMHhyLxR4Vd5IGUJuMpLsl7UMpgJq32HXdt2z5wXFddxdJ/0NdgMiZUCqVzozSBH946bHHG+mDA8VUm9fFWCoQCvFErN+8aLj9sOwwQ6et/6pwP6x+JmjQlxjqpYTZQl4bOzokqc4Y3d28uDketWWnsbFxV2PMTyTtypoEoBYlk8n/lvRuKgFEgiPp6wsWLIhJkmOt/ZC4dBCIquOjMqELli2IBdIXur60M93/7S3fbpRrc1gqMP57ascoFjMqTz8sDRxIDanZe9+HRt8Pyw7lg2/3NzsOsZ7f+GrP5x1qE6WPRW/ZcW6StC9rEYCaPJ5bsCBmjLmcSgCR8oZ//OMfH5MkxxjTTD2AyDqwsbExEneksi/kP2CMDtr2SO8ga0uYtXmdM9TzaaCiYnVbRmENKQYa8KEdvsIwLiUc0lvbYT7e5we7w+np/2/acp1qz+X6PMl8KkrLTFNT05GK0BcTAKLnH//4x7skvZ5KANFijDlL6hqOlaQcQHQ5jtMYhem0sh816u7zvF236G1Np/2cUXYjo7AQih214nVOvyHWoJcSlrMf1jAuJRzk1Yfw4+j6YVlZrdu4ob93P+ytX3zrG6OyzARBwKgEALW+b/wIVQAi6c3z5s17nSPpNdQCiPSBQO1vA6yMZN6xdZo1eJDVvs6RDVg2MP5i8VjXwlrl/bCGNKpqFP2wNnZ0KFss9PuyjuyRUVhWUqnUQZLewloDoMa9lRIA0TxtLRaLb3YkNVALILqstdNqfRo/uuS4fSTtrD6drwYKsvySo45XaOiOcIjHt4wIHOolg2PZD2uQx8eoH5YNrF7ctGGQ55pIjDS31n6QtQVALZs/f/5EcXdVILKMMbMddV1GCCDC24Jan8BCPNizn+iq9099gqz2lxz5JcPSgXEXizkyzgCXEvbzr8EeKn8/LDus4KsS/bBead+kgl8a7EPsEZFF5U2sLQBqWalU2oVzVyC6rLW7OhriBQUAULUBQLBtpOlQgywbGHW8yCgshEM87mwNmIZ1KeE49cOyA7/6EH4c+qWEfhDo5bbNO6iemR6RxeRg1hQAtSwIgslUAYguY0yDowiMvgAwqNoPsY1ifbd0QwmyOjc4KuXYRCIEi7BjFIuZ7iDJhrMf1kB/WcF+WC+2bVAp8Hew+kfm2/oZrCkAavqA1VoOyoCIYwQWABONiTRdqdQwgixZqY1RWAiJWDwuY8y2hXO7I/uBDvgHeHywlxlmP6wdfiQ7gpfYQT+sol/Sq21tLBjb1FMCAABQy7iGGEBkQuyueGp4QVZ+s6NiB1/4IQTLr5FicdPjUsLw9MMa6FLCHTy73xcdaj+sdZs2DDIFAAAAqDWMwAIif1JsIrcN2C7IMn1/1/unzS8wCgvhEIs5MkbV2Q9rsGsHh9kPK1fMa3NnJwsEAABAhDACC0BkbQ2yNHiQVeyMKbeZzSXCIVYX09bRU7XUD2vAt91+OtZt2sjoKwAAgIjhjAxA7YsP/uuhBFlt6+I7askDjM2O2xg5Ts/dd430wxripYRtuaza81kWBAAAgKgdB4tLCIFIC4IgGtuAPsHUwE/pP8gKCkbZV7mUEOHQexRWFPph2a2f8sXNG1kAAAAAIogRWACiZRRBVvvLcdmAhu4Ix2LsxLu+g4pMPyxrtbGjXblingUAAAAgggiwAEQ3ARhmkGV9qeMlRmEhHOKxWNeNCKRx7Yc10AuWux9WYK1eatvIjAcAAIgoLiEEIi6KdyHsXQANK8jqXB+TX2QUFsIhFu+7Gx/7flh2B+9Trn5Yr3ZsVtH3mekAAAARxQgsANFgrAbN64cYZCkwan8pTj0Rjp24MTJO30sJa68flh8EerltEzMcAAAgyse+lABAZBj1CLLsIM8Z/GXyG2IqZhmFhZDsyGNOjxbnqng/rN4vMzb9sF5u36iA24ACAABE+7hXXEIIIGq2hlQjD7I6XqyjjgjH4my6RmL10k/YM+glg/0+boc4aKuy/bAKpZLWt7czowEAACKOEVgAohtijyLIKrQ7KrSzCUVIFuW4I9u9LNutK/bQm1KFuR/WS5s3DKHFOwAAAGodI7AAYIRBVvsL9MJCeBbhmNPfpYR9LhkcLGEa6FLCAYxFP6zOYkGbcp3MYAAAADACC0CEzvCH8pyhBllGKuUc5TbGqC3CsYg7XXfLHFU/rH7YceyH9dLmDcxYAAAASJLiYgRWFLUZY1qDIPi34zibJdVZa3eTdIik/Yd4qg9U18l993+shrDVM33P9M2Az2t/sU4TpvkyrDUIw3Iek2yp7yJrt1uGrVW/y+yAj6v7/gemn8cHe2TAvxnkL7v/0Z7LqqOQY6YCAABAUleAhWjIS7rfGHP/fvvt97vly5f7/T3Jdd3XGmM+bK09W9IbKVskRCrELneQFZSk7KtxTdqlxJKE8V++jZFxbFcQJSsrI2Mla6xMv0HskFIpactrDfQKg71Mv6+3g7e20kttG5mhAABEW6u19hbHcdLGmHVBEOxhrU0ZY86S1Eh5oocRWLUvkHRXPB6/YtWqVc9KUjqdHvDJnuetk3STpK+lUqn/stZ+UdK+lBE1d6Lf/Z9yBFkdL8c0caeSDFcTIgzLtmNkS1bWDB5ibRtt1TtJGiiQ6rr0z/QbRvX+m21/PHh2NfDrbci2K1cqMjOBHXtJ0t3W2r8ZY14v6VRJu1MWAFXuH5Iu8jzvB30ef0FSRtLtqVTqA9bar0g6gHJFhyMuF6tlqyS92fO8T2wJr4YhSKfTD+RyuYMkLZLURjlr9GTXmEiH2EbdJ/Gj6JFlA6OOl+tYmBCehdoxPVpNjWE/rH5eYbj9sHxr9Ur7JuYjMLiipBskHeh53qWZTOZuz/M+UywW9zfGXCGJ628BVKMOY8wVDQ0Nh/QTXvWSTqd/qK4rhhZJ4sAhIrgLYW161hhzsud58z3PWzWaF1q7dm3B87ylQRC8wRhzu7pGdAHVeVK/g1+PJsjqXO/IL/B9AEKyuDvqGhK13R5+qHcf7Blu9fN0O/THd/zWvX+xvqNNRd9nJgIDrUrWPhIEwRzP8xZ6ntfrpG3NmjUd6XR6seM4B1pr76NaAKpn02bvcxzngHQ6vXjFihVDCuE9zyt6nrc0Fovtr65QnwOIGsddCGtLpzHmikQicWA6nb5XZQwnW1tbn0+n02cGQTBP0qOUGtV5Vq/KBVlWan+RtoII0x5+22V8vUdhDTTaaqjhlh1khJYGvivhoIetXf/nB4HWd25m3gH9e1LSMZlM5l2tra1/GeyJLS0tz2QymZMkvUPSGkoHIKystS1BEByeyWROamlpeWEkr7F69epXPc9bKGmupN9R1Ro+vKUEtbHeS1oeBMEb0+n04pUrV2Yr9Uatra1pz/PeKul4Sf+m9NUvCAIbndWkW4WCrPxmR8Usm1WEhNHWUVg7DLEGu5RwgBBLQxqhNbxLCV9p3yQ/YKAv0McGSZfmcrnZnuf9eDh/6Hnerz3PazTGnKyuflkAEBbPGWNOzmQy81pbW1eW4wU9z8t4nvc2a+37Jf2LEtceLiGs9vMTY9LGmLd6nnd8a2vrWAVK1vO85ZLe2N1nIcucQHXo3buqEkEWo7AQtr38lr5VYe+HVfCL2pBtZ54B2wTW2vuKxeIbPM/78tq1awsjfZ10On1voVB4g6QvSypQWgDjKCvpy/X19QeX+6qhLTKZzEOJROKNki4VvZxr7dAWVep5a+2Z6XR6XjqdHpdL+jzP60yn04vj8fiWPguEoQinWH+ny5UJsoqdRvk2Nq0IkR6XuW6/Huz4IWls+mG93L5J1rIbAbr92lrbmMlkTlqzZk1ZRk49/vjjGzzPuzQWi82W9GNKDGAcPOz7/hs9z7v00UcfrWiwtHLlyqzneV8ulUoHc65aOxiBVX0Kkm6or69/QyaTCUVT9VWrVj3b3WdhvqQ/Mouq7Nw2Knch7Dd8suoVZpUpyGp/MS5ZGrojPHt626tdevj6YWWLBW3OdTKvAOmZ7hvxvCOTyVSkd9Xq1auf9DzvGMdx3iXpL5QcwBjIWGvf5nnesY899ti/xvKN//SnPz2XyWROchxnnjFmJbOi6g9rUUUejsVib/A8b2GlE+uR8Dxvled5h3f3WXiR2YVQGjB8Kl+Q5ReMshvZvCI8rCnTpYQV6of1cvtGZhKibsut47fciKfiWlpaHpE0R9yCHkDlvCpp0cyZM+dmMplxba7e0tLSkk6nD1dXL+dnmDXViTOs6tAaBMERnucdu3r16n+G/LMG6XT63mKxuH93f6w8sw+hNJwgy+zgZfp5TsdLMVl6USNEy/vAIZYd135YbfmsOgvsKhBZVtJySW8czq3jy4Vb0AOokGL3NmV/z/OWLl++PCzbFut53vJisXhw97lqjllVXbiEMNy2JNZNra2tv62mD75mzZqOdDq92Fp7SPeBGcJ98BzpE/sdBlmDPq/Hr3s8J/CNOl+JsXQhhKu6HdpmYIz6Yb3SxsAPRHT3Y0zacZy3eJ53vOd5/xnPz7LlFvTGmCZjzG+ZOwBGfLRh7SNBEMzxPG+h53mh3MlvOVd1HGdLL2dUCW6XFU5FSbdI+rzneZs8z6vaCclkMk9JOj6ZTL7DGLNE0mxmL8J5JjHQSbvt/QQz+Mm96f6PldS5Pq76nQLF6vieACE4oDTqTp+MjO362cjKbv3ZyvRIae3Wxd1qu/S2n4e05bX6e29JZuvfbPvjDdkO5f0iMwdR87y19grP8+5QCHqZ9pROp1slHZFMJo81xiyVtB+zC8AQ/c0Yc6HneT+plg/c0tLyjKSTXNe9W9ISSYcyG8ONSwjDdoJRBYn1SGQymV81NDQkrbVnSnqZOY0xN4S+VoM/b/gjsmSljlcZhYXwCJyuBTMM/bCstXq1g9FXiJTQ3YhnkOO2hxKJxCxxC3oAO7ZB0qW5XO7QdDr9k2qcAM/zfu15XmN3L+eXmKXhxSWE4fEXSe/OZDLvam1trck7wqxYsaKUyWRuTyQSb7DW3iSpxGzHmBvjICu/ISY/zx0JERZ26xlz7xBLY94Pa33nZpUC2u0gMh70ff+gsN6Ipz9bbkHvOM4sSQ9wzgCgj5Ix5uZEInGA53lfXrt2baHKpydIp9P3FgqFN0haqq6rohCmo1hrfUZgjb8tiXWj53n/F4UJXrly5fpMJnOeMeYQST9hEQjBGW0UjWGQ1f4SV2sjRCu8sX1bqffZDFS+H5YfBNqQbWdmIAr+aq19j+d5C8b61vHl0tLS8oznef/NLegB9PAra62bTqc/uXLlyvW1NGGPP/74Bs/zFsVisUMkPcysDtHpmzEbGIE1fkrW2ptqKLEetnQ6/TfP895nrX2/pL+zSGB8toSqeJBVaHdU7GAUFsIjMMHWpbf/SwkHGm011HDLDjJCS3q1fbP8gNt0oqa9bIw5a+bMmbMzmczPa2GCum9B/xZr7amSXmAWA5H0lDHmOM/z3pnJZNbU8oSuXr36Sc/zjpV0jKQnmfWh8DwjsMbHryQlM5nMebWWWI9EJpN5SNIsSYsk0RBljBljIhBiD+EypQoHWYzCQphYWQUKtv57LPthFfySNuU6ZQZo+A5UuaIx5nZJb0yn07eF6Nbx5RJkMpm7i8XiAdyCHoiUDmPMFQ0NDbPT6fQPozThnuf9WNIh3eeqG1kUxnEHFATpuBiBNZZeMMZ8Mp1Of5dSbLdhKEpaOm/evG/7vv81a+2HqMoYnchaG41zyC053Y4mdwd3Gdzx8/q/a2Ep5yi3Oab6qfT8QUgOAmR73Mll620Je24cJGP6bC+2e2jrUt//3QetTJ/XfbVzs2yP9dFsfSZQ9fvTnxpjLkyn00/U+rSuWbOmQ9Ji13Xvk/RVSR9gCQBq83DBWntPLBb7bEtLS2RHXm45V21sbPxWLBa7ylp7miTu1DS2OhzHWckIrLHze0mzCa8Gt2rVqhfT6fSHjTFniSbvYyIaI7B6TrDdFmYN+jyVfURWx8uxAXsGAWN+si2rku1xKaH6jMLSji4E7HvyPsgzu3+XKxXUkc/2s/4YRmShmv3NGPO+TCZztOd5T0Rpwj3P+4fnecc5jvMuSX9mUQBq6/zVWjs3k8mcFobw6rz7/2fquXecto/s+B0utLa2vpxOp890HCdlrf0Ni8iY+qHneZ30wBqbgOBnDQ0N7/I87xWqMTTpdPo2Y8xHRIiFiq2YYx9kBUWj3Aa+rEF4BCbYel/CgS8l7HPJ4ACXEg70UM8HX23f3P/qQpCF6rRJ0qfU9QVlpG9K09LS8khDQ0OjtfaTkl5l0QCq2jPGmI95nve2TCbjjfeHWXT3x6efffdpXy0W61/0Y/rXWd84bc1Zd33i3eO8zXssk8k0G2MWSPoXi0zlWWuvkyRGYFXen7LZ7IIVK1bQI2CYuq+vPp9KoKLGOMjqeDWuwOf0HOHh2z4jrkbbD6vfpd+qPZ9TtlTotZIQZKFaVxtjzO3FYvFAz/Ou6760JPJWrFhRymQyNycSiQOttTeJLyGBapPv7m33hnQ6/W2N80CXxYsXO2fec+pJOcWesNKFkuq7DyoOkQl+dtY9p//i3Hs+MWucz1cfbGhoONgYc5noCVhJD24JUwmwKrwRcBznf9auXcu9wkfI87xbJP2QSlROEAS1Pwozph2HT1uCrB2FWaMMsqxv1fkqm16EaBugQNb2vCOgHaS3W49HBrpkcIDH13e2DbiSEGShWhhjfus4TiqdTp+5Zs2al6jI9lauXLk+k8mc5zjOHEm/oCJAVfi34zhvTafTiz3P6xzvD3PW3ac3v7DPMxljzTck7T7AAceRvg1az7rr1KVn3HbGtPH6rCtWrMil0+mrjTFvlvQ0i1LZvRyPxz+55QcuIays61taWtZShtEplUrnikQboxDb/nx5B2colQ2ycutj8ouckiNE29muGKvreHDLcWH3fwe6lLDHEeQOH9qc71QxKMqY/lYbgixUx8mdpOPT6fQRLS0tj1GOHWtpaVnred5RxpgPSHqKigCh1eE4zvtaWlpaxvuDnHPXKXuddfdp90r2V5IOG8Kf1MmY852E/48z7z5t4YJlC8atV0c6nW41xhwtqY1Fqmxykj60atWqF7c8wDCAymlX111ZMEp/+tOfnrPW3kElMBq9TozHOciykjpfphcWwsPKKrDB1pBqtP2wejZuD6zVhs72XusCQRaqSMlauziRSBzsed5yyjGik7of5XK5WZIulZSnIkDoXD7egy7OuO2MSWfdffriwDhPSjpxiEfXPe1spCUzOqamz77rlCPGcXv3N0mXsUiVRYcx5sOe5/2+54MEWJU6WTbmBzRtL+PJFQFWZc9do7RuKhxBVm6zo1KOTTDCw7e+rFXZ+2FtynUosMH2KwlBFqrDyZlM5oqVK1dmKcXIrV27tuB53pclfVhc/QGESWehULhrHM9CzNl3n7bASfh/lezl2tLnauTH+XOscVacdc+pD51+7+n7jcckxePxe8QorNF60lp7RH83SOESwgoJguB7VKF8Wltb/ySGn6OMKh5kmR1/gPaXGIWF8LCSSvL7NLEaXT8sPwi0OdfRZzUjyELV+LPned+iDOXjed6PJf2eSgAh2fdb+9jjjz++YTze+8w7T02ddc+pv7fSMkl7l3fCzDFx3z5x1l2nLj31zlMbxnK6Vq1atVmSx9I1IgVjzLWSGge6A2acGlXo5NiYP1KF8tfUWnsAlcDIFqB+z7u3nvja7X4Y7LXslp3jjt9zkNcrZo0KHY4SkwPmD0LBt75ixpGjrmjI9lh1jKysjIyVrLEDxEZWPaOmDdl2BX3SrW2rRZ8VZEuIZfuuNgP+RY9fbfk0lm/lUE5rKEFFtEp6K2UAQnF+9e+xfs9P3nnqHkWjy40xp6uyV4QlZMz5CaOPnH3P6Vfs/q/X3bF48eJgjOr6T2ttM0vYsPw4FotduHr16icHexIjsCrjVc/z1lGG8rLW/pkqVGQDG51twCAjoyo2ImsHr9fxUmzA0SvAeChYv9fAq5H2wyoGvjoKWRljdrBabD8ia0uYZYb2Fz1GPjIiC+VdHSgBdQVq3JjdcXDBsgWJM+8+bWHJMU8YY87Q2LUz2sNae9sL+z6z6py7PvHmWqtrDfibMeZoz/OO2VF4pe6FhuO88nuVElBXhFiIgqxSwSi/mV5YCA9rA5Vs16WEo+mHtTHbvvX3xpixCbK2PkiQBQBAWJx592nH7tIx9QkjLZHUMC4fwioVmOD3Z9192rIz7j1jb+bKuGs3xlyxadOmw9Lp9E+H+kdxMQKrEkhcK5E5GNNhGaqCUey1tjvVHeQSv7G8tLDjlZgmTA1kONtGSJRsSXHjdK82PRZY27dZVT/rlZXyflGdxVx/2/Gup/SzLR/s0sJeq9eO/6LHr82O10cAAFARZ33jtEYFWiLpbSE5izOSFji+/76z7j792pxK19xzyj055tSYCiTdVSwWP7tmzZqXhvvHfO0PRFykLiGU1YBp1TiOyApKRtn1NHRHuNaUgvW7/223Prbt/we5lFDSxmzHoKvK8EZkmV6/2L7h+xBGZAEAgDFz7jdO2vmsu05dqkAtkt4Wwo84SbKX1yv25Jn3nHoSc2zMrLbWHu553idGEl5JNHEHEBW9mrjb/s9sx3FEVucGR/XTfDlslRESpSBQPGblWLN14JWVldn6c8+m7ttWi85iXnm/KGnHjdWHNiKrn5WuR8P3IY/IAgAAFXXGbWfUmTp/oR/oMhlNq4KPvJex5htn3nXax52YWXTLyXdw847KeM4Y85l0On3faA/PaOIOIMJN3MMzIssGRp2MwkLINg35oNg90mpH/bDs1rVpc75juw7rW/pRDbS6DG1EVj8r3UhGZAEAgLJbsGxBwkn4vzRG10pVEV71OA7R221gW86+59T3MyfLqiDphvr6+oPT6fS95Tjv5Lt+ANFjep2jKywjsrIbY6qfHiie4HsFhENgA5WCQHWO09WhvWc/rO2iIauOQk6lwO8arbXderElVLIDri5bR2T10yF+5COyAABApc1on/Z+GfvWKp6ERGDNFyX9iLlZFg/HYrHzV69e/c9yvigBFoBo63UePP5BVucrMU3do8R8QWgUbFExJeRsu2iwK77aeulg16M2sGorZLdfN0YSZHUnUuUJsgAAQOXZfav/tMDMZD6O2hPW2kWZTObnlXhxLiEEIi4IArYBW86Dt+ZJVv1eXjgGlxbm2x0VO7m/BkJ0OGqtikGpR9P2LWtJ70sJOwpZ+UGgAS/6M/2vKINeWqjuSwvNDta5IV1aCAAAKsUxtXDbX25dPAobJC1qaGiYXanwSmIEFoCoGPLoqL7P62dUVoVHZHW8EtP0vQPmGUKjGJQUN3E5xshYK2tMr6buvqzai7lBR0cNvG6MwYgsAAAAVELJGHOX7/uXtba2vlzpN4uLEVgAoqQSQVY/rzeaIKuYM8q3O5owhRAL4WAlFYKC6mMTuh/o3Q+rrdDZ616D4xlkdf0t9yEEAACosF9baxd5njdmd29kBBaAaJ7hlTPIGuT1RhpkdbziKDE5kGH4CEKiFPjyHV8xE9s2+kpGxSBQrljoWsB7XhJrxyfI6v1yrEBA6Ha/xlhrCZcBoIo9Y4y5rPvOgmOKRisAIn4krSH2q+r7PKsBz5x31K9nCO/pF42ym9hEI1xyfkHaMtaqOzvqKHT2WKx7LNz9/3Pwn8rYI2s4qzcAAAB2qNMYc0VDQ8OB4xFeSVxCCCAK4pJ2dDXeGI/Ikvq7O1ufPcT6mOqnBnLIsRASgbUqBCUlnDpZSSW/pLxf6mcZ7zF+qsdy3v8YrK5HKjkiCwAAACNmJT0o6aJ0Ov2f8T6tAxBhxphonO6NOKAa6vOGF2T1+tUAvbSsL2XXxzR5F58FFaGRLxVVl4jJyFFnIb+DVWQoQVbvFYUgCwAAIDQykhZ6nvf7MHwYvtcHEBF225nziC4ZHOrzhndp4Xa/6vO8zo2O/BIXQSFMa5JVzi8q7xdUtCUZY7ov9Bts+R7KpYW9HzE9fxrxpYWsOwAAACPwqqRFM2fOnBuW8EriEkIAETz97jrDNb1+HPTse0TPG8WIrD4/dLziaOpruCMhwqPgl9SrCbPpjpSset2NcPvle/gjsnr9NOwRWZJxCLEAAACGqCjpFkmf9zxvk+d5ofpwXEIIIKKqJ8hq22BV1xBo0iQGzSKE61CfhTeMQRYAAAB2cGRn7SPW2oWtra1/CetnJMACIi5SPbDsICfhIQ2yrKza2rPK/9tq/4MnssAiRKuUkdMdU9l+Fl6CLAAAgKrwd2vthZlM5uGwf1AuIQQQpTNuDXxmG84gK5stqljyVdwktW301TCd7x0QIo6RAjvw6hCCIAsAAAD9ajfGfHXjxo1feuqpp/LV8IE5EwIQPVUSZAXWqq0zt/VX6/5TIMBC6FYla0z34hzOIIvv6QAAAHoJrLXfrKur+/SqVaterKYPzggsAJHYBvR7KjukIKv7P+MQZLW35xUE214w1xlo/UslzdiNEAvhWrf6xEhDCrIGirIqF2QBAABE3mpr7cJMJvPHavzwnAUBiNzJ9nYn1jsMn+y2IGvQ56lsQVap5Kszu/1I3heeLWj6LjE53FkNYVux7PYL92BBlmRkxirIAgAAiLbnjDGfSafT96mKBzBwSysA0TnB7vOj6e85g57w2m1nz2YI72eG+LnM9u+xuT3X756lVAj0ygtF5idCpmu9MKa/hdsMvDoYScbIdD9n4FWkxyv0/89+V6ihroYAxk7Qc2gxAKDSspK+XF9ff3A6nb5XVX71DZcQAhxIRmcb0M9wkBGPyJKG1idrBCOycvmS8oXSgE99+bmiZuyaUF0dp+YID2u7Vomtq0U/K9WAdwgc9ogsSVtuoDqEEVkAAAAR9HAsFjt/9erV/6yVCeISQgDRE+Igy3aPvhqM71u9+FxBr9t3AvMSIWK7QyzTe7WoSJDV4wLFfoKsba/NGCwAABA5T1hrF2UymZ/X2oRxCSGA6Orn3HbMLi0c4HkdHQX5frDDj77+xYLy2YB5iFCxsts1njLbXVq4bUUY/aWFPf7V58WIrgAAQMSsl7SooaFhdi2GVxKXEAKIxDagpK683gx8JtynEhUfkdXP6/mBVXtnfmgzzUovPJvXPgdMYglGuDYoNpAxznYry3iMyJIIsQAAQO2f7Bhj7vJ9/7LW1taXa3lCuYQQQO2LdZ/MWqtBT2nHOcja3Jbtc3I/uI2vlrTL7r4mN8SYxwiNQFYxWRmZfu9DOF5BFgAAQA36tbV2ked5a6IwsQRYAKJj6xlu+IKsYrGkXK407El6/pmcXv/GycxbhIpvA8VNbPtQaVyCLOYHAACoOc8YYy7rvrNgZDjiu0kg0owx0dsGbG2OYwffBI5hj6xNm/IjmpTONl+bNhRZkBEq1loFNuhnFdl+Jah8jywAAICa0WmMuaKhoeHAqIVXEiOwAERZSEZkdXQWVSz5I56Mdf/Ja+r0RD8hADB+/CCQE3MGWJVGNiKr/3VuaCOyAAAAqpiV9KCki9Lp9H+iWgSauAPAOAZZQWDV3pYb1cfP5wK9+lJBu+6eYF4iREdZViUbKO44260LIw2y+v8LDSnIAhCSXW4UR34DUdjvGycYVjPXcCrXLb7LenmEtbbFWruwtbV1ZdSXM4dVDeBAMhoTqh0PxRiHSwvb2nIKyrCzf/G5nHyfcwKEix/4WzY0/a4LI720cPB1bvBLCwGM80mutayeQE2u2/prDZwv/KVMr1SuEVKvSlq0//77zye86kIPLIADyWgdSA4nyDKVDbKKpUCdneX5gqZUtHppXZ4FGqFT8kvbOloNOcja9qTRBll8UweEbDfMCCygJt328Tt+KplvVvEkbHICZ2E5Xsj3/T+O8iUKxphr4/H4TM/zli5fvtxnCevCcR3AgWQ0DySH2uG5V5Blh/xaQwmyNm8qb+D08rqCCoWAhRqh4ttAfndD96EHWf38NIogCwAAVPzY2t56yh0nWOn9kp6uok9uJS0PYrFDv3bq1/9QjhfsHi312Aj//OFYLDY7nU5fvGrVqs0sWL0RYAGI9jehwwqytpRr9EFWNldSoVAq66QEgdULzzEKC+FT8kv9rBdGZqyCLAAAMCZuO+XOh16dvPlgKy2SFO4AxijtWOctt55y5/G3n3R7WRujO45zhqThHJg/KekYz/OOXb169ZMsSQPUVVxCCEQd53rDOestQ5BlrVXb5soETRteKijbyShjhEtgrYpBaYDVhSALAIBasvz45YXbTrlzaRCPvcFae7vK1xy9XJ43xpz5mn/tNa9co676amlpaZF0oqTOHTx1k6RPSTrE87wfs/QMLk4JgMiLThP3oUztsJ83yJ0LB7hrYXtbQb4fVGhmWj3/bE4HHDiFJRuhUvJ91TkxDRQrdV1a2H0PQTvYqtTnpx3ctRAAAIyP20+8fZ2kM8++5/TbrbVLJR0+zh+pIGtvLVhddtdpd7ZV+s08z1vuuu4Tkq6UdIykWI9fr5d0d7FY/N81a9a8xNIyNHGO7gBEyngGWZL8UqD2jmJFJ7FtY1Ftm4tqmFrH/EZoWFkVSiVNiCe6fxpolapEkAUAAMbLLR+/w5PVW8++57SPWOlaSfuM/TmAfbjkOOffcdKd/xzLt/U873FJxzU2Nu5qjHmDpF0k/WfChAl/WblyZZalY3jiHN0B0RYEQURC7D4B03gEWZI2bc7L2sqX/Ln/ZHXQIfGuMAAIiWJQUtzGFTNO95I5VkEWAAAYV0b2Ft25/IzbzvixkwgulnSxZCeOwSlAq3W06LaP3/Xb8Zz81tbWlyW9zIIwOvTAAhAxfXpXDbv31VCft32PrHzeVy5bGpOpzHb62vBKkdmN0B295kuF7jt7dv1sdhCzjrZHFjchBEK5IwYQDvVj/Ya3n3l7562n3LG4VNKBku6r4DbhVSstenXK5qbbPn7nb5nVtYEeWACisaXzBzp+HqMRWdZo88bcmE72889mNX1GnRyHM3iER2ADFUu+6uLxHuuSqdiILAChw04JCI99xuuN7/jEHc9KOumMu065OWacpVaaV6aXLsraW4Ji/PO3n3n7JmZxbWEEFoDoHC73e8g8NiOyOjoKKpbG9gYsxUKgl1/MM+8RIl3rWr5U2Bbu9lqXhjkiywy2WnIfQiDUGwIAYTBn3rx5U8fzA9x+6t2rdv/3Xm+2xp4s6cXRHe+bR2LGabz11LsWEl7VJgIsANHaBoxDkBUEUlvb+ARJL67LyS+xmUfYNjpW+VKxb3Y1/CBLQw2yAABAP6aUSqWPj/eHWLx4cXDbx++61+mccIBkrpA0rANnKz1pjI659eN3vOvmj399LbO1djmUAEAkjWGQtXlTXkEwPpPpl6xeeJ4bnCBMK16XvF/UlntIjE2QBQyPtbaBKlTEVEoAhMqVc+fOPTAMH+Rr536t/dZT7lhs5c+WtHwIf7LBSJeun7x59i0fv/PHzMraR4AFIDKnzWZYvyhPkFUsBursGN9m6q+8mFch57MQIHQ6S7leK02/QZbp+mHoQZYhtUJ59hvGvOWAAw6YQCXKfu7xTsoAhMpU3/d/7Lru7LB8oNtOuefvt55y5/HW6EgZ/bmfpwSS7lOs7g23nHLnl5cfv7zAbIzOToRrS4BoH6BHYxtgtP0Jct/f9/vL0QVZmzaMfw+qwFo9zygshELvzU3J91X0S9utXNutZv0EWWbQVY8gC2Wx+7Rp025asGBBjFKUZ0+cTCa/JOkgSgGEzgGSVrmue9GsWbMSYflQt338zl8G+VjSSoskPa+u2zL9JJA/59ZT7jzp1pNufYlZFy3chRBAhA6dt51DD3qfsn5/Ofy7FmY7SyoUwjHyaf2rBe26W0mTp7DZR7jkinklYvEeq9K2lWu71WzrA1uCLjvgarj1GdyFE6Nz+tNPP31oMplcmMlk/kg5RiaVSh1irV0q6R1UAwitiZKura+vPyOVSl2UTqd/FIYPdfuZtxclLZW0dMGyBbHlxy/nsoII4xJCIOIiMwKr75ntjkZkDfhLq16jsgZ4AWutNm8M12jm557pYIFHCFa+3nwbKFcq9LMqDW1EloYwIgsYpbnGmD+4rrussbFxH8oxdPPnz5/huu5Sa22rCK+AavF6a+0PXdf9ZTKZPDRMH4zwCgRYAKJ9Lj3iIEsaLMhq31SU7wehmtz29pI2baRFAMZT/3l5rlhQYAP134u9PEEWUIY9xgLHcf6SSqUWz58/fyIlGVhzc3M8mUyeUSgUnpB0vrjqA6hG7zDGtCaTyXsPPfTQ3SgHwoAACwDKHGT5pUDt7eEMip57tlOWzocIGSurbKnQaz0jyEJITbLWXl4oFJ5MpVInsahtr7Gx8Z1tbW2txpjbJO1KRYDqzguMMSfW1dX9zXXdS7ixBcZ9gRRN3AHOHaNgKFdKlinI2rSpENqQKJf19eorOZZ6hE6hVFQp8Ldbz0YbZPFNHSrkddbab7iuu9J13XmUQ5ozZ87rXddd5jjOI5IOoSJATZku6Zpp06atcV13AeXAeOG4DkB0GFvxIKuQ85XrLIW6DOue7ZTv890Fwqczn99+/NSogyygouZJ+kMymbx33rx5u0exALNmzZqSSqUWx2KxxyVxYgvUtgMlLUulUo+4rjubcmCsMQILQPRUKMiykjZuyId+8oulQC+9mGU5QOj41ld+a0P3MgVZwBgcTxtjTiyVSv9IpVKLI3SJjZNKpU6qr69/ylp7uSQuLQIiwlr7TkmZVCp1W2NjI5cKY+x2PJQAiLYgCKIbYpc5yOpoK6lUrI5yvvBCVsViwAqA0Oks5mW7v1srW5AFjI3J1trLp02b9udav8SmqanpCNd1PWvtNyTtzqwHIilurT3DcZy/ua57yaxZsxKUBJVGgAUAZQiy/MCqbVO+aiY58K3WPd/BvEfoWGvVWcj3s+qZflfCHQVZwDg4QDV6ic28efNel0wm7w2C4NeS5jCrAUjaSdI19fX1a1zXfR/lQCVxCSGAaBjKmewogqzNGwqyVTag6eWXc8rmSiwbCJ18qdC7oft2q97wgixgPNTSJTau605KpVKLS6XSk8aYE1m5APTjIEkPJ5PJXzQ1Nc2iHKgERmABiE6IbYZ4TjvMIKtQCJRr96uyJM8928kagDFeCYem7yis/lbloQdZwLjpeYnNwubm5ni1rbTdl0P+pbvP1URmKYBBNxrGHBkEQWsqlbrNdd1dqAjKiQALQHTPo8sUZG1aX9jas6fabNqYV1tbkeUBY2To60kpKKkQlGSMGcJqPJQgCxhXO0la0tbW9udUKnV0NXzgxsbGlOu6v5O0TNI+zEIAw1BnrT1DUrWG9wgpLiEEEG2jDLI62ksq5P2qLsGzz7axHCCUOvNdd8s0xowqyAJC5CBr7Y+TyeQvGhsb3xjGD9jY2LhHKpW6zXGcVZIOZ5YBGIUZ6grvH0+lUu+lHBgtRmABEWeMqf0QOzaUQmjYQVZgrdo2FKo/JOgoaf36HCsDxmKLM6xnB9YqW8j13F6NLMgCwrfvPdJxnMdc113quu60MHymWbNmJVzXXeg4zhPdIyc4TwBQLm+w1v7Edd2HXNfdn3JgpBiBBSA6582mTM/rDrLaNxbl+7WxCX3uuQ5Z9gYIoc5iXn4Q9D357/rfDldjLiREqNVJOl/SP1zXXbhgwYLYeH2QZDJ5bH19/V8lLZHUwKwBUCHHSPprmMJ7VBe+WQEQLWUKskpFq7bNtdM7Kp/39eJLNHRHpY0sJe0sDDBCcMhBFhBqO0ta8vTTT69ubGx821i+cVNT05xkMrnCGPMjSTOZFQDGQGjCe1QfAiwg4iJxCeFozmwHeN6mVws1N371hec7VCoFrBQInYJfVMkvDbzK7iDIAqpE0nGc37iu+9DcuXP3q+QbzZ07d2fXdZcGQZA2xhxB6QGMgy3hfUtTUxPbIQwJlxACiAjb/+ZuBEFWttNXLuvXXIVKfqAXXmQUFipp5BFTez4ru6NVliALteEY3/fXuq57zeGHH17Wy/lc161zXXeh7/v/UNcICEY+ABhvjUEQrHBd96GmpiZGgmJQjMACEDGjC7KsrDavL9ZsdV56sVP5vM9igtDxbaBcsbB1ZSXIQo2bKOmSXC7311QqdZLKcDVsU1PTkZJa1dXnit4zAMLmmCAI/uq67tJ58+ZNpRzoDwEWgGiMwtzubHdkQVb7Jl+lYu1eZhdYq+fXtbNWIJSbm2wxp2Dr3QaGHmQBVWxPa+03ksnkqqampjeP5AXmzp17oOu6DwdB8AtJsygpgBBLSDq/VCo9kUwmz6A/FvriEkIA0TKKICvwpfaNxZov0auvZtXRWWRZQegE1ipbyPZZN4cQZAHVvusypikIgt+7rrvMdd29h/I3s2fP3sl13Wt8339c0vuoIoAq8lpjzG1PP/306mQy+VbKgS0YgQUgomcDGnaQtfHVgoIgGpn/M8+0sYwglHKlokq+L7PdOkyQhUjsuRZI+ksqlVrc3NxcP9DxfSqVOimRSDwh6RJ1jWgAgGqUNMb81nXdh+bMmbMv5QAjsABwOjCEIKuQD5RtL0WmLG3tBW3alGP5QOhYWXUUOretvgRZiJ7J1trL29ra1iaTyQ/1XNRTqdS7XNd9zFr7DUm7USoANeKYWCy21nXdKw499NDJlCO64pQAQBQYI8kOktibrWfHff5hZGW16dVC5Gr2n2fbdMjUekIAhE7R95UrFlRfl9i2+prutdb2XqkdvqdD7ZppjPmu67r/tNY+YYyZaa09iLIAqFGTJH2+rq7u1GQyeWkmk/mWGIwTOVxCCERcEJVr4rrPZ43ZwaiMfkZkdbb5KuSCyC0buVxJr77ayUqCUGovZNXVz930Xn23W4c51EHN288Y815JhFcAouB1xpj7U6nU6lQqdTjliBYuIQQQPcMIsoLAavOr0W1o/tzz7YpSxonqYa1VZzHXe4Xt+RPXEAIAUMvHASlr7e9c113W2Ni4DxWJBr6WBBDddGIIQVbbhpICP7olKhR9vfhSO2sJQilbyMsP/L7RVa+fCLEAAKjlo3ktcBznL67rXjNr1qwplKS2EWABwABBVqlo1bGxFPnyPP9iu4qlgOUEoWNl1d6zoXuv41mSKwAAImKSpEvq6+v/mkqlTuIgoHZxCSGA2hcb4m6sT5C18eUiG0hJgW/1/Lo2CoFQKpRKypeKPVfjvmOwAABANLzOWvsN13X/2NjYOJ9y1B5GYAERZ4yJQEbjS7JDH5RhpFyHr3ynzwLS7aVXOpTNMRoN4dReyG63bjMGCwCAyJrrOM6jrusuc113b8pROwiwAESI1ZCCLCttinDj9n5LYqVnn99EITBKlYmU/MBXZyHX77XAhFgAAET2oGOBpL+kUqnFzc3N9ZSk+nEJIYAIGjzI2ryhpFKBTWNfGzbm1N6RpxAIpY5CToENZIZ0m1EAABARk621l7e1tT1Jf6zqxwgsIOKicQnhQLYPsvySVdt6Rl8N5D/PbqYIGOU6V6FXtlbt+WzXdk3aFmRxpAMAAKS9rLXfSCaTv25qappDOaoTh3UAosHs6KS6K8ja+EpRlsFXA2rvKGj9hiyFQCVWxFHLFfMq+qVe72b4ohUAAGw5NjDmiCAIvGQyeW9TU9NrqEh14RJCANE6dx7kXDaf9ZVto3H7jjzz/GYFpHwIqc25DooAAAAG4xhjTgyC4Cn6Y1XZjKMEQORFL4noJ8iystr4MnfZG4p8vqSXXyEkQDg3N6XAV7ZIrzYAALBDW/pjPe667gLKEX6MwAIQXT2CrI5NgYq5gJoM0bPrNsv32X0gnNrynbKMEgQAAENzgKRlruv+qrGx8TDKEV4EWJU4JzaGYRwVYK2lrqiIILDa/AqN24ej5Ada9yIN3RHa/YXaC53cZwgAAAzH2x3H8VzX/ZrrurtQjvDhEsLKHDhvoArlZ4zZSBUwEjHHGXRo1eZXSgpofTVs615uV75Aroxw6izkVQp8SYahlQAAYMinDpLOlvT3VCp1geu6dZQkPAiwKuM/lKACC6vj/JsqYCT8kjYN9Ltiwap9E+nVSASB1XMvMAoL4dWW7ZD4UgkAaoIxhgacGEvTrbXXSXrcdd33UY6QZALiEsJKSFOC8lu9evXfpYGDCIxMEAQ1vw2os1o30O82vVhkKzgKr7zaqc4sl18inAp+SdliLhGRyWVLBkRbzW8DcrncemYzxsFBkh52XfdnjY2Nb6Qc48sRHSLKvvPwff9nlKEytbXW/pQycMAzXPct+L9/SXq17+PZNl+5Tq4uGt3CY/XM8xspBEIr7xc7IzKp7cxtINJqfkj02rVr28WVLhg/73Yc50+pVOq2xsbGXSnH+GAEVvn94bHHHvsXZaiYb1GCsjMRmEIrmRU9H7JW2vgy/ZvKYePmnDZtzlEIhPNAx+jbEZnUV5jbQKS9HJHp/COzGuMobq09w3GcJ1Kp1Cebm5vjlGSMj+soQXlZa79MFSonk8k8LGkNlSjvYhuFiTTqfRLb9mpJfpH8vlz+/fxGWb4PQcjEjCn8/FO/uj8S2zhj/sQcByJ9DvJYRKbzu8xthMAMa+2NbW1tf6Y/1thiBFZ5Dx5/2x2woKL7LXsxyy2Gq+BP+76kv0uSX7RqW8/oq3LqzBb06np6qyJc6uKxB7tGYEbC75njQHQPc4rF4uooTOiECRMekvQisxwhsaU/1sOpVOogylF5jMAqnzZr7akiWKm4TCbzc0l3UAkMx/Ljl/vW6nJJ2vRySZY1teyeWbdZAYVFSMQcpxCbUH92VKbX9/3vSSKZB6Lp/x5//PFI3HF15cqVWUnXMssRMu+z1j6eTCavmzNnznTKUTkEWGU6brTW/o/nef+gFGMjl8t90hjzSyoxesaYyCQOD3zkFw9kO4Lfd7b5zPgKyBdLeuHlzRQCg21xxuyd6hITLvjp+T+NzALZ2tr6sqTlLGNA9Fhrb4rYJN8gKcOcR8jUGWMuiMVi/3BddyH9sSrDidLJa4XkrLXHZzKZhyjF2Fm7dm0hFot9iBALw1XssB+tS5gslaiM517cpJLPnR0xvibWTfje/134f1+L4KR/QVKRJQCIlEe7r06IDM/zitbaUyS1MfsRQjMkLWlra8s0Nja+k3KUlxMEAQHWyP3DWvv2TCbzPUox9latWrU5m80eLWmpuHQTQ/Tw2b96buKU2Px4nclTjfLzfatnX9hIITCAym+qJyQSP//5px/5cBSr63neE5K+xHIGREbOWvuJKE54JpNZY61dIInjOYTVbMdxHnFd9/vJZPIAylEeXEI4MgVJX83lcnMymQy3ch1Ha9euLXiet8gY8w5Jj1OR4YviKMyHz/r1n6ZPdw6YOCX2L5aA8nvplXbl8wwCwRhvyxxjJyYSS39x0S/fE/FSXGWtfYQlAqh5VtJZmUzmr1EtQCaT+XkQBEdJWs/igBA7zhizNpVK/e+8efOmUo7RIcAa/sn+Q7FYbLbneRetXbu2nYqEQzqdXjFz5sxGSWdLeoWKYEe+94kVz/78/BX7TZoevzEWNzTFKqPAWv173QYKgf72ohV51UQ8/vzEeN28n1/0y0VRr7DnecW6uroPS+ILNqB2WWPMpZ7nfSPqhWhtbf1tPB4/zFr7UxYLhFjCWvvpUqn0pOu6p4scZuRHkq7rrpI0l1Ls0J+NMRem0+lfUIpwmzNnznTHcT5vjPmkpDoqsoONgDFHRX25Pva25l3yeT2Y7/CP4CZ65XPI61+rhkn1XcvZ1uDCSLbnz5LslgvLzLYrzGyP/9s6T0yP56r31WjW9Hlu98M9Huz9e9vrZ9v7D7Z7D9vjibbPG9gB3q/ve9o+bzbYe/Z6Vdv7FXsuo7b7/a21W39ne/y/evzebvkMW5+zpQY9n2O3TsOOXks9nt//39mtld/+OT0/98jFHFOYEI9f+bOLfnUVa1xvrutOkvQNSR+hGkBN6TTGnJVOp++jFL0lk8kPGmOulbQ/1UDItTqOc0FLS8tvKMXwkPzt2CuSzm1oaGgkvKoOjz322MZMJnNhLBY7RNLDVGRw3MhBeujMFa/83/krmhum182bMMl5mqWiPP79PCP60Vd5NjfGGFtfl/h+/aTJUwmv+ud5XqfneQuMMSdJepWKADXhd77vzyG86l8mk/l+Lpd7o7X2YkmbqAhCrDEIghWu6y6fO3fufpRjGMeAjMAaUNEYc7e19rOe53FJWhVLJpPvMMZcL+lQqrE9x3He1dLSQr+UHo6+tXlhrj34UqlgJ1KN0Tlov901Y+okRmCJEVjlGoE1IV73Zyde98GfX/jzp1jDhmbOnDnTY7HYpZIukJSgIkDVec4Y85nu4Iqx4kMwd+7cnX3f/7ykcyTFqQhCrCDp1ng8/rlVq1ZtphyDI8Dqh7X2kVgstqilpWUt1aidnCaVSp1grb1W0m6UY5sgCI5sbW39JZXorXlxc3ziLvbmXEdwuu8zWnWkJtbX6bAD95RjtpSQAIsAa2QBVl3cWZ+om3DaTy/4vx+wZo34hO5A3/evk/Q+qgFUhaykG3K53FX03h0Z13XfIOmrko6mGgi5ddbaxfvvv/+dy5cvpz/vAAiwevubpE95nvdjSlGbenwLvUjSBCpCgLUjH7rpHfu0B8G38x3BmywNskZk5p476zW7TNuy2yHAinSAZfv53INzHFOcMCF+3c8v+NWlrE3l0dTUdGQQBEslvZFqAKH1sO/75z322GP/ohRl2+4tkTSLaiDkMtbaRZlM5neUYnvGdd0/SpoX8TpskPTlXC53/dq1awssFrVvzpw5r4/FYldLWhD1WhBgDc17b3vHUaXO0n35rGUE3zDVxWNqfMNeisccEWCJAEtDDLCMbH088cvYhMSHf3r+TxlSX2au69ap69KaKyRNoyJAaLRaaxdy8lqZ7Z619hRjzNWSdqEiCLmHY7HY+atXr/4npehxeBjxAKtkjLnL9/3LWltbX2ZxiJ7GxsZ3Oo5zvaTZUa2BtfadmUzmVywNQ3PMLUdcnG3XF4rFgBF8w/C63XfS3q/ZSQRYIsDSjgOsRKLu6cQE57ifnPfI46w9ldWjT8y5kmJUBBg3r0q6cubMmTdx+VBlzZ8/f0ahULhc9MdC+GUl3VBfX3/1o48+2kY5ugKslZLeFMGT9kccx7kgnU7/mcUg2pqbm+ObN28+1RhzlaRdI7guEGAN07G3uZOKhYb7s53+cdbvmcRgII4xSh68txJ1cQIsAqwBA6x43GmrS9R98ueLHrmXtWZspVKpRklLrLVvoxrAmCpKukXS5z3P4855Y7vdO8ha+1XRFxDh97y19opMJnOHpCDKhYhigPWktfZTmUzmYdYD9DR79uydEonEJYrYXZoIsEbu/Te/+4BcKf9grsM/jGrs2O4zGrT/XrsRYBFgbRdgOTHHr6+L3/mzC355tky0D8zGWzKZPNYYs1QSt/UGKn8M9oi1dmFra+tfqMb46e6Pdb2kQ6gGQh3eGJO21l7ged7vo1qDKN1Za4OkS3O53GzCK/Tn8ccf3+B53qWxWGy2pOUR2hDSmXyEfnTuz5/6v4Ur5jTskvhYYoLDt6Y78OL6NnXmaDOIHtsfGU2oq3t0oj/ptT+78JdnEl6Nv0wm81AikZgl6VJJXK4AVMaTko7JZDLvIrwafy0tLY80NDQ0WmvPlERbGYSWtTYl6beu6y5rbGzcJ5LHjqlU6g/W2vk1PI30ucKIROjbmHd4nvdr5vjoHX1T85XZbHCpX7T0UxjATlMn6eB9X8sILDECK14XWzdpQnzBj877xaOsGeF02GGH7RmLxb5kjDmhawUEMErcOCrkonpFBqpSp6Qbc7ncVWvXrm2PykTXdIBljPll9xA7msBiRCLSH4sAq4yOvO3IafFi8b5se3CMDTjh688bZ+6hnaZM2vYAAdZ271m7AZYUjzmdjhO7+Oef+sXNrA3Voampqclau7TGv/AEKimw1n6zVCpdtGbNmpcoR/jNnTv3QN/3rxJ3LEf4PWeM+Uw6nb5v+yPh2lOrAdaTki7zPG85yzPKoZa/jTHGvD2dTq9gLpfXsbe9NZnLOt/Odwavpxq9TZ44QYe9/nXbRmERYG33nrUYYBlHQTwWe3DvyTNPuP3M24usCVV5zHiitfbLkl5DOYAh+7W1dlEmk1lDKapP9xUZ1ynCdyxHdbDWtnT31FtZ0wcjyWTyUWPMm2tkejZI+vKmTZuWPPXUU3kWY5RbLd6thACrst53W/PJufbgxmLeNlCNbQ7c6zXadacp3XtcAqy+71lLAZaRVSwe/9OkePyY753/02dZ+qvboYceOjmRSHzaWnuJpHoqAgzoGWPMZel0mruqVrkeV2RcKWk3KoIQs5IelHSR53n/qcUJNK7r/l7S4VU+HSVJt8disc+vXr36VZZbVJrruu+T9FVJB1X9RoAAayx2Jc57bm6+Id8RnOX7NkZBpAmJuNyD9pExhgCrhgOsWMy8EkuYE3583iM/Z6mvLclk8gBJXzXGvJ9qAL20S/piQ0PD9StWrMhRjtoxe/bsnSZMmPB5a+25kuqoCEK+Hbpq5syZX1m+fLlfSxNWCwHWLxzHuaClpWUtyynGkuu6ddbac40xn5e0U9VuBAiwxswHbzlqt45iYVm+wz/Ccu9H7fvaXbTnrtMJsGowwHIcFWIJffHh8x65giW9tqVSqXdZa6+XNItqIOKspPuCIPh/ra2tz1OOmt7uHWSt/YqkY6gGQu7XsVhsQS0N8qnmAOvvkj5LnyuMt/nz588oFAqXSzpHUtXdfc5xnOaWlpbfMCfHzrE3N78lW9D9hay/T5TrEI85ct+wr+KOQ4ClGgmwHGvjsfjDZkPdRx9a/FAna3s0ROSGJ8DAJ1TGpI0xC1taWv5ANaIjmUy+wxhzvaRDqQZC7FczZ848qlZGYhnXdX8n6S1V9Jk3SrpS0o2e59EEFqGRSqUOsdZeJ+ld1fS5CbDGz9G3vv3CXLt/dalgI9tHZs9dp2vf1+xCgKXqD7BicfN3Gw8+8ONzH/kra3c0zZ07d+cgCK6w1p6pKvxCBxiB54wx/y+dTt+vCNz9C9trbm6Ot7W1fULSFSLAR0hZa0/NZDJ318K0VFOA5Uv6uqTPeZ73CoshwiqZTB5rjPmKpAOr4fMSYI3zgc/i5vjEXezNuY7gdN+XE7Xpd4xR4+v31oQJdSLAUo/3qJ4Ay8TMBuPoEw+d9/PvskZD6vpCJwiC640xR1IN1KictfarpVLpS2vWrOmgHJgzZ870WCx2maTzVGN3LEf1M8ak0+l0U01MS5UEWL+y1l7A7WdRLbr7Y51ijLla0i5h/qxBEBzR2tr6W+ba+Dr260ftl88WvpXvCN5kI9Yga9fpU/T6vV4jAiz1eI/wB1jG2JLjmNt+eP7PPskajP50337+BkkHUw3UkIcdx1nY0tLyNKVAX8lk8gBjzBclLaAaCBEraYrneVXf3sG4rvtbSW8N6ef7uzHm0+l0+ocsc6hGjY2NuzqO8wVJn5AUyrvPEWCFy9E3N7+nWAjuzWdtpIahH7b/6zR50kQCrK3vEd4AS7Jy6vSb9rbSBx659JFNrLUYzAEHHDBh2rRpiyR9VlIDFUEV+5MxZhE3vsFQ0B8LYWOMeUM6nf5btU9HWC9XaTfGXLFp06bZhFeoZq2trS97nne2pEMk/YSKYEd+cu6Kn/3igt/uNnUn55J4nclHZbr/9cKrzPxqOGiIm387iSD1g3N/1kx4haF46qmn8p7nfVnSTEk3qKslBFBN1ktaNHPmTJfwCkOVyWR+5XleozHmZEkvUBGM+zGc49REGyaTSqV+Y619W0g+j2+tvaNUKn1+zZo1L7GYodakUqkPdN9294CwfCZGYIXXsbe5k4qFhvtzncFxgW9NrU/vwfvsoZ0aJnf9wAgsqdfPPT73OIzAkmM7YnF7wXfP/unXWTMxGo2NjSljzFJjzJupBkKuaIy5uVQqXfHYY49tpBwYqXnz5k0tFoufNcYslDSBimAcrPM8b49amBDH2tCcFP06CAI3k8mcRXiFWtU9ovCNkhZJCsXoBWMMd80JqYfO9Dp/dt6KD03aqe4N9ZNjf6r16f3XCy8rav2/ws448p06e3fd7pOnEV6hHFpbW9OZTOZwa+37Jf2LiiCMrLWPGGOS6XT6AsIrjNaqVas2ZzKZSxzHeb219j5xx0qMvZo5hgvDCKx/WGs/nclkvs9yhSg59NBDd0skEldaa0/TOPbHsta+LZPJ/I45En5Hf+3t/53P+V8r5uy0Wp3G/ffcXbvvNJURWOM9AstYGcd6ZqI9ZvkpP+HSB1SE67qTJF0q6SJJE6kIQuBJSRd6nvdjSoFKSaVSzdba6yQ1Ug2Mgf/EYrHk6tWra6Jfh0kmkyuMMUeMw3tvttZetXnz5hueeuqpPMsVoqqxsfEwx3Guk/SO8Xh/Aqzqc/RNzVdmO4NL/ZKN19q0JeJxJQ/cV47pGhxMgKUxD7AUsy86Jjh+2Vk/4dJijNV+cB/Hcf5X0vFUA+Nkk6Qrc7ncjWvXri1QDowBJ5VKnWKtvUrSaygHKmR9EATvbm1tTdfKBI1HgOVLuisej39u1apVL7JMAV2SyeQHjTHXStp/jN/6rZ7n/Z45UF3eedPcneNm4n259uA91ldN9cfae7ed9bpdZ0giwNr+PSsYYBk/Z2P2sgfP/PFXWcMwHhobG9/mOM4SMSoBYyeQdGexWLyMFiYYD4cffnhDLpf7f5IukFRPRVBGv5N0gud5/6mliRrrAGuF4zgXtLS0PMbyBGzPdd06SedIukLSWF0mRoBVxY772lvcjkJsWb4zmFkr0xRzHCVfv6/q4jECrO3eswIBlgIbxIMfaPrEjy4/fjkjDzDenFQqdYK19n8l7U45UEGrJC30PG8VpcB4a2pq2sv3/auNMSd0HfAAI/YfY8zn0ul0TfZbG6sA6xljzGXpdPpelidgx+bOnbuz7/ufl3SuKtwfyxjzlnQ6/ShVr25Hf+0dp+Ry/g2lXDClFqZn9xnTtP9rdyPA2u49yxlgBbIx/TlWV/rAt0798dOsRQiTWbNmTZk4ceJF1tpLxV27UF7PGmM+W6snd6huqVRqrqQl1tr5VAPDtEHSlzdt2rSklls0Gdd1fy2puUKv32GM+cqUKVOuWbFiRY5lChieZDJ5sDHmeknvrthGgACrdixT7L0vHfG1zo7gdOvLqfbJmXPAPpo4IUGAVYEAK4j566XSKd8+48c/YsVBqLcDc+a8PhaLXS1pAdXAKHVKujGXy121du3adsqBkJ+jf0TSVyTtTTmwA0VjzN2+71/W2tr6chRWjkoEWIG19puxWOzilpYW7l4EjFIymTy2O8gqe38sAqza88Fbjtqto1hYluvwj6jm75ZnNEzWQXvvQYBVzgDLCQpW/lcfOONHn2FNQTVpbGx8Z3d/rEOoBkbg4SAIPtna2vpvSoFq0X2n1vMkXSZpChVBf9s2SYs8z/tHVCbYuK77c0lHlfFk+LeSFqXT6VaWJ6B8DjjggAnTpk1bJOmzkhrK9bqO48xtaWlpocK1531fO/LIQr54dz4bvK5ap2HWvq/T1EkTt+xhCLBGGmApsIET/LLdCT70o9N+1MbagSo9mdvSJ/JySTtREQzhvCRtjFnY0tLyB6qBatXY2LiPMeYaY8x/if5Y6Dru+4O19qLW1taVkduuu657h6TTyvBaW/pccT05UEEV6I+1q+d5r1DZ2vXem5svymeDK0sFW3V3t5kysV6z99tryy6LAGsEAZYf858O4p3vf+DjP1/L2oBaMH/+/BmFQuFydYVZcSqCfrwi6aqZM2fetHz5cp9yoBY0NTU1+b6/xBjzZqoRWTXdoH0oTCqVOtNae+soXqNd0hcbGhqup88VMHZc100aY6631r5tFC/zd8/zDqSata/57ub6SZ36erbN/28/qK7+WAe+7rXaeeoUEWB1v8oQA6zAKW1UzJ5x3ynfX84agFqUTCYPNcYskfR2qoFueUlL6uvrr3700UcZbYpaPX8/wVr7JUl7Uo7IWG+MuSqbzd68du3aSN8x2sybN29qqVR6VsO/JCkwxnzDWvtZz/PWsUwB4yOVSn2k+3bj+w17A2DMhel0+nqqGB3vveEd+/s2+G6u0z+sWr63mZCoU+P++8gYhwBrCAFWYALfd/w77z/le2fJMCIakdgPfthae+1I9oOoKT+U9Kko9YJBdB166KGT6+rqLpZ0kaRJVKRmFSTdVCgUrnr88cc3UI7ua2hTqdRp1to7hvF3q4MgWBTFay6BMJo1a1aivr7+bElfkDR1KH9jrW3J5/NviXqKH1XH3Pr2o3PZ4J5CNti1Gj7vvrvvqtfuvBMB1iABlpWV7xR/U8rlP/itc37MQQ7YDyIq/tb9hdxPKAWi5rDDDtuzrq7u89ba06XqvwM1eolcg/ah2NoEznXdKyR9ToM3hvu3tfbiTCazXPS5AkLHdd3XGmOuttaevIOdWGs8Hn//qlWrnqVq0Xb0Tc1XZrPBJX7R1oX5c8ZjMTUesK/iTowAq58Aq2SKz9qYf/y9J3+fL5YQaY2NjXs4jvMlSSeKZse1br0x5vIpU6bcumLFihLlQMTPAeZJWiLpTVSjukW5QftQmD4L/lHq+uZqXp/nPWOtvXHChAk3rVy5MkvZgHBLJpOuMeYSSR9U7wa3L0m6LZFIfIl1GVscde2hk536GfflOoPjAt+G9oRvz51naO/ddiHA6vErX8XOYrz0qftO+v6tLMnAdidzS/s5pkX1K1lrb50wYcLlK1euXE85gG3n9q7rfkzSNZL2ohxV5x+S/p/neQ+KwUIDL+QDnPweLOkNkiYZY55qaGjw+GYDqD7ddyw82BizszHm3xs2bPjrU089lacy6M/RNzfPKZXst/Id9mAbwv2m4xjNmbmvEnXdg8UiHGBZJ/B9U3xgn3/OPmXx4sXsn4EBjnNpdlxbrLWPxGKxRS0tLdxVFRiA67qT1NUb62JJk6lI6NGgfTg7dkoAAOjpPbc2n1DqDG4u5Gzo+sjsOn2q9n/ta7rPZHqe1UQlwApUdEp/mpyIHX3Tx779PEsrMLSTOWPMxdbaSyTVU5Gq9JSkz3iex11VgSFqbGzcIxaLXU5/rNAqGmPu9n3/stbW1pcpx9AQYAEAtmflHH3rEV/Jttnz/JKNh2enZXTIfntrcv2EyAVYfqz0om/yH73nxB+sYAEFhm/evHmwnojEAABPZUlEQVSvKxaLXzTGnMAxcNXoMMZ8ZcqUKdesWLEiRzmA4etuLXK9pLdSjdCgQfuIzwUAABjAsbc175LP68F8h3+EDclVhVMnT9Qb994rMgFWIL9QcgpX3n3S965iiQRGr6mp6YggCJZKOoxqhJa11t4fi8UubmlpeYFyAKOXTCaPNcYslbQf1Rg3q621F2Uymd9RipEhwAIA7NCxt7+zKddZ+na+M5gZhs/zhr321PTJPdo61GCAZRXYUqz0g8kb2j924/k/pXcdUF5Od3+sayXtRjnCw1rbYq1dyB24gPKbNWtWor6+/mx13bhtKhUZM/8xxnwunU7fJxq0jwoBFgBgyI6+5e3n5zr8a0oFO3E8P8ekCQkdut++Pc54aifAslYqOYW/5o394P0nLv8bSx1QOXPmzJkei8UulbRI0gQqMq6eM8Z8hhM8oPJc132tMWaxtfY0STEqUjEbJH25oaFhKZdBlwcBFgBgWJoXN8cn7mJvznUEp/v++DUF3f81r9Gu07u/PKyRAMs3xfVFUzrtnhO/+wOWNGDszJ0790Df978q6RiqMeaykm6or6+/+tFHH22jHMDYcV03aa29zhhzBNUoKxq0VwgBFgBgRI657h17FuLBd3Id/uHj8V15XTyuOTP3Vcxxqj7AChQUS07hpjtPfPBClixg/DQ1NR0ZBMESSbOoxph4OBaLnb969ep/Ugpg/HT3x1oiaSbVGP12TTRorxgCLADAqBx96zvfVewsfSOfC1471u+91667aM+dZ1RtgGWNtSXlf5s1ifd/84RvbmZpqh7n3HzOlLaGNnvfSfd1UI3a4rpunaRzJC2WNJ2KVERrEASLWltbf0spgHDo0R/rCknTqMiw0aB9DBBgAQDK4phbjrg4264vFIvBmPWRiTmO5szcT3WxeNUFWCWn8HRBuePuOeGHj7P0hNe593xili/7Tll7mGTmSHbf7gP7WPeRVElWmyT7tGQes9Jjkv+L20655+9Ur7rNnz9/RqFQuFzSuaJHTLm8KunKmTNn3rR8+XKfcgDhM3fu3J193/88274ho0H7GCLAAgCUzbG3uZMK+al357KlBdYfm33M7jtN13677V41AZavUlspnj/3zo997z6WmHA6565T9gpM7CzJfljSQSM8xHpcCr5bKjm33vGJO16kqtWrqalpju/7S+gRMypFSbdI+rzneZsoBxB+yWTyYMdxrrPWvodq9IsG7eOAAAsAUHbvveEd+/s2+G6uwz+s8jsyo8P221cTEolQB1i+8f1SLHfnHR/97tkyClhKwuecO047IIjp/0k6QVKiTEto1kh3GOtf+7VT736GKlf1ydyxxpilkvajGkNnrX0kFostamlpWUs1gKrd9l0vaX+qIYkG7eOKAAsAUDHvueWID5ay9o5Czs6o5Pvs3NCgA/bYI5QBlrVWRSf/aKmu7YN3H/9TDnRC6Jybz5kSTCpcJNlLJVXoEliTtbI3FAN79V2n3cWd1qpUjx4xV0pqoCKDetJa+6lMJvMwpQCqW4/egFHvj0WD9nFGgAUAqLijb2q+MtsZXOqXbLxS7/HGvfdWQ/3EXo+Nd4BVNMV1JesvuPOEZY+yFITP4sWLnXX7/ucEY83/Stp9jA69nrMm+MxtJ991nwy9MqpVY2PjHrFY7HJr7emSHCrSy0ZJ12zatGnJU089laccQO3o0R/rHEnxCE06DdpDggALADAmmm9unlIf6N5sh3+cDcq//5kycaJm7bV3r8fGK8Dyjd9ZtJ0X33HC929mzofT2XedckRgnCVGmjM+n8C2WEcLbzv5rpXMjerV1NTU1N0f681UQ4G19pulUumiNWvWvEQ5gNrluu4bJH1V0tE1Pqk0aA8ZAiwAwJh67x1va/Q7zDfzHfZgW+ZjgdfvsadmTJmyLSIY4wArkA0KJvfgxrg9cfnxywvM7fA5/eunvy4et19UV5+r8T4OspLud+Rf/LVT7nmBuVO9x9Ou635E0lck7R3RGqwIgmBRa2vrn1gcgOhoamo6MgiCJZJm1dik0aA9rDtcSgAAGA/vvfXtJxU6/JuKeVu2PjL1iYQO3Xdfme7d29gFWFYFJ/8n348fc8cJ33yWuRs+Z9x2xiQnEVws6WLJTgzZwViHlflKXdvEL914/o1cclWlDj300MmJROLT1tpLJNVHZLKfNcZ8ltEJQHS5rltnrT3FGHO1pF2qfHJo0B5yBFgAgPFj5Rx96xFfybbZ8/2SjZXjJffdbXftPn1618uPQYBVNMVXSrHSCV//r2U/Z4aGchkzZ99z2kesdK2kfUJ+VPaUsfrMLafcuZwZV72ampr28n3/amPMiTU8mZ3GmGunTJlyDaMTAEjS/PnzZxQKhctVvf2xaNBeBQiwAADj7oO3HLVbR7GwLN/hH2FH+R1+XSymw/abqZjjVDTACkypkDf5q7/+0eVfYA6G05l3npoyjlki6fDq+uT2V4GCRbefcs/jzMXq5bru2yUtkXRoDU2WlfSgpIs8z/sPcxlAX6lU6iBr7Vclva9KPjIN2qsIARYAIDSOvu3t84rZ4Fv5zmDmaF5nz5131ut23qUiAVZgAlsw+Yft5M6P3n7sQ53MtfD55J2n7lE0utwYU713iDMq2cDelZC97MZT7+YyhurlpFKpE6y110rarcqnxTPGLEyn09xVFcAOdffHul7SISH9iDRor8rDIwAAQuboW464INepq0v5YES9ihzj6LB991NdPK5yBlhF5f/eZnIfuO+j3/8rcyl8FixbkJjRMfVsI31B0tQamawNVrritf/e6+bFixeXmMvVafbs2TslEolLJF0gKVFlH3+dtXZxJpO5Q1LA3AQwVD36Y10ladew7FdFg/aqRYAFAAil5sXN8Ym72Js7O4LTrT/8UTS7Tpum/XZ7jcoRYBVNYUPB5D7x9f/67neZM+F05t2nHWu6LteaWZtTaJ8wji685eS7fsrcrl7dl9Zcp+q49XxB0q3xePxzq1at2szcAzBSIQnxadBeAwiwAAChtuCWd+zZVgq+09nuHz6cAd5GRrP23luTJkzoOv3f+p+ufwwlwArkl/Kxwm23Lfj2J5kT4XTOvacfHPjB9ZJ5dzSO3OzDgeKLbv/47TSZrWLdl9YslfTGkH7Ehx3HWdjS0vI0cwtAucydO/dA3/evkrRgrLdpokF7bRwGUQIAQDU4+tZ3vquYK30j3xm8dqh/M23yFB20xx6ShhdgBbLKm9xv6jtzxy055QcbqX74nHbHaTPqHHu5jDlXUixik1+UtbfUJfKfu/GEbzIypkq5rlunrrt1XSFpWkg+1hPW2gsymczPmEMAKqU7xL9O/7+9O4+Psy73//++7knSjZal7NIFRfCAoiyigiIqqEfA5YupeqBtZibNJCmFFmWRRQcREQHbUpplmplJWurRRn8HFVGPiBsHF1ZFVBSBtiwF2wLdm8zc1+8PCoRa6DaT3Mm8no/HPB7tZPK5P3NdnyRXrtz355beVuZDsUH7EEMDCwAwqJzedsoXNq4Lv1ro8WE78vq3vOEQjRk5cocbWD1Bz9LNWn9Wx6Rb7iXa0dPQ3lAdGxbGXX61XPtWeDieNrP0AY8f0pFOp9mbaJA64YQTxhaLxS9JGshm7GpJXxk9evT8X/7yl+y1BqDsTjnllKo1a9YkzOwqlf4mF2zQPkTRwAIADDq133zPiLXDajo3rQtrw+Lr/ywbOWyYjho//sUfea/TwCpY7/oebbqgfVJ3hghHU1MucWpoNseko4jGq9wbhj4zk8zdSSgGr+OOO+5YvbiP2/v68bAFM8u5+2X33nvvSrIAoL/12R9rpqRhuzkcG7QPcTSwAACD1ifbP/imjZvD72xaHx7n/tp/YHvjAQdq7Jgx22xgFa1Y7LFNC1d6OK17UneRqEbPtK5ph8e8eIPcziAar8klfTdW1IXz67NLCcfgdeyxx55pZjdKmljWXwLMfu7us+69994HiTqAgfaOd7zjzbFY7Grt2v5YbNBeIWhgAQAGvTPaPvTpzZsKN/Zs8IN8G2eK11RX620TJip4+ceeqygPN2vTHVUq/Ne8Sd0UOxE0M1+310bFLrHS/FW2UmyQ7LoRo164dvak7o2EY3A67rjjRprZRe5+oaSRJR7+H+7++fvuu++HRBpA1Bx//PEnufsXJX1U27+seo2krjAMb7j//vv5400FoIEFABgyPtb2gU8UC+FFvZv82EKvD+/byzpk3/203+gx2ljo2VA1LFwSU/EiGlfRVLukNjZ23Zh6ma6StF/EKqeCXAvN/Ptuiim0T0v6rKQgYmF83N0ubE90fJcVNXi9853vHFcsFr9hZp8pQd2+RtJVmzZtuvGhhx7qIboAouzoo4/ev6qq6mNBEBwfhuEbzWwfST2SVrv7n4MguOv555//+SOPPLKZaFUOGlgAgCHpk/lT9urdWDzJg+r9Q4W9o0aO/Nv3Jt92n0xsdh1hjfn6UySfI+nt0Zud32FBMKt1asef+j7bkIsfG1gwR/27d9GOlnq/8jA8vz2Z+yOra/A6/vjjT3D3uZLevSsL191vjsViF919990riCYAYLCigQUAAAZccy4+LrTgakmTI1gtPWKuS1vj2e7Xe1kqnzzTpLLvXbQLQkmLFav+QtuUtmdZbYNWcNxxx50l6RJJx+7A63skfTcIgq/dfffdDxE+AMBgRwMLAAAMmIb2hpFBTXiR5BdLGh6xImm9y67fpMLXO+OdO3Q3o1lLakdsWj/mPDddLtceUXo/Lj0fSF+vWjtyzrzz5nHJxSB2zDHHHGlmp5vZ8Wb2RnffW1surZH0oJn9dvPmzT988MEHnyNaAIChggYWAADofy5r6kx+2qXrJY2P3OykmwMVL2qJd+7SJVeNXVPeoLD6GknnRK3ecunv5sHn2xILbmUhAgCAwYIGFgAA6FepbOJ4CzRXshOjNzu/2wOd3z4199tSjNacn/bO0MO5Mr0nelWg3R6TzZxft4DLywAAQOTRwAIAAP3i3Gzi4F7Tl82sXpG7a5896RZe2j41t0jW9/6VJeCyVFdisrldK+nAiKWlV+6tYW/VlzKpzAusUgAAEFU0sAAAQFnVLqmt2Wf9mCaTrpI0OmKl0EaX3xjbMOyrLdNb1pXzSJMXTh41qjjswiju9yVplUtXrR615qbuSd1FVi0AAIgaGlgAAKBsUvnkmYE016VDo1cF+a3ycEZbvPPx/jxsc0fysDCmr0mqjVxMXPd7oJntddlfs3oBAECkSjdCAAAASq15Yf1/hMVwtmQfiWD5c59JM1vjHb8ZyFk05uo/KPPZko6OXoj81kIQnNcxpeMxVjMAAIhEeUIIAABAqUzvmjK2WKz6ksymS4pFbHqRu0wunU4HT09cdo65XS9pv4iViRtdfmNv6Ffnkrm1rG4AADCglQkhAAAAu6uhvaHaaorNJl0pac+ITS/yG5U3LW7aO+zpudikWZJqIlYulm+DewAAgB2tSAgBAADYHU25xKmh2RyTjopepWO3e1g8vz2R/8ugiGU2cYQH9k1JH4ve7PxuD3R++9Tcb1n1AACg38s6QgAAAHbFtK5ph8e8eIPczojg9B522QXt8Y7bBmNsm3KJU91srqQjIzY1l3RzoOJFLfHOFXwVAACA/kIDCwAA7JSZ+bq9Nip2STQvd9NzJl27ctSa2d2TunsGc5yjfFmmSetddv0mFb7eGe/cxFcFAADoh/oDAABg+17ZcFzXSbZ/xCqagoeeq5FfPi+R/9dQinukN8Y3PWKuS1vj2W6+QgAAQHnLDgAAgO1o7kp8IAxttqS3R292focFwazWqR1/Gso5aOxKHqNQcySdHMUchApnZuKdD/LVAgAAyoEGFgAAeE3Nufi40IKrJU2OYBVTkWf/pPLJMwNprkuHRiwfQ/YsOAAAEIVSAwAAYCuTF04eNao47ELJL5Y0PGLFS8XvvzRrSe2ITevHnOfSZZJGR2x6z7l05UFLx81Pp9MFvpoAAECJakAAAIAtXNbUmfy0S9dLGh+52XEHvFdp7JryBoXV10g6J4J13cMW+KzWqbkfkykAALC7aGABAABJUnN+2jtDFedIdmIEp/cHD3xm+9Tcb8nUa+TOw7kyvSd61abfGqpqZqYu808yBQAAdrmkIAQAAFS2c7OJg3tNXzazeklBxEqVJ93CS9un5hbJ5GTrdbgs1ZWYbG7XSjowYrPrlXtrdc3mK+ads3gNyQIAADtdFRICAAAqU7T3UbKNLr8xtmHYV1umt6wjWzsuyvuXSXrazNIrR76Q7Z7UXSRbAABgh6tDQgAAQOWJ7J3sJMn8Vnk4oy3e+TiZ2nWRvoOkdG8Y+sxMMncnmQIAADtUIhICAAAqR2NX8hiFmiPp5AiWJfeZNLM13vEbMlU6zV2JD4ShzZF0dMSm5pK+Gyvqwvn12aVkCgAAvG6lSAgAABj6pndNGVssVn1JZtMlxSI2vVUuXbV61JqbuKysPNLpdPD0xGXnmOs6yfaP2PQ2SHbdiFEvXDt7UvdGsgUAALaFBhYAAENYQ3tDtdUUm026UtKeEZter9xbw96qL2VSmRfIVvk1LW7aO+zpudikWZJqIlaVPuHyy9iwHwAAbLtUAAAAQ1JTLnGqm82VdGT0KhC73cPi+e2J/F/IVP+b1jXt8CAMv2nS6REsT38VyGa2xBc8QKYAAMDLFQIhAABgaIl2c0IPu+yC9njHbWRq4EW4yRlKWlwo2IUd0zqeIVMAAIAGFgAAQ0SkLw+TnjPp2pWj1szuntTdQ7aiI8qXmbr0fCB9vWrtyDnzzpu3mWwBAFC5aGABADDIRXqDblPBQ8/VyC+fl8j/i2xFV8Q3+v+HPLigLbHgVjIFAEBlooEFAMAg1tyV+EAY2hxJR0dvdn6HBcGs1qkdfyJTg0djV/IYhZoj6eToVa52e0w2c37dgofIFAAAlYUGFgAAg1BzLj4utOBqSZMjWF08Yq5LW+PZbjI1eKXyyTMDaa5Lh0Zsar3unvfeqssyqcxKMgUAQGWggQUAwCAyeeHkUaOKwy6U/GJJwyNWVKx32fWbVPh6Z7xzE9ka/GYtqR2xaf2Y81y6TNLoiE1vtUtfWT1qzU3dk7qLZAsAgKGNBhYAAIOBy1Jdicnmdq2kAyM3O+nmQMWLWuKdK0jW0HNuNnFwr+nLZlYvKYjY6vurFMxqSyz4KZkCAGDoooEFAEDENeenvTP0cK5M74ng9P7ggc9sn5r7LZmqkLWo4hzJToxeVeu3FoLgvI4pHY+RKQAAhh4aWAAARFRj15Q3KKy+RtI50fuZbU+6hZe2T80tksnJVgVxWVNn8tMuXS9pfMRm1yP3th7X5blkbi3JAgBg6KCBBQBAxER73yHb6PIbYxuGfbVless6slW5orwfm6SnzOzKAx4/pCOdTodkCwCAwY8GFgAAERLhO79J5rfKwxlt8c7HyRReEuk7YsrvDjw2syWx4K4hn4f5zXsURmw8PGbBm2S2dxj6mCCwNa5wfRDGHrPY5ofnT124ihULABisaGABABABjV3JYxRqjqSTI1gu3GfSzNZ4x2/IFF5Lc1fiA2FosyW9PWJTc0nfDTz8fEsiv3woxbwhX/e2QMF/SfqQZMdKim0nFH+T2S8sDL9zwLIJv+HsNADAYEIDCwCAATS9a8rYYrHqSzKbvv1fPvvdKpeuWj1qzU3dk7qLZAvbk06ng6cnLjvHXNdJtn/Eit71Lrt+kwpf74x3bhqsMa5dUhsbu2H0WZJdKNfxuxGPx0L5bO+pymZSmQ2sXgBA1NHAAgBgADS0N1RbTbHZpCsl7Rmx6fXKvTXsrfpSJpV5gWxhZ83M1+21UbFLTJolqSZi01vu5pe31+UWDra4NnYmT5JrvrZ3lptpnVy9erEpPmY7vw48KfkX2uLZb7NyAQBRRgMLAIB+1pRLnOpmcyUdGb3KwG4PAp3XMqXjr2QKu2ta17TDgzD8pkmnR21u7vpFELOZrVM7/hT1ONYuqa3Zd/2Ya/zFhqBtVc2vk/yHFtodofvdXqj6R98zqmbcOGNYOGbTYUUPj5X0QUkfl7TPvwdEP4jFehPskwUAiCoaWAAA9JOmbOIID+ybkj4Wwek97LIL2uMdt5EplHzt5xKnhmZzTDoqYlMLJS2u9vDz8xL5f0Uxdg3tDfsG1cUfyPSevs+79PfAdd26qp7/XjRl0fodHa92SW3NPuv2/JTJL5bpmK0+vCxmwcfm1y14iFULAIgaGlgAAJT7l/fFTXuHPT0XR/RyqudMunblqDWzuyd195AtlEvEL5uN5NdB/YL6Q6qq/HZJR/R5eo3Mrjjw8UNa0ul0YZcHd1lTvv5sN79e0gF9Y+GBn94+NfdbVi0AIEpoYAEAUCavbGht10vaL2IVQMFDz9XIL4/qmScYmiJ+44LInIk4Ixffr9fs15K9pc/X7T0W+mdaE7lHS3WcxoWN+6vYs1Cyj/R5+jkL7JTBcHklAKBy0MACAKAMUl2J95hbRq63RnB6P4tZMIvLhDCQGruSxyjUHEknR21uLt1SHfr0m5K5pwbi+Ol0umrFhOV3SHrfK1W73xpurvpMOe4YWLukNrbv+j1vcnljn6eXxYLeY9kTCwAQFTSwAAAooVlLakdsWD/myyZ9QVE7u8T0iLkubY1nu8kUoiKVT54ZSHNdOjRiU3vBzC5qrevI9PeBG/OJayS7pM9Tt4U9sU9mUpnel56YcfPZYwo9w07Y/td9sE5h+NwBy8f/c3uXHDZ2Jlvkanrlc/3WtrrcmaxSAEA0SlkAAFAS52YTBxcCu03bu8V9/1sj09WrRq6Zwz5XiKJZS2pHbFo35vMyXeLSqIhNL3fg0nGp3dpvaic0diWPkesPclVtKdcfDHuCd2995lVjV/IEhfr9Tgy9yaTbwtCvaU/m7tnWC9LpdLBiwvIfqs+NJkw6uzWe/RarFAAw0GhgAQBQAqlc/Eiz4MeSxkdoWi7p5kDFi1rinSvIEqLu3Gzi4F7Tl82sXlIQnYrZbq+u2njWvHMWryn3oRrzif+T7MQtB95oYXhMazL38L+9bucbWC8pym1GW6KjdVsfnN41ZWwxrP6TpIO3PPV02BM7rByXLgIAsDMCQgAAwO5p6Gx4k1nwS0WoeWWmO83snW3x7BSaVxgsbkrmnmpP5FImO0nSHyIzMfdTe3tH/GDGjTOGlfMwqXz9aa80ryRz/9q2mle7KSbzeals4vhtfXD+1IWrZD6rz1MHxWoKDaxOAMBAo4EFAMBumN41ZWzgxR8pMncZtCfdfGrr1OzJrXUd95IhDEat8Y7ftdVl323SJEnLojErf39h9IYuefmuYAjkF/T574rhe6y5Yae++mVtJl3S9yHpW5K2Pnsqppid/1rjtNXllpheObvLZbPS6TS/NwAABlQVIQAAYFd/n5UVu2q+LfkREZjNBsm/EfbErsukOjaojvRgkDN5q7LdzfObf+yjNl/qrlmShg/sl7w+09SZvL9V2WtLPXb9gvpDXH5anwDMnT2pe+NOzc/85ra67P9t/fyWyw3vUp8bS5jrxNcbK3S7xsxv2fLf8U9PXP4BST9nYQIABgp/SQEAYBc15usb5X7qwP+i77dKxaPa4rkr2acGQ03L9JZ1rXXZSwMPD5e0aKDn49KVjR3Jt5Z63FhV+Cm91GAyFcKqoGunC/sw8G093zY1+wdJWze2Dnm9s6oOWnbIjyS9fPmxSWexGgEAA4kGFgAAu6A5Fx8n82sHeBr3yvTetrrcmW3xzsfJCoaylkR+eVs8OyUI/IOS/jSAUxmmmOdKf0mdffDlf7p+m5mceXpnRyjGiv46H1669RPpL6df8/XpdLpgsltenpLrQ6xCAMBAooEFAMAuKMoulzR6gA6/yqWZq0atede2LhcChrKWqblfHLh03DFuPlXyZwdmFvbOp8c/UVvSEaX3vPxv1y92ZQwvevg6Hz54q/8/JtPrNbwU+iuXDJp0eLIjuQ8rEAAwUGhgAQCwk5pz8XFmVjcAh+6V+41hT+xN7fHs3O5J3UWygUqUTqfD9rrcwuEKj3DpWkmb+3sOZv6lUp2F1bS4aW9JB7z0/9Dsj7tU2Me2fQlhKhc/UtIpr3rS/dbtjRcL/YG+/x8WBG9h9QEABgqbuAMAsJPcgpmSavr5sN8PivpCS33uETIAvGhOvPN5SZc05Bs6YyrOdumj/Xj4I5+esPx0ST/c3YGspzChb+cpCLRLX+fuGr2lGSZJ6t3QO6o6plM88Gvkr2zgLulpVdV8Y3vj/WvMmsfGbhhTkL/4O0NRPkHSXaw8AMBA4AwsAAB2QjqdDlz2mX485MMuO70tnv1kS32W5hWwDZl45m+t8ex/mvtpLj3UX8c16b9KMY7LX3U5ctGC53dpPq7bvadn9UuPqipf7uaL5Dqkz8v+GMTsQ21T2rZ7+WX3pO6iXGteeb8+htUGABgoNLAAANgJz0x44iTJ39APh3rOpZkHLh331vZ4x21EHti+1kTudu+JHWNmKZlW9sMhPz554eRRuztIKA1/1f83h2GpJ2rSesmvOnDpuONbpnT8dSc+ddNL//CB2/cPAAAaWAAA7Nxvgf6f5R1fBZlu6i3qsPZ4dm46nS4QdGDHZVKZ3ta6jkx1GB7p7hlJ5dwrbuTI4rD37/aXvfmGvv+vGVb6RpFLoyS7YsWE5ffUL6g/ZCc+ddQr355eaWYBANDf2AMLAICd+SXQdXwZR78j9HBmJt75IJEGds+8RP5fklLNC+vnhMVwtmQfKcuBzI+XtHtnSRb0Qt8dqoqh7yfpr7sw0j8lPf/KtxQFMk2UtHef17y9KqYbJG33UuiG9oaRUvGVywYDf46VBQAYKDSwAADYUS5Tp44t/S/AesRcl7bGc90EGSitLZfLfTSVT55p0hxJbyzpl2+o43Z3jLAYezSIFV2SSZK5HyHp1zs9UOAXtk3N/U/fp2YtqR2xcd2Y78n0n32+55yZyCZG55K5ta/7i0KNHx5umdOL8wr+yYoCAAwULiEEAGAHTV84ZR9JY0s5psvnrxq55qjWeJbmFVBG7fHsD0eMWvNWc1tY0oHND9/dITKpzAZJS18Z004o1fRmT+reaGbXbPWdZ8Qw8+0240P397zq21VN9cOsJADAQKGBBQDADur14XuVeMhft9flZnRP6u4hukD5zZ7UvfGAZYckJSvlZbr7lGIQN9350r/N9aFSvu9iT/CnfzueYkfuwKee1uffD7ae3colhACAAUMDCwCAHWTFwt6lHdFvlsmJLNB/0ul0QabvlPA7Q0m+L5j7z1/+ziAd2pSvf3epZphJZV7wvntjSXLT6545NjNft1ffm1aYdDurBwAwkGhgAQCwo2I2spTDuQfPElSg/1noz5RwuOraJbU1uzvIcIW3SLbxpf+HFjaU9D33vURRkskPfb3Xb/JYXNLwl+cT+n+zcgAAA4kGFgAAADDA5sQ7n5f85Q3Yze2c6R3JCSU7gL+6gSXZa25mP2tJ7QiZvvDKS/Xn9mTuHrIEABhINLAAAACACPDQvyG9fFlxdbHKry/V2Ga2VQPL31S7pDa2rdduXD/6i5IO7vPar5MdAMBAo4EFAAAAREB7MvdHmX/v5SfcPt3YmTirFGO7bX0GlkbuvX7Uv23k3tRZf5xkF738edJDq0au/TbZAQAMtCpCAAAAMHBql9TWHLB29L690n6xmA4Ipf0U2t5mGiVJLhvj8lggVbvJ3NUjSYFrnUy9kiSzdWGo1bEgXFUsarUF4crq6t7V885ZvIYIDy5B6BeEgX1Urj0kyd06Uvm6P7XHO/+xO+N6qKVmr37OPHaGpJfvyDi9a8rYYujfkTTspU+Tqbl7UneRzAAABhoNLAAAgH7QlEu8UWZHb7n725vl9mbJD9d6HVQIJJMUvnTxmKnP7Sldpi3/9xdfJ0netxnhLjMpdJMFkhRTb29Mjfn6jZI/5tJjZnrM3R+zQI9ZUX9sTeQeJSvR05LIL2/qrP+8y9u3LIW9TLGfnptNvPemZO6pl15X/cLIPxb2WP+mvp+7znpfc3P6kXu88KNN60a/6vWFYrD+pX83z2/eo1jc/EOZ3tRnXc1rj+d+TVYAAFFAAwsAAKDEZtw4Y1hxz/Uneqj3SPZul7/LZfu/2BR4uTvQDzPxEZKONOnIF5tfJoUvNr8a88nnJN3nsvvkurdY1C87pnU8Q/YGXmtdRybVmXyfuc7ZslIOLQT2m+aO5Eda6rOPSNK88+ZtlrTDTcjZk7o3vtbrZ+Ti+/Xa5lslnfDScyb9fuUeay8kGwCAqKCBBQAAyi7ZkdxnWJUf72577uznhtKmmIcPtCTyy6P8HusX1B9QVeWny+2M3mDDaQptj1c+alGc8t6SPmTyD8mkqip5Kp/8o7n+1wP9b82akXduaZJgANSsGVnfO3rDQZI+tOWpN4Yx/SGVq4+3Jzq+X6rjNOemndhr4bcljevz9D88Vv3x7kndPWQCABAVNLAAAEBZpXL1n7HAO0Lv29DZcSYptKDYlEte3ZrIfjlK723WktoRG9eP+bSkesnfKymQef+cXFV6ZtI7ZHqHuS7qHb1hTVO+vltSV2tdx52yQfquBql5583bnMgmPlUT2P/olSbW3mZ+S2Nn4r9lhQvbpi58clfHb1rctLd6eq8MFTZL6ns3wodjRX1kfrztWbIAAIhUoUIIAADYManO5Mnm+lWpxnO3T5byTIooaljUcFBQKD4iaWRJYmY6tb0u+/MBXwu5+JEya5bsbJP2qoDl/6jkCxWraW2bMvgbG025ZL2bFpRqvFWj1gwr19lKM26cMax39IYFkiZv9aFNMuXNrK11asefdnjt5uvebAoSkjVLGrPVh38d9sTOyqQyK/mODwCIGs7AAgAAZRMUCydKNrJkA7pOkzRgDazpndOOCj28wqVaSUEFpfKNkqVV7L2oMZ9cUCjY9R3TOp5ghZfflss4p6Q6E78y2ZyX7k4oabhcTe7e1JhP/kXutyvQH7yoh4vVwarqWPXzwcaeMR4L9g6teLhCO05mp0p+7L8dxFRQqGsPXDYunU6nC0QdABBFNLAAAEDZuLRXKU/3HqiznRrzdRPlVdcWPfy0KqtxtbWRks6vqvKmpnx9rtgTXMHZOv2jvS6Xbeya8hPz6htcmqRXX0lxpMxe3Kg/kKqKLi/2qBiTXt6137Z8Rf67X5vZjNbEjp/FBQDAQAgIAQAAwLal0+mqxs76z5tif5b5JGqnl9W4vDGoKf6tKVcfl7MtRX9om7rwydZ49rOhim+XtEiyjbs4VFGuHweBf7Atnn3/zlyCCADAQOEMLAAAgG1o6qo/ekX4RF7ux7J7+Wsa6+a5xs5kneeL9e3xzn8QkvLLxDsflDRlxs1nn1voGfFxSafJ/H0uTdRr73H7jNzucvPbvSr2P5nJmaeJJABgMKGBBQAAsJXGzsTZHnpGJdp8vgKcbIrdnconJ7fHsz8kHP1j3jmL10i6ectDDe0NI1XT86aYqvaSh8PcgkIge75GvY/PiXc+T8QAAIMZDSwAAIAt0ul01dMTln9VrouJxk7b06Tvp/LJbxy0dNyl6XQ6JCT9K5PKbJD0IJEAAAxF7OMAAAAgacaNM4atmLjsf0w0r3aDmXTxivFP/Hc6neYPpQAAoGRoYAEAgIpXu6S2pnePDUvkdgbRKAHzSSsmLqOJBQAASoYGFgAAqGjpdLpq7IbR35Pp40SjhNw+vWLisoW1S2pjBAMAAOwuGlgAAKCirRi/7OuceVUmbp8bu27M1wgEAADYXTSwAABAxWrKJz8pswuIRBmZLmzsTJxFIAAAwO6ggQUAACpSc0fyMJcWSjKiUVYmt2xzR/IwQgEAAHYVDSwAAFCRwpjmShpNJPrFnmFMnXKahQAAYNdwZxgAAFBxUrn6T0j+sYhNa4VMK+W2Sq7VCnyVhx5aYOvd1fPSi8y9yrc03sxsb0kyabTLa6RgP8n3k7S/oveHypNSXYnJ7cotZAUCAICdRQMLAABUlNoltTXBep/tAzeFpZLukeweuf3ZVXh05B7rHps9qXtjqQ6QTqeDp9741CFBITzMAh3mYXiUTMdLwTGSjxioN25u1864+exb5p2zeA0rEQAA7AwaWAAAoKKMXT/mMy4d2m8HNBXc9VNz+1GhSj/pmNLxWLkPmU6nQ0nLtjzu6PN81YqJy98lt49Jfoako/s5/Af29gy/TNLFrEQAALAzaGABAIAKYzOlfjn/6mnJbgy80NkS71wRhXeeTqcLkv5vy+Oyxq7kMQpVL6lO0sj+Cb8aZ9x89tWchQUAAHYGDSwAAFAxUp3Jk+V+bDmPYdJ6ya8s9lTNz6QyG6Icj7ap2fslTa9fUP+Vqir/oqRmSdVlPuyYnt5h9ZK+yYoEAAA7irsQAgCAimGuc8p8iD9YUe9ojeeui3rzqq+OaR3PtMWzMz30d8p1f9nzIJuRTqf5QyoAANhhNLAAAEBlcJlkHyvj+D8Ie2IfaKnPPjJYQ9SezP1x1R5r3i2pq8yHmrhi/JMfZVECAIAdRQMLAABUhIZ8/BjJ31Cm4X9TvW7kpMF01tVr6Z7U3dNWl41L/vWyHsjCs1iVAABgR9HAAgAAFcEUfKQc47r0fFXon5133rzNQyhY3hbPfdHdM2U8yplcRggAAHYUDSwAAFAZRY/p7eUZ2a+6KZl7aijG7KBl46dLfleZhh/79MTl72dlAgCAHarlCAEAAKgEbjqqDMOu7Q21YKjGLJ1OF8w1WdLacoxv0umsTAAAsCNoYAEAgCGvob2hWq7DSz2uSbflkrm1Qzl2rYnco5J9rSyDh3o3qxMAAOwIGlgAAGDIi1UXxkmqKfW4ofTrSojfiFEvzJW0vOQDm46pXVJbwwoFAADbQwMLAAAMeR6zPcsysOnhSojf7EndG+WaXYahh++zdvTRrFAAALA9NLAAAMCQZ8VwTFnGNa2ulBgOt2JepnWlr0btBFYoAADYbslACAAAwFDnqhpdjnGt6C9USgznxDufd3l3yWNoOowVCgAAtocGFgAAqICKpzisHMMWLRxVUWE0lbyBpdAmskABAMB26xBCAAAAhrwwtq4cwwaqGltJYSxuqrrdpedLO6pPZIECAIDt110AAABDvuIJ15VnYB9XSWHMpDK9kn5Z0kFNE1mgAABgu+UcIQAAAEOdma0tx7hu+nDlRdPvKPGAe9YuqY2xSgEAwOuhgQUAAIa8ogXPl2Ncc9VO70hOqKRYulXdJslLOOQ/uyd1F1mlAADg9dDAAgAAQ97Bjx78hKQNZRh6WDHm35q1pHZEpcQyU5f5p8lyJRquKPMvskIBAMD2VBECAAAw1KXT6bAxl3xYpmNKP7qduHH9mJ+dm01MuimZe6oS4nnA0kMan5n4xB881EcVaPQuRc211NxyLfEFd7FCAQDA9tDAAgAAlcHsL5IfU6bRT+oN7KGmfOLKYk9VJpPKbBjKoUyn0wVJmS0PAACAsuMSQgAAUBHc/YFyjm/SXi6bHdQUHmvM11/dkG94C1EHAAAoDc7AAgAAlVH0BMGPix5eV/4j2f6SXxqoeGljPvlHyX4k89vCzbE/ZFKZXjIBAACwC7UcIQAAAJVgft2Ch5ryycdcOrQfD/t2yd8u16VBTbG3MZ/8k9z/zwPdax7+ui3e+TiZAQAA2D4aWAAAoGK46UdynTtAh6+WdJzMjjOXpJga88nHJd0t2V9M/lDo4UPeW/0PztQCAAB4NRpYAACgYgQeZEOF50ZoShNffLhcklkgqyn2NHYm/26uh1z2kCz8iwr28KZY8ZHOeOcmsggAACoRDSwAAFAxWuILHmjMJ38m6bQIT7NGrre69FbJJTcpJg1/8Yyt5yQ9+uLjxbO2ZPZoVdXGf8w7Z/EaMgwAAIYqGlgAAKCiBObXh26nDdLp7y3puBcfL561JXf19g5XYz75tKRHJP1DpofN9feiYn97btRzj3ZP6u4h8wAAYDCjgQUAACpKy9Tczxq76m+X+6lD7K0dtOXxPrnkkgIVNXbDmEJjZ/Jxdz0cSA/L7GF3/T2sCh7OTM48zYoAAACDAQ0sAABQWUxuuTDlZg9KGjnk36+rStJhJh3m0ulylyQFhaIa88k1kh6U6X657leg+1eNWPMQZ2wBAICooYEFAAAqTmsi92gqn7jCZDdUeCjGSDpJrpMkSaE0dv2YnsZ88gGZ/s/d7oypcFdLvHMFqwYAAAwkGlgAAKAiHbR0/JxnJiw/waXPEI1XqZF0glwnmHxWqJgaO5OPyPVzBf7T6tjmn7NhPAAA6G8BIQAAAJUonU6HG1WsM9OdRGM7XIdJSim0/6+3d/jKxnz9L1O55Beac/FxBAcAAPQHGlgAAKBidcY7NwXW+0nJ7iMaO6xa8veb6brQgscb88lfp/LJ5uldU8YSGgAAUC40sAAAQEWbP3XhqvWxzSfL/FaisUu15PtMml8Mq59szCcXprKJtxMWAABQjqIDAACgoi2asmj9gY+P/5SkFqKxy4ZJmmyBPZDKJe9oysXfT0gAAECp0MACAACQlE6nC23x7HSX/lOyJ4nIrjPTB9yCXzZ21v+sIV/3NiICAAB2Fw0sAACAPtrj2Z/0Fv1oSYskORHZDe6nBha7r6kzed2MG2cMIyAAAGBX0cACAADYSrY+u7otnp2ioo6W1E1EdoOryl1f6Bm94V72xwIAALuKBhYAAMBraKvP/rktnp1kHp6yZZP3kKjsGpOOssB+l8rVf45oAACAnUUDCwAAYDtaE/lftdXlzjT3N7vsOkmriMouGW7mNzd21p9HKAAAwM6ggQUAALCDWhO5R9vjHRetGrXmYJed7uZ5Sc8RmZ2sP93nNuWSlxMKAACw4wUEAAAAdkr3pO6e9njHbe11uUTYEzsgMP+Ima536QGx8fsOcdNXGvPJzxIJAACwI6oIAQAAwK7LpDK9kv53y0MzcvH9ehT7oJm/R/J3SnaspOFE6t+YZLlUNvFIezJ3D+EAAACvhwYWAABACc1L5P8l6TtbHmpob6hWde/bArPjJDtKZkfJ/a2SDiRaPkKBLZ5x44yj5503bzPxAAAAr4UGFgAAQBltOUPrvi2PlyU7kvtUVfsRKgYTzTTBpAnuPkGmCZIdKvmISoiPSYcX9thwoaSvsloAAMBroYEFAAAwALL12dWSfrvl8W8aFzbuHxSLE4ruEyzQBIXheJlNkGyc5OMk7TdUYuFmlzbm625ui3c+zsoAAADbQgMLAAAggtqmtD0r6VlJd2/r47OW1I7YtHb0eJnGScE4N01wC8ebgnFynyDpjZJig+Pd+gh5MEvS+WQeAABsCw0sAACAQWj2pO6Nkh7e8vg3De0N1dXD/PDQwyNddpTkR0o6StJbFMU7UZvFE9nE5blkbi3ZBQAAW6OBBQAAMARt2XvroS2P7peen7xw8qiRvdX/EVjwNjd/l2QnSn6UBr6pNbrG7L8ktZM9AACwNRpYAAAAFWTRlEXrJd2z5ZGXpBk3nz2mp3fEewPpo6H8IyYdPiCTM9WKBhYAANgGGlgAAAAVbt45i9dIum3LQ9O6ph0eC4ufk+xzko7ox6m8t6G9YWQmldlAVgAAQF80sAAAAPAqC6Yu+LukKyVd2Zir/6CbX2DSxyRZmQ89zGqKJ0v6CVkAAAB9BYQAAAAAr6Ut0XFHezx7hgK9W9Lvyn08k7+fqAMAgK3RwAIAAMB2tU3N/qGtLnuiSZdIKpbtQB4cQbQBAMDWuIQQAAAMWals4niLWUqyibs0QKi1buH/HrR0fEc6nS5UfEBN3qrstY35xDOS5VSGSwrd/HBWLgAA2BoNLAAAMCQ15uo/qMB/KleV5Ls2iEkm+9SKCcvfLamOqL6oLZ7rbMon3+bSBaUe26Q31S6pjXVP6i4SaQAA8BIuIQQAAEOTefrF5lVJTE3l695MUF9R7IldIWlVGYYevt/6UfsRYQAA0BcNLAAAMFS9paSjWXAyIX1FJpXZINN/l2XwYmwPIgwAAPqigQUAAIaq3pKO5sFbCelWIQntV+UYt2g+iugCAIC+aGABAIChalMpBzOFRxPSrcTCJ8sxrMWMM7AAAMCr0MACAABDkksbSzqg2QnpdJob4PQRKlaOPbAUmNcQXQAA8Kr6gBAAAIChyOTPlHRA1x7PTnjyGCL7iljY21OWgcPYOqILAAD6ooEFAACGJPPgiVKPWbTwP4lsnxgHVWPKMa6HxTVEFwAA9EUDCwAADElh4MtKPaa5/h+R7RNj9/3KMW6xpooGFgAAeBUaWAAAYGgWOaE9WoZh396Qr3sb0d3C/ciyjLtBLxBcAADwqtqOEAAAgKEo9PC+shRPFjuP6L7IZO8sw7BPZVKZDUQXAAC8qgYjBAAAYCg6aPn4hyTbWPKB3c5uzsXHVXp8t9yR8fQyDP0QqxcAAGyNBhYAABiS0ul0Qe4PlH5kHxFa8PVKj++KQ5edKWmfMgz9F1YvAADYGg0sAAAwZJn0szIN/bmmrkTl3pHQZQr1xbLkzPVnVi4AANgaDSwAADCEKx37QZlGNg9tUcPChvGVGNbGfLJB5dn/Sr1V9nMWLgAA+LeyjhAAAIChqnVqx30yPVGm4ccGheJPmvN1B1ZSTJu66o820w1lGv4vHVM6HmPlAgCArdHAAgAAQ5fJ3e27ZRz/P0IFv6hfWH9oJYQzla97s4f+U5dGleUArltZtAAAYFtoYAEAgCGu0CIpLN/49pZY0e9L5eo/MZSjmOpMfsgsdpeksp1xFij4PusVAABsu04AAAAYwtrjnf+Q66flPIZJe5n5LY355JLGfN3EoRS/5vnNezTmEteb9BO59i3bgVz3tyQW3MWKBQAA21JFCAAAwFDnphtN6o+7BtZKsTMb88lcqNi8TDzzt8Eas8kLJ48aFQ5Lhtp8odwOkZc5R4HPYaUCAIDXQgMLAAAMee3x7E8a88lfSjqlHw43XFJzoGJTYz55u7mWVCn8/rxE/l+DIVYNufi7Atl/qWhnSz62nw67ombNqO+wUgEAwGuhgQUAACpCoGBWqPAeSbF+OqRJOs1Np/UqaGvMJ38n2a/M/C5V19zVenbrc1GIy/SO5IQwppNc+pCkUyWN7/dJmF0z77x5m1mlAADgtdDAAgAAFaElvuCBxnwyJ2naABw+JukkyU9yl9TTo8Z8cplLfzPpr2b2Dylcbh57OgiLT+67fPyz6XS6UIoDp9Ppqqfe9NR+1lPYP4hpglxvlII3uuk/5H5sUdpnIPPi0gOrR74wnxUKAABeDw0sAABQMXqLuqQ6po9oIM4y+nfj7cV5fNjdJZlcocLAtGLCcqXyyedNWitprUlr3WytJMm9R9L6PuMEMttzy8f2liSZ9pQrkDR6hZbvGxRkCkz+8j5WrnLvabWDQgXe3D2pu8jqBAAAr4cGFgAAqBjZ+uzq5ty0z4UW/lJSdZTnatJeevHxYq/JX6fjtPXHfHDkw+Wt7VNzv2VlAgCA7QkIAQAAqCQtiQV3mXQFkRhwv6tZO+rzhAEAAOwIGlgAAKDitNZlvyHZYiIxYFZUhX4WG7cDAIAdRQMLAABUHpMfuPSQOknfIxj9HXqtDzw466Zk7imiAQAAdhQNLAAAUJHS6XQh7Il9Tua3Eo3+YdJ6C/zMlsSCu4gGAADYGTSwAABAxcqkMr2bPKyV9C2iUXYvhIGf1jI19wtCAQAAdhYNLAAAUNE6452b2uLZs01+kaQiESmLxxXoA9xxEAAA7CoaWAAAAJJa47nr5MHpkp4jGqXkdyhW/a62qdn7iQUAANhVNLAAAAC2aEss+GmhYEe7dAvR2E2mgpu+fODS8ae1TWl7loAAAIDdUUUIAAAAXtExreMJSZ9qzE07QxbOlzSeqOwk0z2BB80t8QV3EwwAAFAKnIEFAACwDW2JBbf2hP5Wl11n0noisgNMKyUl26ZmT6B5BQAASokGFgAAwGvIJXNr2+MdFxV7YhMlu1Lsj7VtppWSXWnVNYe3xbM5mZygAACAUuISQgAAgO3IpDIrJaUb2htmx2oK0102XdLBREZPu/z6DUFv+6IpizhLDQAAlA0NLAAAgB2USWVekPS1dDr99afGLTvRTJPN7LOSxlRQGIoy+4W5Z1aOWvP97kndPawMAABQbjSwAAAAdlI6nQ4l3SnpzllLamduXD/mEy59xqQPSNpzCL7louS/N6nbYzXf4q6CAACgv9HAAgAA2A2zJ3VvlPRtSd+uXVIb23fDnu8I3d9r0kmSPqzB2tAyrZTrF2Z2u3nhBy3xzhVkGwAADBQaWAAAACXSPam7KOneLY+5De0N1Ta8cLwV7WgFeqvcj5TsbZL2i9jUN0i6X9I9Mr+7aLG7F0xZ8A82YwcAAFFBAwsAAKBMMqlMr6Tfbnm8bEYuvl8xZm8thjrCFBzoHh4UmB3k0gEyHSzX/pJqSjkXl543+Qq5PWZmj7jpEXc9EoThPw9YPv6f6XS68KpPmEr+AABAdNDAAgAA6GfzEvl/SfrFlsc2NbQ37BurLoyxqmCYhxrp5jEr+hhJChXsFZhbKD8wkI10V48Ftl6S3H2NzHvlwSoVfWUQK64s9NSs2tJMAwAAGJRoYAEAsIM8DDebBSUbz8zHEFW8lkwqs1LSSiJRhq9laXQJhyse9ZejCt3qJrAAAJRRQAgAANjBX3pjVc+VcjyTTieqwAAw/0gJR3thy10pAQBAGdHAAgBgB8Us9nwpx3NpUiqfaCSyQP9pzCXPlayUDazniCoAAOXHJYQAAOygVcNXrRq7Ycw6ufYo0ZBmstamfPITFrMLWqZ0/JUoA+WRyte92Tx2vUwfL+3IvpToAgBQfpyBBQDADuqe1F006YFSj+vSR8PQ/5TKJdob2hv2JdJA6UxeOHlUY74+bYo9WPrmlSS3e4gyAADlRwMLAICdEJbrl1VXlZk1BDXFh1P55PnpdJqzpIHd+5qyVGdiyqhizSOSf1nSsPJU034vwQYAoPxoYAEAsDM/OM1vL/Mh9jFpzooJy+9t7kp8gIgDO68hm3hvY2f9PebWJenAsh3IVFBQ80siDgBA+fHXXQAAdkJxc+x/g5riakn7lPlQR4eh3dHYmbjVQp3fmsg9SvSB19fYNeUNCquvkXSO5Fbu47nrjvYpbc8SeQAAyo8zsAAA2AmZVKZX0i39dkC3M9zsocZ8/dXN85v3IAPAv2tobxjZmK9PK6z+u6TJkqw/jmvSd4g+AAD9gwYWAAA7+0trYHMleT8ecrjkl4YjNz/cmE9OlvfPL+cliVUY1JR4yCIrEC9zWSpX/7mgpvi3LftcjezHoz8T9sS+TRIAAOgfNLAAANhJrVM7/iS3Wwbg0AdLWtjUmfxtQy7+rsEQK7Nw75IO6L6RFQhJauqsP66xM/kbM/+WpHEDsLivy6QyG8gEAAD9gz2wAADYld9dY0q760x5//8sdeldgQW/bcwnb64K/ZKbkrmnohonl72ppOMFRgOrwjXn6w4MFbva3es0YH+MtSfXB5vbyAYAAP2HM7AAANgFW87C+sYATsEkTS7E7OGmfOLSunzd8IiG6riSFi6cgVWxZtw4Y1hjZ/KiULGHJSUGso51qWHRlEXryQoAAP2HBhYAALuoeu2Ir7j00IBOwrWHy64eodhfGjsTZ0UpPg0LG8ZLOrqUY4ay51l5lSeVq/9E75gNf5brWkljBng6ne3xjtvICgAA/YsGFgAAu2jeefM2B6GfJWn1QM/FpUPl9t1ULnlHU1f90VGIjxWKZ6vEd4MLzJ9g5VWO6Z3TjmrsrP+Zmd8i12ERmNK962M955IZAAAGoLYkBAAA7J6mfP37XP4zScMiMqVQ0mLFqr/QNqXt2YGYwIwbZwzrHb3hMUkHlXTgQMe2Tc3ez6ob4l9Ti5v29s2b0wqseSD2mXuNsvnJQkHv7pjWQRMVAIABwBlYAADsptZ4x2/kwaclReWOZIGkySr2/i2VT57f0N5Q3d8T6B29/hKVunklqboY0jwYwtLpdFVjLnmu9/Q8IrPzotK8MumxYmAfpHkFAMCA/jwGAACl0JCLvyuw4IeS9ovUxFx/ddMF7fHsT/rjcI1dyWMU6neSako89L/a4tn9WWlDUypff5rks006KmLl8n2BCqe3xDtXkCUAAAbwJzIhAACgdOoX1h9aVVRe8vdH76e+31q02OcXTF3w93Id4txs4uBCzH4v1yGlH91/2hbPfZRVNrQ0dyQPCwPdINPHIzY1l9QRbBh2Qcv0lnVkCgCAAS5lCQEAAKWVTqeDpycsnxFIV7s0KmLT65H7vLC36qpMKvNCKQdu7kgeFlbpx+XabNtM17TWZS9lhQ0NM24+e0xvz/DLZJqp0p+tt7sV8hNm3tA6NfdjMgUAQFR+PAMAgLKoX1B/SFWVXyvpc5H7mWtaKffWQGFLKS6NSuXqP22Bt8q1b7mm7G6fbE90fJ+VNbil0+lgxYTldZKulnRgxKa3SbJvBhtqruGsKwAAooUGFgAAZdacm3ZiaMU5kr0zgtPbbG7fcdm3wl67I5PK9O7MJzd2JU+Q+xVyO6PM8+zpCX3fXDK3lhU1eDV2Jk+Sa66k4yI4ve8VYnZhx5SOx8gUAADRQwMLAIB+8OJZJ8umSPY1leHufCWy2k23BbLfmdsf1sY2/WXRlEXr+75gZr5urx6vPtKteIrL/p/6rRHhd7TFcx9iJQ1Ozbn4uNCCb0j6TATrzz8Fgc9smZr7BZkCACC6aGABANCfv8jPb94jHLnpMslmSho+CAqF9ZKedVmNy0eZtNeATMR1QVsiO5sVNLg0tDeMDGoKF0p2kaSREVvcK939itWj1i7ontRdJFsAAES+LgUAAP1tyxkpV0uaTDS2q0ex6nFtU9qeJRSDRyqfPNOkGyVNjFj1W/DQc95bdVkmlVlJpgAAGBxoYAEAMIAa8/WnSD5H0tuJxmvqbotnJxGGwaEhFz82sGCOpPdFcHo/V1Ez2+qzfyZTAAAMLjSwAAAYYLVLamP7rB89zcyuKudd/AYttw+1JTruIBDRVr+g/oDqKl3t8rikIFJLSPp7YLqgtS77IzIFAMDgRAMLAICImJmv22ujYpeYNFPSMCIimenO1rrs+4hEdDW0N1RbTbHZpCsl7RmxSned3G6oXjvimnnnzdtMtgAAGMR1ISEAACBapnVNOzzmxRvkdkbFFyoentKayP+KVRFNTbnEqW42V9KREZtaKGlxoWAXdkzreIZMAQAwBOpCQgAAQDSl8vUfM/k3JR1Rie/fpVva49lPsRKiZ3rntKOKHs6WdFoEp/drBZrZNjV7P5kCAGDooIEFAECENbQ3VMeGhXGXX11J+2O59LwFvW9tm7rwSVZBdDQtbto77Om52KRZkmoiVtU+4fLL2qfmFsnkZAsAgKGFBhYAAIPAjFx8v14LrpJULyk25AsUt8mtiY6byXw0pNPpqmcmPpFy9ysljY3Y9Da46dqRI9dcN3tS90ayBQDAEK0PCQEAAINH88L6//Cif9Oljw7h6qSjrS47jWxHQ2Ou/oMyny3p6OitFb81VrBz59dnl5IpAACGNhpYAAAMQql88kyT5kh641B6Xy7970FLx52eTqcLZHlgNXckDwtj+pqk2giWsPeFYXh+Jpm7k0wBAFAZaGABADBI1eXrhg/z2CwLdKlcewyBt/Tr6upNZ847Z/EasjtwEtnE6Bqzy2U6X9KwiE1vhbldesCyQ7rS6XRItgAAqBw0sAAAGOQaFjUcZL2FtJnVSwoG43tw6UcjR62pZQ+jAU2CpboSk83tWkkHRmx2vXJvra7ZfAUNTgAAKhMNLAAAhoimzvrj5H6pS5/U4GlkuUxzws2xizOpTC9ZHBiNncmTJM2R6/gITu/7ocU+n6nL/JNMAQBQuWhgAQAwxDRlE0coCC50+WRJNRGe6iqX4u3x7A/J2sBozsXHhYFdK7fPRq0udOmhwH1mayJ3O5kCAAA0sAAAGKIau6a8QcXq8xQoIde+EZpa0d2zNfLL5yXy/yJT/a+hvWFkUFO4ULKLJI2M2PRWm9mXDnj8kHY28wcAAC+hgQUAwBBXl68bPsyCSebWJOndAziV0KUfxBRc2RJf8ACZGQAuS+XrJ5n5NySNj1hVWpDU1lvQl7P12dUkCwAAvLpUAAAAFaOpq/7oMPT/Mumzkib0U7WxUqF/KwyqbmQfo4HTkIsfGwuCue56b/QqUrs9Jps5v27BQ2QKAABsu6QEAACVx2XN+WnvCc1Pl8LTJDtOpdv4PZT0N7nfHsR0y79GrP1196TuIkEfGPUL6g+ortLVLo8rapv7mx7x0L7Qnuj4PpkCAACvXzYAAICKl+xI7jOsyo8PZe+w0I5y8/GSDpK0r6TAJTNpry3lw0bJN0l6QbK1snCpZI+b+zK57q+q2fyHeecsXkNUB1btktqafdePPt9ll0saE7HprZXpq9VrRs6dd968zWQLAABsDw0sAACAIaYplzjVzeZKOjJiU3NJNwcqXtQS71xBpgAAwI6igQUAADBENGUTR3hg35T0sejNzu/2QOe3T839lkwBAICdRQMLAABgkGta3LR32NNzsUmzJNVErNx80i28tH1qbpFMTrYAAMAuVRSEAAAAYHBKp9PB0xOXnWNu10vaL2Jl5kaX39gb+tW5ZG4t2QIAALtVWRACAACAwae5K/GBMLQ5ko6OXoXptxaC4LyOKR2PkSkAAFCS8oIQAACAwaZ5fvMexZE9Hw7MN68cueZn3ZO6eyrlvTd0NrzJvHi9SZ+M3ORc95vZ+a3xjt+wSgEAQCnRwAIAAINGOp2uenrCsnqTpSUdsKWYecwD/3zb1Nz/DOX3nsgmRlcHdplJMyUNi9bs/Flzu+yAZeNy6XQ6ZKUCAIBSo4EFAAAGhaZc4lS34JuSv23br/A7YhY7b37dgoeG1Bt3WaorMdncrpV0YMRm1yv31rC36kuZVOYFVikAACgXGlgAACDSUl2J91hoX5N0yg68vEeuOcHGYVe1TG9ZN9jfe3Nu2olhEM6V6/joVZF+a9Fin18wdcHfWaUAAKDspQchAAAAUfRi86b4RbmdsQuf/rSbX9I+NbdIJh9s772xa8obFFZfI+mcqNVrLv09MF3QWpf9EasUAAD0FxpYAAAgMtLpdNWKics+IbdztWNnXG2v1PlVqMKMTLzzwcHw/mctqR2xYcOYC811saSREZvecy5d6T2xlkwq08tqBQAA/YkGFgAAGHCN+bqJ5rG4m+olHVziaqeg0FuGW/jlOfHO5yMZAJc1diVq5XadpPERm13RZAuKPcEVmVRmJasVAAAMBBpYAABgQMzM1+210YKPm4LJcv9QP9Qlq136ykFLx82L0p3yGruSxyjUHEknRzBNv/TQZ7Ync39kxQIAgIFEAwsAAPSr5s7Eh8MwaJT56ZJqBqD4+X0Y+rntydw9AxmH+gX1B1RV+1flSkgKIlYgPhbKvtAe7/j/WLEAACAi9QkAAED/aMonb3DpgghMJZSUDXtil/b3ZXG1S2pr9lk35jwzXS5pz4hVhus81Nc2W3F2Z7xzEysWAABEp0wBAADoJ025+i43nxKhKa126YrVo9a0d0/qLpb7YKl88kyTbpD05oilxs1tUczDL96UzD3FSgUAAFFDAwsAAPSbZEdyn+qYbpH0vijNy6UHPPQZmWTuznKMn8rFj5QFs036cASLwd8XPTw/k8j/nhUKAACiigYWAADoV+l0uurpCcunm+mrcu0RrcrIbw1Cb25J5JeXYrimxU17hz09F5s0SwOw39d2PGVmVx7w+CEdUdrUHgAAYJtlGiEAAAADoX5h/aGxon/TpE9GbGprZPaVcHNwYyaV6d2VAbY06RpM+oqksRF7f5sk++b62OavLZqyaD0rEQAADAY0sAAAwIBqzNV/0M1vNOmoKM3Lpb9LOr89nv3Jznxec1fiA2FocyQdHb3Kz2+1UOe3JnKPsvIAAMBgQgMLAAAMuIb2hmqrKTZvOWNpTLSqJb9VHs5oi3c+/nova87Fx4UWXC1pcuQC7PqrFMxqSyz4KasNAAAMRjSwAABAZDQsajgoKBSvlXROtOoU2yjpG5tU+HpnvHNT349MXjh51KjisAslv1jS8IiFdLVLX1k9as1N/XGXRQAAgLJVY4QAAABETaozebK5bpT09ohN7Z/mljYr3B4GYUzFmo/L/ApJB0Vsnr0umz9ChSvnxDufZ0UBAIDBjgYWAACIpHQ6HTw9cdk5JrtBrn2JyI5Wd3a7Cj6rrT77Z4IBAACGTIlDCAAAQJQlO5L7VAf+ZZlNlxQjIq/pHyZd1hrPdhMKAAAw1NDAAgAAg0JDLn5sYDZPshOJxququXVyu6F67Yhr5p03bzMBAQAAQ7PkAQAAGCxclupKTDa3b0g6oMKjEUpaXCjYhR3TOp5hcQAAgKGMBhYAABh0Zubr9tqo2CUmzZJUU4EF3O+LHp6fSeR/z2oAAAAVUv8AAAAMTk3ZxBEeaK5kH6mQyu0Jl1/WPjW3SCZnBQAAgEpBAwsAAAx6qXzyTJPmSZowRN/iBpfmxTYM+2rL9JZ1ZBwAAFQaGlgAAGBIaGhvGBnUhBdJfrGk4UPkbbmk78aKunB+fXYpWQYAAJWKBhYAABhSmjuSh4VVPltuZwzyt3JvGPrMTDJ3J1kFAACVjgYWAAAYkppyiVPdNE+ytwyyqT9tZumVI1/Idk/qLpJJAAAAGlgAAGAIa2hvqLaaYrNJV0kaHfHp9sq9tbpm8xXzzlm8huwBAAC8ggYWAAAY8hq7prxBYfU1kiZHsyLzW0NVzczUZf5JtgAAALZRLhECAABQKRrz9adIulHyt0VjRv43C3RB69Tcj8kOAADAawsIAQAAqBRt8Y5fHrj0kGNdminphQGcynMuzTxw6fi30bwCAADYPs7AAgAAFWl615SxxWLVl2R2rvrrj3qmgoeeq5FfPi+R/xdZAAAA2NEyCgAAoIKlsonjLbB5kt5d3iP5HaHCmZl454NEHQAAYOfQwAIAABUvnU4HKyYsS0p2maQJJR3cdb+bvtwez/6QSAMAAOwaGlgAAABb1C6prdl33Zgpbv55yd6yG0OFku6UB9e1xRf8SCYnugAAALuOBhYAAMA2pLKJt1sQTJL5h+U6WlLNdqqqlXK/16SfeFDobpu68EmiCAAAUBr/P0u8MbjOl5NGAAAAJXRFWHRkYXRlOmNyZWF0ZQAyMDE3LTA4LTIzVDA3OjMxOjE5KzAwOjAwuZQWFQAAACV0RVh0ZGF0ZTptb2RpZnkAMjAxNy0wOC0yM1QwNzozMToxOSswMDowMMjJrqkAAAAASUVORK5CYII=;" vertex="1" parent="1">
          <mxGeometry x="130" y="367.23" width="150" height="91.75" as="geometry" />
        </mxCell>
        <mxCell id="fjhbrqA5ZPaVyCeerL4o-35" value="" style="shape=singleArrow;whiteSpace=wrap;html=1;strokeColor=#000000;fillColor=#000000;" vertex="1" parent="1">
          <mxGeometry x="300" y="390" width="70" height="10" as="geometry" />
        </mxCell>
        <mxCell id="fjhbrqA5ZPaVyCeerL4o-36" value="" style="shape=singleArrow;direction=south;whiteSpace=wrap;html=1;strokeColor=#000000;fillColor=#000000;rotation=90;" vertex="1" parent="1">
          <mxGeometry x="330" y="395" width="10" height="65" as="geometry" />
        </mxCell>
        <mxCell id="fjhbrqA5ZPaVyCeerL4o-38" value="" style="shape=image;verticalLabelPosition=bottom;labelBackgroundColor=#ffffff;verticalAlign=top;aspect=fixed;imageAspect=0;image=data:image/png,iVBORw0KGgoAAAANSUhEUgAABQAAAAOJCAYAAABCi4/dAAAABGdBTUEAALGPC/xhBQAAACBjSFJNAAB6JgAAgIQAAPoAAACA6AAAdTAAAOpgAAA6mAAAF3CculE8AAAABmJLR0QA/wD/AP+gvaeTAAAAB3RJTUUH4QoJEjYKUB862QAAgABJREFUeNrs3XmcHGW1//Hvqa7qmUDCKrKThEz3ZFEQATfUKyquuBtUkDAziVFR3Bdc7s9xR71uoKiBTE+CIBIURRQXFL3XjVVZssx0FgICKiBLEpLpqq7z+yO4Icskmel5uvvzfr1+v5cXwuQ85zxPVT1napEAAAAAAAAAAAAAAAAAAAAAAAAAAAAAAAAAAAAAAAAAAAAAAAAAAAAAAAAAAAAAAAAAAAAAAAAAAAAAAAAAAAAAAAAAAAAAAAAAAAAAAAAAAAAAAAAAAAAAAAAAAAAAAAAAAAAAAAAAAAAAAAAAAAAAAAAAAAAAAAAAAAAAAAAAAAAAAAAAAAAAAAAAAAAAAAAAAAAAAAAAAAAAAAAAAAAAAAAAAAAAAAAAAAAAAAAAAAAAAAAAAAAAAAAAAAAAAAAAAAAAAAAAAAAAAAAAAAAAAAAAAAAAAAAAAAAAAAAAAAAAAAAAAAAAAAAAAAAAAAAAAAAAAAAAAAAAAAAAAAAAAAAAAAAAAAAAAAAAAAAAAAAAAAAAAAAAAAAAAAAAAAAAAAAAAAAAAAAAAAAAAAAAAAAAAAAAAAAAAAAAAAAAAAAAAAAAAAAAAAAAAAAAAAAAAAAAAAAAAAAAAAAAAAAAAAAAAAAAAAAAAAAAAAAAAAAAAAAAAAAAAAAAAAAAAAAAAAAAAAAAAAAAAAAAAAAAAAAAAAAAAAAAAAAAAAAAAAAAAAAAAAAAAAAAAAAAAAAAAAAAAAAAAAAAAAAAAAAAAAAAAAAAAAAAAAAAAAAAAAAAAAAAAAAAAAAAAAAAAAAAAAAAAAAAAAAAAAAAAAAAAAAAAAAAAAAAAAAAAAAAAAAAAAAAAAAAAAAAAAAAAAAAAAAAAAAAAAAAAAAAAAAAAAAAAAAAAAAAAAAAAAAAAAAAAAAAAAAAAAAAAAAAAAAAAAAAAAAAAAAAAAAAAAAAAAAAAAAAAAAAAAAAAAAAAAAAAAAAAAAAAAAAAAAAAAAAAAAAAAAAAAAAAAAAAAAAAAAAAAAAAAAAAAAAAAAAAAAAAAAAAAAAAAAAAAAAAAAAAAAAAAAAAAAAAAAAAAAAAAAAAAAAAAAAAAAAAAAAAAAAAAAAAAAAAAAAAAAAAAAAAAAAAAAAAAAAAAAAAAAAAAAAAAAAAAAAAAAAAAAAAAAAAAAAAAAAAAAAAAAAAAAAAAAAAAAAAAAAAAAAAAAAAAAAAAAAAAAAAAAAAAAAAAAAAAAAAAAAAAAAAAAAAAAAAAAAAAAAAAAAAAAAAAAAAAAAAAAAAAAAAAAAAAAAAAAAAAAAAAAAAAAAAAAAAAAAAAAAAAAAAAAAAAAAABgtIwUAAAAARqNnne/m2ciehXq0uyLbLTfb3XJFZvmukuQe3euR/8XNN0iSp/kGRR2bdo105xklGyGDAABMDBqAAAA0yFz3wi4rdYAn2X657DFSvpfltreZdnVpkmSdZjJ3392k6Vs307pPprqk+2V+j9zuNtc9kt+hKLrF8vzP7smfNnTrL8vM6mQZwI6Yv9z3yJO0JItK7l6W/GCTHSTZvpLvL2nSDvz4eyX92Ux3uvtqyapmVjXl1fs6k1XLDrTNVAAAgPFBAxAAgLHmbvNWjZQKcfwkuR8qV0mmsqSDJXWM0986ImmdpGEzrc5zX2WRrtlYS25cNsdqFAXAg49TfUMj5TyKD4/kh8h1qJsOkbTfBEWUSbrBZVeY8isL8t+fXe5YSaEAABgbNAABANhBc90Lk6vpETJ7vruOiqQjXdo9kPBqJt0gs2vl+bW565opUXI9j+IB7aVnnXd6LTsqinSUpKfI9WRJe4Qdtd8sRT82149HosLPzy3ZfVQSAIDtQwMQAIDt0LfKp3ih/jLz/MUuO0bSnk0UfippuaRfRbKfdaSFX505xzZSVaCFuNu8odrjY4uOcdMxkp6pHXt8d6LV5LpUkX3T48Ilg9NtC0UGAGD0aAACADBKC6/2pLZr/QWR58e77GVNvpn+V6lLv4uky2S6bENXfCXvEwSa8Bi1wvfNCvVjXPkxkj1Xpn1adKj3yOxC9/yrg+XiH6k8AACPjgYgAACPomed76M0O9mkN0p6bBsM+V4zXe7ynyZp8r1Fs+12ZgEQpgWrNk+vR/FcmebKdUQb7mZ+IbcvTi0VftRvljMjAAB4uFMmAAB4SH1DtUPd9E7JXqvx+3hH6HKXfm3uy5J68h2agcDE61m5eVpUiOe6NFfSkWREkrTSzT4y2FW4UGZOOgAA+Hc0AAEAeIjNtRWSD0i+QFJERv4hN9PvcvdlUZ4sG5hpt5ESoDF6V/uBnqevjMzmuutpXMc/rKty1weWdCc/JxUAAPwTFw4AADygb5Xv51H9I5L3SYrJyCPKJf1G7heMdCbnnjfV7iYlwNjqWeedUVZ/Ve6+0KRncO2+TX5UyLO3nj1z0jpSAQAAFxEAAKjfPbq5mi5w2eck7UJGttmISRdLWjRQin/O43fAjulbtaVbUaHXpfmSHkNGtttmc312QxZ/atkcq5EOAEA7owEIAGhrPcO1J5hskXiP1thcWJiG3bW4EMdLzj7Y/kJGgNGZe4tPmnJ/fa4iX+iuo8jI2HHperkvGOwuXkU2AABte51OCgAA7aj/co/X7599RNKp4nHf8ZC6dLEinT1tRvxTvs4JPLTe6shs88KbXH6ipN3IyPgdk8z1gYFy/AXuUgYAtCMagACAtrOg6gfUPTtPW9+phfHmvl5mX6lZvOjckt1HQgCpp5o+S673mPQirskbeDiSflj0uGdRt91JNgAA7YSLDQBAe226h7IXmfkS8V6tiXCfTGfJ4i9XuuwW0oF2M9e9MGV1/VUuf69cR5CRCfMnyV9dKRevIBUAgHZBAxAA0DZ6htIPmukTnP8mXOryCwqmzy8uFf9AOtDqTrzOdy5MSvuk6J0mn05GgnC/y04cLMffJRUAgHbABggA0PL6L/f4pv3rZ5j8TWQjsAsR029y2WcGuwqX8F4utJoTV/tjk3p2spveKmlPMhIcN9fHBrqTflIBAGj5625SAABoZSdUfZeiZxdKOoZsBG25m31mU1fhvGVmddKBZnbian9sXM9OlelNkiaRkdB3RPaVSlfhbfwSAgDQ0qc7UgAAaFXzl/seeZL9TNITyUbTGHLZx6aVCufz5WA0m3krfc8oyt5jplMk7UxGmmpb9I1KqfBmmoAAgJY905ECAEAr6lnnu1ma/VTSkWSjKa00t9M2lAvnckcgQnfycp98fzF7i7lOlbQbGWlO7rZ4WrmwkF8+AABaEQ1AAEDLOX697945kv3MpcPJRtNfqdzgbv2DpcJF3JmD0Jy83CdvTrK3m/Rul3YnI83PZV8fLBVO5ngDAGi9y2oAAFpvQ/4Lcedfq/mDmfUPdBV+wMYcE23hbb5TujE7WdL7JO1FRlrOJyrl5L9JAwCgldAABAC0jLnuhZ2r2fdNejHZaFlXWaT3D3Qll5MKNJy79ayuv97cPyXpABLS0sXuq5SLFfIAAGgVNAABAC2jt5qdIfe3kom2cFlu+TuWlDqWkwo05PgyXHuy3L4g09PIRltIXXrxYDn5GakAALQCGoAAgJbQN5S+203/Qybaa4Mu6Wv1evyxpbPsLtKBcTm2DG852FX4jKRXk422c29B+VPPLnesJBUAgGZHAxAA0PR6q+nz5fqRpIhstOXFzN256xObsvgry+ZYjYxgLCxc47vW6tmHTHqbpA4y0raWJ5PjJy3az+4nFQCAJr9mBgCgeS2o+gF1z64VL+KH/Gbz6L8HyoVz+FAItle/e3TzcP31bv5ZSXuTEUh+XqVcPIE8AACaGQ1AAEDzbtQv93j9/tnlkp5ONvAvfu3u7xrsLl5FKrAtelelz1ak0yXNIRv4V24+f7BUHCATAIBmRQMQANC0+obT01x6P5nAQ8hdtqjWUfjgeVPtbtKBR3Lian9sXE8/L7MTuD7Gw9hcUH447wMEADQrLnAAAE2pd3X6NOX6P/HePzyyv5n8AwOl5CweC8Z/cLe+4fqJbv55SY8hIXgUV2wsxUctM6uTCgBAs6EBCABoOgtv853SjdkfJZXIBkbp/6IoP3lxV8eNpAKSNG/VyCGFKPq6pKeSDYx68+R6z0B38nkyAQBounMYKQAANJue4fSLJr2DTGAbpZK+NimNP3TmHNtIOtrTwtt8p2xD9j43fUBSkYxgG40UlB/Go8AAgGbDY1MAgKbSV02fatLbyAS2QyLpbZvj9Ma+avZS0tF+eoayl6cb01Vu+oho/mH7dNQVfUPu3EgBAGgqnLgAAE3jga/+/kHS48gGxsDFURa/bfFsW08qWtuCqh9Q9+yrkmj8Ymw2UWavHyjF55IJAEDTnLtIAQCgWfQN1d7iZl8hExhDG938/YNdydf4SEhr6h2u9Ur2RUm7ko2x4dLtkWmtu+436Z5ctily3S/zDblsV5PvLWmKTLvJtbNcu8u0T4ul4dZsc9x9zqG2iRkBAGgGNAABAE1h/nLfI0+yYUl7tsBwMjOt9VwrZRpy118i842uaIO7Nrt8Q1yPV1tc2ymNbKdCbrvLbCd37SzL95GigyWfYdIMd00TjzKOhV+a6vMHyp1rSUVrmDfk+xei7Cy5Xkg2tsv9kq41t+tz+RqLbI1n9bXFXYtrFu1n92/rDzt+ve+ebM5mFyKf47LZkv5L0hOaPEefrJSTDzNVAADNgAYgAKAp9A6nX1bzvvvvXpNfKunyuvlvOu4tDi86wtKx+MFz3Qu7rNQB9Tgry3WkmZ4s15Na8G6bRtjk8g9MKyVf7TfLSUczHy9qvZJ9QdJuZGNUXNKQ5FfIdIWkK6b+Kbm+/2jLxvMvnbfGD4ry9Fhze6mkZ2vrezqbyZZCns0+e+akdUwhAEDoaAACAILXMzQy0yy6vsk2h7lLl0Zmi3ZW4SdnlGykkX/5/BU+1ZP6kyV/cu56uklHiI9/jYpL/1uI6vMXd3WuJhvNZd6Q71+wbJGkF5GNR/UXl10q049qxcJl5021uye0dmv8oEKWvUOmN0ia3DwHDP9mpbt4ItMJABA6GoAAgOD1Dde+5bLXNst2UPLzvZB/ZHBGZzWUoHqrvpdUf748f5Fkz1NrPEo9nu438w8d1JWczt2ATXOc6PGt7/rbjWw8pLqkq0z6UT3yHy2ZkVwb4nsvj1/vu3eMZG+R9H41RyOw7p4/brC7YxVTDAAQMhqAAICgnVQdmRN5dL2a4O41l64vuL9hcXfxypDjnOtemLI6e5K7XuTSS006hJn2MBdKpt9kWb1v6azOYbIRpnlDvn9k2TdMejHZeKjDkn5t8vNiTy5c1G13Nkvg81f41DzJvtYc73D0b1XKxeOZbgCAoK9rSQEAIGR9w+kFLs0NPMxcrk8kG+JPjNW7/RrpgSbr61x2vMmnM+v+w2aZf6jSlXyJLwWHpWcoe62Zf03c9fdvXLpepvPyKP7W0hl2c/MOxK23mr1b0qclxUGfAyx/fKXUsYLZBwAIFQ1AAEC4m/uVI4+3QvRHhX3339880gmDXcmPm79r4Na3OnuKy46X+3GSHsss/Dc/szzuGZhpt5GKidW3yqd4lJ4h2Ulk4x9ulWlpZPl5i7s6bmypeq9Oj/ZcF0naNdxNlZ8/UC6+jmkIAAj3XAUAQKB6q7Xz5faacCP0Wwry559d7ljZarnvv9zjm/erH+PyN8p0rKQCM1KSdKfMFlRK8fdJxcToGaodaRadJ3kX2ZDLdLm5nXnQrYXvj/dXeyfSvFUjh0RR9GOT9g00xLrXs67BWZNuYloCAEJEAxAAEOZmb40fVKhnaxTsY1+2RlHh6EqX3dImtVgoaYGkvZmdkmTfSCYX3rVoP7ufXDRGv3t08+rsfe76mJrri+Dj4T6ZLS14/cxW/AXEw+mtjsyWR7+UtFeQAbq+WOlO3sVqBQAEefVKCgAAIeoZTj9r0nsDDe+2Qp49/eyZk9a1U03mLvfiznH9lTJ/s0nPZJZqlcxPqJSK15KK8TVvyPcvKDtHpqPbPBU3yvzMSbXknDPn2MZ2TMD8au2w3O1XkqYEGN59NYsPPLdk97FqAQChoQEIAAjOyct98uYku0Vhvth/g9fzowZnddzQzjWav3rkcbkX3i73EyV1tHEqaiZ9+KBS/Pl+s5zVO/b6hrJXuPlZkvZs4zT8OpKdtrhU+BEfopF6h7NjJf++Anw/rJm/c6BU/BIrFwAQ3DmKFAAAwtvw197iZl8JMLRcZq/k/W//NG/I9y9E2TvleqOkyW18QfXzzOOTlnbbrcyKsbHwNt8p3Vj/guRvbNMUuEw/9lyfHuxO/o8Z8aDzRDU91V2fDvBosHZqqVDiFwIAgACvVwEACEvvcLpC0qzgTpqmTw2Ukg9Rof80f7nvkRezt8p1iqTHtGka7jK3Nwx0xxcxI3bMA18A/3aIx4EGqMv8QnedNlgu/pHZ8ND63aObqtmlJj0vwHPF8wdKyU+pEgAgqPMTKQAAhKR3dfo05fpNgKFdkdwXP2PREZZSpYd34nW+c2FSusCkd0t2YJum4csb0/h9y+ZYjRmxHceAoewkmZ8paac2G3om2VIvZKcNzuisMhMeXc8638fS7HoF9lEQk58/UC6+jgoBAMI6PwEAENLmv5qdJfcFgYW1OYrqhyzu6lxNhUZn4dWeZLuk8132YUn7t2EKfl8vxK9ZOsNuZjaMTs8677SsfkaA63+8uUkXKq//98DMziFmwjbOm+HseJOfG1hYW6I03n/xHPsbFQIAhIIGIAAgGCde5zvHk7LbJO0S2O781MFS8hkqtO3m3uKTJm/O3iLpVLXfRxzuMrcTB7rjS5kJj+yk6pYZkReWSTqszYb+kzzyDy3pKl7DLNh+vcPpDyW9KKig3E+pdBe/QnUAAKGISAEAIBRJZ/1VCqz5J9MNxXvjL1Cd7bPsQNtcKSf/U7P4YLk+JmlDGw1/Tzf/Ye9w+om57gVmw0PrGcpeHnnharVX8+/3bjq6Uk5eQPNvx+VWf5ukkbDOHdZHZQAAYW1rAAAIRG81/blczw7sRHnMQDm5jOqMVY19L+XZB2R6s6TOthm463IvxscPTrc/Mwu26r/c4/X7Z5+W9O42uiZdLrMP8SXxcTi2DKefk/SeoJa957MGuztWUR0AQAi4AxAAEIQTV/tj5fqvwML6Ec2/sVUp2R2V7uRdBYtLki+R5G0xcNPRSrNre6rps5gFUt8q32/9/tkvtLVh0w7Nv7vc/C1Tb42fQPNvfCSF+BMm3R3URsuiuVQGABDMeYkUAABCEOfpKySF9Jiku/xDVGZ8nF2yP1XKxR53f7Kk37XDmE3a11yX9Q6lH5B72z6F0bsqfbZH2bWSntEGw81k9pUojcuDpeKZ/UdbxuofH4tm2L25FNQ799xEAxAAENK1KAAAATQFhtOfSXpuMCdI148HupMXUplG7JLdeqr115n8M5IOaIshSz+sdcQnnjfV7m6rOq/O3meuTyqsZv94uSy3/B1LSh3LWeSNsXDIH5NadpOknYM5l+T1mXzdGQAQAu4ABAAEsWmT9KyQYvJIp1GZRu2QzQfL8XnJ5LjbTadK2tjyQ5Ze3DFSv/Kk6sicdihxzzrv7F2dDprrNLV8889vMbeTKuXkGJp/jbWo2+6UdHZY55ICdwECAIJAAxAAMOGyKH2ZpDigkH5fKSW/ojIN3rzvZ/cPlpLP1AvxHJOfr5Z/P6B3RR79tq+avbSVR9m72g+M0uzXcpvX4lN4k5k+MNmS0kB3vJQVPVG7m/jzkmoBRfRKigIACOIUSQoAABPPjg0rHOPuvwm0dIbdPFAuvk6moyW1+hc0d3H3i/qG0/9uxfcCnrQqPUp5dpVLh7f2IUyXej173EApOe2Mko2wiidOpctukezcgEJ6wsIVvi+VAQBMNBqAAIAJNXe5F931nIBCGqp0FS6mMgFs5EvJryZb/ASZPiJpSytfj7n0sd5qduHJy31yqwyqd6i2IIr0C0l7t3Dt/uJur6uUkhcNzpp0E6s2lAWVfz2gcCyL0+dTFQDAhJ8fSQEAYCJN6ciOkjQllHjcVJGZU5kwnFGykUop+Vhu9cdJ+lmLD/eVm5Ps6r5VW7qbeRD9l3vcN5yeJrOzJBVbtFZu7ufU6/Gcwe74fFZqWBZ3F6+U6YaAQqIBCACYcDQAAQATu4vO9YKAwsnN4vOoSniWlDrXVMrJ89zsOEl3tPBQuz0q/LZnOD2mGYOft9L3vHn/7Mcuvb91S2Src9cxA93FeUtn2V2szlBPLvpmQHPm+XPdCxQFADCRaAACACZ4jxZUA/AXW98fhVANluJl9Xo8y2WDat2PhOxh0o96htJ3NVPQPStHHh8V6le5gnqkfyyNuKl/shUet6Q7+TmrMWxJFp8jKQvkPLf7lNXZk6gKAGAi0QAEAEyYhSt8X5MeH0o8bsaXO5vA0ll212A57nXTsyVb26LDjM30+b6h2tKedd4ZerB9Q9krrBD91uTTW7EYJl2TW374YCn5KB/5aA6LZtvtkn4azPnFW7YxDgBoEjQAAQATJi3Un7l1bx2EjfX7C9+lKs1jsJT8MttcOMTczlSL3g3oZidamv2it+p7hRpj73D6Hje/UNLkFixBKtNHDro1fsqSUsdyVl1zMbMlwaxl6RlUBAAwkWgAAgAmbkMUhbMhMveLzjnUNlGV5nLOobZpoDt+i3I9V+7rW3SYT5XXf79geGRWSEH1X+5x73D2dUmfa8lrStMNkfmTK6XkY/1HW8Zqaz7p/YUfKpAviJv0tP7LPaYqAICJQgMQADCBGyJ/ZiixeBRdTEWaV2Vm8otkSjJb0ulqybsB/eC6oiv6hrIXhhDNyct98vr9s4skf2MLTqe6SZ+ZrPjIxaXiH1hdzeucQ22TuX4ZSDiTb9ovPYyqAAAmCg1AAMCEOH697y7XnEDCST0uXEZVmtui/ez+Sjl5u0vPl7wVP+Yyxc0v7huuvWkig+hb5fttTrJfSTq29VJsa9x19EA5OZV3/bUGl/8wnI2XPZOKAAAm7jwEAMAE6BipHxXQeeg3g9PtHqrSGgbLyc+SQvJ4ySotOLzYZV/rraafknvD3585v1o7zKPsKklPbLG8uktf2jip8PjB7uT/WEWto+D1YBqAbqIBCACYMDQAAQATtNv2o0KJxaQfUZHWsmiG3Vspx31u9lJJd7TeAtIHeofT8+fe4pMa9Vf2DmfH5m7/K2m/Fsvln116/mA5eeeyA20zq6e1nD1z0jpJKwIJ58lUBAAwUWgAAgAmhJmOCCWWuuU0AFvUYCn+QRbFj5Pp0hZcRMdN3pxdvmCt7z3ef1XPUO0Nkl+k1vvS72VJPX7iYDn5GaulpV0SSBx7L6j6AZQDADARaAACABpv66OLhwUSy/olpY7lFKV1ndNlf53aFR9r0vsk1VpseE/OsvrvxusLwf3uUc9w+kUzWySplb5gOiLzd1VK8fMWzbbbWSUtfsoJ6BcAddUPpyIAgIlAAxAA0HALhrZMk7RnGGfCiDt/2kC/WT5QTj6XR/40Mw230thMPr2u6Le9q9Jnj+XPnXuLT7p5dfYdk97RUvkyDcv8aZVS8Ysyc1ZH69vUGV+hQJr/7k4DEAAwMdseUgAAaLR6IQlmA2Se/4aKtI8lXcVrNnTGT5B0eosNbTdFurRnKHvtWPywnnW+2+TN2U/d9fJWSpK5n9NZiw+vlIrXshrax7IDbbNLfwxiDgb0+gsAQHuhAQgAaDjPw7kDInf/PRVpv2ZApZy83WWvkvS3Fhpa0czP6x1O37MjP2ThCt/X0uyXkp7eQrm5z8xeP9BdnHfmHNvIKmg/5grjlz1OAxAAMDFoAAIAGr8RszDe/2fS3YPl4hAVaU+D5fi7URY/Ua7fttLykvS5vmr6yQfetblN+lZt6U4L6e8kHdpCObnWVD9soBSfy6xv512PhbLO9+pZ5/tQEABAw0+FpAAAMAHmhBCEm37PO8Da2+LZtn7qbfF/mfQZSS0zF9z1wd7V6eDCqz0Z7X/Tt6p2hEeF/5XZ1FbJg7mfk0yOnzFQ7lzLbG9vVi8E0+i3kWw2FQEANBoNQABAQ51Q9V0k7R9Gc0C/oyLoP9qygXJyqpm9XNI9LTMwt3npLtl3Ft7mOz3aH+1dlT7bI/u5pMe2yOi3yP0NA93FeYv2s/uZ5RiYabdJflMQSzPyOVQEANBoNAABAA3VmacztfUxxQmXS7z/D/9sEJTii71Qf5Kk61poWC/JNmU/nb/c93i4P9AzlL1WkS6VtEuLjLlq7k+pdBfPZlbjQQK5CzDiDkAAQOPPPqQAANBIuaJZgYTixUJ8JRXBvxqc0VndOCl+qmSVVhmTu47Kk+x/F1T9gAf/u96h2lvN/FxJxRYZ7kVJIT5yoLt4HbMZ/8kCmRdOAxAA0HA0AAEADd5/hbLx8VsWzbB7KQgebOtXguM+cztJUqs8Pjqn7tkV81aNHPL3f9BTTd8vszNa5HowM9dHp5biV7Ou8fAbH1sexGkwkPfgAgDa7TwIAEBjzQwiCgtjI4hwDXTHS839aZKqLTKk/QpRdHnfUPr03uHsG+Y6rRUG5dLtkfScge6kv98sZ+bi4dTraSjH/T17q74XFQEANBINQABAo3UFEscKSoFHM9BdvK5m8RFyfb9FhrSHm/5X8oUtMp7fF7P48MXl5H+ZrXg0gzM710vaEMQmLE+nUxEAQEPPPaQAANAw7iZpWiCxcAcgRuXckt1XKcevcNOpklrhDjNrjcr4eRsnxc9eNNtuZ5ZidDPf3KWVQczeKJpGQQAAjUQDEADQMD03aW9JOwUSDncAYvTMfLCUfEayl0niHXMTq+6mUyvl4gnLDrTNpAPbtJQDeQ9gLucOQABAQ9EABAA07qSTZaFseDwpJKuoCLZVpRxfYnn9yZKGyMaEuE+yl29txgLbzgK5+9vcaAACABq7FyMFAIBGyYPZ8Pif+FIottfAzM6hej0+StJlZKOhVnqhfkSlHF9CKrD9LIi7v507AAEADUYDEADQuG1XMBse4+4/7JCls+yuqbfGL3TpS2SjIS6pWfyUwRmdVVKBHZGrvi6M86FoAAIAGooGIACgcRses6khxOFuN1MN7Kj+oy0bLCfvlFuPpC1kZJyWq+u0qaX4ZeeW7D7SgR1VnFIM5fh/ANUAADQSDUAAQCN38vuGcfbzW6gGxkqlO14Suf+XpNvIxpja4rLXD3YnH+g3y0kHxsKi/ex+SXcEEMqk49f77lQEANCwLRApAAA00H5BnPzc11MKjKXF3cUrLY+PNOkasjEm/hZJzx8sx+eRCoyDIH4J1FGr7UspAAAN2wORAgBAA+0TQhB1N+4AxJgbmGm3dabxsyT9gGzsCFtjef1pi8vJ/5ILjJMgfgmU5xENQABAw9AABAA0RL97JOmxIcRicZ13AGJcnDnHNm4sxa+QdDrZ2C6/kxWeOjCzc4hUYBwFcQ6IIqMBCABo3HmHFAAAGuFP67SXpDiAUHxTseNPVATjZZlZvVJO3m7yN0rKyMjomLRs46T4OZWS3UE2ML6TLZDXQLjvRzEAAI1CAxAA0BB5mu4TSCh3LjvQNlMRjLeBcnGRZK+QtJFsPKpPDJTi17A20QjmURh3gbv2oRoAgEahAQgAaNCOy/YKJBLe/4eGqZTjS1z+DEm3ko2HVDN5b6Wc/LfMnHSgIdz/EsZOzPekGACAhp12SAEAoCHM9ggkEh4vREMNlot/TDK+EPwQNniklw2Ui4OkAo2UK78ziEDcdqcaAIBGoQEIAGjQRiffLYQwTH43xUCjLZptt3em8bNc+iHZkCS/WZY/ZbAr+TG5QKPVC8W/BXE+Mu1BNQAAjUIDEADQqJ1OEBsdt+hOioGJcOYc27ipFL9MskVtnoqVipKnV0odK5gVmAgzbtHfJE34I+fu4g5AAEDD0AAEALTXRif3v1ENTJRlZvVKqfAmc320LY8D0pWJx8+sdBnv4sSE6T/aMkn3BrAeaAACABqGBiAAoCHMwnjXkUU8AowJXww+0J30m/tbJeVtNPJLipPjoxd1G3fhIoSFOOG/DDIagACABqIBCABoDPfdgogjj7gDEEEY6C5+VWavkTTS8stfNjj11vgVi/az+6k8wpiTHkIjunPuLT6JagAAGoEGIACgQZst7RJEHCYagAhGpRRf6KYXKIDHEcfRZwdLhb4HHrsEgmCmu0KIY/f7tTPVAAA0Ag1AAEBDuBTGXQ4R7wBEWAZLyS/N/b8k3dZyy978XZVy8n6ZOZVGUJPTwzgX1Os0AAEADdoGkQIAQCOYaacwdn35PVQDoRnoLl7n9ewoSUMtMqRUZvMqpeIXqS6C3ARZFMTj6BbXdqIaAICGnPtIAQCgITyMBmChnm+mGAjR4KxJNyUeP92lK5t9tUeyV1RK8TepKoKdpO5BnAvy3LgDEADQEDQAAQCN2m4F0QCM8s4t1AIhM2lysw+hLr1a7kY1EbAgzgUWGXcAAgAasw8iBQCABm1zgngHYN1b/4uraE4nVH2XzLIfS5rd9Ktd3tNbzb5EVRHsHHUFcQdgPRINQABAQ9AABAA0ShANwFpGAxDhmXuLT0o8+4FLh7fQsN7WO5x+mOoiRHkURgMw4hFgAECjzjmkAADQIJ0hBLHlEPEIMIKy8GpPJm/OLjTpmS04vI/3DtfeRpURHPcgzgW5K6EYAIBGoAEIAGiUOIAY0mVmdUqBUPS7R9ku6VJJL2rdUdqXeodqC6g2gpqVgbwDMIpUoBoAgIacc0gBAKCNzjk8/otwuNv6av1rLntti4/UZPb1vmp2HEVHMJPSozC+CJ/TAAQAtM9mDADQ4ua6h7LB4fFfBKOnmn1G8oVtMtyCu5/TV02fR+URglDeAZhHeUw1AACNQAMQADDudr8mmPNNjWogBD1D6QdNem+bDbvorotOWpUexQzAhHOF8ToI7gAEADQIDUAAwLir7ckGB/i73mrtzWb6ZJsOf6co0g/7hmqHMhMwkczC2AdFxvkRANCgcw4pAACMt/p9YWxwXDKqgYnUW81eJrcz2jwNu7rZz3rWbCkxI9D25wOnAQgAaAwagACAcZd0hHG+Mc57mEA91fRZcv+2xIZf0l5WL/zwxNX+WFKBCdoEBdEA5BdTAIAGnvsAABhf6YjyQEJho4UJ0bNy5PHmukhSB9n4h1Ihz362cI3vSirQaJ4Hcj6IAnkXIQCg5dEABACMu912UsZ5D+1qwarN01WIfiJpN7Lx70w6JM2yi06pOo1RNHryBXE+8DyY8yMAoMWxEQIAjLs9/xTMHQ6c99BQC4f8MfUovtSkfcnGwzAdvVHpkn531icaJphHb7kDEADARggA0Cr6j7Zs636L8x7ax8LbfKfUsosldZONR+H2mvXV+ldIBBp2MrAwGoCWRzQAAQBshAAALSWE9wBy3kNDLLzak2xD9h1JTyUbo+Vv7hlKP0ge0JDZxh2AAIA2w0YIANAoKec9tAV3q+2SVtz0ApKxbcz0ib5qbT6ZwLjPtTyQ84HTAAQAsBECALSWEDY5MWXAeOutZp812QlkYruYu319/nD2YlKB8eSWTwpiwhsNQABAY9AABAA0ZpMj1QIIo3Oue4FqYLz0DdcWSnoPmdghcS6/oKdaewqpwHhxt51DiCOXNlMNAEAj0AAEADRmsyXdH0IcU4a0E9XAeJg/nL3YZV8lE2NiJ3O7eP7qLV2kAuPBTEHcARi50wAEADTmnEMKAAANEkQDMCrSAMTY61tVOyKXf1s8Zj6W9srzwsXzl/sepALjIIgGoEdhnBsBAK2PBiAAoFGC2OTk2cjOlAJjacGqzdM9skskMbfG3qw8yb53StU7SAXGlIfxyyDuAAQANOycQwoAAA0SxCYnrxtNGoyZ+ct9j3oUXyppb7Ixbp6xMU+X9rtz3YqxYxZEA9DrOXcAAgAaggspAECDNluBPAIcR5MpBsZCzzrvzJPs+5K6myz05ms4mB13czX7FLMOYzalPA+iAWh5xxaqAQBoyD6IFAAAGsLDaDrUc94BiLGYz25WS8+S9PTmCtzWRlk8W9IlzXcI0ft7h2pvZfJhLOSB3AGYJ7wDEADQGDQAAQAN2r17EJucQsQjwNhxPdXsMzJ7fZOFfZspO2bxbFu/cVJ8nFyXN13izb7UO5wdywzEjk+lMH4ZlN1PAxAA0Bg0AAEAjdlsRdG9IcThzocasGP6hmtvMum9TRb236Iof/5AuXOtJC070Dabxy9z6comG0dB8vN7q7UnMhPRAueC7JxDbRPVAAA0Ag1AAECDNlseRAPQlE+hGthePcPpMS47o8nC3ij5ixZ3ddz4r/9wYKZtKKTxCyXd2GTj2VluF88b8v2Zkdjuc4Fp9wDCuJdKAAAahQYgAKBR7gkhCHfbk1Jge/QMjcw06QJJcROFXZPp1ZVy8YqH+peL59jfsih+jqShJivH/gXLfnDidc4dvdjOc4EeM/FRGA1AAEDD0AAEADRqtxXGRicSDUBss3krfU+zwg8k7dZEYddldkKllPzkkf7QOV32V0XxMXJf32RlOawwKfv2XPcCMxTbyqQ9Ajgx3kclAACN2wYBANCQM050TwhhcAcgttXCqz0pRNkyybuaKGw38zdWSvGFo/nDlS67xeP8GEl/aabamPTiydXsU8xSbIuTl/tkSR0BhMIdgACAxm3HSAEAoCE8jEeATU4DENsk27X+VZmObqrl5nrPQKm4eFv+m8EZndV6nj/PpLubrETv6x2uvZGZitHa2BnC3X+SaAACABqIBiAAoCHM/Z5AQnkM1cBo9Q6lH3D3NzTXYtNHBruTL2zPf7p0Zsf1ufmLJG1ssiPMGScNpc9hxmI0kjwN4hdBFsqrMQAAbYEGIACgMRudQn5PEHEY7wDE6PQMZ6+U6RNNFvaXK6XkYzvyAwZLxd/L9GpJtSYadxKZLpi3ckuZmYtHk+UWxh2AFsarMQAA7YEGIACgQfuc4h0hxOFOAxCPbn61dpjJlzbTtZK5nzO1FL9rLH5WpZT8xN1eIylrorLtUSjEl/ZWfS9mMB5JIQrjXbAu/yvVAAA0Cg1AAEBDHLBed0nKAwhl9353zn94WPOGfP/c7RJJOzdLzC798KDbkr5+szFbY4Pd8ffk/ubmqp4fLM8uWHi1J8xkPPw0yYO4A9Dkd1IMAECjsAECADRE/9GWKYyPC0RrV2l3KoKH0rPOOwuWXSRpvyYK+6r65vg1D6yxMVXpLp5tro82WRmfVdulfjqzGQ8n90AeAVZ0B9UAADTsrEMKAAANFMTjTrGN8CEQPCSrpWdJOrKJIl6TRfGx5xxqm8brbxjoTvpldnZT1VH+pt5q7c3MaDzkBshsn0DmKQ1AAEDjzn+kAADQKC4FsdnJC4V9qQYerG84fa/MXt9EId9pefbic7ps3BvrG7sKb5J0UXMdcOzLfavTo5nZ+M9zke8fQhx1z3kHIACgYWgAAgAaKYgGoMkOoBT4V33V9HkufbqJQt6sSC8bmNk51Ii/bJlZfeOk+AS5fttEOUo817KTqltmMMPxIEE0APO8yB2AAICGoQEIAGgYk/01jDicBiD+Yd7KLWV3fVtSoUlCrpvbCZWupKHNuGUH2uZ6Hr9U0lATlXfPyAsXn1D1XZjp+CcP4R2f9YNnBvFeXABAm6ABCABo4J4rjPcduWx/igFJWrjGdy0UChdL2q1pgjY/ZaA7npDHcZfOsrtM9RdJ+ksTlXl20bOK3I0Zj61fgQ/iHYB3juVXuwEAeDQ0AAEAjWN+WxBxuNMAhPrdo7SefVNSd9MsIdOnKqXi1yYyhoFy51qv58dIureJyv3KvuHsI8x63HSTHispCSCUW6kGAKCRaAACABp52gllw8MjwNBN1ew0Scc2T8T+rYGu+MMhRDI4q+MG5XqlpFrTZM/0//qq2XHM/Pbm9TSUXwDdRjUAAA3diZECAEDDTjqWB9EAdBqAba+vmp1g0nubJmDX5ZMt6ZWZhxJSZWbyC5f1bl1STcHcffCk1bXDWQHtyzzaL5BIuAMQANDYvRgpAAA0Ss2SIDY8Ju298GpPqEh76q3WnujuZzVRyNfVovjlZ5RsJLTABsvxeXJ9qIlyOSnKdeG8lb4nK6E9medBNADd/HaqAQBoJBqAAICGmTFDdyqMRwajLbtrXyrSfuat9D3l+o6kSc0Rsd9sefyic0t2X6gRVrqTT5vbmc0zC2xaoZB9a657gRXRhtzCuAMwdx4BBgA0dgNECgAAjdJvlsvDuOshzjM+BNJm5roXokJ2nmTTmiTkDfXcXzIw04JvFGwoF97m0g+baDocs/Nw9glWRfsJ5SvwBYtoAAIAGooGIACgwUJ575EdSC3ay+TV2cdNel6ThFuX7PilMzuub4Zgl5nVozx+nUvXN8t8MNP7+4azV7Ey2uwMFPn0MBZ4zjsAAQANRQMQANDoTXcYHwLJfQbVaB89Q9nL5Tq1adaJ6/2VcnxJM+V4YKZtyAvxS+T6c/Ok2Su91ZHZrJA24n5wGOfChAYgAKChaAACABq79zLdHEQcMhqAbWLeyi1lMx+UZE2xRmSDA93J55sx10tn2M15wY+VdH+ThDzFFF20cI3vykppfVs//hTE3d/3V0p2BxUBADQSDUAAQGPlflMIYZh5F8VofScv98mFQuG7kpqlwfPrKVZ4UzPnfElX8RqZnSQpb4Z43VVO69k5/e5cF7e4+m4jUyWF8PGXm6gGAKDRuNABADSWRaFsfGgAtjp32xyniyXNaYpwZetk8SvPKNlIs6e+UoovlPSRJgr5Jeur2QdZNK0t90Iod37fRDUAAI1GAxAA0NgTT1QPZeOz34nX+c5UpHX1VrP3yuy4Jgn3vkJUf2krPRZYKcWfNPdzmijkj84fzl7MymllYbz/T7L11AIA0PB9GCkAADRSbVNxXSChWKFYO5iKtKbeVemzJX2yScKtR7LjF3d13NhSRTDzDVmyQNIvm+W62OXnzF+9hbuDW5S7BfEFYDenAQgAaPyFDikAADTSOYfaJkl3BhFMoVCiIq1n3pDvr0jnS4qbImD3dywuxz9sxVosm2O1xOO5kq1tilJIu+d54cK5t/gkVlJLCuMLwLndRCkAAI1GAxAAMAG7nzDefxTJ+RJwi+m/3OOCZd+StFczxOtuiyvdxa+0ck0Wddud7vUXS7qnSUI+dOfN6VmsplY89SiMY77lN1ENAEDj9z4AADSah9EAdBmP+rWYm/bPPiXpGU0S7mXTbmvuL/6O1mB3xyqXjpOUNUO8Jjuhp1rrY0W1nDAeAU4SHgEGADQcDUAAwARsrrUmjECcBmAL6atmLzXpPU0S7tBIR3xc/9GWtUt9BsvJz0x+StMcp9y+0jdUO5SV1RoWDvljJO0aQCgbB6fpL1QEANBoNAABABOxs64GEYerm2K0hgWrNk+X+6Aka4Jw7/FC/SXnTbW7261OA+Xi1yWd3iThTnKLLly4xndlhTW/mrJZgYSyWmZORQAAjUYDEADQcOZWDSSU/XvW+W5UpLktvNqTehSf69LuTRBuHslePzijs9qu9dpYit8l6SfNEa13pfXsHLkbK63Jzzvms4OIQ6pSDQDARKABCABouEIWB7MBirJg7grBdqrtWv+ipKc2RbCmj7bqF39Ha5lZPUrj45vly8CSXtI3nL2LldbsLIhjvZtWUwsAwITse0gBAKDRFs222yVtCCOaMO4Kwfbpq2bHmftbmiTcH0ztij9B1aTFc+xv5vkrJW1qhnjddFrPUPoMKte8XArjlz3u3AEIAJgQNAABABMlkLsgjAZgk+pZs6Xk7mc1SbhVT+J5/WY5ldtqoLt4ncvmSWqG96HFJl2wcIXvS+Wak0lBHOvdjTsAAQATggYgAGCidkFh3AWRiwZgE+pZ551WL3xb0i5NEO7G3PJXDE63e6jcvxssx9+V9LmmCNa0T1rIzp3rXqByzeWEqu8iaf8gginG3AEIAJgQNAABABO0mQ7jQyBuPodiNKFa/SuSDmuCSN3N+paUOpZTtIe2sRR/UM3yURDT0ZOHs/9H1ZpLZ57OVBhfCN84OE1/oSIAgIlAAxAAMDH7aLfhQCI54IG7Q9Akeoay15r5/GaI1aX/GSzFy6jaw1tmVh/piF8nNcmjkaYP965Kn03lmkeuKJSPPQ3LzKkIAGAi0AAEAEzQhixfGcp2vugpXwJuEn3DWw428683Q6wm/XzarfEHqdqjO2+q3e1ef4mk+5ri+jnSeT3rfB8q1yQskI89ua+gGACAibuAAQBgAuyUJSsVyMv/3cRjwE2g/3KPXYVvSto1/Gj9Zrf4df1HW0blRmewu2OVrGk+CrK31bLzeB9g0wjilzwuW0kpAAAThQYgAGBCnDnHNsr95hBiMb4E3BTW7599UtJTmyDULXmkV1ZKdgdV2zaVUvx9SZ9simC3vg/wfVStKYoVyDHeuAMQADBhaAACACbwLBTGZshdj6cYYeutps+X9J6mCNbtTUu6itdQte0ztRR/RNIPmiJY08dOWpUeRdXC1bfKp0g+PYhTnmfcAQgAmDAxKQAATKAVkl448Xv4pviabNtasNb3rmfZEjXBLy7N7cyB7njJo/25nnW+Wy2S7bR5y255ZCaPptQLiuPcdnapmJtNktQZSUV5vvOD/3uX7eKmf3v8NJJMrt0eYoIn7jZ5NPG7lEfyex/8z3PTZklbtv44r5lr0wP/PJOiDQ/8/SNyv98j3Z/LRzzNN8QFZVs6Ou62murnlmxU7/frN8sXrvET03r2e0kzQ7+WjiL/1vzl/oTFc+xvrNbw1JUdEoVx7Bg56PaONVQEADBhFy2kAAAwUVy+wmQhhLLXgqofcHbJ/kRVwtLvHt1UzZaatHcThJu6qbO3Wlsit50k7SZpZ0k7STZF8ilb/7d2VpqpQ1I9euBSzKQol/IHfpC5P7BGHviXD+HB3xL1h19oGu1r9exh/uS//132jz9j//Kz//FHcimSSYWCXFLHyNbXIPYOp5JUM2mTS5sl2+LyjdHWvN3rriyS7nV5mtbrG2VaJw++ASjJDsyTrCL3l/OF1/AUzJ/gYZxnqrwTFAAwkWgAAgAmTCRbGcpuue71J0iiARiYm1Zn7zXpeU0SbiJ5n/yhmg30hR5QdKkoaXfJ/9lw9H9tPj7wv5orZS/tW52+fUD6EiUOS67oMAthMpkvpxoAgIndewEAMEHiKA7mhegm5zHgwPQO155sro+TCTQDd/tMz1DtSDIRFov80CDmB18ABgBMMBqAAIAJs2iG3Sv5LWFszngPYCj6VvmUeatGDpGi8yQlZARNomgWnT9v1cghWz88gYnWf7nHcj0uiE2X241UBAAwkXgEGAAwwew6SQdOfBzcAdgIp1S9Y5OP7C8v7JdHtq/kB5trP5P2lXRwLu3nyvYtKBKPzaL5+MGFKLrOlal3ON0i2W2SrzX322Vb/7dka+uW375zrbj+zDm2kZyNn5v2qc0yRZ1BnOmi7DoqAgCYSDQAAQAT7TpJxwawPZt6/Hrf/bypdjcl2X4967xTtdq0SIXpUn6wRzZdrumSpkk6YKNnj5UKkv3zQxfSP1t9RgrROjolP1jSwW72bzM88kibk0y9Q+mfFelPct3k0jozXyfZ2npWX7dr3LH+jJKNkMbtF8WFQ9yD+EXCpgNndKylIgCAiUQDEAAwodzsOgtjg2adafYESZdTlUcqmNuC1drfPTs4d5tu8umSH+xm0yUdrDTbVxaZyyUZN/EBj3jU0T5y7SPpCNt6QJQkFQoFbfQs7x2u3eqydSZfJ7O1LlvndV/bkcdrF82220ngox2u/AmBhHJjv1lORQAAE4kGIABgQuVZdl2hUAhps0gDUNLx6333JE0PNo8OlvzgKPc5Mpvt1ay7Lk2WJD3Q5uO+PWBcRJIdaNKBkj1z65eSXRZJaZSpdzgdkexWyVeYtPzvjxfHWbyc5qD+fmQ6LIzfQdgfqQYAYKLRAAQATKiDZ3asXl/NNknaecK3aHl7fQhk4W2+U7opnekezZR5ydzLkpUklTSS7ba1sbd1+/zPRxgBBKLjH48YS8f+vRGfxpl6h9O7JFVlPiy3YTOrKs+Hdo6SVe30WLFLQXwB2Dy/gekKAJjw8xEpAABMtN7h9HeSnhJAKCsq5WROq+X35OU++f44nWWKZst8tqTZks2WfJqkiBkItI26pLVmWu7SSslW5Jav7NgpWbloP7u/lQY6b40fVKhn60OIxV3PHOxO/o/pBwCYSNwBCAAIgF0neQgNwJkL1/iui2bYvc2YxYW3+U71DenjPNLj3W2muR7n5jM3K5tqsge9kI+X8wFtqCCp5K6SpJdLrshN6cbMe4azm0y+0qXlMl+lXDcUpyTLm7UxWMjrTwokFFcx5g5AAMCEowEIAJj43ZHl15sHcVN6VKtnT5L0s9Bz1rNy87QoTg5x90NMOkSmQ9ONWZfMor/39ramlJv9ATwq2/pBH0036UVyk0xKN2b13uF0tUnXu3S9mV2fZ+n1g7Mm3RT+icWPDCSOmwen2z1MMQDARKMBCAAIwbXB7IKlJyugBuDf7+qrS4cqig4190MkHSJpV3/g68n+j/8PAMZUQVK3S92S5rq7rBCrdzi9V9IN5na9LL8uN11fvz+54ZxDbVMwkbuODOL3H2bXMo0AACGgAQgACOBslPxRaZZKSgKI5skT9RcvvNqTkV1r5UJeONzNDzfT4enG7EiZFU2SnC4fgCDsKunpbv50yWQuxZMy9Qynt5t0jbmuySO7plAr/GbxHPtbo4Prd4/WV7PDQ0iUu65mugAAQsBzQQCAIPQOp39UGF9svKtSiveS2bh22x6q2eeuIyUVmQ0AWoVL/9YUzLPCb5fOsrvG8+9cMDwyq65oRSC7rRdUSslPmAkAgInGHYAAgDA2iW5Xm3kIDcA9T1o9cvASac1Y/cB+92jd6toskz3ZFD3V3Z+UKpsdeRT7A31Gbu4D0IpM2lfSsW461txVKGTeV02ruftVkq4ouK64L0v+uGyO1cbq78y9cKQsjINqZvEfmAUAgBDQAAQAhLFJjPJr5DY/hFgKip+iHWgAnlD1XTo8e5JcT3fT4eur2VMjRXtu/bfO7fcA2vpw766yycqSTshNmpxkae9wWpXs1+b6TT2qX7Okq7hie+/EziM9KYz+n998Tpf9lZIDAEJAAxAAEATPdbWF0hlzPVnSuaP5o3PdCztX08eb6amSnmKyp7hnZZd40QYAjE4iabbks920MPJIvdXsLxpOr5B0pUX6bbopvnK0Hxkx9yNCGJTxARAAQEBoAAIAgjAlSq7f6FlNAbwDL5c/7IdA+i/3eN2B6aGW6+mR7CivZs+RbI+/f4WXJ3kBYEzsLemlkl7quRRPyuq9w+mQZL9202Wmwi8rJbvjwf/R3OVelLInhDAAPgACAAgJ9yYAAILRO5xeK+mwAEJJN06Kd112oG0+8TrfOenMDssjHWWu50o6StIkqgUAE76VWWue/0amX9fNf7Okq7iibyg93CO7KoToPNILB7uSH1MnAEAQZ01SAAAIRV81W+Tubwhi4yY/V7KSSU8Ud8wDQPAe+OLwnxXGL5KURfHevAMQABCKiBQAAMKRXxFKJCY7waQnieYfADSFB744fFgg0ayl+QcACAkNQABAMOry35MFAEDzyzmfAQCCQgMQABCMJV3FFSbdTSYAAE3uClIAAAgJDUAAQDjMPJeuIhEAgCZHAxAAEBQagACAoJiLx6YAAM1sZLIlfyQNAICQ0AAEAATFZDQAAQDN7A9nlGyENAAAQkIDEAAQlLxY+J2knEwAAJoUj/8CAIJDAxAAEJTB6XaPpGEyAQBoTkYDEAAQHBqAAICgnLjaHyvpDjIBAGhGJu/qWef7kAkAQFjnJwAAJti8NX5QXE9f4LKXSHqBpJisAACaWG7SH+S6JFd+/mB3xypSAgCYSDQAAQATom94y8G5opdEZnPd9TTOSQCAFt52rZX8EnMtGyjHv5GZkxMAQEPPRKQAANAovdXaEz23uWZ6laQSGQEAtB339RbZd3L5ssGu5AqagQCARqABCAAYV31DtUMV2XHudpzkXWQEeEi5Sfe6lEt2r+R1k+7LpbpJ95krk2mDyzMp2vAQV3Q1c9/0H//ctSWPtHlUF4WuxKTJD/GzE3f7z3/u+U5m1pFLO5nUYaZJcnW6NEmyTpdPiqROlzolTaLEwEPxm2W2TO7LKqXkSpqBAIDxQgMQADDmelaOPN4K0XFmOs5dZTKCFryAutvd75PZBrnuk2mDSfe57G6Zb5B0n8nvk7QhV3Rf5H63yzfkkbJCnt8d5e73T+q8p5jLH/jydesfF9Z5Zy3SpMmb1JnFI5MiWUca2U4F2S5ymyJpins+2c12i6Rd3DVZsikmn+zS7pKmbP1/PtlkUx74Z0DrcF+vyC6Mcr9gcTm5imYgAGCMr18BANhxJ1W3zIhUOEGu10qaRUbQJO4y012e606Z7nLZXWZ+l0t3RPI7XdGdlvtdkeV31bx4X+y6b2CmbSBtYTh5uU/OTFNGktoesUd71t32UJTvEbntmbv2sMgeI/c9JO0h055ybf3f3JGI4PlNZnZeXfl5S0ody8kHAGBH0QAEAGy33qrvpTx9jcyOl/RUMoIgL3bczlSUX5vn0V2R/M7I8rtGouJdW2bormVmdTLUfhbe5jvlm7RHrV7bI46jPT3XCyS9j8wgUNeZdK5H8fmVLruFdAAAtuuamBQAALZFzzrvVFY/JnI/0aWXS0rICgJ2SaWcvIQ04BG5W081+7FJzyMZCFhupt/l7svMkvMqJbuDlAAARosGIADgUfW7R+uHsmeZeY+bvUIP9aEAIDx3JVn8+EWz7XZSgUczf4VPzePsekm7kA00gRGXLpHZkml/Klzaf7RlpAQA8EhoAAIAHtaCqh+QKTvB3N4g+Qwygqbi9tpKd/xtEoHR6qvW5rvb2WQCTeZvkl0YWf71xaXiH0gHAOCh0AAEAPybBx7xfYm5L5T0HM4VaFIXVcrJK0kDtlXvcPpdSa8gE2hSK9y01BQP8IgwAOBfsakDAEiSeoZqR1oULZT7ceIROPy7uyStNLOVLv+TXB+U1BFstK4/J4ofv6jb7qR02FYLV/i+aZzdIGnPgMO8011ftMi73W2mSTM5buNBRuT+fTM766BS/It+s5yUAEB7owEIAG3shKrv0uHpa132RklPJCPtzaXbTVou2VpXviKSLZfqawfKnWv//md6htPPmvTesMdhrxosx9+lothePUPZa838W0HPc/eFg93Fs/7+fx+/3nfv3JLNkflsyQ52aY5ksyWfzjV/2/uTSedmhfjMpTPsZtIBAO2JiwEAaEO9w7UnS9FCyV8jaWcy0lZqLq2KpKFcWiW3FYUoH7qvM1m17EDb/Ej/Yd9Q7VA3u1pSHO7wfEmlXOyhzNjh4+RQ7dsyOy7gEO/xJJ41ON3+/Eh/6ISq75LkaXekaFYun2WmbkmzJc0Iey1jHKSSLjG3sw4qF37CXYEA0F5oAAJAm+hb5VPyQnqi3N5o0iFkpPU9cEff9ZKuM7Pr86x+fXFTcdWiIyzd1p/V7x6tr2a/lfTkgEd8iyfJIYPT7R6qjx01b6XvWYiyG2XaJ9wp7xdUuouv2Z7/tGedd3o9nWOuQ+X2eDMdItehCvvRZ4zd3Fkvs7OyKD7rnC77KwkBgNZHAxAAWtz81Vu6PC8skLTQpd3JSEtKJVVNWi7XijyyaxQXrnq0O4O2Rd9Q7S1u9pWgt7ORXjTYlfyY6YCx0jucHSv5D4K+mDd72UApvnisft7fHyXOzQ+PXIfLbPbWx4nVyYxoSTWTvi9p0UA5uYx0AEDrogEIAC2o3z26aXX9xXJ/q0nHcLxvKX+V9AdJ17nsukJUv75wT3Foe+7qG60HPoqwUtKuAV/SfK1Sjk9memCs9Q5nA5L3hhuh3zwpTeacOcc2jtffMHe5F3cppnM8jx7vkR8i16EmHc4vlVpuY3iNy7+6cVJy/qO9EgIA0JTHeQBAq5i/3PfwJJufy95sW1/8juY+Sd/t0tUyXe1uV+eFwtUT8QL3vuH0ApfmBpypNZPSwhPGswGC9nVC1Xcp5un1MpsaaowufWmwnLyz4eec1Vu66vX4CIv8CLmO0NaPSU1h1jS9u1wayAvxV/hoCAC01N4CANDs+oa3HOwqvF3SfPFRj2a10UzXuesac7umHtWvWdJVXCEzn8igelanL7Bclwact1ymZ1dKya+YQhgvvavSZyvSZQFfO+duftRgqfj7CT8frfL98kL98Mj9KJme7q7DJO3ELGpKuaQf5blOWzIz+Q3pAIDmRgMQAJrY/OH0mW56p7teKikiI03jfjP9wV1Xy+xqz+tXTysXh0P7IuPC23yndGO6XLJpwV7ImL4wUErezZTCeOsbzk53+SkBh/jHqbfGR/YfbVlIQfVf7vHafWuzo4IdYR4dIfkRkp4gKWFWNRHXbxXZFzd2FS5aZlYnIQDQfGgAAkCTWXi1J+ku9VfL/F0PPHKF8HdOt5j0G5d+Z7l+e9DtyR9D26Q/lJ7h9LMmvTfgEIc8iZ8wON22MMcw7sfe23yndGP9eslnBHxh/76BcvK50HM59xaftMvm7Mi66+kyPS2Snsb7BJvkbCZbF1l+uurJ4oGZtoGMAEDzoAEIAE21+UwXSHq3ZAeRkWClkq516XeR2e8iFX57dsn+1GyDmLdq5JBCFF0jKQ40xNxdzxrsTv6PKYdG6VudHu25fh7wNfT9pvrjB8qda5sqse520ura7ILbUW46Sh49TfIuZlzQ7jHTmanFXz6ny/5KOgAgfDQAASBwJ1R9l8TTXsneb9K+ZCQ490q6yly/kenXGybFv2n2ryf2u0frq9mvJT014EsYvvqLCdE7nH1D8oUBh/iTSjl5QbPnecFa3zur15/0L+8SPEJSBzMwOCPmfkEe5x8fnNFZJR0AEPDVMykAgDAtXOH71uLsnSa9SXxVMTyu33pc72nFDU9PtXayuX014BBvTQrxnEUz7F4mIhp+bF7ju6b17EZJBwR7gW/2+oFSfG4r5X3uLT5p5y31Y839AmZhkDK5nx8V/DOLuzpuJB0AEOD1ASkAgLD0rNw8zQrJqZL3iLsdQnbnxlK8T6u9DH3hCt83jbOVknYN9uLF7GUDpfhipiAmSu9wdqzkPwg4xDvq9XjW0ll2V0udH6u1PnNbzAwMmku6xN0/PthdvIp0AEA4+GIkAARi/gqf2jucftkK8SrJ3yiaf6F7zM7D2dNabVBZnH1ZATf/ZP5tmn+YaJVyfInk5wUc4l6FQv1zrZZ3y+2lzL7wyyTpJWZ2Ze9w+rPe4dqTSQkAhIEGIABMsL83/vI4G5L0NtH4a6ZtzktaaTg9q9MXuDQ34BD/Vigkb2fiIQT1evI2SX8JN0Lv6RtOn9sq+Z57i0+S6bnMvKbyXMl+31dNf91TTZ9FOgBgYtEABIAJ0je85eDe4WxxHmdV0fhrSia1zN0oC2/znSz3rwUdpNu7zj7Y/sLMQwiWzrK73O0dIR+iXDqzZ513tkK+d76/frSknZl5zcddR5nr8p7h9Ce9q9OnkREAmBg0AAGgweYN+f69w9k3XIVVkvdJSshK0+ruW7WluxUGkm7MPiLZtGA3kNJPK93xEqYcQjLYHZ8vKeRH0ktRlv13SyS7xe64bkcmPU+5ftMznF7SN1Q7lIwAQGPRAASABpm30vfsHU4/V7CsKvlC0fhrkTNpoenvApy/euRxkt4ZcIibVM/eyGRDiCyP3yzpnlDjc9d7FgyPzGrqJLubyY9ltrXImpFe7GbX9g7XzutZs6VERgCgQdsWUgAA4+vE63znnmr6/kIhWy3pPZImkZXW4S3wGHBej05XwA1pM//w4KxJNzHbEKKBmXabmb8n4BCLmaKvy92aNccnrUmfKOkAZlur7UPtdVYvrOgbqi3tWbl5GikBgHE/8AIAxsPCqz3pGa6dEk/K1prrNEm7kZWW9NTequ/VrMH3VbMTZDo64BCv2NCVnME0Q8gGupIBSZeFGp9Jz+xbXT++WfNrbtz917piNzvRCvGKnuH0sz3rnGslABgnNAABYBz0DWWvSHfJlpvsdEmPJSNjyW+W/FsBBVRQXn9RM2byhKrvkrt/LuAQa17P37DMrM68R9DMvJBnCyVtCvbImfv/LFzjuzblhsXDef+fS1ea6QtyX8/EH1OTTHqvpdnqnuHaKQuvdl6TAgBjfT4lBQAwdk5aXTu8dzj9pZt/VxLvtRmzHZevl3S6uZ5RKSXTppaS10v6azibf2/Kx4ATzz5q0r7h1l2nDc7quIEFgGZw9sxJ61z+oWADNO2T1esfb7a89q3y/Vx6YkAHpm8OlJJ3V7qL03LLH2euj0paxQoYM3ua7PR0l2x5TzWbSzoAYCwvBQAAO2zeGj+okKWflNkJHFvHTFWmCyW/sFIqXvvgf9lbrS2R27xAYt3oSbzX4HTb0izJ7Vk58ngrRNdKigMNceVkiw87o2QjLAU0i373aH01+42kpwQaYl3mT3qoY2qoeodrb5Ts6+FsnuozBsqda//jOmDVyCGxRa9006skPY7VMGZ+Zbm/Z2Bm8WpSAQA7eg4DAGy3hbf5TunG7AOS3i0+7jEWVrj0nTzPL1w6s+P6R9wUVrNXy31ZKIG724sHu+MfNUWW3a23mv1K0jNCjVCmoyul5FcsCTSbvqHaoW52tQJtrrt05bRS/NR+s7wZ8tkznF5i0otDOUdVysmcR50Dq7Z051Z4lW1tBj6RVTEGZy3ZkjgunHr2wfYX0gEA24cGIABs7yZvOHuVe/55mU0lGzt0Klpr5ueb5d9a3NVx42j/qxOqvkvRszskFQMZxzcq5fhNTbGhrmYnmvvScKeEL62UiiexNtCseofTz2nrV98D5W+qlIvfCD2PD/yS7U6F8wu2z1bKyfu36Xi7ZkvJ8sLr5HqdpJmsjh1yr8w/mtybfGXREZaSDgDYxktsUgAA26ZnaGSmWXS6pGPIxvbuPfVnmS5w828NdiVXyMy3c5P904DqcFulFB+wvWNp2IZ6je+aZtkqmfYJNMS/ZVE865wu+ysLBc3qxOt857gzXR7wL4j+JotnVkp2R8h57K1mL5P794I5dbmeOdid/N/2/vfzq7XDcrfjJX+NZAeyUrbbcuV6W2Vm8gtSAQCjx0dAAGCU+lb5lJ7h9LNm0XWi+bc97pGsYtIxG8vxAZVy8vbBUvH3O9Iwc/kPAhrffvOH0yNDL0KtnvUH3PyTyT9A8w/N7pxDbZMsemvAIe4h1T8VfCJdLwsomr9Nuy3+3Y78gMWl4h8q5eS9U0vJtEj6L9/6bsO7WDHbbI4i/bxvOL2gd7XTSAWAUV9nAwAeVd9Q9go3P0PS/mRjm2wx6Qe523lTosKlY/1BhwWrNk+vR/HagMb7P5Vy8t5Qi/HA3avXS0oCDfH3U0vxUc3ybjLg0fQOp9+R9MpAw8st9yeH+nGFhVd7ku6S/VnSHiHE4/JzB8vF14/HOGtT6sfI8uNN9gpJO7FytslGmf+/jV3J6cvM6qQDAB4eDUAAeKQL8xW+bxpnp0t6NdnYppPLNbn8nKIn5y7qtjvHeYN9g4L54qLfVCklB4f6GHDfUHqpm14Q6LSpR+ZHLi4V/8AKQoudQ1ZK2jXQEH9XKcVHhXjM6lmdvsByXRpKPO72usHu+Pzx/Dvm3uKTdt5SP9bcF0p6Dnu1bXJd5L5wcXfxSlIBAA+7RwMAPFi/e3RzNV3gss9J2oWMjGJzJN1u0jJzHxjoLl7XqL+3t5p+Sq4PhLNJ9CcNdhevCm4zXc1eYu4XBzyBvljpTt7FSkKr6Rmuvd1kXwp2M+B20kB3HNxHgXqGsrPNfH4g4WQjHfFjz5tqdzfqL5y3xg+K8ux1cnujyaezkkYll+xsywvvGZhpG0gHADzonE8KAOA/NmtPMNkiSUeSjUe1RebftzxasqFc+OlEPH7Tuzp9mnL9JpSEuPS5wXLyvpCKNHe5F6cUsxvcVQ50Hv3J8ng2Gza0ornuhSnV7AqXDg8xPpduTy2eeW7J7gslpv7LPV6/f3a7pMcEEtKvKuXkWROSC/fopmr2HJP3aOsjwpNYVY86q2+WordUyvEl5AIA/omPgADAAxZe7UnvUPpRk10pmn+P5iqZnzzSEe9XKRVfO9AdXzpR797ZOCO+QlJAX7K0V8s9qF+wTU6ytwXc/JPM3knzD61qmVm9HvkbJQX5fjKT9k08+3BIMd28f/YshdP8k7km7INT/Wb5YDn5WaVcPCEpxPua/I2SrmBlPWLFDpL8B73V2pLj1/vu5AMA/nHOBwDMXz3yuDyPlkh6Itl4WFtM+kE915eXzEx+E1JgvdXsLLkvCObkmvuRobxY/8TV/tg4z4YV7jvIflIpJy9geaHV9Q6nX5b0tkDDq1leP2RgZudQGLnKviH5wnA2TPUZA+XOkD44pQXDI7NyRSdJWugSTa6H4/qzy9482B1/j2QAaHfcAQigrfVf7nFPNX1/nkfXiObfw6m66dR6PT5goJwcF1rzT5I810VBxRPZ3FBiifP6pxVu829zbvW3sMTQDiyPPyzpT4GGV/SocEYIgcx1L0j+8oByc11ozT9JOrvcsXKgnJyqPJ76wF2BfEDpIRee9jHzi/qG0wvmL/c9SAiA9j4kAkCb4q6/R5Sa9D3P9fVKd3x5qF+1/btTqt6x0bO/KpgPttjaSjmeMdFRnLS6dniU25UK9xd+H66Uk0+y3NAueoazV5r8O8FuDMxeNlCKJ/RjQX2r06M91y+CyYnrowPdSX8zzK/e4dqTpeiNkr9G0k6suP9wq0zzK6XkJ6QCQDviDkAA7cfdeoZrp+R5dJVo/j3Yn0z6f0kWTx0oJ8dVZia/CL35J0lnlGxE8h8GNMkOPml1bcJf+B/l9qWAz/WrJlv8Pyw5tJPBcvxdaeLeJ/fop0d9fu5yL05oEHV7dWBZuahZ5lelXLyiUo77PIn3l/ztklay6v7N/nJd2jucfqlnnXeSDgDthgYggLbSW/W9eqvZxSY7XRIXf/90rbmdlNwXHzxQTj6+aLbd3nQjsOi7IYVTyCf2MeDeavZqSU8Ptl653rK1cQu0l3ohfqukjWFG511TkuztE/W397tHufkrAsrHTQPdxeuabY4NTrd7KuXi6ZVyMttcz5B0iSRn9W29WpD0dkuza/qGaoeSDgDthAYggLbRN5S9UJ7dIOlYsrF1HyrpQkU6qlJODh/ojpcuOsLSZh1Mdn/hUkmbg9k2auLuYpm73ItyfTrcavl5lZnJL1iCaEdLZ9jNbvpEsKtT+vCCtb73RPzdt1Szp5u0byi5MLPvNvt8G+hOfl0pJy/xen6oZAOS+MXLVrPd7Pc9w7VT5M5rsQC0BRqAAFreKVXv6B1Ov+zmP5S0NxnRvWb6gtezrko5mVvpSn7bCoM651DbZKaA3uvjM3qrtQl5xHxKMT1Z8q5AS7XR8uS9LEO0s021+IuShgINb5d6vT4hDcpcelVQmQjsA1M7YnBWxw2Vcjy/EMdT5fqYpDtYieo02em91eyShUP+GNIBoNXRAATQ0npX+4EbPfulpLepzT985LJ1bjrVk3jaQCl59+CsSTe13CBzC2yz1vi7AI9f77u724cDrtLHB2babRyd0M6WzbGaS6eEe8Lwvr5VtSMa+Vf2u0cKqwH4lw3l+HetNvfOPtj+UulOPjLZ4gPN7SRJN7Ii9aLUsj+ctCo9ilQAaGU0AAG0rN7h7Fjl2R8lPaXNU/EHmc2dVip0DZaSzwxOt3tadaBbOgs/kBTOY8ze+PcAdtayD0vaM8T6mGl4Yxp/iaMTIA2Wk59Jwd5hFuWRfb6Rf+H6NdlTJO0f0BHr+8vM6q06/84o2chAd7y0UooPiWTHyvXbNl+SB0SRLu+r1t7BI8EAWhUNQAAtZ657obeafkryiyXt0baJcP3W3V5cKcWHV0rxhf1measP+bypdrdLlwdUhK5GPgZ8UnXLDHe9NdT65Lm9c9kcq3GUAh44QtSzdymgd5f+K5Oe2VPNGvdLjFyvCWr8ru+1xSQ088Xl+IeV7uQoi/Rsk37exksycbcv9lazCxeu8V05QgFoNTQAAbSUE1f7YycPZz+T6wNq30d+L3PT0ZXu5KjB7vhHMmurL/+Z/LthxWMnNOyk7oXTJBUDLc0PBrvjH3GUAv5pcNakm0zhfrDHPP/s3Ft80nj/Pf2XeywF1QC8d0NWaLtG2EBXcvlAOXmumz9V7f3l4Fem9frVPStHHs9RCkBr7ZMAoEX0VmtPlOt7kh3YhsN3ST+Q/FOVcvGKdp4HC9b63vUsu1VSIZDC3L6pFB843o+S9a5On6Zcvw703D6SW33OklLnGo5U42veSt/TknRaIY+myfN98sgeE7nt6cr3NFnywJzc3aU8ku7dOkl9S252l0l3yfwuU3RrntXXRVa8aWCmbSCr46tnnXdaWr9R8hmBhvjhSjn55Piev9Pny/XjYDZI7ucMdBfntf3cHK49wWQfkvRKteeNIxvNbd5Ad3yRAKAF0AAE0BoXqUPZa818saSd2mzoucyX1ev+qaUzO65nJmzVN5xe5tJzgjnZmp4/UEp+Om5/gbv1VrPfKtD3XZrpUwOl5EPMzLGz8GpParumh0t6onl0iOSHSJotaawfW7tTrhtkukHuN9Tdrzy4u3hjO7xSoKHnsGr2EnO/ONDwNnoSlwan25/H7Zg9VFvqZieGMmA3e+lgKf4BM3OrBcMjs3K3D7jZ8Qrkl2uNnA5u+uhgV/yxdnuiAkDroQEIoOkvy/qGs4+46f+14THtMpm/v1IqXstEeNBmeqj2BjNbFM7Z1pdWSsWTxm+82WvN/FuBluNPk9J41plzbCMzc/v1X+7xLftnT8ul50l6pqQjJE2aoHDuk/Q7d/1vIfJLF3clf2RjPAbreDi9xKQXB7plWFQpx28cj5+88DbfKd2Y/VnSlEAGe89ki/c5o2QjzMoHn2tGZkYWfcylV7fhNdclNYtPOLdk9zETADQrGoAAmlbfKp/iUXaepGPb7Mj9C5d/aLBU/D2z4KHNW+l7FgrZ7ZKSQELamEyO9160n90/1j/4lKp3bPD6SpNPD7EW7va6we74fGbltjvxOt+50Fl/iZm/StJzJe0WZKCuP8vsR+76TnFD4WeLjrCU6m27+au3dOV54UZJHQGGV88tP3RJqWP5WP/g8H6B4Usq5WIPM/LhnbS6dnihbp9w0wvaadwuXV/I4pcunm3rmQUAmhEfAQHQlBau8H09yn6p9mr+XeFmL62UkufQ/HtkS2fZXeZBfclwcm1j/eXj8YM3efa2UJt/kn49WC58mxk5enPdC73D2bF9w+kF8aTsrw80Rl6tUJt/kmTaR/I+M/9hukv2595qdtZJq9KjqOa2WdzVuVrS/wQaXsE8+sy4TB/zE4Kazh5xzHoUS7qK1wx0Jy8009Mk/bJdxm3SIXkh+/1Jq2uHMwsANOlxDACay0nVkTmR248kO6hNhrzczT462FW4kMfsRq9vuNbjskpAIf2oUk7G9PG+49f77h0j2WpJewRYgrq5Hz7QXbyO2fjo5g35/gVlC2Xqk3RAiwxrhczP9jipDE63e6jyo5t7i0+avDldIdm0EONz6XmD5eRnY/Xz5i/3PfIku12BfL3cpLs3pPE+y+ZYjdm4Lefb9LmSTnOpXRpjmyLZaxaX4x9SfQDNhDsAATSVnmr6rMijX7dH889vdtkJU0vxIYOleBnNv22TJ8n3JIX0DqfnnbjaHzuWP7BjJOtXmM0/yexrNP9GsXEeqh3aO5x9o2DZam19l+kBLTS82XL7gqXZLb3D2TfmrdxSpuKPbNmBttkUvSfU+Ez6TL/7mO0f8mL6GgXS/JMkl32P5t+2Gygnlw2U4iPl9lqXrWuDIe+cy7/XO1RbQPUBNBMagACaRu9w9jpz/VghPwo3NjZK+u+Nk5KZg+X4PL62uX0euOPopwGFFMd5+tqx+mE9a7aUJL050PTfOVIs/D9m4SPUb6h2ZN9Qeqmb/VHyhZI6W3i4kyVfWCgUVvRWa0tOqm6ZwQx4eAPl+DuSfhZoeIfdPFx//Vj9MJMF9fivR34BM3B7i2le6Y6/raQw20wfkLShxUccy+ys3uH04xQfQLOgAQigKfQN194k+TcV5svRx2zvYdKyeiGeUyknn1h2oG2m8ju6H7Gg3uXkY7jZjfLCZxXOR04etKn3D5031e5mBv6n+atHHtc7nH7fzK5otxfoSyrIbV7khZW91eysBVU/gBnxMMeKQv0tCusO5n85UfmnFt7mO+3wWljhU931tICGdlfxnvjnzL4dMzjdtgyUktPq9Xi6pNMl1Vt8yB/uGc6+NpZ3xgLAeOFABSB4PdX0/S77Wosfs/4vj/zIgXJy3NIZdjNVHyP1wsWSgmmkmvSksXgMcv5w+kx3vTzQrF97UCk5m8n3oJot9z16h9Mv53n0B0kvVXu/hzmR+4K6Z0N9w+lpJy/3ycyQfzc4o7Nqpq8GGt7+6Ybs7Tt+eM5OCGodmF3EF6zHztJZdlelnLzd5UfIdXkrj9Xkb1q/Oq3MdS9QeQAhowEIIGh91fST5jqtVcfnsnUym1spJ89c0lW8hoqPrYGZtkHSpUGdeAuFHXt8zt3ycL8UKje9m8fW/6nfPeqp1k7Ok2yNpLdJisnKP+zk0vs3J+nynmr2EtLx7/I4/rikO4MMzvT+eSt9zx36EaawHv91Hv8dD4Pl4h8r3cmzze2Vkq1u2YG6zZtczS6Yu9yLVB1AqGgAAgj0Qsqtbzg73V0fbNERbnFTv5LC7EopvpCCj+M+NbDHgE12gty3+66X3tX1V0k6Msx1q+8PlpJfMuu2Oqm6Zcb64ewyc/uqWv/dpTuyKg4y94t7h9MfzBvy/cnHVoPT7R65fzTQ8HaNCtn7t/c/7hmuPUHS7IDG89dpt8aXM+vGz0B3fNHGtDDHXR9SQHfmj7FXTomz74/FI/IAMB5oAAIIsIng1jdc/4rLT2nREf6qoPyJg6Xko4PTbQsFH195XLhY0r0BTfCDe9dkT92e/3Kue0HuHws01Wk9r7+PGbf1GNZbrb0z8sKNMh1NQkbt2IJl1/UNZ68iFVtNvS35uqTlIcZm0inb+x7H0D7+YbJv9x9tGTNufC2bY7XB7uRThTybI+lHLXn4N70g3Zh9v2edd1JxAKGhAQggOD3V7AtufnILDu0vLjuhUk6edXa5YyWVboytTVb7blBB5bZdjwFPrqbzJM0KNNVfWzqrc7jd59uCtb53bzW7RG5fUGt/2Xe87OnyC/uGakt5N6DUf7Rlkez9gYbXWff6h7f1P3rgPWmvC2kgrvxcll7jnD1z0rpKOXmxmx0n6bYWHOJzLc2+w+PAAEJDAxBAUPqq6SdNekeLDcvN/Zx6PZ4zWI7Po8qNl7sHtrnz47f1EaG5y73oiv470BTfU6/HH2v3eda7Kn12PctukPQiVt2OHjTtxM1JdtWC4ZFZ7Z6LxeX4h5J+Emil5vet2tK9Lf/FlOH68yQF9Ki3ramUkitZdY03WIqXZZvjskmfUet9LfhFk4vZ906pegeVBhAKGoAAgtE3lPa34Dv//ij5Uwe6i/OWzrK7qPLEmF6OL5d0a0Ah7Zpuqr9yW/6DyUn6JpNPDzG/5vpEu8/vvuHaQkX6saS9WHFjZmZd0ZV91ey4dk+E1/P3KswGSexR9JFtGovynrCS6+fKzFluE+OcQ23TQDk5NY/8yTJd3VoLVy/c5Nk5/Zc7H38CEAQagACC0DOUvstNH2mhIaUm/b+pt8ZHVsrFK6jwxOo3y10K6+5L9/mj/aMnXuc7SxZoc9zW7hzFX2nXuXVK1Tt6h2vnuuwbkhJW25ib7O7n9wynH9uRj+c0u8FZHTdItjjQY8Br+oZqh47mT85f7nvI7GUhRV/P6zz+G4AlXcVrNnbFT5H0fkkt835kl+au37/+jXY+fgEIBw1AABOuZyh7rZk+10JDulHmTxkoJx/npeIBnfCCewxY/9WzZktpNH8wnpS9Q9LeYe799f4zSjbSjnNq/nLfY6NnP5HseFbY+M4yk/67r5p9u51frJ9Fhf9WUB80+pfDq9knRvMH8zg9XlJIj0RexbtLw7HMrF4pJ5+V5YdLuqp1RuZ9vdXsY1QYwISfsEkBgInUU02fZeaDLXI8ykz6zGSLj6iUitdS3bAMdBevk+mGgEIyywu9j7pG1vluJr070LT+rtJV+E47zqfe1X5gnmS/lfRfrK4GbaGluVbLftS3yqe04/jP6bK/mum0QMM7treaPvpaMOsNa045d/8FqFLqWDH11vhpbjpVUq1FhvXhnuHaKVQXwESiAQhgwvSsHHm8uS5SWHcDbCdbY66jB8rJqe16N1STNBDC2uzl6l14tT/iY6NRmp3q0u5BpjPSe9rx3Vk9KzdPU16/XFI3q6rRh1od7YXsF/NW+p7tOPwNtfgLkq0J9AD7iHcBzl898jhJTwwo4rqS5NssqjD1H23ZYCn5jNfzIyT9oTUOX/bFnuHslVQXwEShAQhgQvSu9gNViH4iabcmH0ou0+c3Tio8fqA7+TWVDfzi2+LzJOUB7Qb2yXatv/Dh/vXCFb6vS4HeMeDnV7qS37bbHJq3ckvZCvGvJZ/BipqoqacjCoXssoVD/ph2G/qyOVaT60OBhvf0vqHsYY9neT3qC2sa6eeD0+3PLKiwDc7quGFjGj/FTJ+S1OyvVSmY/Js9Q7UjqSyAiUADEEDD9azzTuXZd0zat8mHcodHenGllLxn2YG2mcqGr9Jlt8j1q6A2obk/7KY4K9Q/LGmnAFO5JcqSD7Tb/Jm3xg8qRNFPJe3PappwT0gtu+z49b57uw280h1/W1KQv3DKzU/rd/+P/UX/5R7LFNS7MiM3Hv9tEsvmWG2glHwocj9K8puafDiTZPb9eUPOeQRA4899pABAw6Xp2ZKa+refJv3ck/iQwa7kxxS0uXjk3wxsMr144Qr/j2Z43/CWg918QaDz/8uLZ9v6dpo384Z8/0K9frnMprKKgnFox0j2o5OX++Q2PJK9R5IHeGw4ZP1wfe6D//lN+9WPVVgfMrpfXriIJdRcFncXr0w8OdKlHzb5NeS+BcuWnVL1DqoKoJFoAAJoqL7h9L0mO6GJh1A310c3lOLn8+hQc0qVXCjp/oBCirMkO+k/9/dRv6RigCm8Iy7En26nOXNC1XeJLPuR5AezgoLzlC1xtqz/co/badCVcvEKyb8VZHDmH39wPcw8qMd/5f7dgZm2geXTfBZ1252DpfglLn+HmvsDIU/dqHQRFQXQSDQAATRMXzV9nkvN3Di4VabnDHQn/cvM6lS0OZ1bsvvk/t2w9qLqk7v9/f8+qToyx82ODzF/bt6/aIbd2y7zZeHVnhQ9u9CkQ1g9YXLTC9YfUP9a213EZ8kHJYX40anSTful//ja74K1vrekF4QUoJktYeU0MTMfLBe/LPkzm/qRYLd5vUO1t1JQAA27diAFABqhb5Xv565vSio058WmLpXFh1VKya+oZvPLZYOhbZh7V2fP/Pv/UVD0iTDXiq0u3puc1U5zpTal/jVJx7BqQt9I+4KeofRd7TTkxbNtvUtBNj7N7P/1rPNOScrT7PWSkoAmy80HleJfsGiaX6VcvMKT5DBJ323aQZh9/qTVtcOpJoBGoAEIYNz1u0ceZUsk7dWkQzh9ald8bKVkd1DN1rCkHP9CsrVB7QFyny9JPUO1I931shDz5q7/XnSEpe0yT3qqtZPNttYFzbCP1mf7qunz2mnMRY8/Kem+AEM7wLL0zZLkkU4K6jgmW9JvlrNiWsPgdLunUk5e9cAjwc1Y12KUR98+oeq7UE0A440GIIBxd3M1+5Ck5zZh6CPmdlKlnLydzULLdQpcHtbHQNzs1T3rfLfI7NOSLMCsXTetXLigXaZIT7X2FHP7AoulqRTcdV7Pys3T2mXAi7rtTpP+J8jg3D7YN5w+V67HB7X5yet8/bcFDZaLXza3YyU14SsqfEYxT8+iigDG/RxICgCMp76h9Oku/b8mDP02d3/GQHe8lCq2JrP6EoX1Fc1JUZotcuk5QW5PIp3aLo3w+ct9D3NbJokvNDafPa0Qn9dOHwXpTOMvyhXiR6ke49L5gcX064GZnUMsk9Y00B1fGkX500O7w3+UFyXH9Q3XeqgigPFEAxDAuDl5uU9283MkNdtG7CrL4yMHu4tXUcUW3iiUO9dKCuqdji7NDTRdvxzsSn7cLnMjL6ZnSjqAVdK0nnrzftmH22WwZ86xjSb/RKDh7RlSMGY+yPJobYu7Om6s1wtPkuvyZovdZafPX+FTqSKA8UIDEMC42Vysf1qyaU12+XXexknxfw3MtNuoYBvw4D4GEmSW3PwD7TLYvuFaj9xeQ9mbfWnrQyetSo9ql/HGG5JFkq2h8o9ok+rJBaSh9S2dZXclG+Lnm9uZTRb6lHqcLZK7UUUA44GDC4Dx2URX06e669dqrl80nF4pxe+QmVPB9nDidb5zPCm7XdIUsvGwvlspJ69qh4EuXOH7pnG2QtJulL0lVDdOig9ddqBtbofB9g5nr5P8PMr+cLseX1opFU8iEe2lZ7j2dpN9sZn2vW4+f7BUHKB6AMYadwACGHOnVL3DXYub6Bjjbjq1Uk7eTvOvvZxzqG2SbBmZeFh1Wf7f7TLYLMnOFM2/VlKasqV9HgWulArnS7qWsj/c0cyWkIT288DHQXokZc0Ss7l9YUHVeQ0FgDFHAxDAmNuo7COSZjXLnt/kfYOl5DNUrj25806oR9iGLKmUOla0w0h7qtlcd72cmrfa+tZ7560aOaQ9lqu5TB+k6g85EdZP7Y5/SSLa00B3vNTd5kra0iQh71r37HQqB2Cs0QAEMKbmr97SJde7miTcLWb2qoFycZDKta/BcvxrSVUy8Z/rQ1Ghvx0GOvcWn2R5/jlK3pKSuBCd2S7v1KqUkp/I9AvK/u9MNtguXzHHw5zru+PvuemFku5rkpBf0TOcHkPlAIwlGoAAxlSeF74gqaMJQr03kp4/UIovpmrtvjM0l3Q2iXhwWnRmpctuaYexTrk/e7/M+PJii3LXUb2r669ql/FGuX9AEq+z+JdLkyyOeZ8aNFhKfinzoyX9tSnOw9IX+y/3mMoBGLNrBFIAYKz0DafPlfSSJgj1fne9ZHE5+V+qBkkqxPESSSmZ+Id7syz+VDsMdN6Q7++m91LyFuf5506pekc7DHVxd/FKl75L0R9g+snSGXYziYAkVUrFay2vP1PSX5og3Dk37Z++maoBGCs0AAGMiYVXe+LSl5sg1M1uevFgd/J/VA1/d/bB9hdJ3ycT//A/S2fZXW1xIWT1D0vaiZK3Opu2MU/f0DYX+Hn9Q2qijx6MJ3fjDm/8m4GZnUOR+Qsl3RP8kUvWP2+l70nVAIzJ9QEpADAW0inpSZJmBx5mLZLNHSwlv6Ri+I+LbNNZZEGS9FfL4y+3w0Dnr/CpJu+j5O3BzT648DZvi2bvwMzOITOrUHX9pXhf4QekAQ+2uFT8g+QvkLQh8FD3iKLsPVQMwFigAQhghy282hO3KPQvD2bm9trF5fiHVAwP5aCu+DLJ1rZ9Itw/PjDTNrTDUPOk/mFJRWZ/ezBp33RT+sZ2GW+WFz6q5vnq6XjVfHDREcbrHfCQKuXiFTK9RNL9Qc9j01t7q74XFQOwo2gAAtjxTcau6TyTTw95n++ykwa644uoFh5Ov1ku9zZ/VMxvnhwlbXEn5IK1vrfcX8/Mb7cpbu+eu9zboum7tNtulbSonaudF+qLmfR4JJVS8iszvULSSMBhTpZzFyCAHUcDEMAOWXi1J+5h3/1n0qmD5fg8qoVH3S0W44ra+2MgnzqjZCPtMNC8nr1NUiezvu3sP7lYP65tjmlJ/GkFfnfT+A1evxyc0VllyuPRDJSSn7rZiQr769lvOXG1P5ZqAdgRNAAB7JBsl/QEyQ8ONkDzpQPl5HNUCqMxON3+LKlN3xflN21Mk7Z4Z9jC23wnd72RGd+m3N/VTsc0M329LetsxntdMfq1UoqXyXRawCHunHj2dioFYEfQAASwo1fYbw04uN9NVrKQGmGbegNRm34MxPXJZXOs1g5DzTamx0niq4rt67D5Q7Untctg4zz+tKSNbVbjuzwp8NoPbJNKV/whuV8Q7GnatbBnnXPnOoDtRgMQwHbrG0qf7tLhgYZ3m+Xxq9vlcUaMnWkz4p9KflN7jdpv2pglS9tmtG5vYKa3N4+iBe0y1kXddqekM9uqvtI5g9NtCzMd28TMJ2XJfEnXBRrhY6xWfw2FArC9aAAC2IELJX9LoJFtcvmLB2babRQJ26rfLJes3V4c/7F2ufuvtzoyW6anMdPbm7u/7uTlPrldxpt4/DlJG9qmvpafzSzH9jhzjm2Msvhlkv4a5u7d30qVAGz3IYQUANgefat8P5e9KtCd3TsGy8U/UiVsL8vjAbXNx0Bs9dRbk3Pa6NKHL/9CkiZvLtZf3i6DXdRtd5rpjDYZ7v8tKXUsZ4pjey2ebetlmqcQPwriOqKnWnsKVQKwXVfBpADAdl1/RNnrJSUBhnZxpbvIb/6xQx64e/T7bbGWTR/rP9qy9jl42VxmOLbOBT+unYabx/HnJN3T+mW1M5nc2FGVUvITt0DnkkcnUSEA24MGIIDt9doAY7rTk5gve2JMWNQW78yqTvtT4VvtUtO+VbUjJO9iduMBz5+/3Pdol8EOTrd75Dq9xYd5x5SIj39gjMSF90gK7m5Skx83d7kXKRCAbUUDEMB2bKK3dEs6LLjAzN48ON3+TIUwFga6kssl3djKY3RZfzvd/eeRvZyZjX9RrCf1F7TTgJM4/oJJd7fwEBfx8S+MlcHptkXm8xTeK0H22DmuP5cKAdhWNAABbPsmulAI8AtkVqmU4gupDsZ2svs3Wnh0KzeVCt9us4q+kEmNfztzWP78dhrvohl2r6Qvtujw6lEWn8WsxliqlIrXyvSJ4I5dyl9HdQBsKxqAALadK7T3Jt0ZpYX3UBiMtVqULFWLfjnT3T62zKzeLrXsWef7KMQ7lzHBC8Fe2O/eVtfDIxZ/WdJdLTi0Hy6ebeuZ1Bhryb3xpyWtDCoos5fxGDCAbUUDEMA2mTfk+0uaE9YGzj+weI79jepgrJ1bsvsk+2YLDm35tHLhgnaqpWX150oyZjUeZK9bVqeHtttxzV1faL1FLj7+gXGx6AhLc9cpgYU1ZZck42vAALYJDUAA26Rg6fMCC+mPU8vJAJXBePF6/WstNyazj/ab5e1VSD2d2YyHUm/DubFTFp8u6Y7WGZGtntoV/4zZjPGypDv5uVzfDymmXHoelQGwLWgAAthWx4R1ELMPt10jAw01OKvjBpf+t1XG49L107oK32m7Qpo/jdmMh5wapqPabcxnzrGNkv6ndUbk3+BaAON+zVnIPywpmHnmgV2TA2iC4xgpADBaW9+TZCF9dex3i8vxD6kMxr1B4NYyj5ZFZp9st43ywjW+qzywVxcgHG5HteOwLY+/JqkVXp+xuV6PK0xkjLfFXR03uvxbwaxh6fD5y30PKgNg1PsAUgBgtG4arpUl7RXMhY/ZaVQFjZBsKHxX0m0tsOVfs6EN7/6r17NDuebBIzjgxNX+2HYb9MBM2+Cm01vguHb+0ll2F9MYjVCI/DRJHko4HtefTFUAjBYXwwC25TrjCcFc7puGD+oqXEJN0AiLjrDUpcXNPg63/FPt9OXfv8vdD2EW45HEWfa4dhx3rRifLum+pt7MeP51ZjAaZXFXx42SLgvnvO5PpCoARn3OJAUARsvMDwsnGv8a7/tBI+Uef0NS2rwj8Fs21ZJvtmXxLHo8MxiPOEUK7dkkPm+q3W1SM3/o6PeLu4tXMoPR4AvirwZzZpcOoyAARosGIIBtEcpvGbM8Ts6nHGikpd12q+QXNvEQ/mfZHKu1Y+1cPpMZjEecIx617RxJo/gLku5vzrrZl5m9aLSpfyr8UK4/hxGNcQcggFGjAQhgW4Ryh8RPB6fbnykHJkCzbjb/mkxOzm7Xopl8OlMXj8TbeI6c02V/ldSMx4fbihva8IvmmHD9R1sm0wWBnN+mLVzju1IVAKNBAxDAqJx4ne8sKYiXpLv796gIJkKlXLxC0u+bLW53fXnRfnZ/O9Zs4dWeSLYfsxePeEFsmtbO4y9Y/DlJI00W9pmLjrCU2YuJkLsuDiQU25LWplIRAKO63iEFAEa1OeisHRhIKJ4r+REVwYRNwOZ75OzeYhx/tV3rle0ycqCkAjMXj7yuNVXu1q7jP7tkfzKzpU0U8hZZvIiZi4lyfxb/nwL5gE4hKhxERQCMBg1AAKNiURTKbxdXb30XGzAxpt1WuFDyW5pm7Zq+umiG3duu9fKosA+zFqPQcfzN2q2tM+DZaZKyJjmynVcp2R1MW0yUZXOsZq7fBrF0LacBCGBUaAACGN3FRe5hXFy4X0E1MJH6j7ZMbs3y1cwteRyf0dbHLrc9mbUYjUnpSFvPlYFy51q5N8UHtvIoP5MZiwCEcU2a24GUAsBo0AAEMEq2Vxhh2HXUAhOtnseL1ARfzTTZWe3+wRzz/DHMWIxqXXvU9nOlYP4pSXnIMbr0v0u6itcwYzHhczGyP4RxaWx7Uw0Ao0EDEMAoLy60UxgX/raWamCiLZ1ld0n2zcDDTC0rfJ5qaQopwKjOc7K2/5Lm2eWOlS5dFHilvsxsRQjq9fq6MJZEvhPVADAaNAABjI4H0gCM8vUUAyHIrX66JA94k/zNxbON9SLrJAcY3WnOimRBKph/Mthjm/v6TaXC96kSQlAvFG8KY10YDUAAo0IDEMAory1sUhBbecvvoxoIwZJSx3JJlwUaXm559hmqJEmiqYPRnV+kDrIgLS4V/yDp0iBrZPbVZWZ1qoQQnNulDQrgkXmTaAACGBUagABGeXGRB9EAzLOO+6kGwjmJhvkomknfGZjZOUSFJLkSkoBRrhsagH9fNmZfD/OYm19CdRDOQcNc0uaJP83RAAQw2vMoAIzm4sKjLIiDVr6FzTxCWhkbAg3sBmrzQIWisD9ogIDmSq6MLGxl0ktDjCtT9Dqqg8AUg1gaADCavTQpADCqzUA08b/hlCSPo52pBkKRS+8IMS6X3rrwNueOAEmWq0YWMMp1M0IWpAVVP0Du84Jcz9KbetY57/VEEObe4pOkib/L3FybqAaA0aABCGCUOyMP4tHbgkWPpRgIwfwVPlWB3iUj6bHpxnQBVaKpg21Cs1hS7vX3Kdx3Z+5lacpdgAjCrpu27BPEec7E63EAjAoNQACjYh7GHYByP5hqIIhNcpKdIqkQ8Kp97ylVb/t3mkXmbIwwurlS8M3tnoMFa31vlwf+ywN7l9yNGYsJvw6I4hlhXKM7dwACGN21DikAMBoe+b1BXGy5dVMNTLQTr/OdzdUXeJgHbMjTeW1fLIv+xozFqM4vaX5nu+egnmXvkjQp8DAf17M6+y9mLCb8mCGfFciWfgPVADCqowUpADAaruhPQezlpSdRDUy0wk7pSS7tHnqcZtGp/Zd73NbHrrrfyYzFaBS92NZzZf5y30PSm5tkA/N2ZiwCuCZ9ahgLwm+hGgBGef4EgFFc5Hh+cyChHLHwaudLwJg47mZub22SYA9ef0D9te1crrq4qwuj05Gore8WrRezUyRNaY7DsF6yYNXm6cxaTLAwGoAyGoAARoUGIIBRSbIklAbgzunk7BlUBBOlZ032fEmzmiZg9//f3n3HyVVX/x9/nzt3Zjek0EVpIZDZTUFQqgVF7CA2ZFFBws4mRkGx+7Prir18bfhFiWR3kwiWWMACFhQFUdHQSbI7k0INovTUnXvnnt8fiX5RKSm7s5+ZeT0fDx4+hJTzOedz7+d+zt7ywV731l3vvXAXsxZb4e/nFq1lPxiz5bUGb22gkHM1i89m2mKslCrDMyQ7IIhgMr+NigDYGjQAAWyVvafrHoXyNU3TiVQEYzb9XG9rsJCn316pvbpV67Vwut0n6WFmLh6PS7e28vjjcelbJO3RWCdj9fQM+kRmL8bmWiB6WTCx1GLuAASwVWgAAtgqvWaZTOVALvq7utxzVAX11r1yU1GulzRa3C7/cCt/NbPVmzvYimXFfHXLntdWe7tL72jA0HfOoqSb2YsxWldCeb3Guv2miwYggK1CAxDAtlzuXB9IIPvuVE6fRz1Q90Uzjd/RoGvn03rKtZe2at1MWsnsxePPEWvdOZIkbzTpKY1Zt+htLf2KA4yJ2SuGD5Z0WCDh3NBrllEVAFu1lyEFALaWu64LJZac+Rwqgnqau9J3dvNZDXv8yj/cuicv3cwMxuNOkcxuasVxdy31gknvbeDKTb2jUjueGYz6ni9yc4MJxuwGKgJga9EABLDVcrJQ7gCUy06etdL3pyqolzRLSpImNOwATM/qriTPa82rHaMBiCeYI7WWnCMT4mSWZPs18hgy+VlMYNTLqbf5ri4vBbO0e3YtVQGw1Zc7pADA1tpk8Q2SaoGEE+ey9G1UBXXhbu72poZf9F0teRegR+mNTGI8juH8Q4VKqw26yz0ni97XBEN5aU9504FMY9RD26b0zQroh4Fp5tdRFQBbvRcgBQC21oVFe1jSknB29Xpz92p/MpXBaCsNpcdJmtbo43DpBd2V6jNarX4DB7atkHQvMxmPxkxL5h1hSauNe3yl9lrJpzbDfiZT7s3MZIy20yo+SaZ3BxTS3xd2FrjDHcDWL5ikAMA2+nVI+5coqX2QkmC0eaTmecTMrfXuAjRzSX9mJuNRDwnX1a025i73nDXRe0FN6um6w8cxmzGa2rL0XZJ2D+js9Zst6xsAbBUagAC2daP0q6Dikc/tXrmpSGUwWnoGfW+TXtlEG+WXzR6qHtV6Jy/9kdmMRz0mzFquAThxRe11kqY30ZB2n7gxeS2zGaN5LeCmdwUW1q+pDIBtQQMQwDY5YE38J0kPBxRSm2q5r1MZjF53IJ0rKW6mIWWR9bZcGSP9jsmMR1Gzau4PrTTgLvece/N9FdxlZzOdMXrrZvJ5SRPD2snnL6cyALbptEEKAGyL3uMsNemXQW3spRd3D6WvojoY8fl+hcduemPTDcx1fGlF8qxWquXaqfFfJN3HrMZ/HAvXzJ9p97fSkMevqJ2qJnin6aM4rHuoeiSTGiOtVEmONdmpgYV1ff9Uu4PqANgWNAABbLNM9t3QYjLzeXNW+V5UByPp1n1rr5a0d5MeyL2tVMvFZjWZc7cE/mPt0C9aabxd7jlz/1DzFjQ6i1mNkXTWUp8gtwskWWChXUR1AGwrGoAAtl0+d6mkhwKLas9akp5PcTCie8nMz2zi4b2oVEmObbHLnp8xq/FIbv7zVhrvxEpyuqTOpj1ny19fqviezGyMlA352rkBfi3bozReTHUAbPOVMCkAsK0GptgmyS8O8Mr/laVytUSFMBK6h4anyfS8ph6k65OtVFOr5S6RtJHZjS0zYmV/sXBdq4y2yz0nsw80+TDbzNNu5jZG5jogfZXJQ5xPf5g/w26jQgC2FQ1AANu3bTIL9NED++qcwY1TqBB2fI5HZyq8R35G2jGlweT5rVLTvmm21iysd5hiLPl3W2m041ckZ7iro+mrKntzrzt7HOyQucv8KWb+rSCvT+Q8/gtgu7A4Atgu+0+NL5dsRYChTcxy8aK5SzxPlbDdF/5rfCdJs1rkSuDjrVTbLLPvMcMhSbUs+37LnNOWeF4efbg1RusH3royfTEzHNur1z1K4rRf0h4BhrdWWf5CqgSKScCMAABubElEQVRg+y77AWB7Lo7MMll2XpCX/q5nJ5Nq36RK2F7JuuS1knZpkeEe011OXtQyxS3kLpZ0P7O8xZmWLJzWdlOrDLc6Mek2eevcHZ9pDpMc2+vWSvpZSS8J89RlA33TbC1VArA9aAAC2G4e5/slrQ80up7ucvVsqoTtvMR+Y0uN1vRpuVsrjHXzO0z1beZ4ix/h7vNbZaxzl3heFn2gpeorvbJn0PdmpmNbdVfS0016b6iX3pnXzqNKALYXDUAAO7KRflCyYDfSJvty91B6ApXCtphTHp4u6ZktNWjXEd3l2vEtc/ETZd9ipre09XEu/51WGWw6KZndUnf/bRYrl85iqmNblFYkzzL3kNeHywc62wapFIDtvgYmBQB2qG/gta9IqgUaXs7ML+wZ3NRJpbDVm2VFc1tx3Bb5x1vlLsD5U9tukem3zPYWZdY/7yB7qBWGenbF21z6YGten9icVjmnYcfNXuaTlelHktrCPXfpf6gUgB1BAxDADhnobBv0sL+kuItyuZ+UKr4n1cIT6V7t7Sad3pKDdx3Rs6L28pYZbmZspFpTLVP6lVYZ7FolsyXbrzVL7Qf1VNIXMOXxROau9J2zOL1E0l4Bh/mn/mKer9gD2CE0AAHsuFz2cUlpsFsAV4d7evnspb4bxcLjSmonSdq9VYfv7r0t8y7AjtxlkpYx6VvOjxcU21e2wkDPrnibuX2glYvt7m9kyuPxzF3jO1Vr6U8kHRp0oKaPUy0AO4oGIIAd30gf1F5x+ffCvm7SIVk+vbRn0CdSMTzmPHFv9S9HPr27Unt1axTb3GWfYta3FHd5y9R8rSdvlrRva5/U7VWnr/AnMfXxaLru8HHJ+vSnJj038FC5+w/AiKABCGBkTiZZ9gkFfBfgFkd7lP507hrfiYrhP3Wv3FSU6XmtngeTf7LLPdcKYz2gmPuuSzcx+1vGDwc6Cje0wkB7Bn2iyT5IyVXIZ+kZpAH/qWupFyZsTH8g1/NDj9Wlj1ExACOyZycFAEZC37T2IZN9owFCPTZZl17SvdrbqRoeyWq5OZJ4Ybw0feKKpLsVBtprlkWycyh5S8gyy3pb54SWvlsSd75Jctmb+BgIHqnLPTchThZJOqEBwv3ZQEf+11QNwEigAQhg5PYbSa5X0n0NEOoLLUm/f3bF26gaJGnuEs9L4i6Rf26Y3Xq77vBxrTDWvo74h5KuoupNvj6ZzV9QbFvaEuezId/DTe+i6v86ox3UvSI9ljxAknqv8HhCJVkks1MaINzEstp7qBqAkUIDEMCImT/T7nfzjzZIuC9fl6WXnVbxSVQO6aTaKxT21//qbd+JG9O3tszFkPnbJWWUvWmtzeLcR1tlsInSD0rifbePYHwMBNr8zr/b9kl/JNnrGyJg19f7prUPUTkAI3bNSwoAjKT1U/PnN8w7tUzHtXn6W14QDjefTRb+c9+h93ev9l1aYazzi4XrXbaQqjcnc318YIr9rRXGOmul7y/TmVT9v2bBSafe5ruSh9Y1d6XvPGFj+ktJL2+QkP/hhZhXVAAYUTQAAYyoxWY1z3SWGuRuGpcOz3t6VffyjQdQvdbUM+h7y/ViMvFfdlM1fV+rDDar5d4j6e+Uvbm4dFO8Nv5aq4w3V6v1SuIdt/+tva2avI40tKbu1f7kpJb+TtJzGubcZfbugSn2INUDMJJoAAIYcQum5a+WdG7DXGS5OpSL/9gzVD2U6rWgXDpLUo5E/DczvX1OxfdthbEunG73yezdVL2pZJHpzfOOsKQVBtszuKlT8tMp+2Ot9dZNFlpP9/KNB1iSXinpaQ0U9qUDxXgR1QMw0mgAAhgV6cb4Q5KtapR4TXqKm/22eyh5DtVrtU2hZpGFxzSu5rWPtMpg+4vxtyVdStmbhOnLfcX8n1rmXBblPi0ppvCPuc4fdUZleCaZaB3d5erTlIv/KKnYQGE/nLP4TVQPwGigAQhgVCw61NZvea+aN1DYu5nptz1D1bdQwdZQKlePljSdTDwenz2nPNwyOUqjuCTpHure8Jaua49bpnndPVQ9UtKrKfsTbHw86iYLLbK+V9KTTfYHk57SUCuu+3suKNqdVBDAqKyDpADAaBko5n8n2TcbLOzYzb5eKidf7b3CuZOi+ZfBM8jBE8rVFLXMi8gXTbW/m1tJjfXDC/y7TbUsO3XxfraxVQZskX1WkoUXmd8RWECnz13ieQ6RJuZuPUNJr9y/L2l8Q4Uu/WqgI38BRQQwajsfUgBgNK0bl3u3pFsaMPS33bZPehlfDWxe3au93eRBvRTe3EN9589rZg9Vj2qVudHXGV9msq9zlDRsB+AdC6e13dQqo+0uJy+S6/kBhnanTK8KLKa90p1rx3OMNKfTb/Tx3ZV0sZs+piAb4o/rHuXjM2TGD58AjBoagABG1eL9bKMse62kDQ0Y/gvbhmt/5Z1BzcmqtVe6FFKDd2NWyL9NpstCTFdm9vlWmh/xw7l3S7qKI6XBuH+7v6NwfguN10z6RJDnWPkn+ouF6yT9KayUeTcHSvOZU/F98+PS35v0mkY8kiWbMzDF/kYlAYwmGoAARl1/sW2Z3N/eoLurgyKPru6upC+nks22AnpYj/+6/3Bgij0YyT+kMB8/PbZUSV7SKtNj3hGWWBa/Ti42ZI3j+nU75ee20oC7V9ROlnR0eJHZivjhfL8kuXlojzSeWKr4nhwuTXQcVJLn1Ty9zqXDG3QIX+jviH9GJQGM+vaHFACoh/7OwgUy/16Dhr+zuV9SGkq+1LXUC1Sz8fUM+t5yvTiooNz6JWl+sXC9zL8fZOJcn+l1b5lrh75ptsbcXy5pPUdN2Fy6u5aLX9VK7/3rvcJjc/9EoPX42LwjLJGknar570taG1B4eSl5A0dNExwD7lFPOfmIuS6X1KhN3WvyD8cfppoA6oEGIIC6GVfNz1Fjvg9Qkkymd07Ip3+YM7hxCtVs8GZBlL5BUi6giG6d3Bn/7p//r5ZmH5WUBpi6p99Wqb22leZK37TCEsleJ6nGkROsDTn3Vy08yG5vpUHfvk/SI6kzuPOrdNMBxdx3//n/z5tp62QW1A8A3a2bw6axda/2J9+2Iv21S+eEtZ5v08Hyt5zFJ/+zWQ4Ao40GIIC6OW+mrTPVXinpvgYexpG1KL6+VElPpqINLajHf81tQa9Z9s//v3B6e9ls8x2B4ck+3b3a21tpsvR3xD9z+bs5bIKUuFvX/M7CX1pp0D2DPtHdPh5kcGYffuT5TJJc2fygQpQOKVWqh3H4NKbucvIiS9IbAv34zdaqZq6TLyjanVQUQL3QAARQV30d7asy12sV5t1NW2tnuS/uGaounLvGd6KqjeWMFdXDJc0IKCSX1Rb+17+t5XolBfg4ox0Qpek7Wm3eDHQUvmrSRzmCglJzt1kDnfGlrTZwj9L3yfTk4OKS/jIwNfdf7zIbKBb+LGlpUGcy2WkcQo2lyz3XM5T0mvQLSXs18lhMfvaCafmrqSqAeqIBCKDuFnTmf+Py9zT8Bszs9GRdenWpMjyDqjaOnNupge0CrujraF/1n/+6b5qtkem8IOe+6wNzVvlerTZ3+jrynzDpcxxFgUxD87kDnfF3W23gcyq+r6R3BrmxiPR+mT36R4zMg7oLMHO9vss9x6HUGGYv88kTKukVbvpYo+9hze28vo7CPKoKoO7rNCkAMBYGOgpflez8JhjK0+TRtaVy8h42EuHrcs+563WBbQUe81HffBZ/VtLDAaZyUi2tndOKc6ivI/9+N72fo2lM1dx8zkCx0NeSg1fyKUkh3n1+ed/U/BWP/Z/z35ZUDebMKz1l4or0BRxO4SsNVedkcXqTpOc0+ljM9Yt4be4dVBXAWKABCGDMrCvm3iLpR00wlHZJX5hQSf/QM7ipk8qGa2IlPU7S3gGF9HB+fO4xj4F5nXavub4cZjZ99qzB4UNacR4NFPOfowk4Zqpu9vpWbf51l6tPk1uQX7B184883n/vL9o/JP0kqJjlPAYc8nxf7U8ulZNLZPYtSZMafTwmXduexl189APAWKEBCGDMLDarrRsXv0HSH5pkSM/wKHd9dyV5X68759cAZcG988m+O29v2/B4v6I9jb8o6e8BpjOXy0VfbtW5NFDMf07yN6ux32faaNbK9IqBYry4VRNgsi8Eev3+4y3v+XtcHimox4Dl9pqzlvoEDq3wdFfSLkvSWyS9ohnG47LVWT4+8byZto7qAhgrbFABjKnF+9nGWi1+laTlTTKkceb67O0r0itnr9g0lQoHtJlY7e0mf3VYe8/sCb/0e95MW+ce6HvnXM+fXU5f1qpzqr+jcL5LJyjMx7SbzZrI/Nj+Yv6XrZqAnkr6CkkvDDC0zNy36ovEBxwU/0rutwUU+/gN+dorOLzCcfoKf1KpnPzQ3L8vafcmGdZ9UZYePzDF/kaFAYwlGoAAxtzC6XZflMbHS35Hs4zJXc/Ostx1pUr1TO4GDGTBS2uvkLRzQCENbs0dM5KkQnxeqMdHJv9i7xUet+q8GujI/9rcn+uy1Rxlo3Q+lf5S8/io+cXC9a2ag94rPHb3IH8QYO4X9nUWbtyqcZhlki0IKn7zN3CUhaFUTl8fZ+lSSSc10bDWuvmJfdPah6gwgDHfD5ECACGYP8Nui6Ls+ZLWNNGwJsrtvNsq6V+7h6pHUuUxbiJ4cO966t/aXzgwxTbJFepHN6bdtnfy5laeW32dhRtzSe4Ic/2CI21kmfui9ePi5y3stLtaOQ9bjrFpAYaW1KLs49vyGzxL+yVl4SwOelErftU8JGdUNh3UM5RcJvlFkvZooqFtcNMrtvqHfQAwymgAAgjG/KntK9yzF0i6p8mGdpiZ/bGnkvwP7xoaG7OX+m6SXhpQSGk+jRdty2+YvCY/ICnMOwjMek+9zXdt6fPXTLt//474Zeb6uKQaR90OW2fyUl9nYdbi/WxjKydi7krfWWYfDTM6u2BBsX3ltvyOgenjbpX0m4AGEdfS5LUccvV3dsXbesrJRyLP3eIW1Bo9EjZmrlcMFPO/o9IAQkEDEEBQBjrbBqMoe6Gke5tsaLG73rUxnyzrHkpfRaXrK8snXZIKAYX0q3kz7O5t+Q29x1lqwTYBtHt7Nf1wq8+zXrOsrzPfK/mzJVvJkbedTEtqtdrhfR2FAZIhpbX0A5L2DDC0jZblPrl9NbaFgU06HgOus54VyXHrPL3BpXMktTfZ8IY90kkLOvO/odIAQkIDEEBw5k9tu8XlL5J0XxPubPcz8x+Xyskls1b6/lS7bnkP6vFfl124Pb+vb2pusaQg34Pmrrfy4ZvN+jsK1+RzucMl65PkZGSrVeU6J/9Q/KyF09vLpEOavcwnu/T2II956et902y7Xtsxrpq7WNL6gIZzZM/gpk5m3OgrVXzPUqW6wDP9RmE+1r6jht2sa2BqnldCAAgODUAAQRroKNwQRdnzXLq7SYf4ilwtXVYaSj7Qvdrbqfjo2dJoPSagkNbXNuYu2a7faebm9qFAU13IstznmXGbzTvIHurviGe761iF+uh2WK6T+TP7O/Mfm3eEJaRjsyxOPq0w7456KKvF2/1RkvNm2jqXXxzUiCz3embc6Om9wuNSpXqmPB2U2yxJ1oTD3GCmVwwU459ScQAhogEIIFjzp7bdkotqz5X81iYd4niZPm1Jsrynkp4id6PqIy9O066QNhouv3jRobbdd770dcaXSfp9oOl+damSHMus+z8Dnfmr1o2Ln+6mXkkbyMh/+YfJ3zS5GB/ZXyxcRzr+z+yh6lGSBdmUctfnF063HbtLP7JvBzUm0ynMutFRqiQvuW2f9Aa5nSdptyYd5sPuemlfMf8rKg4gVDQAAQRt/tT2FYryz1VT30FjB7j790qV9MqeweoRVH1kZaFt6jy6aIdnTObvUaiPlrq+1OvO9cUjLN7PNg4U8x9XFE/b8pVLHguWqmb6Uj4XF/s6CvN6zTJS8sjjyM0j+5LCvEvqrsLE+Cs7+occcEd8ucL66Nf0WYPDhzD5Rs6c8vD0Ujn5uTZ/IX1mEw/1fnd/4UBn/iqqDiBkXKADCF7/VLsjF8fHSrqxyYd6jEd2TalcHZg15PtQ+R3XvXzjASYdGVBI/yiszf16R/+QvmmFJZJ/J9C0H3Z7JZnD7Hv0c1l/R+G0zLKnmrRYrdkITMx9UWa1GX3F/LvnHWQPMTP+W2lF7TR3PTvE2Mz8Y/P2th2+m7X3OEslfTekscW5iK8Bj4BZy333UiU9t6boRkknNPVgXX/zWva8gc7CX6k8gNDRAATQEC440O4Zl8THyHRZ85+X7YycpeWecvLZs5b6BKq/I7u5+LUK6Q4as++N1PvNcpZ/n6SNYe6H7DNzh3wPJuCjW1BsW9rXkT/F3Y+W9CNJrXD32yYz+1Zmtel9nYVZC4rtfCX5MfQM+kS5fy7Q8Jbvf2d+wYidK9wvDGlw7vY6Xsex/eYu8XxPuTo3l0uXy/2tkvLNPWJbEeVqzxmY3nYz1QfQIBtNAGgM5820deuq8atkvrAFhruTS+/bmE+X95Src+cu8TwzYDsuzaWTw4rHLxqpP+uCot3p0tcDTf1uVat9ghn4+AY6C3/t78i/Jopqnbb53VjrmnCYf5f0yVwcH9BXjOfS+HtiWZR+RNLegZ5V/9+WO/dG7BiQNBjO+PzAM1YmhzELt02ve1Qqp69PJqVLXXa+pD1bYNhXRUnu6PlT21cwAwA00N4IABqMu/WU04+56aOtcx7zW036zNpifv5isxqT4In1lDcd6MqtCGeO2Kr+Ym6qzEbssc/u1b6LJWlFUoh322Xu/gwei9p6XXf4uPGbaiea+1xJL2zgoWSSfmtui9bulFu8eD/bSHW3zuwVm6ZmWe4WSW0Bhvf7/o7880b6Dy2Vkw9LCuYHBi59YaAj//+YjVu71iYvdOlzklqpcfqjdePiN3BuA9BouAMQQOMx877OfK+bz5GUtsigD3DZ+eMr6XXdlfTlTIKtSVnuFAXVIPaLRrL5J0kDU+xBl38y1GsMM/sqj9Ntvc0fC4kX93fkX5TL0gPd9H5JyxpoCMvM9XFTrdjfkX9RX2e8kA3ytsmy3NcVZvPP3f29o/EH57L0QgX0PkxzP4Xz1hMrDSbPL5WTP7n0a7VQ889MX5pcjLs4twFoyHMYKQDQyLqHkueY6QeSntRiQ78mc31oQWf+N8yCx9iclJPrJD09mI29ZQcvKLYtHek/d+4SzyeT0qWSimFeaHipr6MwwIzcfnPKw9NTj44300slPVfhNIjWSrrc5L/wKH9Z/1S7g2rtwDmrkr5S7hcHehx/t6+j8PpRPF9fJemYUMbr5s8cKBb+zKz8b7OHqkdlZh+RdGKLDT2V+zv7OwtfZxYAaFQ0AAE0vJ7ypgPdchfL9dQWHP6vJf9If0fhGmbC/+leualotVw5oJCu6+/IHz6KjYOT5b440HLc4/l42sAUe5CZuePmrvGdkvXpkXIdI+lZ2vyV6zq9b8vvkOyvMv9DlOnq3Nr89SP1UZuWP2et9nZLakslPzDA8KqZ1WaM5vsbS+XqmyT7ZigDdukrAx35dzIzHzFHlw8/1aLoEzK9ogX3kH9318kDnfmrmAkAGhkNQABN4aylPmFjPl0o6dWtOH6XfpWTPjW/I38ls0HqHko+aKZPBbPYut7T15n/n9GbAG49K9Kr3PXsQEvytf6O/NuZmaNjzirfK0vTp7p8hmQHSpoi0xS59pK0u6TcVv5RVZfui6Q1mXSrSatlvsozu0WF+GaauKOnp5x8xKVzAl1fRr0ZNnup75bl07slFQIZ9l2Ti/H+vWZZq8/N7qHqkSb7UIs2/iTpxiiNXzl/ht3GmQpAo6MBCKB5uFupnPbK9JEWPr9dJdOn+ov5X7byVCiVkxskHRpIOJll8X5902zNqG/SzP6sMN/vm3otO2xgetvNnKjqb/ZS383zw7tkbgXP2fh/uxC07OE48TRT+71902wt2aq/WSt9/1wtXS5ppwDDu3+4LZ560WR7YLT/op5K8mN3vSqYTZLrOX2d+T+07DpaSY511wdNenHLXlZKP6xtjM9YdKit50wFoBnQAATQfBet5fREyRdI2q2F03CjuX1pbUfuwlb7avCWr2hWAlpof9PXka/LF127y2m/ybsDLc0f+ovxc0f6QyhA469ZyWJJJ4cZnb+9v6PwtbrkIbRXGbi+3N+Zf1erzceeoeQYmXpdekELH5apuT61f0d8DneBAmgmfAUYQNPp74h/lsvSI0y6toXTcKibL5hQSW8oldPXd7nnWmXgWZZ7VVDbZ/fv1uvvKqS5D2rzhxlCdEx3pfZ6AfiX0mDyfAXb/NNQ/uH8N+p2roxzPwvr/OUntcrXgHvdo+5yelKpnFzrpqtavPl3l7mO6+vM99L8A9BsaAACaEoXTBu3erzFz5bsGy2eioMlv2hCJV3eU66+ee4a36nZB2wWziNkktJalv9xvf6yeTPsbrk+E2xt5F/oGfSJnKEAqfcKjxXpa8Eer2b/r54feRmYYpsk/1lACZh8xsrksGaeg92rvb2nUp19WyW92eQ/lHRYix+Wl6dRfFgrP/oNoLnRAATQtM4t2nB/R3yWZKdKWtfi6Si67BvJuvT2Ujn55Nxl/pQm3cw82V3PDCikKxZOt/vq+Rd6If6yZKsCLdHeWZR+hLMTIN26T/IWSTODDM70275i/JO6/7UeBfU185zbSc049+as8r16hpJeS9Lb3O0CSTNa/HDM5DpnXTF+6aKp9nfOTgCaFQ1AAE2vvyP+Ti5LD5Hrj2RDu0v6UBKnt/aUk+/PHqoe1VSLWpK8KqS1zcfgfVYDU2yTSf8v1BqZ9I455eHpHIpoZaev8CeZrDfQ8LLMfEzOIVkhd5mkhwPKxcnNNO9mLd/UUSonX62l6Wo3fUzSk1r+YHT9TaYT+jvzH2u1dyYDaD00AAG0hAumjVudXxs/z12flcQ7XaSCS12Z2TU95eTy2eX0Zc3wriOXvSqgcGoW5S8ei7+4ryP+oaTfBVqmfE3R1zgE0crirPZZSbuEGZ0NLJhaGJN36G7+AYZfGsya4upo+B9YuFvPUHp8qZz8KpfLDUp6m6RxHIWSpB9FaTyzv5j/JakA0Ar4CjCAllOqJMfKfZFk+5GNfzMo+VfSjflvLzrU1jda8N2rfRdL0nskFQJZYX/bX8yP2YvUe4aqh7rZtZIC/QCMndrfEX+Hww6tpnsoeY6Zfh/odfi6fBp3zJthd49ZfsrpSVveRxeKD/d35D/VaPPs9Bt9fDwueYNkb5fEXdf/br27v3Ogs/AtUgGglXAHIICW01/M/364LX+o3L9PNv7NNMm+GY9L7+qupF+fvWL44IaKPqmdoFCaf5Ik/8FY/u19nYUbJbsg2Hq5f6l7te/CYYdWMneJ5810nsL9Ifxnx7L5J0nrx+UuU1jv7W2o9wCeURmeWaqk58bj0rsk+6Zo/v0bk661rHY4zT8ArYgGIICWdNFke6C/s/BaNztF0r1k5N/sbO5vybLo5p5ysqSnXJ3bdYc3wONCHtImLcsnY/P4778t8knug8HOb9OTLal9msMNraS6c/ouSUH+cMVlqz0f/89Yx7F4P9so858HlJrDesqbDgx5XnUt9UJ3Je0qlZNfRx7dLPe3StqZI+7fpCZ9bm0SP6tvWvsQ6QDQingEGEDLO32FPynO0m+owX7KX2cPSlqYWe1rC4rtK4Pb/Nzh4yZsTP8haXwgIf2uvyN/XAiBlMrVN225CyREmSI9p39qng/0oOnNWun752rpUkkTgtwUuJ3U1xn/OIRYesrpa3yM76J+JHe9e6Az/6Xg5tSQ7xMrfaObzhQf9Hg8t2SRd4/Vuy0BIBTcAQig5S2aan/v78i/xszeIOl+MvKodpH0tshz5Z6h5LJSJX1l7xUehxLcxE21Fymc5p/k4by/anIx/y1Jfw31OsQzfWPuEs9ziKHZ5WrpuQq0+SfTb0Np/klSPCF3maRg3kVrpleHEkuXe667kr68VE5+nrP0dr7m+7hSSZ9cl8SH0/wDABqAAPAvfcX4Qs/HM+W6hGw89rrhppfK/eLb9k7vKJWTL5xRGZ451kFlmV4RUI4y8/yPQgmm1yyzzM9SoF+/NumQdFL6Dg4tNLOeSvoKKajz1COlnmZBHYPz9rYN8qAeA35mqeJ7jmUApcrwjO5y8vnxlfQOc/+JpBPYyz2uWyzzZ/Z35D+yeKZVSQcA8AgwADyq7kr6cvPsf/lS8FZb5qaFhSyeP6/T6vvOOXcrVdI7Je0dSC6u6u/IPze0ApXK6Tclf1Og82dDLksPvmDauNUcSmg2c9f4TtV1tVtMPiXM3YB9vb8Ynx3cOauSniz3xcEE5Nbd3xkvqOvcWek7p7XktTKb5a5nczRtlU3m+tz4KP7MuUUbJh0A8H/4qREAPIqBYvzTfC7/VElfk1QjI09ohrk+m1h6Z6mc/LS7knbV6xHh2eXkSIXT/JMCem/Vvy34mz8I8o9A589OtVz8vxxGaEbJuvRjoTb/THqgluZ6Q4wtPz53qQJ6DNjNX16Pv6fXPeopJy/sGaouTGrpGpedT/NvK2skXemePb2vM99L8w8AHnXdBwA8np5K8kyXzpfrqWRjm9xppoWq1RaO5hf3eoaS3i3vQApi/5GzeP8LinZniAUpDVXnyOxb4V6VWFd/Mf4Bhw6axRmV4ZmRR9dLCvI9l+b+1r7OQrDN955y8n2XugIJZ+0Ei/ccrcbSGZXhmTmPTnfpDZL24ejZJveZ/D19xfwCmTnpAIBHxx2AAPAE+or5P+Ufig830wcU0N0IDWBfd33Qo9xgTzlZ0jOUvHtOxfcd+R2sTgxmxK4/hdr8k6TJHfk+SdcEO2Pcv3JaxSdx6KApuFvk0TcUaPNP0i37r8mfH3IKM7PFAYUzcb3SY0fyD5y9zCf3VJL3d5eTGyOPbnHpfaL5t22rrvnCNIpn9HUUBmj+AcATbZsAAFuttML3Uy35osxOIRvbt5+TdKXJv2NJ/gfzZ9oOfXW5Z9D39ii9M5T1zFzv6evM/0/IBThjRfXwKLO/KNAfAprs3L6O+G0cKmj49aJcLUnWF+wmINLz+6bmrwg5h6ff6OPjcem9ktrDSNqOvy/x9BX+pLiWnCLZ62V6Jvux7XZ9lunsBdPyV5MKANja62wAwLZv7CrJsZLO5bHgHVKTdIW5LZLnftw3zdZu6x/QPVR9o5nNC2ZAtVrnwunt5dAT311Ov2HyNwcaXubmzx4oFv7MIYJGNXup75bl00FJe4YZoX+nv6NwaiPksruc/MyklwWSt9v7OwqTt/V3zV3pO6dp7ZVu3iXpJQr3rtBG2Lw+kMk/vr6Y//piM97RDADbgEeAAWA79Bfzv598Z3yYy98h6UEysl1ykl7o5gs8Su8ulasXlirpK7tX+1bf6WGylwU0nqFGaP5JUi7JfUjSvYGGF5nb/3a55zhE0KiyQu1zCrb5p7U1z7+3cTYr/pNworH9u5cPb9UP/s5a6hO6h9LXlcrJj5Ja+jc3XyDpRNH82+7DSrJ5sccdAx2Fr9L8A4DtWMVIAQDsmNNX+JPyXvuku/doc1MLO7g5lfmlUvSDdEPuskWH2qO+d7F7tbdbkt4raXwgcX+xv6NxNtU9lepsd7sg2AsU83f2FQtf4XBAozljMHl2FOmqgK+z39vfkf9iw5yrAnvVg7s+NNCZ//Sj/bfTKj6pTbWXS36yu16qUB5dbnAuXemRv2vB1MK1ZAMAduD6mhQAwMiYvWL44CyLvqjNj/dgZGyQ9AuX/TCx3M8uLNrD//wP3SuSl1qmywJaUZ/XX8z/vlES2+se3VZJr5b0jEBDXFvLxQcvPMhu5zBAo+ha6oUJ+fRaSQcHGuKy/MPx0+YdYUkj5bVUTv4i6chAwvlTf0f+Wf9ai1b7LlG19go3P1nSiyW1cSSMmIq5va+vM/4xqQCAkdiuAABGdqNSSV4i1xcD3gA2qmFJvzb5Dy3J/yQr1D4u97cGEtv9k++K9+o9ztJGSuiWD4Jco1DvXDVd1l/Mn8DURwOd/z8q18eDvfBvgA9/PGpey8mHJX0ikHCynLKDU7NnmuxkuV4gqcDsH9k1VeafXFfN/+/imVYlHQAwUpfWAIAR1+WeG19Oekx2jkxPJiMjLpGUShoXQjAuv3Cgo/CGRkxkqZyeJ/mZocbnZrMGivEipjyCP5YqwzPk0XUK9g6wxvnwx3+aNTh8SC6KbmSWNb2qpG9ESXzO/Jl2P+kAgJHFR0AAYBQsNqsNdBa+NS6Ni5I+IukhsjKi8gqk+SdJ5tFPGzWRw225D0n6R6jxmfuX56zyvZjyCFmve6Qs+pbCffxzrWX59zRqfhdOa7tJ8luZaU0rk/u3TbXp/R35d9D8A4DRQQMQAEbReTNtXX9H/pNREh9omx8LW0tWmk7ihdwvGzX4iybbA2b+gYBD3D1L03OZZgjZrZXkLTI9K9T43NXbN83WNHaW7SfMtKZ0eWR+RH9n4fS+jvZVpAMARnElJQUAUD+bv2ZY+7Dkc7T5LjY0/kr62/5i/gUNPQZ3K23+IMgzg02z20m8CB4hmrXS98/V0lskTQz0HHVz/qH48Eb78Md/OmMoeUFkupwZ1xxcutIifaB/av6PZAMA6oM7AAGgjvqm2Zr+jviszGrTzX2RpBpZaWwm/2njD8Lca9mbtPndikHKzP/31Nt8V2YcQpPL0m8q1OaflMn05kZv/klS29r4SkkPMuMaftFcYm4nDHTkj6X5BwD1RQMQAMbAgmL7yr7OwqxclhYlm6fNH7RAI+5lLPtZM4xjYHrbze76n3D3jHpK23Dtf5hxCEmpkr5BruNDjc9l85qlybK5iemXMesak0s3udkp/VPjo/o6Y+oIAGNzPQ0AGGtzBjdOqUX590veIykmIw1jWX9HfmazDKbrDh83YWPtZskPCvjK5aX9xfwvmXoYa3OHfI/E0qWSnhRoiPcMt8XTL5psDzRLzruH0teZ+XeYfY3DpZtk9smBqbkfyMzJCACMHe4ABIAAXDBt3Or+jvhNXuOOwEZi0k+baTyL97ONFvkbN+/ZApX5+T2DPpHZh7GWWPI1hdv8k7u9o5maf5JUiHOXSaoy+xpigbzZzU4ZKMZPGyjGi2n+AcDYowEIAAEZmD7u1v6O+E2mWqfLvilpE1kJmOtnzTakvqn5K8z92+FuKm2yotqnmHwYS7PL6cske33AIf5yoDP+brPlfd5B9pCkK5mBIS+LutLcTuifGh9K4w8AAruMJgUAEK7u1f7kKEnf4dKbJe1MRoLze5euVKQ/Fiz+05bNacMrVXxPebpc0u6BhphlmZ67YFr+aqYg6q1n0Cd6lCyVbL9AQ9xoqh3c19G+qlnWQSW1Z5n7MTI9S9JhkvLMxKC4pJ9nmT7LeRkAwkUDEAAaZMOZRUmPyd4raR8yEuyyuso8u1qmP9TMr14wtbCsUe9+KJWrJcn6gs20qZzF8aEDU4y7ZFHf8/FQ+r9uflawAbo+2N+Z/0zD5re86UB5fIybni35MZKms2cJVibp0izy3gVTC9eSDgAIfKdCCgCgcXSv9vYoSbpd9i5JRTISNpfuNulqM7/aMv0xtzZ//eYvWTZC8G6lcvobmY4L+CrmM/3F/AeZaaiXnqHkGDf9XuG+RueW/MPxYY1ynum6w8eN35AeYdIxbnq2Sc+UtBszLXjrZdafqyVfumDauNWkAwAaAw1AAGhAve7R7StqJ7r7OyU9j4w0jA2S/irpD5L92fO5JQNT7G+hBjtr+aaOXC53o6T2QENMZX50f7FwHVMLo617tbdbkl4vaVqgIQb/aPycwY1Tslz+SJcfJdezJB0uqcDsahhrzHTupkJ8frN9YAYAWgENQABo9E1pufo0U3Sm5LMUbqMGj2HLXYLXmuvaLLJra5a7ZtFU+3so8fWUk4+4dE7AKVzm+fhwHgXGaCtVki/K9e6AL+vP7++I3xzM2rTad4mS9Ai5jnHT4ZKOUsBfTcbjutHk52X5/ELOtQDQuGgAAkCT6Bn0vTNLzzbTXPEIVaMvz6vk2RIzW5KZ/poovu7Coj08FpF0LfXChHx6vaQZAV/MfK6vI/9+5g1G7fwa/qO/9wy3xdPH6q6s7tW+i5L0SLmONNMRko6UtC8zp6Flki5Vpi/3T8v/lnQAQBPsMEgBADSXrjt83MRNyanu9hZJTycjTbMRK8t9iZuWeGZL0lx8c72agg3Q/Kgp0nP7p+b/yFTBSDv9Rh8fj6vdIPnUUGN02WkDHfFF9fi7ulf7LrkkPSQzP1yuIyQ7UtJU9hVNszl8wE19mWrfWFBsX0lGAKCpzvEAgGZ1xorq4VEWzZX8dEnjyEhz+dfjw9JSuS2rRbVrN0wtDC42q43031Uqp+dLPjfgS5pV45LcoefNtHXMDIyk0L/669KvBjryLxmVsQ/63lmudniU+eEyzXBppvgqb7MadPk3axvzFyw61NaTDgBoPizeANAC5qzyvdJa2m3uZ0m2PxlpalVJK8z92iyypZItG4n3Cs5d6TsntXSZpL1DHbib/e9AMX4rUwAjpTSYPF+RLg/4mnljZrWn7uidWj2DPrEWJx25WjTTzQ830+HuOlTSBGZBU6tJusykr/YV49/IzEkJADQvGoAA0EJ6r/D49r1rL/fI3yjXSxTuI50YcX6Hy26S62YzuymybDA3Pj80b2/bsLV/Qmkofa3MvxvyIE16cV9H/nLqjR11WsUnFTy5OeQfmrjrQwOd+U9v7a8/u+Jta9Nqh+LcNMv8YIt0SOZ2qMkPYF/QUuvBrZJdkE/jvnkz7G7yAQCtgYUeAFrUrCHfJ4rSN1jmZ8psMhlp0W3g5seIl0q2ypUti2RLpdqqvo72VY/260vl5CeSXh7wkO4aboufOlYfQ0DzKJXTPslLAYe4dF0SH7Z4plX/8z/MXek7D3sy1Tw6MMp85iMe3+2UlKO6Lakm6Qo3m7d+au5Ho/GqCABA2GgAAkCL63WPbq+kz5c016VXS4rJCkx6QNIquS/b8ijxKldtWb6WbahF8U0K+NFAlw0MdMQlqojtVSqnJ0r+04BDdHM9d1N7vLR9UzpT5jMkO3Bzk89mSD6F63xscZdJ305z8XkLD7LbSQcAtPT1PQAAm82p+L41T7slOyPkL15iTG3c8r9Bf1TGzF7ZV4x/QrmwrWYv9d2yfHqzAn7fpaRU0gZJk6gYHsUmyX9sZgP7T40v7zXLSAkAgAYgAOBRbf6CsM2S9AZJu5ERNJh/pFF88I5+/AStp1SuXiTZ68kEGnBjd20mX1Tw/IXzOu1eMgIA+I91AgCAx9a92tuV1l5u7rMkHS/eH4VGucgxXdxXzL+aTGBrlSrpK+V+MZlAo9jyHtfF5t7X11m4kYwAAB7z2pgUAAC21qyVvn+ulp4u6VRJM8gIGuBS59T+jvg75AFP5PQV/qQ4S2+RtCfZQODWS36Je3Th+o7cL/mgBwBgq66KSQEAYHucURmemcuirsxslm1+4TwQogdzFj/1gqLdSSrweLrLyQ9Meg2ZQKAyM/1J7guV5b/TN83WkhIAwLagAQgA2CG97tHtK9Njs5qdZuavkbQLWUFg/iTpR25+v7Lo/pz5/Yqy+3PVwn1ted1/btGGSVFz67rDx+28SbtnWbK7zPbM3PaIlO2eRbZH5La7u+8v0yvJFELj0l9MfmEuzn/vggPtHjICANheNAABACPm7Iq3rc9qJ8iyU1x2oqQJZAUNYL3k90t2v0z3yXW/ZPfJ/H7LdJ+b3y+L7lfN12axP2SWPayobW3tYa1ddKitJ3310XuFx+UDNbF9eHjXTNGknGySZBMzaZI8291ke3hku8uz3V22u0l7Sr6HZLtL2okMooF2aDfL9X3P1b43cFB7hYQAAEZmeQEAYBR03eHjJm6sneCWdcntREnjyQqaUGbSQ+7+sMzWSlrr0tpIeihze1jmayWtNWmdyR/MLNooaZO5Npp8Uy3TRsW+KXLfaO6blLVt2jROG5NImxbvZxsbMSFz1/hO6xK1xZu0U2zDbVnNxnveCnFm410quG3+X/Nsgkn5zGzXSJokt4mubJJkkyRNNGlXlybJNVGmSaKJh+a2zE3fjz37/gUdbctJBwBgpNEABADUpSGQrK+doCzrktnLRDMQ2FqbTNrormGZbZB82KQNj/wFbnK5HnyU31sz6eH//JcuT8xVk1m7/vs/TnRT/CgXjLv+9y9Vu2TjXD4uktpdGiepnZIBW21Qru9nUfb9BcW2paQDADCaaAACAOrqn81A9+xVJnuZeGcgAKB13CDTjz3Nfjwwve1m0gEAqBcagACAMdPlnptYTp/ppi5t/vrmPmQFANBEMpOul+tn8tp3+qa1D5ESAMBYoAEIAAhCr3t0+4r06Mz1apO9WvKpZAUA0KAul/wHns9fMjDF/kY6AABjjQYgACA4p6/wJ8VZeg+ZAAA0Ipc/faCjcAOZAACEIiIFAIDQ5Gq1Z5EFAECjMtMzyQIAICQ0AAEAAfKjyQEAoHGXMbGOAQCCQgMQABAcMz2DLAAAGnglYx0DAASFBiAAIChd7jlJR5AJAEAD65i13HcnDQCAUNAABAAEZXwleaqkCWQCANDALI5qR5EGAEAoaAACAEJbmHhsCgDQ8FzOegYACGmfBQBAODJFvDgdANDwnPfZAgACQgMQABAU4wvAAIDt91A465mO6nVnvwUACAILEgAgGKdVfJKkzkDC+aK5nWFm35K0XJJTIQAIzl0m/66bv8Vr2SHrivHuku4LJLZdbh8aLlIiAEAIYlIAAAhFXulhCuSHU5H00/md8ZWSFkqbm5Ntnh4l1zFuerak50hqo2oAUE+2yjy7WqY/1MyvXlBsW/qfv6JUSf4i1/FBhJuLj5A0RN0AAGONBiAAIByZDpMFEUmtLYmve+S/uLBoD0u6fMs/mrvGd6quT4+KXM9x6dna/PGSnSkiAIyYqqTrJF1jsquiOPeHCw60e57oN7l0jSmMBqBnfrikCyklAGCs0QAEAATDzI9QGB3A5efNtHWP9wvm7W0bJP1uyz+SpJ7ypgPl8TFufriZDnfXkZIKVBYAnphLd5t0rZv+EGW6eu1O8bWL97ON276Y6JpQXtrgpsOpLAAgBDQAAQDBMLPDPYhNm/1le35XX0f7KkmrtOWx4dNv9PH59vTpmfnhketwNztc0gwqDQBKTLrJpavN7drIk6sumDZu9Yj8ybn4z8pSVwA/UTLpsC733GKzGiUHAIzxmgQAwNjrGfSJHqUPKoR3AJqf1V8sfGM0/uhZQ75PZLWjI/PDlemwLXeH7MkMANDEhiXd5LJrzbNro0jX5h7K3zLvCEtG6y8slZNBhfJRKctm9hfbljENAABjiTsAAQBB8Fx6mDyMD4Bkpr+M1p+9sNPukvSjLf9IknoGfe8sVzs8yvxwNx3u0uEmPYVZAaABpZLK5n5tZro2crs2K8RLBqbYprpGYX6N3IJoALpyh0uiAQgAGFM0AAEAgfDDArkxfXjDcP7mev6FfdNsjaQ1kn76z383a8j3iaLaYVHmh7v0NDc7xORTmCcAAvKQpJvN7aZM2Q0W6dr8Q/mbR/POvq1eUTZ/CGRWCEky9yMkLWK6AADGEg1AAEAQ3HV4IO+luGHxTKuOdRBb7hS8S49oCs5d6TunafrULPJDzKNDJD9U0sGSJjCDAIyiTLJVLr/RTDd5ZjfFntw4Yu/sGwUm/TmYWPgQCAAgADQAAQCBbNbsaYHs1P4aao7mHWQPSfrDln82c7czVgwfaB4fGrkf4qanSnaINt8tmGNmAdhG90paKtkyKbvRzG5qr8Y3P9GX0UOTfyh/czIp3SBpp7GOxV2H9LpHvWYZ0wsAMHb7LQAAxtjZFW9b5+k6BfCDKTebNVCMG/5RrblLPJ9OGt4vs3im5DOizGfKbIZLMyW1M+uAlt8EPCDTMndb6sqWRbKlUm3Vlq+ZN4VSOblK0jEhxJJZbeqCYvtKZh4AYKxwByAAYMytUzJTsiDWpNhrS5ohp1vewbVqyz//9xjxEs9nk6pTa5abKfdpJp/psmmSipLGMxuBppJKdqvkZTMNeubLlbNlnouX9U+xB5t98Gb6i3sYDUDz+FBJNAABAGO3zyEFAIAx5zo0kEjW71ssDDVzqrc0Bpdv+effnHqb75pPkgNztWimzGdIOlDSgS5NVwCP0QF4dP92N5/5KslWuWWrNrTlly3ezza27tJi10seRo3cD9Ujvv4OAEC90QAEAISwSTskkHdS3NLK72i6aLI9IOnaLf/8S5d7bqcVwweY5YrKvGgWdcj9QElTtvzDI8XA6Eoku13y1Wa2WvJVLlthWVaJJ+Yr8/a2DaTov2WqXR8pCiWcQ6kIAGAs0QAEAIw5cx0awltpN98tgv+02KymzY+urZT0i//87/+8c9A8OlDyA83tQMkPlOxAySeLj5EAT3welB7Q/z22v0rafCefVFu1/11tt/ceZylZ2jYbphYGJ1TS9Qrg9QZudggVAQCM8bUGAABjq1RO/iFpj7FfFP3Mvo7CN6nIyOla6oXx7cOToyw3JZPvG2W2v5vtL/l+kvaVNFnSODKFJrdR0m2S7pTsDnO/XZHfIdkdkWd3PDSucGsrP6o7yuvLnyQ9I4BQPJ+Ld93yNXcAAOqOOwABAGNq1pDvI6V7BBGM2Y1UZGQtnmlVSZUt/zyquUO+Ry1K9nNF+2WeTTbZvpsbhPYq0RxEgzG381zZco+i2+TZHQXP3zmv0+4lM2NWj+vcPIQGoFXT9BBJV1EVAMBYoAEIABjjhah2SBivaFeWbIhvoiL1t6U5cq+kf3sEu1Suvkky7shEA7F5fZ3xW8hDOFzZ9cE89BT5U0UDEAAwVssQKQAAjOnmzHxmIKGUFx1q66lIOPo7CudLfhGZQINYmp+QeydpCEuWU0Dvdo1mUBEAwJitQqQAADC2bHoQUchvoBbhGZfk32SmMplA4DbVsuxUvsYbng3D+ZslVYNYZzKnAQgAGDM8AgwAGGMeRAPQ3Xj8N0DnzbR1PYPV0xTZ1ZIK4U9nfTkXxV/KfLiQKZrkkXK5zHZ1U85lkyKpIM/GZ9I4mbWba4JJ+Uy2c2TKyX0X33x9NlFSm0k7uZSTbNK/mgjyXf/vr9POqt8PdB80yf99uEolW/uIf7PBpGGZNrlro6SqSetdnkrRWpeySP6Qu4Y90obI/YHMoo2Ra4PkD2Xm66JMG2XZWlM8PZNf3AjXqyZ/+8JpbZxDArR4plVL5WSZpKcFMFFmUhEAwFihAQgAGGuB3AFoN1CKMPVNKyzpqVTf525fDj5Y09trqv2+v6P9knr/1Wct9QkPTlD+sf77TlWNz3z4X01Uj9qS4bzW/eev272qDecWbXgs0zhnle9VS9NvqiGaf1rc11GYx5EadJWuk/xpAQTypLlDvgcfhQEAjAUagACAMTN3mT8lUbpLEMF4ji8AB6xvav6rpUp6nKRXBB5qJPeFc8rDz7igo215Pf/i82bauif4JQ80xHlhieerafp9k/YNP1q/Ncvn53KEBl4lZTdYIB8CqVk6Q9KVVAUAUP+LVAAAxshwLg3lfUj39U2zNVQkYGY+3BZ3y/22Boh2Uk3RJd2rfRcKt+2SSekXTXpuA4SaKrLTBqbYg1QtbO62LJhYxHsAAQBjgwYgAGAMF6Ew3v8naTnVCN9Fk+0BmV4rKWmAcItK0u91ueeo3NbrLqenSnpbI8Tqpg/3T83/kaqFzwrx0mDmTSAfvgIAtOLeCwCAsdqUKQpkIxTO3SF4fP0dhWvc1dsY81svnrgiPYeqbZ2eoeqhJv9WQwTrumL91PiLVK0xDEyxv0m6N5DzAh8CAQCMCRqAAICx20NHPi2IDZll3AHYQA7oiD/r0q8aYo67PlCqpCdTtcc3e6nvlln0Y0k7NUC493ghPnWxWY3KNZQgzvMuTaMUAICxQAMQADCGOyEvhrEhMxqADaTXLKtF8emSGuG9jSb3ge7lw0+lco+uyz1Xy6ffMfmUBgg3M+kNW+4oQyMtN7JQHgPe+/QbfTwVAQDUGw1AAMDYbPrv8HGS7RNEMBbzCHCDWTTV/u7mr5FUbYBwx1vOfjJ3yPegco+SnHL6SZNe3Aixuumcvo785VSt8ZiCudPbrK16EBUBANQbDUAAwNhs+tdVpwayDq3rP0h3UpHGM1As/FnShxojWjsgtfS7vVd4TOX+T6mSvtJM72uMEuq366fGn6RqjSnzYO4AVC6X66AiAIB6owEIABibBSjKTQ0hDpeWycypSGPqL8b/49IPGyFWl15w2z7pZ6jaZj2DmzrlvlCSNUDx/uZxfBrv/WtcbbWA7vTOwnj9BQCgxfZfpAAAMCb7aQtjA2Ry3v/XyMw8yuKSpKEGifg9PeVqd6uXrWfQJ3qU+5GkSQ0QburSKbz3r7HNm2F3S7o/kPMWDUAAQN3RAAQAtPQGyI0PgDS6vmm2tpZlp0ja0AjxuuwbPYPVI1q2YO6WRWm/pBkNcaqSPjjQmb+KI60pBHIXIHcAAgDqjwYgAGCsmgBBPAIc8QXgprBwWttNZv62Bgm33SP9sHu1P7kVa1Uqp70mvaZBwv1pXzH+IkdYc7BwfuDDOwABAGOw7wEAYGwE0QDMslqZUjSHvmJhvssGGiNa219Jesnmr2G3ju6h9HUyfaQxovVbh9viM3hHaPPI5CsDCeVJp1V8EhUBANQTDUAAQN2dXfE2SXuHsMNXoXArFWki+dyZkq5vhFBNOmr8xnRRr3tLXI+dsaJ6uJnPVyN89ENKzOzUiybbAxxUzcRWhRJJrlY9gHoAAOqJBiAAoO7WRsP7B7IG3TUwxTZRkeYxMMU2RVHtFEkPNUK8Jr3mtkr68WavS8+g7x1ldomknRoiYPd39RXzf+KIai6mLJQ7ABXncgdQEQBAPdEABADUf/Gp5SYHsceXVlGN5jN/avsKl/VsLnFD+FDPUDqrWetx+o0+3qP055L2aYR4Tf7d/s7C1zmSmk8+ygfTAMw8m0JFAAB13YORAgBA/Tc+HsTGx2QrqUZzGuiIf+SuzzVIuObmF/SsSI5rtjr0ukf5ndJvS3paY1RCNycb83M4gprTvIPsIUn3B3LQT6YiAIB6ogEIAKj/xsfC2PiYfDXVaF4HdMQfkumyBgk375kWd6/cVGymGtxeST/trlc1SLhrPctOWXSorefoaWph/ODHdAClAADUEw1AAED9uYdx54MZjwA3sV6zLKrGbwjpxf9PYHer5X5y6m2+azPkv2coneXS+xrlrGRuZwx0tg1y5DQ3C+dLwAdQDQBAPdEABACMwQ7MAtn4OA3AJjd/pt1vnp0kaUODhDytbTj9cddSLzRy3ksrkme5+byGOSW5zunrjH/MEdMS608Q532jAQgAqDMagACAMRDGHYBZHPMIcAvo6yzc6GZvbqCQj52Qr32tUfPdvXzjAcp0saS2Bgn50v074nM4UlpDFsgdgC7tOnel70xFAAD1QgMQAFBXvVd4LNneAYSyfuAA3UNFWsNAMV5ksnMbJ2J/U6lSfWej5fm0ik+yXPxTSXs2RsS2crgtfkOvWcZR0irCeSVAzav7UQ8AQL3QAAQA1NWqvbWXpFwAoayWmVOR1hE/nHu3pKsaJmC3L3RX0pc3Srhd7rm8pxdJOrhBQt5gnr3mosn2AEdHC0nTW0MJJfNoHwoCAKgXGoAAgDovPMnegYRyO9VoLfOOsMTz8SmS7mqQkHPmflF3ufq0Rgh2fCX9okkva5T5YGZz+zoLN3JktJb1WfsaSWH88Md9byoCAKjfPgwAgLouPNG+gWz+76IarWdgiv3NzU+WNNwgIU+Q7NLu5RsPCDnIUqV6pknvaKCp8NW+YnwhR0TrWTzTqpL+EUY0xh2AAIA67sMAAKijLMqeEkYgvoZqtKaBYuHP7n52o8Rr0lMsF182a7nvHmJ8pUp6sty+3kBT4Hf5h+P3ciS0tDtDCMJpAAIA6ogGIACgzgtPGBsel99JNVrXQGfhW272vw0U8rQol156+o0+PqSguoeS58h9UcNcU7rfJotPmXeEJRwFLS2IO8BNTgMQAFDHfRgAAHWUeRBfAJYp4hHgFnfAnbl3yPTbRonXpKPicel3N39Je+zNKQ9PN9PFktobJIUbs5xe01+0fzD7W5vLAmkAincAAgDqhgYgAKDeW69ANjwZjwC3uN7jLM1n8WtdtrqBwj7xtn1qXxvrIOYu86fU3C6TtFujnHhMdvqCqYVrmfmwQO4Adxd3AAIA6oYGIACg3p4cQhCx8twBCM3rtHtVq71S0rrGidrP7B5KPjhWf3vPoE9M4vTnMpvcOCnTJ/o64h8y4yFJJr8rkED27HLPUREAQD3QAAQA1He/43pSAGFsmteh+6gGJGlgetvNMnuDpKxhjiPTJ0vlaqnef+/cJZ73KF0s6ekNU2DXJZM74o8z0/FPmYL5CnxuwoqGuYsWANDgaAACAOq4EXeTKYAvmdoamTkFwT/1F+NLZGqkJpFJdn73iuSl9Tx+q5Nq8yS9pIHytLwaxbN6zTJmOf4pVhbQR6Cqe1IRAEA90AAEANRN963aWVJ+7CNx3v+H/9I/Nf6EpB80UMh5y7T4jBXVw+vxl5Uq6Tkm726g/NyXWe3lFxbtYWY3HmmjFQJ6BUREAxAAUJ8VhxQAAOolVxveI4hAnAYgHoWZpxvjbkk3NlDUE6LMft5T3nTgaP4lPeXqXEkfbqC8pJnrtQuK7SuZ2PhPW5rCm4JYjmRPoiIAgHqgAQgAqN9Gx3NB3Olgiu6lGng0iw619VEav1LSPxoo7L1cuV+UKj4qx1epnJ7osv9tsLPNuxd05n/DjMbjCOQ9sBl3AAIA6oIGIACgftscWRB3AGbmfAAEj2n+DLsty/RqScMNFHZRnv70rKU+YST/0O5K9RmSf1dS3CiJcNk3+zsKX2Mm4/HnSSgNQKMBCACoCxqAAIA6CuNOh8j8fmqBx7NgWv5qmc2R1Egfizl6YyG9pHu1t4/EH9a9fPip5vZzSeMbKAe/PuCu3NnMYDwR8zAagFHGI8AAgDqtOaQAAFC3Rcdt9xDiyBRxByCeUH8x/rakTzVU0K7nW5J+b+4S36GP7ZxR2XSQctEvJe3WQKNf7vn4lN7jLGX24omYKYxXQVi2G9UAANRlL0YKAAD12+holyDiyEQDEFulvxh/VPKLGizsV1QnJf297tt1ndcz6Hubx7826SkNNOb7oqj2ioEp9iCzFlu3DFgQ64Cb7Uw1AAD1QAMQAFDHHZftEkIYZhkNQGztZHHP52dL+nNDhS077bZK7QK527b8vu7VvotH6aUmn9JAw00sUtf8qe0rmLDY+mMkkHfBeiA/GAMAND0agACAusksC+JOhyiiAYitNzDFNnk+frXktzdW5F4qVdIvb+2vnrvGd7Jq+nNJhzbUKN3f0jc1fwUzFdsknI9B7UIxAAB12QORAgBA3fZbCuRRp+E2PgKCbTIwxf4m8+MlPdRgob+9eyj54BP9oq6lXkjWpT+S6VkNNr5PDXQWvsUMxTavR1kw74LlEWAAQF3QAAQA1NMuAcSQ7TdDD1IKbKv+Ytsyj/Q6SbVGittMn+oeSt71WP+9yz03IZ9eKOklDVaSH00uxh9lZmK7FgIF8hEQ7gAEANQJDUAAQD1NDCCGB3vNMkqB7TEwNf8LM39Po8Vtpi/0DKWz/us/uNuESjJf0skNNqS/5ifEp3MsY7uPiZw/GEgoO3Ut9QIVAQCMNhqAAID6cd8lgCAephDYEX3FwlfM7bxGu+Zz8/k9Q+mrH/kvN78j0M5osPPIbfk0fuW8vW0DsxHby2q+PpRYJhR4DBgAUIeLQVIAAKjfjssCuAOQpgF23NqO3Nsk/aTBwo7d/Dvd5eRFktRdST4m6e0NdQqRHlDkJ8ybYXczC7FDcymXBdMAzNU2TaAiAIDRRgMQAFBPOwUQw3rKgB212KyWboxPlfTXBgu9zaQfd1fSr5urt8FiH85MJ/UX25YxA7GjctW2YNaCWi4aR0UAAKONBiAAoC563SNJbQGEwh2AGBGLDrX1eY9PkFRpsNDHm/tbGixmd7M3DhTzv2PmYUS0hbMWWM12oiAAgNFGAxAAUBdr7la7JAsgFO4AxIiZ12n3ZlY7XtI/yMbocdeHB4rxIjKBkbL37eGsBZkZdwACAEYdDUAAQH2sVSh3OHAHIEbUgmL7ysj9RObW6HC3+QOd+U+TCYyk3uMslVQNIRaLxB2AAIBRRwMQAFAXSU5h3OFgTpMGI25+Z+EvbtYtKSMbI3m46hcHrMm9mUxgVOZXIHeEW8YjwACA0UcDEABQF7VkOIgGoHtEAxCjYqAYLzbX/yMTI8R0cxzHr9typxYw8utBKHftcgcgAKAuyw0AAHUQR2F85dDcN1INjJa+zvz/mOxcMrGj/HarxS+dd5A9RC4witYFMduzjHcAAgBGHQ1AAEBdZFIhiECMj4BgdK0t5t4p6UdkYrvdn5mf0DfN1pAKjLJNQSxLpphSAABGGw1AAEC9VpxcEHGYEoqB0bTYrLYuiV8v6XKysc02muuVC4ptS0kF6iCId3a60wAEANRjOwYAQD02ODULogFoLqcaGG2LZ1q1avFrJF1PNrZazWVv6OvM/4FUoC7rQSgNQAvkB2QAgKZGAxAAUJ8FJxfGHQ4uGoCojwuL9nAaxS+VVCEbT3xomvmbBjpiHp1GPdeDIBqAkRt3AAIARn+9IQUAgLqoBXOHAw1A1M2iqfb3zGrHS7qHbDzuUfmhvmJhPolAnReDINYD7gAEANQDDUAAQH02OIG8A9B5BBh1tqDYvtIyP1HSWrLxaOwb/Z35z5AH1H3m8Q5AAEALoQEIAKjXihPGOwC5AxBjoG9aYYlFeqWkYbLxyAPSvze5mHsricCY8DAagBbRAAQA1GM7BgBAPdQsiDXHIhqAGBt9U/NXSFZSIHcdjfmxKP1mXTU/q9eMfGCsJiFzDwDQMmgAAgDqs8+KvEYW0Or6O+LvSP5OMqHrhi0+afFMq5IKjJVQPgIiF+sjAGDU0QAEANRFlikNIg4eAcYY6+8ofE3SJ1s4BUNpFB9/YdEeZjZgLIXyDkAzGoAAgNFHAxAAUJ8NThTGBsf4CAgC0N+R/4jJzm29kfvttVz84kVT7e/MAgQgjHfvcQcgAKAOaAACAOojC6QBKLVRDISgr5h7u7vNb6Eh/yMnf+nCg+x2qo8gmNqDWB5pAAIA6oAGIACgPvusXBgbHKcBiGAOCvP1Hbk3yf37LTDah7PIj7+go205hUcwPIwGoIx35AIARh8NQABAfRacmgfxDkAzjaMaCMVis9q6NH+6TJc18TA3RtLLF0wtXEvFERYLogFo3AEIAKjHfowUAADqIYvC+AiIu9EARFAWz7RquiHuMtPVTTi8qrm9Zn5H/koqjQBXpiDuCDcLY30EADQ3GoAAgPpss+TDgYTSTjUQmkWH2vphxSeY1Ex3yWXudkZfZ3wZFUaYwrgD0D3aSC0AAKONBiAAoC7ytWxDGJFkNAARpAuL9nDs8UslNcN78tzkZw50xt+lsghYGA3ASBsoBQBgtNEABADUxXDcvj6EOMx4BBjhmtdp9yqKXyJpXYMPZcn+d+X7qCgCF8QjwDmnAQgAGH00AAEAdZFPFcYjThmPACNcXe4589pHJE1o8KEceds+6Y/nrvGdqCpCPdYkFUKIxSOnAQgAGHU0AAEAdbF/p4K4A9D5CjACNXeN7zShkl7s7m9skiGdmKxLL5+13HenughNYYXGhxKLZzQAAQCjjwYgAKAues0ySZsCCGUXqoHQnHqb75qsS38p6cQmG9ozc7n0qlkrfX+qjJCMq20KpjHtNRqAAIDRRwMQAFBPAWxyfDfKgJDMqfi+bcPpHyQd06RDnJ6rpX/sXj78VKqNUNRyuV2D2ZDlfD0VAQCM+npDCgAA9eKyh8Y+CtuDSiAUc8rD02ueXC1pRpMPdR/LRVfOLifPpeoIYj1yC+YOwE1tbQ9QEQDAaKMBCACoG5OHsMkZ13WH8x5AjLnZQ9WjaoqulKxVHo/dJZN+1VNJT6H6GHPhNACzZH89TEEAAKONBiAAoJ7uDyGInTeJjxJgTHWXkxdlZr+R1Gp3pLa5+0WlSvVMZgHGdheUhfI6iIcXm9UoCABg1Jc+UgAAqBv3IBqAWZbQAMSY6SlXu026VNKEFk1BTm7nlYaSj8vdmBEYm4XAdglkYXyQYgAA6oEGIACgfiwK4j1HIb37Ca2lVE4+7LI+STHnA320p5wsOLvibcwM1H85UiB3ABrv/wMA1AUNQABAHfc5YdwB6DkagKivrqVe6C6n/ZI+IYm73v55LJqdvtbTX81a7hyTqO/cC+UHQSYagACAuqABCACo3z7Hw9jomDK+BIy66V7tu0wopJeZvJtsPNrxqOfmcumfulduKpIN1G0T5P7kIALxMN6NCwBogbWPFAAA6rfRsXsCiWMfioF6mDO4cYol6dVyPZ9sPK6i1XJ/7q4kzyMVqM8yoMkhxGGyu6kGAKAeaAACAOomMw9io2Pu+1MNjLbZQ9WjalH8J0kzyMZW2c1cv+wZSmeRCtTBfiEE4e40AAEAdUEDEABQN7koC2Kjk5lNphoYTT1D6aszsysk7UU2tknBzQd6ysln+UIwRsvspb6bQvkKt/nfqAgAoB5oAAIA6iZJCmHcASjuAMTo6S5X3+7mP5C0E9nYvkPUpff1VNLvdd3h40gHRlotnwSzBnjEI8AAgPqgAQgAqJuF03S/pOGxj8T27XLPURGMpN4rPC6V0/NM9hWusXacS10TNqa/KlV8T7KBkV0Cov1CCSXnfg8FAQDUAxenAIA6brrM5UE87hRPWKm9KQhGymkVn3TbPumPJT+TbIyoY+TpdT2D1SNIBUZsA5RlwdwBaLn8GioCAKjL+kcKAAD13e1YEJsdq6W8BxAjolQZnlHwdImkE8nGqNjXI/t9aSh9LanASMhk+wYSSvWhKbqXigAA6oEGIACgzvzWIDaAZrwHEDusVE5PlEd/klQkG6NqJ5l/p1RJPt3rzvUrdojJDwwkktsXm9WoCACgHriAAgDUd7tjtjqMQJyGDbafu3VXkvdJfomkSSSkPketXB+4vZz+vHu170I6sAML0cxATiSrKQYAoF5oAAIA6rvdycLY8ESumVQD26N7tbeXViQD5vos11JjcA4xvdSS9C+lyvAMsoFt1XuFx5KmhhCLmd1KRQAAddv/kAIAQD1lCuMOQJcOphrYVrOGfB9L0ivlNotsjKmiPPpzqZK+klRgW9y5T7UoqS2I9TAL45UYAIDWQAMQAFBXeU9XBRJK8eyKt1ERbK2eoeSYnKXXSjqSbARhotx/1FNJ3i93Ix3YGply4dw5yh2AAIA6ogEIAKirfe9uv0NSGkAo8UO1aicVwdboKVff7KbfSNqrCYbjkr7o0t3NcC3rrs+UKukP5q70nZmp2IrpH0wDMDLeAQgAqOO6QwoAAPXUe5ylUhh3PURRjseA8bjmrvGdSpXqApd9Q1KhCYaUmlt3f0f+vXGWPttM5SYp1UlJrbakZ6h6KLMWjy+cBuCmQjxIPQAAddv7kAIAwBhswJYFsQia8yEQPKbulZuKyfr0z030vr8NkexVfZ3xQkm6YNq41a74GEl/bZLzylQ3+1N3pdrD7MVjyWRBNABduvuiyfYAFQEA1G3vQwoAAHXf+LiWBRIHdwDiUXWX05Osllsi11ObZEj3m+mF8zvinz/yX/YX7R/jkvj5kn7ZJOMcZ27zS+W0r+sOH8dMxiN13eHjTJoeQixmWk5FAAD1RAMQADAGi4+FsvE5mmrgkXqv8LhnKOk1+Q8kTWqGMbl0dy3Ljusr5v/0aP/9vJm2bvJd8YmS9TVPJb00YWN67Zzy8HRmNf5p0sb0SEn5EGIxt6VUBABQ3z0YAAB135tnywKJZK+e8qYDKQgk6fQV/qTb90l/4aaPSWqWr8oOZrn4GQuntd30eL+o9zhL+4u5OZI+30QlnV5TdE1PJT2F2Q1JqpmeGcwyaBl3AAIA6ooGIACg7pLh/HJt/hJpAJuw+FlUBKVKcmxcS2906QVNNKxrarX4mIUH2e1b9avNvL8j/z6T/l8ox+cImOju3y0NJV+au8TzzPSW3/g8I5RYPJw74QEArbMOAgBQX4sOtfUeyJeA5aIB2MJ63aPSUPIBuS6X6clNMzDTZenG+AULp9t92/pb+zryXzC3bklJ02TD9M5kUnp198pNRWZ96/IsmAag56rxTVQEAFBPNAABAGO1/7kukDhoALaoOat8r9sq6aUyfVpS3DRHlvzC/EPxKxcdauu398/o64wXmnSCpLVNVPIjrZa7sbtcfTuzv/X0lDcdGE6T31bPn2n3UxUAQD3RAAQAjM32x3VtIKEcfFrFJ1GRFmsGVNJX1NL0FkkvaarjyvSlgWL+9HlH2A7fvdfXkb9c8hdJureJUjTOZF8pVarfnbvSd+ZIaKVFJ35mOMGE8gMwAEAroQEIABib7Y9pSSCh5PKe8jXgFtG92ttLlfRcd79Y0h5NNLSay9/WV8y/W2Yj9v6+/o7CNZnVniFpqMlOQK9NaskNZwwmz+aoaJE1x/XcUGIxC+YHYACAFkIDEAAwJnJJfK0C+dBA1FwffsBjmFMenm5J+ie5v1XN85VfSVrvZq8e6CicOxp/+IJi+8rhtviZcl3RXDPCDogi/b6nnHyWD4S0guylwYTiwfwADADQQmgAAgDGxPyZdn8oHwJx6WVUpLn1DKWzaor+KulpzTQul+7OIj92oBj/dDT/nosm2wOT18Qvluz8JpsaOZfel0xKrzqjsukgjpTmNGtw+BDJ9g/lsE1r8fVUBQBQbzQAAQBjuAh5KHdBHDx7mU+mIk248V/uu5fKyQ/dfIGk8c00Npdusig+esHUQl0eJ+w9ztL+jvjNkj6iQO7eHUFHR567tqdc7eaoacK1JhcdH040tnJ7vs4NAMCO770AABgjmfzqUGKp5RPuAmwyPUPp8blceqOkk5pweL8u5OLn9k+1O+r9F/d35D8ps1MkbWyynO7ssv6eoeSyORXflyOoibhOCCiaKykIAGAs0AAEAIwZM10VTCxuNACbxGkVn1Qqp+e7+aWS9mm28bnb/PzD8cvmHWQPjVUM/cX4B27+fEl/b7r8ml5a8/TmnnJ1LkdT45u70nc2KZgvAJuyq6gKAGAs0AAEAIyZdVPzN0p6KJBwjpu7xneiKo2tu5y8qODJLZI3Y/MmM+n/DXTGc+YdYclYBzNQLPw5s9qzJA02Ya53cdn5pXLyozmrfC+OrMaVZrWXSArmIy81owEIABgbNAABAGNmsVlNpj8GEs646voaXwNuUGct9QmlcnqeSb+UbL8mHOJGmb22ryP/hZCC2vKF4Gc13xeC/+XVtTS9paeSnsJR1pgy95Bqt2ZBsX0lVQEAjAUagACAMWUBvQ/JsuwNVKTxdA8lz9mYr90g+Zmbp1TTucfNn99fjH8QYnAXTbYH1qXxSyXra9Iptoe7f680VP3e3CHfgyOuccxe6ruZdGI4653z/j8AwJihAQgAGFNuAb0Q3ewVp97mu1KVxnD6jT6+NJR8yUy/k/ygZhyjSdcqio8cKBb+HHKci2datb8jnu3yt0lKm3LCmZ2SWLq8ZyidJXfjCAxfrZC8TlJbKPFkrt9SFQDAWKEBCAAYU+sOiq+RdH8g4bS3VZPXUZXwdQ+lJ8TjkltkemfTXs+Yfy+eMDZf+t1eAx2Fc931fEn3NOnU28PNF3RX0t/NKQ9P50gMnNsZIYWTxflfUhQAwJhdWpICAMBY6ykn33epK5BwrunvyD+DqoRpzirfK0uSL7jZ6U08TDfXOX0d8cdl5g1Zp4rvW1P6Y7mOaOI6JSZ9abzFHzu3aMMcnWGZtXxTRy6XGwoopKX9HfmDqQwAYKxwByAAIAB+aUDBHM2dPSFOEbeecnVulqbLm7z595C7ndjXme9t1OafJF1QtDvTDfHz5P79Jq5V3qX3rfP0hlIlOZaDNCy5ONcdUjxm4u4/AMCYogEIABhzcZr/paRgmh2pohJVCUepMjyjVEmvdNn5LjXzOxqHLKsdPdAZX9oMg1l0qK3v78i/Tq4PSsqauG7T5LqiVE77Zi333Tlix17XHT5OrtkhxZS5fkFlAABjiQYgAGDMzZthd0u6IZR4THrjaRWfRGXGVvdqb+8uJ+fIo+slHdPUgzVd5vn4GX3T2oeaa1zm/Z35z7jbyyU91NQVlJdyuXR5T7k6t8s9xxE8dsZvSkqSnhRQSOuVj6+iMgCAsUQDEAAQBJd+FlA4u7QpPYuqjJ3ucnqSktoykz4iqdDkw/38uqnxywem2IPNOsCBzvhSy2pHSxps8lru6bLzJ1TSJd2V5HkcyfXXe4XH5tG7Q4rJpEsHptgmqgMAGEs0AAEAYahli0MKx13v6LrDx1GY+pq9YvjgnnJyucl/aPIpTT7cjS47rb8j/77FZrVmr23ftPahfC5+hsJq9o+Wp5nrilI5WTxncOMUjuz6uXWf2imSHxhUUGY/oDIAgLFGAxAAEISB6W03S1oeUEh7TdyQ9FCZ+jj1Nt+1VE6+mmXR9S69oOkH7H6bux870BFf1Ep1nneQPdRfjF/h8ndISlpgyCfXoniwVE6+ymsF6sPk7wkspA3JhtzPqQwAYKzRAAQAhOSHIQXj0nvnLvE8ZRk9Xe65UqV6ZttwWpH0Nklxs4/ZTBfn4/yhA52Fv7Zk0c18oKPwVTe9WK6/tcCIC5LeVvB0ec9QOkvuxpE/Oror6cslPT2wdeSyRYfaeqoDABhrNAABAOH0BdzDekzKbHI6KZlNZUbHGUPJC8ZX0uvkdp6kVvh6airpvX1T45PmHWQPtXr9B4r533khfrqk37XIkPd28wWlSnptz1B6PGeAkTV3iefN/fPBBeY8/gsACGRrQwoAACEplZNBSZ0BhfT3fC7uoGEzcrqHqkea2aclvbCFhr3GXa8b6MzzJdD/0OWem7giPcddH2ixa9M/uOuDzIkRWjuGqm+V2bmBhbU23Rg/hTsAAQAh4A5AAEBYXAsCi+hJSZZ+hMKMwAa9MjyjVE5+aGbXqJWaf64rcnF8GI2eR7fYrNZXzH/I3U6UdF8LDf0YM11ZqiSXlirVw5gJ2697tT/ZzM4J7tB3+z7NPwBAKGgAAgCCUlO8UFJYX0R1vf2MFdXDqc72Ka3w/Url9Hx5dKOkk9Q6d3m5pK/l18YvueBAu4eZ8PgGOuNLcxY/Ta4/ttTAXcfLbUmpnPx01uDwIcyEbWfV5Ksu7RpcXDnvozoAgGDWJVIAAAhNqZz8XNIJgYV13eS74qN7j7OUCm2dOat8r1qaflDSmyS1tdgF1gMum9XfEf+MmbBtupZ6YUI+/bykt7fg8GvmflEt8s8tKLYtZTY8sZ6h9NVu/qMAQxvqL8bTZeZUCQAQAu4ABAAEx2Qh3jVx2G37pB+jOk9s9jKf3FNOv1ZL01Xa/GXfthabwEuiLD2c5t/2WTzTqv0d+XfIrEvSgy02/JybnR55dHOpnFzSU0meyYx4bHMqvq+bfyvI04BpgOYfACCsS1QAAAKz5Q6gOyXtGVhoNTe9cKCY/x1VepTNeHl4ek32PslOlZRvwRRkkr60Lok/tHimVZkRO272Mp9ci9OFJj23hdPwe4/02YGp+V8wI/7P3CWer05KLw90blTzaXzAvBl2N5UCAISCBiAAIEg9leRT7vpgcIG5/qZcfFT/VLuDKm2p1WD1CI/sA5JepdZ9umCNSWf0deQvZ0aMrC733IRK+n5JH1NrNpb/6Xoz++zaqbkfLjartfq8KJXT8yQ/M8gNlvuivs7CLI5eAEBQ6xMpAACEqGfQ9/YoXS2pEOJGPN0YP6elv+7obj0r0he56z2SXtTi0/UneY9nz+u0ezlyR8/soepRmUUXSj61tTPht0s2LxfHF7Tqx2W6y9W3m+wr4e6w/PD+YuE6jloAQFDLEykAAISqNFRdJLM3BBre5Z6PXz4wxTa1Uk1Oq/ikNk9e57K3SZrZ4lN0k8vfP1DMf413fdVH1x0+bsLG9LPa/G7JVlc16RJJ8/qK8W9aZQ52V9LTzX1A4d5t/Lv+jvxxTE8AQGhoAAIAglWqVA+T27XBLqKmi9dW49e2wvveSpXqYVJ0ptxPlbQTs1M3yrJT+4tty0jFWMzH9GS5ny9pN7IhSbrFzb+RKP/tC4v2cNPWfag6R2bflJQLNUZ3e/VAZ3wxUxIAENzehRQAAILe8JWT30k6NuAQf21Z/Jq+aba22XI/d43vVF1fe425nyXpGczGLft76asTLX7/uUUbJh1jeG5Y4fupli6Qibut/s86l18ijy4qrM39et4RljTJUWelSvpBSZ8IfP8yuK4YH8w7GgEAIaIBCAAIWk85eaFLvw48zBtyWXrSBdPGrW70fHe55yasSF9omZ/mZq+SNJFZ+C/3eKRuvsYajl736NYV6XvNdY7CfF/oWLrX3L5fc79oQWf8x0Z9RLhn0Cd6lPZJOjn0WF122kBHfBFTDwAQIhqAAIDglcrJlZKeE/iC+oDcZvd1xj9uxBxv/sCCnSbptZL2Ytb9lx+kUfyWRVPt76QiPN3Lh58a5aJ+lw4nG4/GbzWzi7LMLz6gI39tr1nWCFH3rEiO88y+JflBDRDu8nXF+Knc/QcACHi/AgBAI2wC9dsGWVgXx2n89nkz7O6Q4+y9wuNb906faZGOl+tkSUVm2qO6V25v7e+Mv0cqwtZ7hce37ZO+T9JHJLWRkcf0d3P/pVt0Wa2W+9XC6XZfaAGWVvh+ntXOMfkZjbNfsVP7O+LvML0AAAHvUwAACF+pnFwh6XkNEu46M30tTeMvhbS5nrPK98rS5Hh3HS+zF0vahZn12Fz6YS2Kz+Kuv8ZyRmV4ZuRRv6QjycYTqkn6i6RL3fX72qb4ukWH2vqxCqZ7aHhapNzZbt4jqb2B8sjdfwCA4NEABAA0hJ6h5Bg3XdVgYW90t4skX7C+I/5jvTeHPYO+t6x2dGb+zEh6vkuHsfZvlXvd7eyBzvi7pKIx9V7h8e37pu9x18fUWI2ksZZKusVlfzZlf5H5NZOnFgZH85HhOYMbp9Si3MvN7BR3PasRz1Fu9oqBYvxTpg8AIGRsAgAADaM0VP2ezE5p0PDvddnPItdP4jj323kH2UMj+YfPXuq7eZzOkHS0m54h+dGS7ces2WY/zsXxmRccaPeQiiY4Z1SGZ8ijPklHk43t9rBJFXdfqchWmnxlJluZRfGqAw/UnVvbHDy74m1r02qHxblOuXdKPsMVPdPkUxo8P7/s78i/lGkCAAgdDUAAQMOYvcwnZ3G6XNK4xh+N3yrZLe66RZEt88zXxJHfryR/v0e6v2+are29wuPygZpY2LBpZ4+j8ZbZTlFku2byfSPZQS4/SLKDzHWQS7syQ3bIfZKdzTu8mk+Xe25CJX23pI+LuwFHw0ZJGyR7SPK1cq2XqWrSRJkmumsnk8b75lcONNveI8kpO/SCjrblTAMAQOhoAAIAGkppKPm4TB8lExixiyHTxVkcnzkwxf5GNppX99DwNFl0vknPJRsYIV/t78i/gzQAABrimpcUAAAaydw1vlOyLhnk8VbsOL9dFr2tvxhfQi5apeRupXJtlsy/IGlPEoLtnkrS3crHMwam2INkAwDQCCJSAABoJPP2tg2RojPJBHZAKulrluUPpvnXYsy8vzNe4Pm4Q9LXtPkruMC2b6Lc3kLzDwDQUJdBpAAA0Ii6y9Vvm+w0MoFtvPC5Vpm/uW9aYQnZQKlSPUxu35R0JNnA1vPv9HcUTiUPAIBGwh2AAICGlNXyb5eLd7Zhaz3o8nfsX4yPovmHf+ovFq6bXIyfYfI3SXqYjGAr3JtGvPcPANB4uAMQANCwusvpSSb/IZnA43CZL0ot/95FU+3vpAOPpWfQ93ZLviyzU8gGHnv3ZF39xfgHJAIA0HBLGCkAADSyUjntk7xEJvAoBt105kAx/ztSga0+p1SSl8j1ZUnTyQb+bePkdl5fZ/wWMgEAaEQ8AgwAaGiez50l6QYygX9t0qUH3PT+CRY/jeYftlV/Mf/LyXfFh2x5LPgeMgJJcummtTvl3kMmAAANfI0MAEBj6165qWi13BJJk8hGS0sk65flPtxftH+QDuyos5b6hE1x+h43vU9SOxlpWWstqx3ZN619iFQAABoVDUAAQFPoLqenmvxCMtGyfmZZ7T1s0DEa5gxunFKz3Gdl1sX1c8vJZHZSfzG+hFQAABoZFzAAgKZRKiefk/T/yERLGXS3dw90xpeSCoy22UPVozKz/5F0DNloDe5690Bn/ktkAgDQ6GgAAgCaaadm3ZVkkclOIxlN7z6Xf+KAu/L/23ucpaQDdT3PrKidbK7PSn4gCWnijZLZt/qK8VwyAQBoBnwEBADQTLs1Vz4/R64/koymtU7Sp6oWHzjQUfgqzT+MxXlmoBgvnmC5GXI/W9IaktKULt3/ztxZpAEA0DSXMKQAANBs5g75Homlf5DUSTaaxgZJ58niz/OBD4Sk6w4fN3FT8ibP7H0yPZmMNIXfpxvjly061NaTCgBAs6ABCABoSnNW+V61NP2tpBlko6FVJRuwLPfxvmnGnVYI1tkVb1vvyRmZrNekp5CRBt0cma5WLT6+b5qtJRsAgKZa40gBAKBZ0QRsaIlk/TXPnbOw0+4iHWgUp9/o43Pjkjkm+4CkvchIA22MaP4BAJp5nSMFAIBm1jPoeyuXXuGuDrLREBJ3W5ir5T4xf4bdRjrQwOeeiR6lb5P0Lkm7kZHg/XpcEp903kxbRyoAAM2IBiAAoOmdvsKfFGfpTyQdTTaCtUmyhZmln19QbF9JOtA055/NdwT2mKJ38NXgYLdE/fmHc2+ad4Ql5AIA0LSrHSkAALSCLe/nGnDZ68hGUB6StMCy+HO84w/NrNc9unVF7WWW+ftlehYZCYKb65y+znwvqQAANDsagACAltqA374i/YK73kU2xvwSZJV59qV4Yr5/3t62gXyglfQMJcco0rvd9QpJERkZE+skm9vfEX+HVAAAWuLqmxQAAFpNqZKeLPcLJO1MNuruenP7yv5rchf1Hmcp6UArO6Oy6aDIc2+TNEfSTmSkbpZFUfba+VPbbiEVAIBWQQMQANCSegY3dXqU+66kp5GNUZea6Wfm+vL8jvyVpAP4d3OHfI+q0llmmiNpOhkZ1e3P+evG5d65eD/bSC4AAC21ApICAECr6l7t7UprXzT3s1gTR4PfKtkFlsX9vN8P2Do9Q8kxHvkb5dYlaRwZGTF3udtbBzrji0kFAKAVsdkBALS87qHkOWb6pqQZZGOH1SRd4Wbz1k/N/WixWY2UANvutIpPavPkdS57k6TDyMh2c3P/tqX5d8yfafeTDgBAq6IBCACAtnwlOEs/4Kb3S2ojI9t8SbHCzOdncTwwMMX+Rj6AkdMzWD3Co+iNJu9yaVcystWuN9Nb+or5P5EKAEDLX62TAgAAHrnR3tTpUe4zkl7FOvmE7jWzH8v8O30Hxb+TmZMSYPR0LfXCxLj2Ajd1mfxVNAMfY4NjKntmH+3vyH2f8xIAAFvWR1IAAMB/K5WrR0v2WUnPIxv/5n53+3EU+ff3vzP+LV/yBcbG3CWeTyfWXuimLslfKWk3smKr5NlnJq/JD3BuAgDgP1ZJUgAAwGPrLicvkvQek17UquumSQ+47GJzLY7X5i6fd4QlzAwgHHOXeL66S/oCy6xL7ifI9ORWGr9LV0ZuX9m/I3dJr1nGjAAA4FGv6QEAwBOZvWL44Fot9w4zP01SewsMeZmkX5vbL9emud8snmlVZgHQANyte7B6sMX2Qrm9UNKxksY34Ujvl2yxLJvXXyxcR+EBAHh8NAABANgGs5f6blkhea3JTnPXs5poLb3H5ZdH0uWp53+9sNPuotpA4+ta6oUJhfSZcr1Q0gslHSkp16DD2WDSz93swnXV3GX8YAIAgK1HAxAAgO00Z3DjlNTi10eRTnDXMxpsU32/pD+b67eSX97Xkb+Jl+UDzW/uSt85zdKj5To6k4426ShJewYc8nK5fmGRfpHF8ZUDU2wTVQQAYNvRAAQAYAScepvv2l6tvchdL5H8WZI6A1pn18p1s8lukHRNmqV/XjitrULDD4AkzVrp++dqtUPc/RCTHyqzmZKmSmqrcygPmbTETX+xzP6aKvcX7kYGAGBk0AAEAGAUzF3pO6e19MjMddSWDXVRUlHShFH8a++RVJGs4u4rZDbolt64YGrbKpp9ALZFr3u0apX2tTQtmvzASLZPJtvXzJ8iaR/Jd5VsF0mTtvKPdEn3SvqHS/ea9HeXVkfyFZlZOcviCs0+AABGDw1AAADqaO4yf0o1l05VZE+OsuxJku2ZRbaHZdmeZmZumiBX3qWCuWoy1bbsnB8y942Kogfd/QG5HrTI/h65317L1e5eX2i7c/F+tpEMA6inXveofLt23qmmQpYO/9vHRtJcW5rGWitJHfvrIb7QCwAAAAAAAAAAAAAAAAAAAAAAAAAAAAAAAAAAAAAAAAAAAAAAAAAAAAAAAAAAAAAAAAAAAAAAAAAAAAAAAAAAAAAAAAAAAAAAAAAAAAAAAAAAAAAAAAAAAAAAAAAAAAAAAAAAAAAAAAAAAAAAAAAAAAAAAAAAAAAAAAAAAAAAAAAAAAAAAAAAAAAAAAAAAAAAAAAAAAAAAAAAAAAAAAAAAAAAAAAAAAAAAAAAAAAAAAAAAAAAAAAAAAAAAAAAAAAAAAAAAAAAAAAAAAAAAAAAAAAAAAAAAAAAAAAAAAAAAAAAAAAAAAAAAAAAAAAAAAAAAAAAAAAAAAAAAAAAAAAAAAAAAAAAAAAAAAAAAAAAAAAAAAAAAAAAAAAAAAAAAAAAAAAAAAAAAAAAAAAAAAAAAAAAAAAAAAAAAAAAAAAAAAAAAAAAAAAAAAAAAAAAAAAAAAAAAAAAAAAAAAAAAAAAAAAAAAAAAAAAAAAAAAAAAAAAAAAAAAAAAAAAAAAAAAAAAAAAAAAAAAAAAAAAAAAAAAAAAAAAAAAAAAAAAAAAAAAAAAAAAAAAAAAAAAAAAAAAAAAAAAAAAAAAAAAAAAAAAAAAAAAAAAAAAAAAAAAAAAAAAAAAAAAAAAAAAAAAAAAAAAAAAAAAAAAAAAAAAAAAAAAAAAAAAAAAAAAAAAAAAAAAAAAAAAAAAAAAAAAAAAAAAAAAAAAAAAAAAAAAAAAAAAAAAAAAAAAAAAAAAAAAAAAAAAAAAAAAAAAAAAAAAAAAAAAAAAAAAAAAAAAAAAAAAAAAAAAAAAAAAAAAAAAAAAAAAAAAAAAAAAAAAAAAAAAAAAAAAAAAAAAAAAAAAAAAAAAAAAAAAAAAAAAAAAAAAAAAAAAAAAAAAAAAAAAAAAAAAAAAAAAAAAAAAAAAAAAAAAAAAAAAAAAAAAAAAAAAAAAAAAAAAAAAAAAAAAAAAAAAAAAAAAAAAAAAAAAAAAAAAAAAAAAAAAAAAAAAAAAAAAAAAAAAAAAAAAAAAAAAAAAAAAAAAAAAAAAAAAAAAAAAAAAAAAAAAAAAAAAAAAAAAAAAAAAAAAAAAAAAAAAAAAAAAAAAAAAAAAAAAAAAAAAAAAAAAAAAAAAAAAAAAAAAAAAAAAAAAAAAAAAAAAAAAAAAAAAAAAAAAAAAAAAAAAAAAAAAAAAAAAAAAAAAAAAAAAAAAAAAAAAAAAAAAAAAAAD/9P8BqqQTocFpOWQAAAAldEVYdGRhdGU6Y3JlYXRlADIwMTctMTAtMDlUMTg6NTQ6MTArMDA6MDDUpmqqAAAAJXRFWHRkYXRlOm1vZGlmeQAyMDE3LTEwLTA5VDE4OjU0OjEwKzAwOjAwpfvSFgAAAABJRU5ErkJggg==;" vertex="1" parent="1">
          <mxGeometry x="-116.98" y="356.02" width="132.93" height="93.98" as="geometry" />
        </mxCell>
        <mxCell id="fjhbrqA5ZPaVyCeerL4o-39" value="" style="shape=singleArrow;whiteSpace=wrap;html=1;strokeColor=#000000;fillColor=#000000;" vertex="1" parent="1">
          <mxGeometry x="30" y="385" width="70" height="10" as="geometry" />
        </mxCell>
        <mxCell id="fjhbrqA5ZPaVyCeerL4o-40" value="" style="shape=singleArrow;direction=south;whiteSpace=wrap;html=1;strokeColor=#000000;fillColor=#000000;rotation=90;" vertex="1" parent="1">
          <mxGeometry x="60" y="390" width="10" height="65" as="geometry" />
        </mxCell>
        <mxCell id="fjhbrqA5ZPaVyCeerL4o-41" value="" style="shape=image;verticalLabelPosition=bottom;labelBackgroundColor=#ffffff;verticalAlign=top;aspect=fixed;imageAspect=0;image=data:image/png,iVBORw0KGgoAAAANSUhEUgAAAgAAAAIACAYAAAD0eNT6AAAABHNCSVQICAgIfAhkiAAAAAlwSFlzAAAjtAAAI7QBL8n3wwAAABl0RVh0U29mdHdhcmUAd3d3Lmlua3NjYXBlLm9yZ5vuPBoAAEE/SURBVHja7d0HlFXV+ffxF9SYRI0l/0RNjAyWiKCioiBVpCtFinSlgxTpvXdmqEMdigp2RVREUOm9Y4wldhNjiRUrbWDusN/9nDkgDDPMzL2n7XO+Weuz4kKBuefs/Ty/e8re/08p9f8AmKtB6eIXacW1KloLra82WXtcW61t0jZrW7Rt2nZth7ZL263t0f6hva79U3tTe0t7W3tHe9f+f/lzlmizteFaJ+1u7TbtCu0czgdgDg4CEMym/jutqFZWa6B10UZr87VlduP+TDusqQDZr/3bDhlL7Z93jNZNq6X9hfMLEAAAGn3p4mdrN2vttBn2t+wfAtbUnbZXW69Ntz/3LRJ4GA8AAQAIa7P/o1bVvkT/uH2ZPSPkzT6/MrX3tWe1YVo9LUkrxNgBCACAKY2+kHaVdo82TluhfU6Tj8vP2lZtqnan9nvGGEAAAIJyCf9WraM2x37Ibh+N2zWH7dsHg+1bB4UZhwABAPDq2/2NWn9tlXaQpuyr7+3bBhLAkhijAAEAcLLpX24/rPa09i1NN9A+0tLsNyfOZ/wCBACgIA3/fK2+fUn/A5qqsWLaSnttBJ4dAAgAwCkN/yytkv2++g67cdBAw+UXbaFWmTcLAAIAot30S2i97Cf0eWgvWj613864hrkAAgAQjYf35Nvfg9qXNEHYdtqrFP6ReQICABCuxl9Sm8R7+MjH64WydHEdbhGAAACY2/SL2O+J/4vGhji8p3WQNR6YTyAAAMFv+rIjXmd7x7ujNDE44GttqIwt5hgIAECwmr7smNdUe0k7QsOCizsczpTdGZl3IAAA/jX9M7Tq2iP2q100KHi5rsBiWfqZuQgCAOBd479GS9W+ohEhADZqtZibIAAA7jX+ctqL3NdHQK3TbmKuggAAOPfOfj17G1iaDIJOwumj2t+YvyAAAPE1ftlat739GhaNBaaRnSHHa+cxn0EAAPLX+GXznUGs0IeQ+Ebrop3J/AYBAMi58V+mTeFpfoR4QaF6zHUQAIBfG/919j1T3t1HFKzSkpj7IAAgyo2/gvYyT/QjoosJ9dYKUwtAAEDULvU/QxMAiu/SrqcugACAKDzVP8T+9kPxB7LIra+xbDYEAgDC2vxlW9WPKfZArt6X22LUCxAAEJbGf7V9n58CD+RvEaE5srEV9QMEAJja+M/RkrXDFHWgwP6lFaeWgAAA05p/M+0LijiQkANaO2oKCAAwofHfoG2icAOOekI7lxoDAgCC2PjP02bZ+6NTsAHnfajdSL0BAQBBav432sWJIg24K13rSt0BAQBBaP6dtUMUZsBTD2lnUYNAAIBfl/xZyQ/wz0btIuoRCADw+pL/RxRgwHcyD4tRl0AAgBfNv4t9H5LiCwTDj1p16hMIAHCr8f9BW0yxBQIpQ57HoVaBAACnm/9NXPIHjDCQmgUCALjkD0TTSGoXCABIpPGfpT1JMQWMlEwdAwEA8TT/32orKKKA0VKpZyAAoKA7+K2jeAKhMFcrRG0DAQB5Nf/ztW0UTSBUFmqFqXEgACC35v9H7R8USyCUntLOpNaBAIDszf8S7V8USSD0WwpzOwAEABxv/pezkx8QGeOpeyAAQJr/Vdp/KYpApHSg/oEAEO3mX1z7kmIIRE5Mm68lUQtBAIhe8y+pfUchBCLtiPaQdgV1EQSAaDT/S7UvKH4ATthI6BHtamokOAjhbf5nazspeAByuTUgbwoUo14SABC+APAoRQ5AHjLtWwMXUDcJAAhH8+9HYQNQAP/T6lE/CQAwu/nfaad6ihqAeFYR/D9qKQEA5jX/YtpPFDEACfhWa0pNJQDAnOZ/Aav8AXDQUlk6nPpKAECwm/8Z2ioKFgCH7dUqU2cJAAhuAEilUAFwcRGhTtRaAgCC1/zbUKAAeGCmXG2k7hIAEIzmf5n2C4UJgEdWsWYAAQDBCADLKEgAPPY+SwkTAOBv87+HQgTAJz9olajFBAD488rfVxQhAD7ap91GTSYAwNsAsIDiAyAAftRKUpcJAPCm+VfSjlJ4AARo5UB2FSQAwIMtft+n4AAImC+0otRpAgDcCwBjKDQAAurf2l+o1QQAON/8S9grclFoAATVu9ofqdkEADjX/Atp2ykuAAzwqtQsajcBAM4EgPsoKgAMMpTaTQBA4s2/sPYeBQWAQWIN2EWQAICEA0BjigkAA8liZZdQxwkAiD8A/JNCAsBQ6xuwgyABAHE1/9oUEACGG0s9JwCg4AGAJ/8BmE5WLq1CTScAIP/NvwqFA0BIfKD9htpOAED+AsA6igaAEBlGbScAIO/mfxvFAkDIHGS/AAIA8g4AyykWAEJoBTWeAIDcm39JigSAELubWk8AQM4BYBEFAkCIfar9nnpPAMDJzf932s8UCAAhN56aTwDAyQGgCYUBQATs1/6Puk8AwK8BYBmFAQBXAUAAiFbzv0g7QlEAEBFyu/MC6j8BgABQunhnCgKAiBlO/ScAEABKF99KMQAQMd9r59IDCABRbv5J9oYZFAQAUTOAPkAAiHIAGEIRABBR38gr0PQCAkBUA8C7FAEAEdaZXkAAiGLzv4nJDyDi9tAPCABRDACTmPwAUPw6egIBIGoB4HUmPgAUn0pPIABEqflfqGUy8QHAehjwLHoDASAqAaA+kx4AjqtPbyAARCUAzGDCA8Bxy+gNBICoBIC3mPAAcFyGdjH9gQAQ9ub/f6z+BwCn6EWPIACEPQA0YqIDwCnW0SMIAGEPALOZ6ABwCtkW/Xz6BAEgzAHgHSY6AOSoMX2CABDW5n8xExwAcvUYvYIAENYA0JQJDgC5+k4rTL8gAIQxAMxkggPAaZWjXxAAwhgA1jG5AeC0JtAvCABhDABfM7kB4LTeol8QAMLW/P/IxAaAPMlCaRfSNwgAYQoAFZnYAJAvtegbBIAwBYDOTGoAyJfR9A0CQJgCwCwmNQDkyyr6BgEgTAFgPZMaAPLlJ60QvYMAwBsAABA9xekdBADeAACA6GlH/yAAhCEAVGIyA0CBPEj/IACEIQB0YTIDQIG8Qf8gAIQhAExjMgNAgRxqwMZABIAQBICnmcwAUGBF6SEEANMDwEYmMgAU2J30EAKA6QHgAyYyABRYL3oIAcD0APALExkACmwePYQAYHLzP4dJDABx2UAfIQCYHACuYhIDQFy+oo8QANgGGACi6Q/0EgKAqQGgCRMYAOJWil5CADA1APRgAgNA3OrQSwgApgaAZCYwAMStI72EAGBqAHiECQwAcRtBLyEAmBoAXmUCA0Dc5tJLCACmBoAtTGAAiNtSegkBwNQA8A8mMADEbSe9hABgagB4jwkMAHH7lF5CADA1AHzGBAaAuB2mlxAATA0Ae5nAAJCQ8+knBAATA8BBJi8AJORi+gkBwLTmX4iJCwAJ+xs9hQDAVsAAED1X0VMIAKYFgD8xcQEgYcXpKQQA0wJAEhMXABJ2Ez2FAGBaACjOxAWAhJWhpxAATAsAtzBxATO0vP0mldanqVoyviPHI3gq0VMIAKYFgFJMXCC4Gt1WQo1pc5faPL+fSt8xV2W+9qDl8RFtOD7BUo2eQgAwLQDcwMQFgqf73RXVC8n3q73rph9v+ieK7XlQpXSqx7EKjtr0FAKAaQGgGBMXCIZWd9ysFgxooT58flyOTT+7g9vTVO+Gt3PsgqEhPYUAYFoAuIKJC/inXfVb1dy+zdQ/Hhumjuyan6/Gf6Jv1kxTbavdyrH0XzN6CgHAtABwGRMX8FaX2uXUI0NbqfeeHWNdyi9o08/uoxfGqeYVS3Js/dWankIAMC0A/JmJC7ivb6PKavGYDuqTl1ISbvg5ef3xYeqestdxrP3TkZ5CADAtAFzIxAWc17jc9WrYvTXUS5O7qq9XT3Wl6We3Ma2valiGY++TB+gpBAD2AgAiSBpvH/0tf9GQ+9Rrjw21HtDzoulntzSlM+fDH33oKQQA0wLAWUxcIP57+Wl9m6mtC/qrnzbO9KXh5+ThQfdyfrw3mJ5CADAxBDB5gXxoW+0WNbVrA7VmZi/PLuvHQx4slJ+Tc+apkfQTAoCJAeAIkxfIeendce3rqGWTurj28J5bDu+cp0a2qsV59M54+gkBwMQAsJ/Ji6hrUelGNbRlDbVw8H1q07x+6vNXJjnyip6f9m+dYz2XwPn1xHD6CQHAxADwA5MXUW32G+f2DUWzz83362eozneV5by7rwf9hABgYgD4msmLUDf7FtV/bfYvh7fZ5+aLVyar1lVKMR5YCIgAgFMCwGdMXphOFsGRp/Llvrc8BS/vxEex2efmg+dZLdBl9eknBAATA8C/mbww4T379jVKq8HNq6vp3Rupp0a1U2tn91JvPz1SfbN6mm70C2j0eXhn8WhCgHuq0E8IACYGgPeYvF41sRKqWYWS1uXYjrXKqG51y1sPaQ1qVk0NbFbV2gK2g25yctk6iiu6tdLHpX/jO9TkLvXVo8Naq5Wp3a1NcuQeffrOeTRxh0KAjC/mo+NK0U8IACYGgDeZvIlpVuEG1atBJTXp/rvV48PbqLWzeulCO0r979XJ6rt1qeqXLbML3MDk0rU8xf3t2lT13+Up1sYxssLclvn91eoZPa0V3+TvkoVoJnWur0bcV8sKE51q3RaYAi8hRl6lu//OsqrvPXdYl+elucvud4+PaGMtk7tz4SD1yUvJ1melQXvj3WcJAS64in5CADAxAOxh8uZPo9tKqIFNq1rLva6a0UO99dRI9Z1u0EEs8rK17A8bZqhPV0y0vvXtWjTYeghOLpvLz/7y1Aes99ufn9BJLR7bQT05qq31rVvun8/v31yl9WmqZvZsbP3/gwNbWrvXPTmyrXp2XAcrfCyf0k2tnN5DrZ/TW22e30/teHiQFVDeWzLG+sYuK+Nl7OayfFBJoCQEOOpP9BMCgIkBYBuTN/dvsPLNXpribt1A+ZaKUIWAJYQAB/2GfkIAMDEAbGTy/qpjzTLH13f/MUDruwNueP+5sdZtGuZ+QtLpJQQAUwPA6si/QnbbdSq5Y1312qNDeZockSPPYMgbFjTyuH1DLyEAmBoAVkR14soKaUvGd1Tfr59OI0CkycOmPetXpJnH50N6CQHA1ADwQtRexZOn9f/5xHAWiQFOsG/LbDXs3ho09ILbQy8hAJgaAJ6JykQd3eZO9e8XJ1DsgdPsIjiFrYQLai29hABgagBYEPYJKu/Hyzd+CjyQvzUo5FVXGnu+vUAvIQCYGgAmhnViyqI4G9L6cKkfiIOsFSF7LNDg87SIXkIAMDUADA7jgj2ysA3LxwIJbiL03Fi2E87bdHoJAcDUANA5bO/xv/3MKIo34BBZAGtKF54LOI3R9BICgKkBoGlYJuLE++9Wv2yeRdEGXCB7UMi+FzT8UzxALyEAmBoAaoZhMx5Zl54iDbjr0+UprBdwqtr0EgKAqQGgtOmX/GW3PIoz4I1DO+aqJ0a0tba2pvlbitNLCACmBoC/mzrxutUtr75ZPY2iDPhAdpuUjbKalI/8bYHf00sIAKYGgD+ZOOn6NqrMZj1AAMiW2HP7NovqK4Nf00cIACYHgLNMm3RDW9Ywamveg9vT1Jcrp1h7sO94eJBamdpdPTuug3pxYme1akYPtXl+P2sjonefHW19q6Kp4Ng3bBkTMjZkjMhYkTEjY0fGkIwlGVMytmSM+f3zfrVqiprevZG13HaEAsAO+ggBwPQQsN+UCTem7V0qfcfcQBbsI7vmq9cfH6bm9WuuBjWrprrULqeaVyz4fdI2VW9RI+6rpR4a2NIq/CaFHcT/qp2caznncu5lDBR03MhYkzEnY0/GoIxFGZN+7C44rl3tqASAp+ghBADTA8DnJky23g1vD8Q3nezf7rc/NFClPtBI3evSvupNyl2vxrWvo9bO6qUObEujYYaEnEs5p3Ju5Ry7MXZkTE57oKE1Rr2eO/96ZpQVRkIeAMbTQwgApgeAt4I+0dpXL21tWRqkFdImdKirmnr8AFSrKqXU88n3By4IoWChUc6hnEsvx46MVRmzMna9/Lyb5vUL84OCHeghBADTA8DmoL/n/9EL4wJRvH/aOFPN7tVENSzj7zGRS8RrZ/eioRpGzlk8l/ed3RK7uDWGf/LwIdq3nx6pWlS6MYwBoCo9hABgegBYFtQJJsVKLl/6v0PaAvXKtAfUvZVvDtTxmcTqh0aQcyTnKkhjR8ayjGkZ214cAwnxXl/18MAV9BACgOkB4JGgTrDHR7TxvXj/79XJ1pbCgV0MqVYZ62ek0QaTnBs5R0HeLtur8fPZionW4l0haf4x7Ux6CAHA9AAwPaiFyY+nmE/0xSuTVfsapYO/IqJuMPIaFg03WOScBLn5H3/GRo9xGeteHBNZvKtd9VvDEAA+oX8QAMIQAEYGbXLJU9F+L/H7+SuTrIcPTSlI8gpYUF+RjCI5F3JOTBk/MtZlzHtxbF57bGgYAsB6+gcBIAwBoGfQJpcseOJn8ZZLlSZ+S3lmTHuab0DIuTBt/MiYl7HvxfGRtQoMDwAP0z8IAGEIAK0CtdJfi+oqtse/wn145zzVtU45I4uSvDHB/gj+k3Ng6ta5MvZlDrj/OuRc1a1OeZMDwDD6BwEgDAGgbpAmlixv6mfxXprS2ehvJpO71KcJ+0zOgcljSOaAJ+tpPD9O3XObsXsItKR/EADCEAAqBmVSjWxVy/f118PwvvI7i0fRiH0ix9708SNzwKt9KZ4a1c7U41SO/kEACEMAuC4ok0qWD/WzeKf1bRaKV5Rkm1aasT/k2IdhDMlc8GplxNZmrg9wEf2DABCGAHBpECbU8Htr+r7Yj1vr+Xutf+M7aMY+kWMfhjEkc8GrRYKeG9/JtOPzKb2DABCWAHCGlun3pHrrqZG+Fu4Pnx8XmhXK5L6qPGRFQ/Z6nf+5Jt/TPoXMCa92Q7zvjptNOjYv0jsIAGEKAV/5OaGGtKjue/GWDVrCtEzpG0+OoCl7TI55mMaQzAmvjt3iMR1MOjYj6RsEgDAFgNf9nFD/fGK478XbyfeSO9Qorca0vUs9OrSV2pDWR/37xQlq77rp6ru1qeqbNdPU16unqi9XTrGWYJXFV95ZPFotm9RFTevW0LHFY7Yu6E9T9pgcc6cWdZKxIGNCxoaMERkrMmZk7MgYkrEkY0rGlowxGWsy5jo4uHKlzAmvjt2+LbNVS3NuwdWjbxAAwhQAXvZrMsme4aYv3CKXL2f2aKx2LhykftGFLNGf5edNs9Trjw9Ti8d2UOPb14nrIak3n+IKgNfkmBf0PMm5lXMs51rOuZz7hDcf0mNQxqKMyUQurXu9sNSTI9uaEgD+Rt8gAIQpADzk12TavWhwIIr3mpm9Crx06vz+zdUbTw5XR3a7u2eB/PnbHhxgPSiZ35/vk5eSacoek2NekIde5Zx6MXZkjMpYLejS1jInvF5Aye+ttvNhLz2DABC2ADDWry1J/d7w58QVAAc2q5rnpVm51PrekjG+rVb46fIU69Ls6dYrkAfRnPgmiYJfuTndQ4ByzuTcferTPhcyZmXsyhjO61aTzAUvVgTMTp4HCngAWEvPIACELQB09WMyTe/eKFAF/Pv1M9QLyferaQ80VD3rV7Re6ZKCvXZ2L8/WSC/Ik9MrpnRT3etV8PXeLfJ+lkTOkZwrOWdB+lllTMvYlp9ZxrqMeRn7MgdkLvjxM61M7R70ADCZnkEACFsAaODHZNr+0ECahkNPn6d0qmd9+5QNXfwq3sgKkXIO5FzIOeFtjDiuopQN9KuULegZBICwBYDbvJ5ITcvfwLvqLmxBm+7DZVtkOw/6HLA1c/zkocgAB4Br6RkEgLAFgCJeT6TkjnUpdgBOsXlev6A2/wNaYXoGASBsAeBsryfT+jm9KXYAclxRMaDbKe+gXxAAwhoCvvdyqdpfNvOUOoCcjWlzVxADQBq9ggAQ1gDwL68m0oAmVShyAHK1NKVzEANAR3oFASCsAWCNVxNpdu8mFDkAufp46fggBoBb6BUEgLAGgMe8mkjLJ3elyAE47aJFrYK1Q2CG9lt6BQEgrAFgYlS2/gUQfJPuvztIAWAPfYIAEOYA0NuryfQTy9QCyMOrwVoVcAp9ggAQ5gDQzIuJJLuTUdwA5OWLVyYHKQDUoU8QAMIcAG73YiK1rXYLxQ1AvsiGYQFo/jHtfPoEASDMAeDvXkymNlUJAACM2h3wNXoEASDsAeB32lECAIAg767I/X8CABwUWzu+iPZSu2qlXJ9MrauUorABMOlBQO7/EwBC2fjP0gZoBzQ1pEll1ydTKwIAgHx6Z/EoX5t/o9tKqK+fGzJCaiU9gwAQpuZfQXtbGv8xMzrXIQAACIx9W2b7GgD6NqhwrD5KraxA7yAAmN74z9Ee0o6e2PzFM0OauR8AeA0QQAF0rFnGtwCwsE+jE2vkUbt2nkMvIQCY2PzP17Zlb/zHbJzakXUAAARrZ8C2/u0MuGt215xqpdRQXgskABjV/P+kvZ5b8xfvLepNAAAQKI8ObeXb/f9fVozKrV5KLf0TvYUAYELzv0x773TNX/y4bITrk0oW9qCoAcivDWl9/L7/nxupqZfRYwgAQW7+V2qf5NX8j2lRsSQBAEBg/PvFCUG4/58bqa1X0msIAEFs/sW1L/Pb/EWf+uXdDQC330RRA5Bv6TvnqXtuuy4o9/9zIjW2OD2HABCk5n+u9mFBmr+Y2K6Wq5OqRaUbKWoACqR7vQpBuv+fE6m159J7CABBCQCLCtr8xaP973F1YjUpfwMFDUCBTOpc39MAMKzZHSqO+rmI3kMACELzbxpP8xcrk9u6OrEalikRucuXm+f3Vak9GqrBLauqjnfeqprffr3qVq+sGtmmppo/oJm12hlFHqfz1tMj1Lz+Ta0x01WPHRlDne4qrYboMTVdj62tD/ZXh3fNC+3nXzymg6cBYNno+1ScNbQpPYgA4Pe6/j/FGwDemO/+2tsZuxeEvmB/tmKimtCxtqpZsqgqf/WleWpSoYR6aHALtX/rHBoeLL9sma0WDGyuGpW7Nl9j6M6brlAp99dR/3t1cuiOxdYHB3gaAP737OB4A4DU3iL0IgKAH83/DG1rvM1ffLVkiOuT69COuaEt2tLA0/o1UZWvvSxfRTu7u0v/Xa2a2YMGGGGxPQvUy9O6qbq3Xh3XGKpS4nIrTIZpnn30wjjPmn/PuuVUIjXUrsFn0JMIAF4HgFEJDlx1ZPU4dU9Zd5+4lfW9w/qtv3H54nEV7eyG3ltNpYc4KCFnB7enqQHN7nBkDLW84wb15copoTguP2+a5VkAeHxgk0QDgBhFTyIAeNn8i2oZDgxc1fVOd9fe/nHjzNAV7neXjFZ1Sl3lSOE+Ru71/rx5Fo0xIn7cOMO6r+/kGKpf5hr10dJxoTg+8gaRFwHg/Uf6OBEApBYXpTcRALwKAHOdaP5itP726eYE+25taqgK93+WTVDVb0hSlYr9Tc2cMFLt3LxBff7Jf9TmNSvVmH4PJFTA29UoxZWAiHzzb1X1RuucD+zcWq1/dbn67JN/q9e2b1ELpqWoO65LinsMyXMocnXK9GPUq0El15t/+2q3qIw1ztRRqcn0JgKAF83/Ui3dqQCwqG8jVyfZV6umhKpw31ulpKp1SzH1/ttvqpz+t2HlClXxmr/GXcCndL2bJhly8sConOulTz2a4xj65KMP1N3lb4x7DLWtcbPxQXJCh7quB4C53e92qvkruyZfSo8iALgdAKY4OGhd3xXw85cnhaZwJ3eqYxXYlUuXqNP9b+6U8QldCVif1ptGGVIrp3e3zvH4gb1OO4Z2blqf0Bia+kB9o4/Tw4PudT0AvJbWzckAIKbQowgAbjb/P2r7nRy0nz0z0NVJ9slLyaEo3O8/P1ZV+Ptf1J23XKvy+t8Pe79LqHg3LFss1O95R5U8qV/v1r9b5/jj99/Ncxy1rFUp7jFUUY9VuV1l6rFaPrmru6uUViyp0leNdToASG3+I72KAOBWABjt8IBVGWvGqeYVbnBtoskrPWEo3rKwjxTWHq0aq/z8r36FmxIKAS9O6kzTDJlnx7e3zq3c44/FMvIcQ6P7dktoDMlCQqYeq12LBrsaACa1r+V08z9mNL2KAOBG8z9P+8GNQTu4ye2uTbT3nh1jfOH+eOl469u/FNWO99TOs3AfPXpU1Sx1TULFWxaEydg9n8YZolUi5Sl969v5NX9Vhw4eyHMcDerSJqExJFcBPl2RYuTx+uSlFFcDwIYpHd0KAFKjz6NnEQCcDgD3uzRg1YO9Grg20d56aqTxxVuWZT1WVOXbW/qhQ6ct3J98/KEjr3X984lhNM+Q2LVo0Enn9h87tp52DGXGYqpeuRsTHkMLh7Q09oFbt2rSPbeVUD8vH+lWABD307MIAE4HgKVuDdi1k9q7Ntlef9z8Jtam+s0nFdVZE0adtnj3adfckQAwt19TmmdIzOjZ6ORXPhvUPO1tgMfmzXRkDMlaA6Yes9ZVSrlSk0a2qOJm8xdL6VkEACeb/5mJrPmfl/880d+1ALB70WCjC/e3a6cdv/x//NLqNX9VT8yfbX1LO/F/cll34tB+ji3s0rraTTTPkJANfbKf32HdO6pffvrplOb/whOLVOXilzsyhuQ2gCw6ZOIx69+kiis1af3kDm4HAKnVZ9K7CABOBYBybg7Yw6vHqSblrndlsm1/aKDRhXvbQ/1zLa731b5DzRg/Qi157GE1ecRA1ajyrY6u7CbB48gungMw3YFtabme47rlSqrkIX3Us48+pGanjFHtG9RydAyJPY+aGcKndGngytP/B14d7XYAEOXoXQSAwKz7n5f+DSu6EgA2z+tndPFePqWr4wW5IOQKBE3UbF+8MsnXMWTqhlOPDW/teD2a1aWuF82f/QEIAI4GgO1uD1hZFcuVy21z+hhdvB8b0crX4v3B82NpooZ7+5mRvo6hxWPbGbpoUg/H69HbD/X0KgBsp3cRAJxo/hdoMbcH7Mrktq4EgE2GXwGY3aexr8Xb1Mu3yN9tJC8sGNjcyOMmDxA7WYs61yrtVfNXds2+gB5GAEg0ADT0YsB++GhfVwLAjocHGV28Hxl2n6/F+70lY2iihnvzqeG+jqGnRrc19NbJZEdr0TNDmnkZAERDehgBINEAkOzFYD20cqy6p+x1vAaYzUuTu/havL9ePZUmarjPXp7o6xiS/QdMPG6Hd85TDcuUcKQONSxTXH393BCvA0AyPYwAkGgAWOjVgO1Tv7zjAeBfz4wyunhvWdDP1+LNngDm2791jq9jSBYhMvXYdahR2pE6NLx5Fa+bv1hIDyMAJBoAVng1YN3YGtj0vQD+9+pk3wq3vDtOAw0HWdrZjzEkr5J+tzbV2OM2pEV1U979z8kKehgBINEAsMerAfvP+d0dDwCfLk8xvni3qHyDL8VbVo+jeYbD5K53+zKGZBVLk4/b9O73mPTuf3Z76GEEgEQDwGdeDVh5DqCZwzsDfrVqivHFe2avRly6RUI2+3QrSfaxMPm4PT26XeLv/net60fzF5/RwwgAiQaAdC8H7dj7qjsaAL5fP8P44v3W0yM8L9x1Sl2l0nfMpXmGaDXAWjde4fk4ev85s98iWTe7d+K3IR/r51cASKeHEQASaf7nez1oV4xt5WgAkAegwlDAu9cv72nhfmJkaxpnyMjOfF6Oob6Nbw/BIkqjEqo/o1pW9av5H3M+vYwAEG8AuNrrAfvF4kHObbtZ9joV27MgFMX79ceHela477r5Sv2NcQ5NM2R+2TxL1SxZ1LNxJCsQmn7MvlkzLaEa9Mb87n4HgKvpZQSAeANAWT8GrayY5UQA6FK7XKgK+MDmd3hSuF9I6UTDDKlnxrbzZAwNb1U9FMdLvkDEuz5JvwYV/W7+oiy9jAAQbwC43o9BO69HfWf23W5VK1TF+8eNM1WD24q5WriHtKxKowwxaWj9m1Z2dQw1Ll/cutoQlmPWrW5865NsSb0/CAHgenoZASDeAPBnPwbtztldHQkAc3o3DV0Bl2VdKxX7K4UbCQTJGa4FycrXXqbeeXZUqI7XtG4NC3718c4yKmPNuCAEgD/TywgA8QaAwlqm14N2/yujVWMHlgVeMr5jaDd3qXrd5Y4v+vPlyik0yIj4/JVJqknFEo6Ooeo3JKndj4Rv86hlk7oUuPa8OqFNEJq/1O7C9DICQCIh4Bs/Bu/wZnckHAA2G74TYF6vBt55kzOvdd1fu4x1e4HGGC3fr5+u2te6xZExVPfWq9X7Id06+p3FBXsToE2Vm9WhlWOCEAC+oYcRABINAG/5MXhXT0x8AY73nwv3XvayUc+I1jXiLtpVryuiHh1+n0rfyXr/UXVox1z18OCWqkqJy+Ne6ndch7vU3nWpoT1GB7enFWhToOeGtwhC8xdv0cMIAIkGgLV+DF5ZFVCSdCIB4IcNMyJRxOUVQVknoKIuxvkp2tWuL2IVbXb6w/E9J1ZOVmPa1cr3raWK1/xV9WxYwboSFYXj0/ee/F2R7HrXbUH59i/W0sMIAIkGgCf9GsCyf3a8zf++O26OXBGXTVcWj2tvvS7YtsbNqs4tV6vKxf+mGpW91rrMP7ptLbV2di/rGw1NDzmvGDhHrZ7ZQ41sU9MaMw3LFrPGkFzib1ejlBrUvIp6bkIHtXf99Egdl+fGd8rXlr9vPdgzKM1fPEkPIwAkGgBS/RrAPy4boZqWvz6uADCzZ2MKOgDHduXMq+akPXB3kJq/SKWHEQASDQBd/BzEcx6oF1cA2PPIEAoXAMf0bnh7rvWmXbVS6pcVo4IWALrQwwgAiQaAq/wcxJ8+PdC6tFaQ5t/y9pvUYR5sA+CgLfP751pzdszsErTmL66ihxEAnAgB//FzII+9r1qBAsD07uxjD8B5yR3rmnDpX/yH3kUAcCoAzPNzMMuGGgUJADsXso89AHfWThjd5k7rqqSY36O+ylgzPogBYB69iwDgVABo6PeATu1UO1/N/97KN/NeOwB3Hwp8OUV9vnhQEBv/MQ3pXQQApwLABVrMzwG97+VR1vraeQWAdbN7U6AAuGvnnCA3f6nVF9C7CABOhoAdfg/sjx/vd9rFgeT+HMUJgOu2zwxyANhBzyIAOB0ARgdhcH/13BDVq165UxbgeHjQvTz5D8CbbZW3pAY5AIymZxEAnA4AxfzYGTAnh1ePsx4MfGxAY7VibCv14VODKUoAvAsAm6YEtflLjS5GzyIAuBEClgRy0G+YSFEC4F0A0DUnoAFgCb2KAOBWALgpmIN+gp6UCyhMADywwKo5AQ0AN9GrCABuhoBXgjjwM3exwQ0AD+haE9Dm/wo9igDgdgCoEMgAsG0mhQmA+7YF9g2ACvQoAoAXIWBz4Ab/Zva2B+DB/X9dawLY/DfTmwgAXgWAmjwICIAHAAOjJr2JAOBlCFgbuNsAe3gQEICL9iwIYvNfS08iAHgdAP6ifReoALCTBwEBuLkEcOAeAJQa/Bd6EgHAjxBQN1gPAs6gQAFw8QHAGUELAHXpRQQAP0PArMBMhk08CAjAzRUAA/UA4Cx6EAHA7wDwW+2tQEyI9SkUKQDuBQBdYwLS/KXm/pYeRAAIQggorh0MxoOA8ylUAFx4AHB+UJq/1Nri9B4CQJBCQGvtqP8PAs6hUAFw4QHAOUFo/lJjW9NzCABBDAH3ahm+BoCt0ylUAJyna4vPzV9q6730GgJAkENAfS3dvwcBp1CoALjwAKCvWwBLTa1PjyEAmBACqmn7/XkQMJliBcCFBwCT/Wr+Ukur0VsIACaFgHLaj77cBtjNg4AAHLTbtwcApYaWo6cQAEwMATdqn3oeAHbMpmABcI6uKT40f6mdN9JLCAAmh4BztClazLOJw4OAAJy8/O/tA4Axu2aeQw8hAITpasBOTybQxskULQDOBQBdUzxq/jv51k8ACGsIKKx11X5ydRKtm8DOgACc2wFQ1xSXG/9Pdm0sTK8gAIQ9CFyqLXAzCGTuYEEgAE7c/5/jduOXWngpvYEAEMV9BBppLzi+dsCWaRQuAIlf/te1xIV3+l+wax/r+RMAoCfCBVp7bb2WmcDk+tbaoXDz1HoULwAJBwBdS+xdT79NoC5l2rVNatwF1HwCAHIPA+faGwzV1Dpoo7WF2hrtXW239rw2XeurNdHKapedeA9NT943KGAAEvBGtmeYLrNrTRO79ky3a9FuuzatsWvVaLt21bRr2bnUdgIAPKQn71gKGIAEjKWWEgBgZgAoQwEz2LbpKrYlVWXummfeZeNdc7OeQ9nGmhSGK0MtJQDAzABQSPuGImb40qvrsjZ5kqYa+Ma/M+2UTWNYmtpYUjsKUUsJADA3BCykkJkYAOblvsjTzgC+4ik/08ZJuexNMY/zaaaF1FACAMwOAA0pZIYuvnK6dR42TFSZ22f6/jNmbpupYhtSTv+zsiiVqRpSQwkAMDsAnKsdppiFdPvVdclZzwl4eZldbk/ov9P6u9meOqykZvDkPgEAIQgBqyloJr5/nVqwd63l3ruLtweO399fx4JUEbCa2kkAQDgCQHcKmoF2xrkE6/qJVniwtoXek8CVAfm9sg2sBBH5M+NZknonS1Ibqju1kwCAcASAohQ0Q22YmPi+EPJnyDdx2SZanhuQpr4rLevhPHnYUP5ZwoL8O9n2Vf5bh/5ezqGxilI7CQAITwh4h6IWoasAAcC3f2O9Q80kACBcASCFwmboswDZ3qs3gv6ZOXfGSqFmEgAQrgBQgcJmqgWOXJL37Ju/demfV/8MVoGaSQBAuALAGdr3FDeDVwZcnxL8AKB/Rlb+M5rUiDOomQQAhC8ELKLAmb06YJCvBFjf/Fn1z3SLqJUEAIQzANxOgQvBCoFbUoMXAGQxIlb8C4PbqZUEAIR3c6CPKXIhsGOOigXhaoB869/B0/4h8TGb/xAAEO4QMIxCF7LXBDdO9r7xB3VTIiRiGDWSAIBwB4C/aZkUu5C9Krhr7q8L+KxzoeGv+3VBIRO2JUaBSU34GzWSAIDwh4BVFLxwPydg3SKQVf3k6oC8PZCfjXtO3GBIfo/8Xlk9UC7xc38/7FZRGwkAiEYAaEbBi2o4mK8ydx1b/ndOVlCQf9a/ltC+ATBdM2ojAQDRCABnaz9Q9ADYteBsaiMBANEJAXMofACkFlATCQCIVgC4kcIHQGoBNZEAgOiFgA0UPyDSNlALCQCIZgCoQwEEIq0OtZAAgOiuDPg+RRCIpPdZ+Y8AgGiHgM4UQiCSOlMDCQCIdgD4nbaXYghEisz531EDCQAgBIylIAKRMpbaBw4CJABcoqVTFIFIkLl+CbUPHAQcCwELKYxAJCyk5oEAgBMDQDEtRnEEQk3meDFqHggAyB4CHqFAAqH2CLUOBADkFACStCMUSSCUZG4nUetAAACbBAFs+gMCAHA8AFyqHaRYAqEic/pSahwIAMgrBEyiYAKhMonaBgIA8hMALtJ+pmgCoSBz+SJqGwgAyG8IGEHhTFxs6wwV2z6bY1HQ46aPmRw7joUjRlDTQABAQQLAedq3FM/EpD/UWR2a3UqlP9xJHXlhiMrYPJ3jkgs5NnKM5FhZx0wfO45LwmQOn0dNAwEABQ0BbSigiTmybLjVzE6U/vD96siLw/mGa18hkWMhxyT7cZJjxxhKWBtqGQgAiCcAFNI2U0QTsGeBOvxIt1Oa2zGHF3VVR14aoWLbZkWn6evPKp9ZPnuux0UfMzl2jKGEyNwtRC0DAQDxhoDrtAyKaWL3s9MXdsm12R2/MvBQZ3V4yUCVsWqCiu1IC8/n159FPpN8tmO3RE57HPSx4rmJhMmcvY4aBgIAeC3Q7ya4c646/Fj3PJvfr1qr9Ie7qMPPDVIZq5Ot32/SZ5WfWX52+QzyWfL7ueUYmfRZee0PBACEPQCco31GUU3Q7gXqyNKh6lBa6wIEAdsc+3bBC0NUbO1E/WfNC9Dnmmf9TPKzWZf157Qq+OfTx0SOjRwjxkrCZK6eQ+0CAQBOhYAGFFanHnybqdKf7FXwJnlSIGit0nWzPfxUH914h6qMV8aq2Pop9qVzN5rogqxX8/TfIX+X1ez1351uNfzWCX0WORZyTBgbjmlAzQIBAE6HgBUUVweDwNpJKv3xngW6RJ6/cNBGpT/cWf/ZPXST7q0OP9Pfuv8uTfvIshEqY/lolfHqWJWxKjmL/LP+Nfl3VmPX/631e/TvlT9D/iz5Mx39GeUWh/7scgwYC45aQa0CAQBuBICi7BPgxlPxs9WRpcNU+oKODjfZ4JHPKJ9VPjPn3pX1/otSq0AAgFshoBuF1q1XBrOuChxeMiBfT8sb0/SttxsGZH3b38N5dlE3ahQIAHA7BCyn2Hrx+twc6xK99fpcPl4jDEzD1z9r1uuMydZn4Fx6Yjm1CQQAeBEA/qR9RdH1/n362LrJ9kN4Q9Xhp/tYC+akz2vnfZPXf6f83fIzHH8IUf9sYVq/wCAyF/9EbQIBAF6FgBraUYpvQOyapzI2paqM1Skq42UdEJaPynqob+kwdeS5werwsyc82PdET3X40e7WK3sW/c/Wrx17YFD/t/J7rN8rf4b+s+TPtP5s/XfI38UxDwyZgzWoSSAAwOsQMJUCDPhqKrUIBAD4EQB+o/2TIgz4Qubeb6hFIADArxBwLa8GAr688nctNQgEAPgdAjpRkAFPdaL2gACAoISAuRRlwBNzqTkgACBIAeBMbTXFGXCVzLEzqTkgACBoIeAC7T2KdFC25U1TmbvnJ7DL3/ysP4NjGRQyty6g1oAAgKCGgCu1vRTrAASATVNVbO14Fdus/3/X3Pz/Pv3fWr9Hfq/+MziWgSBz6kpqDAgACHoIqKgdpmj7bNvMrCZuy9wwSf/arKwwsOeEKwP6n61f0/9O/puTfs82tukNAJlLFaktIADAlBDQmsLt9+ZCC1RsQ8pJDf0k65Oz5Pbv9e+VP4Nj6bvW1BQQAGBaCEimePt8G0Au5687TZPPjfyeAtw2gGuSqSUgAMDEAFBIW0gR9/tKwHwV25Kqm/qEfDT+CdZ/e9ItAvhF5k4hagkIADA1BBQmBAQnCGTunKMyt81Qsc06EGycnEX/s/ya9e9o/EFq/oWpISAAgBAA0PwBAgAIAQDNHyAAgBAA0PwBAgAIAQDNHyAAgBAA0PwBAgAC9YpgCsUfEZfCq34gACCqQaCtdoRGgIiRMd+WGgACAKIeAipr39MUEBEy1isz90EAALJCwNXahzQHhJyM8auZ8yAAACeHgIu0DTQJhJSM7YuY6yAAADmHgLO0h2kWCBkZ02cxx0EAAPIOAr3tfdBpHjCZjOHezGkQAICChYCS2ts0ERhKxm5J5jIIAEB8IeBsbZp2lIYCQxy1x+zZzGEQAIDEg0BV7XOaCwJOxmhV5iwIAICzIeBC7WmaDAJKxuaFzFUQAAD3gkAL7UcaDgJCxmIL5iYIAIA3IeAybTHNBz6TMXgZcxIEAMD7IFBR+weNCB6TMVeROQgCAOBvCJDthdtpX9GY4LKv7LHG9r0gAAABCgLn2durptOo4LB0e2ydx1wDAQAIbhC4QnuepgWHyFi6grkFAgBgThCQbYY30cAQp01s2wsCAGB2EChjf4vLpKkhD5n2WCnD3AEBAAhPELham68dotEhm0P22LiauQICABDeIHCxNk77gcYXeT/YY+Fi5gYIAEB0gsC5Wi/tUxph5Hxqn/tzmQsgAADRDQJnaDW1J7T9NMfQ2m+fYznXZzD2QQDgIAAnhoFztHu1lVqMpmm8mH0u5ZyewxgHCABAfp8VkMvEr9FIjfOafe64tw8QAICEwkAx+2Gxj2mugfWxfY6KMWYBAgDg1kqDnbRntb00Xt/stc9BJ1bqAwgAgNdhoJB2szZAW60dpDG75qB9jAfYx7wQYxAgAABBCQRna1W0CdpuLYPGHbcM+xhOsI/p2YwxgAAAmBIIfqOVjG2flZ65bYbK3DlHZe6eT3PPTo6JHBt9jGKbpx2VYybHjjEEEAAA04PA15m756nYpqkqtna8iq1LVrGNk1VsS6rK3D5LZe6aqzL3LAh/o5fPKJ9Vf2b57NYxkGMhx+SYdcmZjBmAAACEJwAca4K70nTjm3Ry0ztmfUrWv9s8NSscyFWDHbP1t+M0JQEi+N/k52X9rPIzy7d5afLyWeQzyWfL6TNnRwAACABAKAPAMbpJ5hoETt8gVWzDRBXbNEUul6vMrdOzgsK2mVlXE4QVGuZkNeNdaVnfuqU5iz3zT77aIP8sv3bs38t/K79Hfq/8GfJnHftz5e+Qv0v/nfJ3Wz+D/CzZv8UnggAAEACAUAeAY3SjtRqpUw3UdAQAgAAARCIAHL81MDfrcvnaCQQAxgxAAAAiEwBOeCI+JpfY1ycTAAAQAIDIBICTbg/MyboqsG4CAQAAAQCITAA48UG97TPje2iQAACAAAAYGgCyvWqXdYsghQAAgAAARCYAZHtwMHPrjHBdGSAAAAQAgABQwNsEsraAPDNg8gOEBACAAAAQABK9OjDdvKsDBACAAAAQABy8OnB8s52pWav3EQAAAgCAkAeAHOW0Mc8EAgBAAAAQ7gBwmg19ZP1/uX2wZZq9mc/krKsG8uaB2yFhfXKMMQMQAAACQFC39T22cZDcWrA3CoqdGBpks6Bjtpwo1frvjm9eJL//2GZFWZsUfc2YAQgAAAEgeggAAAEAIAAQAAAQAAACAAEAAAEAIAAQAAAQAAACAAEAAAEAIAAQAAAQAAACAAEAAAEAIAAQAAACAAACAAEAIAAAIAB4tqIgAQAgAABhdGBE0oUZq4YfiK0frxvefJp+LmI75qjYmtEqY+XQAweGJ13E2AEIAIAR9j1QtND+IUmV9g9OmrJ/YNLm/f2SvtzXq+gR/evq4JiKKiZr3tPoTx8C9DGSYyXHTI6dHEPrWA5Kmr5/QFJd/eu/ZawBBADAN4dmX/6bA+OLVNff7mfohr9LN6of9vUoetRqXLk4OLqCim2fTaPPrfnrYyPH6HTHcF/3omp/36I/60Dw+oHhSWkHxha5U84FYxIgAADuXMYflvRn3XD67B+atFZ/E/1Ofzs9bbPPzYFht6qM9ZNo+NnIMZFjE88xlXMh50SfmzU6kPU4MIrbBwABAIj/G/45WvUDQ5PW7e9d9EBcjSkX+/tcqzKWDaLxH2v++ljIMXHsGGddJdi3f2DS7v2Dkybs759UnDENEACA3Br+eVotLVnbrh3R1KHUy+UbpnIyAGQ1qSvUobSmkX4uQD77oblNrWPh+PE98arLuCIx+5wm2+f4PMY8QABAdBv+H7Ta2iRtl5ZhNfwcHJxaRO3r6U5z2j+wpDry4sDINX/5zPLZ3Wz8ciXg4IQiOZ3TDPucT7LHwB+YEyAAAOFu+klaT2396Rp+jiFgchGrobjVrA5OvUvFNk4J/7d+/RkPTq3tbuM/1vxTiuT3/GbYY0LGRhJzBQQAIBxNv5Q2RnuzIA0/xxCQ4m4I2NfjSnVoev1QPiQon0k+m3xG15t/D938JxZJ5Fy/aY+ZUswhEAAAg17P02poc7TPE236p4QA3Vikwbj77fVKdXBaHZWxdoL5jV9/Bvks8plcb/zHmv/kIk6e88/tsVSD1w1BAACC1/Qv0Jprz2g/O930c7wd0NODZtb9CnUguao6/MwDKrZtljmX+fXPKj+z/OxuP+CX7XVAdXBKETfP/c/2GJOxdgFzDwQAwJ+mf5nWXVtz/Il9Dx2c6tLbAae5PXAguZpurN0DGQaymn5362f05DJ/9ocpBySpQ9M9HQNH7LEnY/Ay5iQIAID77+a30tZpR71u+qdIvVzt71PU82Z3LAykL2yrMpYNVrGtM7xv+PrvlL9bfga/mv7x1/yG6+Y/y9excNQekzI2z2GuggAAONP0C2l3aI9o+3xv+tnN1CFgcJJvze/E1wkPTqql0h9urTJeHKRiW1Kd2XhI/xmxTdOs1/bSH2ql/46a+tv2Db5/3uNP+o8vogI2JvbZY1XGbCHmMAgAQMEb/9XaWO2/gWv6OTgwxuU3BOJ8hmB/r2uscHBgRBl1cNztVgM/OP1udSitidXQhfyz/NrBiTWs/0b+W/k98nsD9XlODDy9Xb/f74T/2mP4auY0CABA3g/zddK2mdD0T3kuYFIRb58LiCjrkv9M48bHNnts8/AgCACA3fTP0O60n64+ZGLjP8n0y60H0mjULn3rn1REGT5GDtljXcb8GdQAEAAQxcZf1F6K9Svjm35OtwRGEgIc/dY/zMhv/Xn5yp4DRakJIAAgCo2/kvaClhnGxp99D4H9/QkCCemd8Kp+Jsi050QlagQIAAjj6nyttdfD3vRzvBow3qOFg8KkR1HrKkoIv/Xn5XV7rrDqIAgAMLrxX6yN1L6OYuM/yYzLrcvYNPe8X+2zLvdPj/h4yZozMncuppaAAACTGv+N9rvQ6ZFv/NlvC0wpovb3Iwjk+JDf4CR1cBpjJJt0ey7dSG0BAQBBbfqFtfraRop2Pm4LjCtiPdVO489axteAd/qDYKM9xwpTc0AAQBAa/3lab+0/FOj4thiO6muDVuOfSOOPw3/sOXceNQgEAPjV+Ido31OQHbo1MDQpeKsJurBjnzzcx6V+R3xvz0GCAAgA8KTxn6sN1vZSgN1ZSOjAqKTQvTWwf5Bu+slF/N60J6z22nPyXGoUCABwo/HLTnwDte8ouB6YlfX6oNHrCPTW3/ZHFbF2TeSceuI7e46yIyEIAHCk8f9e6699S4H1b8dBeVZA1sD3ZfvhArzCJ/f1rUv83Nv307f2nP09NQwEAMTb+Ptq31BQA3ibQK4ODEnyd/OhHrINsW74o4tkrdHP5f2g+caewwQBEACQr8b/O60Pi/eYteSwbEcs99mtKwTd3bukL+/qy9/Fa3vGLSokc/p31DgQAJDbcr09w7o5T+SkZm1PLOsNyCV5uX1wYGiS1cCtoDAgyVqQyDLA/jX5d0Pt/3ZUknWVQf6Mg6mX8+0+PJsP9WSZYRAAcGLzr6N9SIEEIkHmeh1qHzgI0W7812ivUhCBSJK5fw21kACAaDX+P2hTtCMUQSDSjti14A/URgIAwt34C2nteMAPQA4PCkptKEStJAAgfM2/rLaHQgfgNKRGlKVmEgAQjsb/F+0x7SjFDUA+HLVrxl+ooQQAmNn4z9YGafsoaADisM+uIWdTUwkAMOty/wcUMAAO+IDbAgQABL/x/1abrGVStAA4KNOuLb+l1hIAELzmX0Z7j0IFwEVSY8pQcwkACM69/hQtRnEC4IGYXXN4NoAAAB+b/63aOxQkAD6Q2nMrtZgAAO837hnPt34AAbgaMJ4NhggA8Kb5l9LepvAACBCpSaWo0QQAuNP4z9TGahkUGwABlGHXqDOp2QQAONf8L9E2U2AAGEBq1SXUbgIAEm/+5bUvKSoADCI1qzw1nACA+Jt/90Ns2QvATFK7ulPLCQAoWOP/vfYEBQRACEgt+z21nQCAvJv/ldqbFA0AISI17UpqPAEAuTf/2tqPFAsAISS1rTa1ngCAkxt/YW30oax9uCkUAMLqqF3rClP7CQA0/9mXn6+9QmEAECFS886nBxAAotz8L9beoBgAiCCpfRfTCwgAUWz+SdpHFAEAESY1MImeQACIUvMvrn3B5AcAqxYWpzcQAKLQ/Etre5n0AHCc1MTS9AgCQJibf1VtH5MdAE4htbEqvYIAEMbm31BLZ5IDQK6kRjakZxAAwtT822kxJjcA5ElqZTt6BwEgDM2/DxMaAAqsDz2EAGBy82/NJAaAuLWmlxAATGz+VQ6xlS8AJEJqaBV6CgHApOZfQvuJyQsACZNaWoLeQgAwoflfov2XSQsAjpGaegk9hgAQ5OZ/jvYakxUAHCe19Rx6DQEgiM3/DO0lJikAuEZq7Bn0HAJA0ALAbCYnALhuNj2HABCk5t+bSQkAnulN7yEABKH5l9QymJAA4BmpuSXpQQQAP5v/mdo/mIwA4DmpvWfSiwgAfgWAgUxCAPDNQHoRAcCP5v937RATEAB8IzX47/QkAoCXzb+QtoXJBwC+k1pciN5EAPAqAHRj0gFAYHSjNxEAvGj+RbR9TDgACAypyUXoUQQAtwPAq0w2AAicV+lRBAA3m/8tTDIACKxb6FUEALcCwEImGAAE1kJ6FQHAjeZ/oXaQCQYAgSU1+kJ6FgGA9f4BIHrYJ4AA4Ph7/x8ysQAg8D5kXQACgJMBoDqTCgCMUZ3eRQBwKgAsZUIBgDGW0rsIAE40/0u0GBMKAIwhNfsSehgBINEA0ITJBADGaUIPIwAkGgBSmUgAYJxUehgBINEAsIuJBADG2UUPIwAkGgAOM5EAwDiH6WEEgESa//lMIgAw1vn0MgJAvAHgCiYQABjrCnoZASDeAFCaCQQAxipNL8vd/wfVhBacbo7ieQAAAABJRU5ErkJggg==;" vertex="1" parent="1">
          <mxGeometry x="-80" y="570" width="58.98" height="58.98" as="geometry" />
        </mxCell>
        <mxCell id="fjhbrqA5ZPaVyCeerL4o-43" value="" style="endArrow=classic;html=1;" edge="1" parent="1">
          <mxGeometry width="50" height="50" relative="1" as="geometry">
            <mxPoint x="-52" y="553" as="sourcePoint" />
            <mxPoint x="-51.010000000000005" y="465" as="targetPoint" />
          </mxGeometry>
        </mxCell>
        <mxCell id="fjhbrqA5ZPaVyCeerL4o-51" value="" style="shape=cylinder3;whiteSpace=wrap;html=1;boundedLbl=1;backgroundOutline=1;size=15;" vertex="1" parent="1">
          <mxGeometry x="750" y="366.21000000000004" width="70" height="92.77" as="geometry" />
        </mxCell>
        <mxCell id="fjhbrqA5ZPaVyCeerL4o-55" value="SAP" style="text;html=1;strokeColor=none;fillColor=none;align=center;verticalAlign=middle;whiteSpace=wrap;rounded=0;shadow=1;dashed=1;" vertex="1" parent="1">
          <mxGeometry x="755" y="340" width="40" height="20" as="geometry" />
        </mxCell>
        <mxCell id="fjhbrqA5ZPaVyCeerL4o-80" value="" style="edgeStyle=elbowEdgeStyle;rounded=0;elbow=vertical;html=1;labelBackgroundColor=#ffffff;startArrow=classic;startFill=1;startSize=6;endArrow=classic;endFill=1;endSize=6;jettySize=auto;orthogonalLoop=1;strokeWidth=1;fontSize=14;" edge="1" parent="1">
          <mxGeometry width="60" height="60" relative="1" as="geometry">
            <mxPoint x="631" y="334" as="sourcePoint" />
            <mxPoint x="170" y="340" as="targetPoint" />
            <Array as="points">
              <mxPoint x="111" y="245" />
            </Array>
          </mxGeometry>
        </mxCell>
        <mxCell id="fjhbrqA5ZPaVyCeerL4o-85" value="" style="edgeStyle=elbowEdgeStyle;rounded=0;elbow=vertical;html=1;labelBackgroundColor=#ffffff;startArrow=classic;startFill=1;startSize=6;endArrow=classic;endFill=1;endSize=6;jettySize=auto;orthogonalLoop=1;strokeWidth=1;fontSize=14;" edge="1" parent="1">
          <mxGeometry width="60" height="60" relative="1" as="geometry">
            <mxPoint x="776" y="309" as="sourcePoint" />
            <mxPoint x="220" y="315" as="targetPoint" />
            <Array as="points">
              <mxPoint x="256" y="220" />
            </Array>
          </mxGeometry>
        </mxCell>
        <mxCell id="fjhbrqA5ZPaVyCeerL4o-86" value="API" style="text;html=1;strokeColor=none;fillColor=none;align=center;verticalAlign=middle;whiteSpace=wrap;rounded=0;shadow=1;" vertex="1" parent="1">
          <mxGeometry x="420" y="220" width="40" height="20" as="geometry" />
        </mxCell>
        <mxCell id="fjhbrqA5ZPaVyCeerL4o-87" value="API" style="text;html=1;strokeColor=none;fillColor=none;align=center;verticalAlign=middle;whiteSpace=wrap;rounded=0;shadow=1;" vertex="1" parent="1">
          <mxGeometry x="500" y="190" width="40" height="20" as="geometry" />
        </mxCell>
        <mxCell id="fjhbrqA5ZPaVyCeerL4o-88" value="USER" style="text;html=1;strokeColor=none;fillColor=none;align=center;verticalAlign=middle;whiteSpace=wrap;rounded=0;shadow=1;" vertex="1" parent="1">
          <mxGeometry x="-70.51" y="650" width="40" height="20" as="geometry" />
        </mxCell>
      </root>
    </mxGraphModel>
  </diagram>
</mxfile>
